<?xml version="1.0" encoding="iso-8859-1"?>
<!-- Generator: Adobe Illustrator 19.0.0, SVG Export Plug-In . SVG Version: 6.00 Build 0)  -->
<svg xmlns="http://www.w3.org/2000/svg" xmlns:xlink="http://www.w3.org/1999/xlink" version="1.1" id="Layer_1" x="0px" y="0px" viewBox="0 0 512.001 512.001" style="enable-background:new 0 0 512.001 512.001;" xml:space="preserve">
<path style="fill:#EDE21B;" d="M506.665,338.709c-5.087-4.059-12.283-4.134-17.456-0.187  c-39.525,30.194-86.764,46.151-136.609,46.151c-9.432,0-18.73-0.582-27.861-1.713l-31.66-6.266  c-95.43-26.169-165.754-113.675-165.754-217.296c0-49.844,15.959-97.083,46.151-136.607c3.95-5.171,3.873-12.369-0.188-17.455  c-4.059-5.087-11.062-6.759-16.979-4.048C110.337,22.315,71.355,55.835,43.58,98.223C15.069,141.736,0.001,192.348,0.001,244.586  c0,147.452,119.962,267.414,267.414,267.414c52.24,0,102.85-15.069,146.364-43.58c42.389-27.775,75.908-66.756,96.936-112.73  C513.422,349.771,511.75,342.771,506.665,338.709z"/>
<path style="fill:#EAC71C;" d="M434.96,444.073c-43.513,28.511-94.125,43.58-146.364,43.58  c-147.452,0-267.415-119.962-267.415-267.414c0-52.239,15.068-102.85,43.581-146.364c3.755-5.731,7.72-11.294,11.877-16.693  C64.371,69.677,53.29,83.406,43.58,98.223C15.069,141.736,0.001,192.348,0.001,244.586c0,147.452,119.962,267.414,267.414,267.414  c52.24,0,102.85-15.069,146.364-43.58c25.327-16.596,47.484-37.195,65.707-60.892C466.072,421.19,451.167,433.452,434.96,444.073z"/>
<g>
</g>
<g>
</g>
<g>
</g>
<g>
</g>
<g>
</g>
<g>
</g>
<g>
</g>
<g>
</g>
<g>
</g>
<g>
</g>
<g>
</g>
<g>
</g>
<g>
</g>
<g>
</g>
<g>
</g>
</svg>
