<?xml version="1.0" encoding="iso-8859-1"?>
<!-- Generator: Adobe Illustrator 19.0.0, SVG Export Plug-In . SVG Version: 6.00 Build 0)  -->
<svg xmlns="http://www.w3.org/2000/svg" xmlns:xlink="http://www.w3.org/1999/xlink" version="1.1" id="Layer_1" x="0px" y="0px" viewBox="0 0 512 512" style="enable-background:new 0 0 512 512;" xml:space="preserve">
<g>
	<path style="fill:#EDE21B;" d="M202.012,98.179c-4.866,0-8.809-3.944-8.809-8.809V50.599c0-4.865,3.943-8.809,8.809-8.809   c4.865,0,8.809,3.944,8.809,8.809V89.37C210.821,94.235,206.877,98.179,202.012,98.179z"/>
	<path style="fill:#EDE21B;" d="M124.803,118.87c-3.045,0-6.006-1.58-7.637-4.406L97.781,80.886   c-2.433-4.213-0.989-9.601,3.224-12.034c4.213-2.43,9.601-0.987,12.033,3.225l19.385,33.578c2.432,4.213,0.989,9.601-3.225,12.034   C127.813,118.49,126.296,118.87,124.803,118.87z"/>
	<path style="fill:#EDE21B;" d="M68.261,175.395c-1.494,0-3.008-0.381-4.396-1.182L30.29,154.828   c-4.213-2.432-5.658-7.82-3.224-12.033c2.432-4.213,7.819-5.659,12.033-3.224l33.576,19.386c4.213,2.432,5.658,7.819,3.224,12.033   C74.267,173.816,71.307,175.395,68.261,175.395z"/>
	<path style="fill:#EDE21B;" d="M47.581,252.609H8.809C3.944,252.609,0,248.664,0,243.8s3.944-8.809,8.809-8.809h38.772   c4.865,0,8.809,3.944,8.809,8.809S52.446,252.609,47.581,252.609z"/>
	<path style="fill:#EDE21B;" d="M34.703,349.211c-3.046,0-6.006-1.579-7.636-4.406c-2.433-4.213-0.989-9.601,3.224-12.033   l33.575-19.385c4.213-2.435,9.601-0.988,12.033,3.224c2.433,4.213,0.989,9.601-3.224,12.033l-33.576,19.385   C37.711,348.83,36.196,349.211,34.703,349.211z"/>
	<path style="fill:#EDE21B;" d="M335.759,175.395c-3.046,0-6.006-1.58-7.637-4.406c-2.433-4.213-0.989-9.601,3.224-12.034   l33.578-19.385c4.213-2.43,9.601-0.987,12.033,3.225c2.434,4.213,0.989,9.601-3.224,12.034l-33.578,19.385   C338.767,175.015,337.252,175.395,335.759,175.395z"/>
	<path style="fill:#EDE21B;" d="M279.216,118.87c-1.494,0-3.008-0.381-4.396-1.18c-4.213-2.434-5.658-7.821-3.224-12.034   l19.385-33.578c2.431-4.213,7.819-5.655,12.033-3.225c4.213,2.433,5.656,7.82,3.224,12.034l-19.385,33.578   C285.221,117.291,282.261,118.87,279.216,118.87z"/>
</g>
<path style="fill:#EAC71C;" d="M297.287,337.824c0.48-0.494,0.961-0.987,1.435-1.49c0.302-0.316,0.597-0.639,0.895-0.959  c0.447-0.482,0.892-0.966,1.331-1.455c0.303-0.339,0.605-0.678,0.905-1.019c0.424-0.483,0.846-0.968,1.263-1.458  c0.301-0.351,0.598-0.703,0.895-1.057c0.41-0.489,0.814-0.982,1.216-1.477c0.293-0.361,0.582-0.719,0.871-1.081  c0.401-0.505,0.797-1.015,1.189-1.526c0.277-0.358,0.555-0.716,0.828-1.078c0.402-0.532,0.794-1.069,1.188-1.608  c0.254-0.348,0.511-0.695,0.762-1.045c0.42-0.585,0.829-1.178,1.238-1.771c0.215-0.311,0.433-0.618,0.644-0.929  c0.531-0.784,1.05-1.573,1.564-2.367c0.083-0.128,0.17-0.253,0.251-0.381c0.592-0.924,1.172-1.855,1.743-2.796  c0.174-0.288,0.341-0.58,0.514-0.871c0.39-0.655,0.78-1.31,1.158-1.972c0.213-0.372,0.416-0.747,0.625-1.119  c0.328-0.589,0.656-1.177,0.977-1.771c0.219-0.406,0.433-0.817,0.647-1.227c0.298-0.569,0.596-1.136,0.886-1.71  c0.215-0.425,0.426-0.853,0.636-1.281c0.28-0.566,0.555-1.133,0.826-1.706c0.207-0.436,0.411-0.874,0.613-1.314  c0.263-0.57,0.523-1.142,0.777-1.718c0.196-0.444,0.391-0.888,0.582-1.333c0.251-0.582,0.493-1.168,0.737-1.755  c0.182-0.442,0.366-0.883,0.542-1.329c0.242-0.603,0.476-1.212,0.708-1.82c0.165-0.434,0.333-0.862,0.493-1.299  c0.24-0.647,0.469-1.297,0.697-1.95c0.142-0.401,0.287-0.801,0.426-1.205c0.258-0.758,0.504-1.523,0.749-2.288  c0.097-0.301,0.199-0.601,0.293-0.902c0.334-1.069,0.654-2.139,0.959-3.22c0.07-0.246,0.133-0.496,0.203-0.742  c0.23-0.837,0.459-1.675,0.675-2.517c0.101-0.403,0.196-0.807,0.294-1.21c0.17-0.694,0.34-1.387,0.498-2.087  c0.103-0.451,0.198-0.906,0.295-1.358c0.143-0.656,0.284-1.313,0.415-1.973c0.096-0.475,0.185-0.951,0.274-1.427  c0.121-0.644,0.24-1.291,0.351-1.938c0.085-0.487,0.165-0.976,0.243-1.463c0.103-0.646,0.204-1.292,0.297-1.94  c0.073-0.492,0.142-0.984,0.208-1.479c0.086-0.653,0.167-1.308,0.246-1.962c0.058-0.492,0.117-0.982,0.168-1.476  c0.072-0.669,0.134-1.341,0.197-2.013c0.043-0.482,0.089-0.965,0.128-1.448c0.055-0.703,0.102-1.404,0.146-2.111  c0.029-0.457,0.063-0.913,0.087-1.371c0.041-0.78,0.069-1.561,0.098-2.344c0.014-0.388,0.033-0.773,0.044-1.163  c0.031-1.171,0.05-2.346,0.05-3.525c0-12.346-1.72-24.291-4.934-35.605c-7.887-27.776-24.774-51.763-47.309-68.615  c-21.699-16.228-48.636-25.838-77.816-25.838h-0.001l0,0c-29.18,0-56.117,9.61-77.817,25.838  c-22.535,16.853-39.419,40.84-47.308,68.615c-3.214,11.314-4.933,23.259-4.933,35.605c0,1.178,0.018,2.354,0.048,3.525  c0.01,0.39,0.031,0.775,0.044,1.163c0.028,0.783,0.056,1.565,0.098,2.344c0.024,0.458,0.057,0.914,0.087,1.371  c0.044,0.707,0.09,1.408,0.146,2.111c0.039,0.483,0.084,0.966,0.128,1.448c0.062,0.672,0.124,1.343,0.197,2.013  c0.053,0.493,0.11,0.983,0.167,1.475c0.077,0.655,0.159,1.309,0.247,1.962c0.068,0.494,0.137,0.987,0.207,1.479  c0.095,0.649,0.194,1.294,0.297,1.94c0.079,0.488,0.16,0.977,0.243,1.463c0.112,0.647,0.231,1.294,0.352,1.938  c0.09,0.476,0.178,0.952,0.274,1.427c0.131,0.661,0.272,1.317,0.414,1.973c0.099,0.451,0.194,0.906,0.297,1.358  c0.159,0.699,0.328,1.393,0.499,2.087c0.099,0.403,0.192,0.806,0.295,1.21c0.215,0.842,0.443,1.68,0.675,2.517  c0.069,0.247,0.131,0.497,0.2,0.742c0.307,1.079,0.625,2.151,0.959,3.22c0.095,0.301,0.196,0.601,0.294,0.902  c0.244,0.765,0.49,1.532,0.75,2.288c0.138,0.404,0.283,0.803,0.424,1.205c0.229,0.653,0.458,1.303,0.697,1.95  c0.161,0.437,0.329,0.865,0.494,1.299c0.232,0.609,0.467,1.217,0.707,1.82c0.177,0.446,0.361,0.888,0.544,1.329  c0.241,0.587,0.485,1.172,0.736,1.755c0.192,0.446,0.388,0.89,0.584,1.333c0.254,0.575,0.513,1.147,0.775,1.718  c0.203,0.439,0.406,0.878,0.613,1.314c0.271,0.573,0.548,1.14,0.827,1.706c0.21,0.427,0.421,0.856,0.636,1.281  c0.29,0.573,0.587,1.141,0.885,1.71c0.216,0.41,0.429,0.82,0.647,1.227c0.32,0.594,0.65,1.181,0.979,1.771  c0.207,0.372,0.413,0.747,0.624,1.119c0.378,0.662,0.766,1.317,1.158,1.972c0.172,0.291,0.34,0.582,0.515,0.871  c0.569,0.94,1.15,1.872,1.742,2.796c0.081,0.127,0.168,0.253,0.25,0.381c0.514,0.795,1.034,1.583,1.564,2.367  c0.211,0.312,0.431,0.619,0.645,0.929c0.409,0.592,0.819,1.186,1.238,1.771c0.251,0.35,0.508,0.697,0.762,1.045  c0.393,0.538,0.787,1.076,1.188,1.608c0.273,0.362,0.551,0.72,0.827,1.078c0.393,0.511,0.79,1.021,1.189,1.526  c0.288,0.362,0.579,0.72,0.871,1.081c0.402,0.494,0.807,0.988,1.217,1.477c0.297,0.355,0.594,0.706,0.895,1.057  c0.417,0.49,0.839,0.976,1.264,1.458c0.3,0.34,0.6,0.679,0.904,1.019c0.439,0.489,0.885,0.973,1.33,1.455  c0.298,0.32,0.595,0.643,0.895,0.959c0.473,0.503,0.954,0.995,1.435,1.49c0.284,0.29,0.565,0.581,0.85,0.869  c0.542,0.544,1.092,1.081,1.643,1.618c0.232,0.227,0.46,0.455,0.695,0.678c0.787,0.753,1.583,1.497,2.389,2.232  c0.002,0.001,0.004,0.003,0.007,0.005c0.824,0.749,1.656,1.487,2.5,2.214c0.022,0.018,0.041,0.035,0.063,0.055l0.02,0.015  c5.818,5.019,12.09,9.526,18.739,13.464l0.086,0.062c0.164,0.098,0.334,0.188,0.498,0.284c0.874,0.511,1.754,1.012,2.639,1.503  c0.236,0.13,0.468,0.264,0.704,0.393c1.11,0.605,2.228,1.195,3.357,1.767c0.263,0.134,0.531,0.263,0.797,0.395  c0.89,0.445,1.784,0.881,2.685,1.307c0.346,0.163,0.693,0.325,1.041,0.484c0.952,0.439,1.912,0.868,2.879,1.285  c0.215,0.094,0.429,0.192,0.646,0.282c1.172,0.498,2.354,0.979,3.543,1.444c0.297,0.116,0.598,0.228,0.896,0.341  c0.922,0.352,1.849,0.695,2.78,1.027c0.362,0.128,0.723,0.257,1.087,0.383c1.034,0.357,2.073,0.704,3.121,1.035  c0.189,0.061,0.377,0.124,0.568,0.184c1.227,0.384,2.463,0.747,3.705,1.095c0.329,0.091,0.66,0.177,0.989,0.268  c0.948,0.258,1.904,0.505,2.861,0.742c0.377,0.091,0.754,0.187,1.131,0.276c1.122,0.265,2.247,0.519,3.378,0.755  c0.151,0.031,0.301,0.067,0.451,0.097c1.275,0.263,2.559,0.502,3.848,0.726c0.356,0.064,0.712,0.119,1.07,0.178  c0.977,0.162,1.954,0.313,2.939,0.453c0.386,0.056,0.773,0.112,1.161,0.162c1.226,0.163,2.454,0.313,3.689,0.44  c0.088,0.011,0.174,0.023,0.262,0.03c1.318,0.135,2.644,0.246,3.974,0.339c0.381,0.026,0.761,0.05,1.143,0.072  c0.999,0.065,2.002,0.115,3.007,0.155c0.393,0.015,0.785,0.033,1.18,0.044c1.347,0.042,2.694,0.07,4.052,0.07l0,0h0.001  c1.357,0,2.707-0.028,4.053-0.07c0.393-0.011,0.786-0.029,1.178-0.044c1.006-0.041,2.008-0.09,3.008-0.155  c0.381-0.023,0.763-0.045,1.143-0.072c1.33-0.094,2.655-0.204,3.975-0.339c0.086-0.008,0.173-0.02,0.26-0.03  c1.234-0.128,2.463-0.277,3.689-0.439c0.388-0.051,0.774-0.107,1.162-0.162c0.983-0.14,1.963-0.292,2.94-0.453  c0.355-0.059,0.714-0.115,1.069-0.178c1.289-0.224,2.572-0.462,3.85-0.726c0.151-0.03,0.298-0.066,0.449-0.097  c1.133-0.238,2.258-0.49,3.378-0.755c0.379-0.089,0.754-0.185,1.131-0.276c0.959-0.237,1.912-0.483,2.863-0.742  c0.329-0.09,0.66-0.176,0.987-0.268c1.243-0.348,2.48-0.711,3.706-1.095c0.19-0.059,0.378-0.123,0.569-0.184  c1.045-0.333,2.087-0.678,3.119-1.035c0.362-0.126,0.726-0.254,1.087-0.383c0.932-0.333,1.859-0.674,2.78-1.027  c0.298-0.113,0.599-0.225,0.896-0.341c1.189-0.465,2.37-0.943,3.542-1.441c0.217-0.094,0.433-0.192,0.65-0.284  c0.965-0.418,1.923-0.847,2.875-1.285c0.348-0.16,0.696-0.322,1.043-0.484c0.9-0.426,1.796-0.861,2.685-1.307  c0.265-0.132,0.533-0.261,0.797-0.395c1.129-0.573,2.249-1.164,3.357-1.767c0.236-0.129,0.468-0.263,0.704-0.393  c0.885-0.491,1.766-0.992,2.641-1.503c0.164-0.096,0.334-0.186,0.497-0.284l0.086-0.062c6.65-3.937,12.921-8.445,18.74-13.464  l0.02-0.015c0.022-0.02,0.041-0.037,0.062-0.055c0.842-0.728,1.676-1.466,2.5-2.214c0.002-0.002,0.004-0.004,0.008-0.006  c0.804-0.734,1.601-1.479,2.388-2.232c0.233-0.224,0.461-0.451,0.694-0.678c0.553-0.535,1.103-1.074,1.645-1.618  C296.725,338.405,297.004,338.113,297.287,337.824z"/>
<path style="fill:#EDE21B;" d="M282.029,142.772c-21.699-16.228-48.636-25.838-77.816-25.838h-0.001l0,0  c-7.786,0-15.409,0.689-22.819,2.001c-28.578,26.103-46.506,63.67-46.506,105.424c0,71.979,53.275,131.504,122.541,141.323  c0.382-0.172,0.767-0.339,1.147-0.513c0.348-0.16,0.696-0.322,1.043-0.484c0.9-0.426,1.796-0.861,2.685-1.307  c0.265-0.132,0.533-0.261,0.797-0.395c1.129-0.573,2.249-1.164,3.357-1.767c0.236-0.129,0.468-0.263,0.704-0.393  c0.885-0.491,1.766-0.992,2.641-1.503c0.164-0.096,0.334-0.186,0.497-0.284l0.086-0.062c6.65-3.937,12.921-8.445,18.74-13.464  l0.02-0.015c0.022-0.02,0.041-0.037,0.062-0.055c0.842-0.728,1.676-1.466,2.5-2.214c0.002-0.002,0.004-0.004,0.008-0.006  c0.804-0.734,1.601-1.479,2.388-2.232c0.233-0.224,0.461-0.451,0.694-0.678c0.553-0.535,1.103-1.074,1.645-1.618  c0.286-0.287,0.566-0.579,0.85-0.869c0.48-0.494,0.961-0.987,1.435-1.49c0.302-0.316,0.597-0.639,0.895-0.959  c0.447-0.482,0.892-0.966,1.331-1.455c0.303-0.339,0.605-0.678,0.905-1.019c0.424-0.483,0.846-0.968,1.263-1.458  c0.301-0.351,0.598-0.703,0.895-1.057c0.41-0.489,0.814-0.982,1.216-1.477c0.293-0.361,0.582-0.719,0.871-1.081  c0.401-0.505,0.797-1.015,1.189-1.526c0.277-0.358,0.555-0.716,0.828-1.078c0.402-0.532,0.794-1.069,1.188-1.608  c0.254-0.348,0.511-0.695,0.762-1.045c0.42-0.585,0.829-1.178,1.238-1.771c0.215-0.311,0.433-0.618,0.644-0.929  c0.531-0.784,1.05-1.573,1.564-2.367c0.083-0.128,0.17-0.253,0.251-0.381c0.592-0.924,1.172-1.855,1.743-2.796  c0.174-0.288,0.341-0.58,0.514-0.871c0.39-0.655,0.78-1.31,1.158-1.972c0.213-0.372,0.416-0.747,0.625-1.119  c0.328-0.589,0.656-1.177,0.977-1.771c0.219-0.406,0.433-0.817,0.647-1.227c0.298-0.569,0.596-1.136,0.886-1.71  c0.215-0.425,0.426-0.853,0.636-1.281c0.28-0.566,0.555-1.133,0.826-1.706c0.207-0.436,0.411-0.874,0.613-1.314  c0.263-0.57,0.523-1.142,0.777-1.718c0.196-0.444,0.391-0.888,0.582-1.333c0.251-0.582,0.493-1.168,0.737-1.755  c0.182-0.442,0.366-0.883,0.542-1.329c0.242-0.603,0.476-1.212,0.708-1.82c0.165-0.434,0.333-0.862,0.493-1.299  c0.24-0.647,0.469-1.297,0.697-1.95c0.142-0.401,0.287-0.801,0.426-1.205c0.258-0.758,0.504-1.523,0.749-2.288  c0.097-0.301,0.199-0.601,0.293-0.902c0.334-1.069,0.654-2.139,0.959-3.22c0.07-0.246,0.133-0.496,0.203-0.742  c0.23-0.837,0.459-1.675,0.675-2.517c0.101-0.403,0.196-0.807,0.294-1.21c0.17-0.694,0.34-1.387,0.498-2.087  c0.103-0.451,0.198-0.906,0.295-1.358c0.143-0.656,0.284-1.313,0.415-1.973c0.096-0.475,0.185-0.951,0.274-1.427  c0.121-0.644,0.24-1.29,0.351-1.938c0.085-0.487,0.165-0.976,0.243-1.463c0.103-0.646,0.204-1.292,0.297-1.94  c0.073-0.492,0.142-0.984,0.208-1.479c0.086-0.653,0.167-1.308,0.246-1.962c0.058-0.492,0.117-0.982,0.168-1.475  c0.072-0.669,0.134-1.341,0.197-2.013c0.043-0.482,0.089-0.965,0.128-1.448c0.055-0.703,0.102-1.404,0.146-2.111  c0.029-0.457,0.063-0.913,0.087-1.371c0.041-0.78,0.069-1.561,0.098-2.344c0.014-0.388,0.033-0.773,0.044-1.163  c0.031-1.171,0.05-2.346,0.05-3.525c0-12.346-1.72-24.291-4.934-35.605C321.451,183.612,304.564,159.625,282.029,142.772z"/>
<path style="fill:#EF8229;" d="M302.378,243.615c-0.009-0.28-0.019-0.559-0.031-0.839c-0.096-2.239-0.263-4.456-0.505-6.655  c-0.031-0.271-0.062-0.543-0.094-0.814c-0.26-2.196-0.594-4.369-0.995-6.515c-0.048-0.262-0.099-0.525-0.151-0.784  c-0.42-2.146-0.91-4.266-1.467-6.359c-0.066-0.252-0.135-0.504-0.204-0.755c-0.575-2.09-1.215-4.151-1.923-6.181  c-0.084-0.242-0.167-0.482-0.253-0.721c-0.722-2.027-1.51-4.022-2.36-5.986c-0.099-0.23-0.2-0.458-0.301-0.689  c-0.864-1.954-1.792-3.877-2.778-5.764c-0.116-0.221-0.231-0.44-0.348-0.663c-1-1.876-2.058-3.715-3.172-5.518  c-0.133-0.213-0.265-0.428-0.4-0.641c-4.725-7.505-10.435-14.327-16.953-20.282l-0.012-0.013c-0.023-0.022-0.046-0.043-0.07-0.064  c-0.265-0.242-0.535-0.479-0.803-0.716c-0.299-0.268-0.599-0.538-0.903-0.803c-0.281-0.242-0.565-0.482-0.848-0.722  c-0.298-0.253-0.596-0.51-0.896-0.76c-0.29-0.24-0.582-0.475-0.874-0.711c-0.301-0.243-0.6-0.487-0.902-0.728  c-0.298-0.236-0.6-0.467-0.901-0.698c-0.303-0.236-0.607-0.47-0.914-0.701c-0.305-0.232-0.612-0.457-0.918-0.685  c-0.307-0.226-0.618-0.449-0.925-0.674c-0.312-0.224-0.625-0.444-0.94-0.665c-0.313-0.219-0.628-0.438-0.941-0.653  c-0.316-0.216-0.632-0.431-0.948-0.641c-0.322-0.214-0.644-0.426-0.968-0.636c-0.318-0.208-0.638-0.414-0.958-0.617  c-0.327-0.207-0.657-0.411-0.986-0.614c-0.323-0.2-0.645-0.398-0.97-0.594c-0.336-0.201-0.673-0.399-1.009-0.597  c-0.325-0.189-0.65-0.38-0.976-0.567c-0.342-0.195-0.69-0.386-1.036-0.578c-0.326-0.181-0.652-0.362-0.982-0.54  c-0.351-0.191-0.708-0.375-1.063-0.56c-0.325-0.171-0.652-0.344-0.979-0.511c-0.369-0.187-0.74-0.369-1.112-0.552  c-0.318-0.159-0.638-0.317-0.959-0.472c-0.398-0.19-0.801-0.374-1.2-0.56c-0.298-0.14-0.596-0.282-0.896-0.417  c-0.505-0.227-1.013-0.446-1.523-0.665c-0.202-0.088-0.4-0.178-0.602-0.263c-0.706-0.298-1.414-0.587-2.127-0.869  c-0.275-0.109-0.553-0.21-0.828-0.316c-0.451-0.175-0.9-0.349-1.353-0.516c-0.311-0.113-0.623-0.221-0.935-0.333  c-0.423-0.151-0.843-0.302-1.267-0.447c-0.33-0.111-0.662-0.218-0.992-0.327c-0.411-0.134-0.821-0.271-1.234-0.401  c-0.34-0.107-0.683-0.207-1.024-0.311c-0.409-0.123-0.817-0.248-1.228-0.364c-0.348-0.1-0.697-0.197-1.046-0.293  c-0.407-0.115-0.817-0.226-1.229-0.333c-0.352-0.092-0.707-0.182-1.061-0.27c-0.412-0.102-0.821-0.205-1.233-0.301  c-0.358-0.085-0.715-0.165-1.074-0.248c-0.416-0.091-0.83-0.183-1.248-0.271c-0.359-0.075-0.72-0.149-1.081-0.22  c-0.42-0.084-0.839-0.163-1.259-0.24c-0.362-0.069-0.723-0.135-1.087-0.198c-0.425-0.073-0.851-0.143-1.278-0.211  c-0.361-0.057-0.722-0.115-1.085-0.168c-0.434-0.064-0.87-0.123-1.306-0.183c-0.358-0.048-0.716-0.097-1.076-0.141  c-0.444-0.055-0.89-0.105-1.335-0.152c-0.357-0.04-0.711-0.08-1.069-0.116c-0.455-0.045-0.912-0.081-1.37-0.121  c-0.348-0.028-0.697-0.063-1.045-0.086c-0.482-0.037-0.965-0.066-1.447-0.094c-0.329-0.019-0.656-0.042-0.986-0.059  c-0.537-0.025-1.078-0.043-1.618-0.061c-0.276-0.009-0.553-0.023-0.83-0.029c-0.813-0.021-1.629-0.031-2.448-0.031  c-0.004,0-0.009,0-0.013,0h-0.001l0,0c-0.006,0-0.009,0-0.014,0c-0.818,0-1.634,0.011-2.448,0.031  c-0.277,0.007-0.553,0.021-0.83,0.029c-0.54,0.018-1.08,0.035-1.618,0.061c-0.329,0.018-0.656,0.041-0.986,0.059  c-0.482,0.028-0.966,0.056-1.447,0.094c-0.349,0.023-0.698,0.058-1.046,0.086c-0.457,0.04-0.914,0.076-1.37,0.121  c-0.357,0.035-0.711,0.076-1.069,0.116c-0.445,0.047-0.891,0.097-1.333,0.152c-0.36,0.044-0.718,0.092-1.076,0.141  c-0.436,0.059-0.872,0.119-1.306,0.183c-0.363,0.055-0.725,0.112-1.086,0.168c-0.426,0.069-0.852,0.139-1.277,0.211  c-0.363,0.063-0.725,0.129-1.086,0.198c-0.422,0.076-0.841,0.156-1.261,0.24c-0.36,0.072-0.72,0.145-1.08,0.22  c-0.416,0.088-0.834,0.179-1.248,0.271c-0.358,0.081-0.716,0.162-1.072,0.248c-0.413,0.097-0.825,0.199-1.234,0.301  c-0.355,0.088-0.71,0.177-1.063,0.27c-0.411,0.107-0.819,0.218-1.228,0.333c-0.349,0.096-0.7,0.193-1.047,0.293  c-0.411,0.117-0.818,0.241-1.226,0.364c-0.342,0.104-0.684,0.205-1.024,0.311c-0.414,0.13-0.825,0.266-1.235,0.401  c-0.331,0.109-0.663,0.216-0.992,0.327c-0.426,0.145-0.846,0.297-1.267,0.447c-0.311,0.111-0.624,0.219-0.935,0.333  c-0.454,0.166-0.903,0.34-1.353,0.516c-0.276,0.106-0.554,0.207-0.829,0.316c-0.711,0.282-1.422,0.57-2.126,0.869  c-0.204,0.085-0.401,0.175-0.603,0.263c-0.508,0.218-1.017,0.437-1.522,0.665c-0.3,0.135-0.598,0.277-0.897,0.417  c-0.4,0.186-0.802,0.37-1.2,0.56c-0.322,0.155-0.641,0.315-0.961,0.472c-0.37,0.183-0.741,0.364-1.108,0.552  c-0.329,0.166-0.656,0.341-0.983,0.512c-0.353,0.185-0.708,0.37-1.06,0.559c-0.329,0.177-0.655,0.359-0.981,0.54  c-0.346,0.193-0.693,0.384-1.036,0.578c-0.327,0.187-0.651,0.378-0.976,0.567c-0.337,0.198-0.674,0.395-1.009,0.597  c-0.326,0.196-0.649,0.393-0.971,0.594c-0.329,0.204-0.658,0.406-0.986,0.614c-0.32,0.203-0.64,0.409-0.959,0.617  c-0.323,0.21-0.645,0.423-0.968,0.636c-0.316,0.21-0.632,0.425-0.947,0.641c-0.315,0.214-0.629,0.434-0.943,0.653  c-0.314,0.22-0.627,0.44-0.938,0.665c-0.311,0.224-0.618,0.448-0.925,0.674c-0.308,0.227-0.617,0.454-0.923,0.686  c-0.304,0.23-0.607,0.464-0.91,0.697c-0.301,0.232-0.605,0.465-0.902,0.701c-0.303,0.241-0.603,0.484-0.902,0.728  c-0.293,0.238-0.585,0.472-0.873,0.711c-0.303,0.251-0.6,0.507-0.899,0.76c-0.283,0.24-0.568,0.481-0.848,0.722  c-0.305,0.263-0.605,0.534-0.903,0.803c-0.269,0.238-0.54,0.475-0.804,0.716c-0.022,0.021-0.046,0.042-0.069,0.064l-0.013,0.013  c-6.518,5.955-12.227,12.775-16.953,20.282c-0.134,0.213-0.268,0.428-0.4,0.641c-1.115,1.803-2.174,3.641-3.173,5.518  c-0.116,0.221-0.232,0.44-0.348,0.663c-0.987,1.887-1.913,3.81-2.777,5.764c-0.101,0.231-0.202,0.459-0.302,0.689  c-0.849,1.962-1.636,3.959-2.36,5.986c-0.086,0.24-0.17,0.48-0.253,0.721c-0.707,2.03-1.348,4.092-1.923,6.181  c-0.069,0.25-0.137,0.502-0.204,0.755c-0.558,2.092-1.048,4.212-1.468,6.359c-0.052,0.259-0.101,0.522-0.151,0.784  c-0.402,2.146-0.736,4.32-0.994,6.515c-0.033,0.271-0.064,0.543-0.094,0.814c-0.242,2.199-0.411,4.417-0.505,6.655  c-0.013,0.28-0.023,0.559-0.032,0.839c-0.039,1.121-0.065,2.246-0.065,3.377c0,3.391,0.172,6.74,0.508,10.043  c0.167,1.652,0.377,3.289,0.624,4.917c0.622,4.064,1.492,8.047,2.595,11.932c11.694,41.178,49.576,71.339,94.502,71.339l0,0h0.001  c44.925,0,82.808-30.162,94.501-71.339c1.103-3.885,1.974-7.868,2.595-11.932c0.248-1.626,0.456-3.265,0.623-4.917  c0.336-3.303,0.508-6.652,0.508-10.043C302.443,245.861,302.418,244.737,302.378,243.615z"/>
<path style="fill:#F29F26;" d="M302.347,242.777c-0.096-2.239-0.263-4.456-0.505-6.655c-0.031-0.271-0.062-0.543-0.094-0.814  c-0.26-2.196-0.594-4.369-0.995-6.515c-0.048-0.262-0.099-0.525-0.151-0.784c-0.42-2.146-0.91-4.266-1.467-6.359  c-0.066-0.252-0.135-0.504-0.204-0.755c-0.575-2.09-1.215-4.151-1.923-6.181c-0.084-0.242-0.167-0.482-0.253-0.721  c-0.722-2.027-1.51-4.022-2.36-5.986c-0.099-0.23-0.2-0.458-0.301-0.689c-0.864-1.954-1.792-3.877-2.778-5.764  c-0.116-0.221-0.231-0.44-0.348-0.663c-1-1.876-2.058-3.715-3.172-5.518c-0.133-0.213-0.265-0.428-0.4-0.641  c-4.725-7.505-10.435-14.327-16.953-20.282l-0.012-0.013c-0.023-0.022-0.046-0.043-0.07-0.064c-0.265-0.242-0.535-0.479-0.803-0.716  c-0.299-0.268-0.599-0.538-0.903-0.803c-0.281-0.242-0.565-0.482-0.848-0.722c-0.298-0.253-0.596-0.51-0.896-0.76  c-0.29-0.24-0.582-0.475-0.874-0.711c-0.301-0.243-0.6-0.487-0.902-0.728c-0.298-0.236-0.6-0.467-0.901-0.698  c-0.303-0.236-0.607-0.47-0.914-0.701c-0.305-0.232-0.612-0.457-0.918-0.685c-0.307-0.226-0.618-0.449-0.925-0.674  c-0.312-0.224-0.625-0.444-0.94-0.665c-0.313-0.219-0.628-0.438-0.941-0.653c-0.316-0.216-0.632-0.431-0.948-0.641  c-0.322-0.214-0.644-0.426-0.968-0.636c-0.318-0.208-0.638-0.414-0.958-0.617c-0.327-0.207-0.657-0.411-0.986-0.614  c-0.323-0.2-0.645-0.397-0.97-0.594c-0.336-0.202-0.673-0.399-1.009-0.597c-0.325-0.189-0.65-0.38-0.976-0.567  c-0.342-0.195-0.69-0.386-1.036-0.578c-0.326-0.181-0.652-0.362-0.982-0.54c-0.351-0.19-0.708-0.375-1.063-0.56  c-0.325-0.171-0.652-0.344-0.979-0.511c-0.369-0.187-0.74-0.369-1.112-0.552c-0.318-0.159-0.638-0.317-0.959-0.472  c-0.397-0.191-0.801-0.374-1.2-0.56c-0.298-0.14-0.596-0.282-0.896-0.417c-0.505-0.227-1.013-0.446-1.523-0.665  c-0.202-0.088-0.4-0.178-0.602-0.263c-0.706-0.298-1.414-0.587-2.127-0.869c-0.275-0.109-0.553-0.21-0.828-0.316  c-0.451-0.175-0.9-0.349-1.353-0.516c-0.311-0.113-0.623-0.221-0.935-0.333c-0.423-0.151-0.843-0.302-1.267-0.447  c-0.33-0.111-0.662-0.218-0.992-0.327c-0.411-0.134-0.821-0.271-1.234-0.401c-0.34-0.107-0.683-0.207-1.024-0.311  c-0.409-0.123-0.817-0.248-1.228-0.364c-0.348-0.1-0.697-0.197-1.046-0.293c-0.407-0.115-0.817-0.226-1.229-0.333  c-0.352-0.092-0.707-0.182-1.061-0.27c-0.412-0.102-0.821-0.205-1.233-0.301c-0.358-0.085-0.715-0.165-1.074-0.248  c-0.416-0.091-0.83-0.183-1.248-0.271c-0.359-0.075-0.72-0.149-1.081-0.22c-0.42-0.084-0.839-0.163-1.259-0.24  c-0.362-0.069-0.723-0.135-1.087-0.198c-0.425-0.073-0.851-0.143-1.278-0.211c-0.361-0.057-0.722-0.115-1.085-0.168  c-0.434-0.064-0.87-0.123-1.306-0.183c-0.358-0.048-0.716-0.097-1.076-0.141c-0.444-0.055-0.89-0.105-1.335-0.152  c-0.357-0.04-0.711-0.08-1.069-0.116c-0.455-0.045-0.912-0.081-1.37-0.121c-0.348-0.028-0.697-0.063-1.045-0.086  c-0.482-0.037-0.965-0.066-1.447-0.094c-0.329-0.019-0.656-0.042-0.986-0.059c-0.537-0.025-1.078-0.043-1.618-0.061  c-0.276-0.009-0.553-0.023-0.83-0.029c-0.813-0.021-1.629-0.031-2.448-0.031c-0.004,0-0.009,0-0.013,0h-0.001l0,0  c-0.006,0-0.009,0-0.014,0c-0.818,0-1.634,0.011-2.448,0.031c-0.277,0.007-0.553,0.021-0.83,0.029  c-0.54,0.018-1.08,0.035-1.618,0.061c-0.329,0.018-0.656,0.041-0.986,0.059c-0.482,0.028-0.966,0.056-1.447,0.094  c-0.349,0.023-0.698,0.058-1.046,0.086c-0.457,0.04-0.914,0.076-1.37,0.121c-0.357,0.035-0.711,0.076-1.069,0.116  c-0.445,0.047-0.891,0.097-1.333,0.152c-0.36,0.044-0.718,0.092-1.076,0.141c-0.436,0.059-0.872,0.119-1.306,0.183  c-0.363,0.055-0.725,0.112-1.086,0.168c-0.426,0.069-0.852,0.139-1.277,0.211c-0.363,0.063-0.725,0.129-1.086,0.198  c-0.422,0.076-0.841,0.156-1.261,0.24c-0.36,0.072-0.72,0.145-1.08,0.22c-0.416,0.088-0.834,0.179-1.248,0.271  c-0.358,0.081-0.716,0.162-1.072,0.248c-0.413,0.097-0.825,0.199-1.234,0.301c-0.355,0.088-0.71,0.177-1.063,0.27  c-0.411,0.107-0.819,0.218-1.228,0.333c-0.349,0.096-0.7,0.193-1.047,0.293c-0.411,0.117-0.818,0.241-1.226,0.364  c-0.342,0.104-0.684,0.205-1.024,0.311c-0.414,0.13-0.825,0.266-1.235,0.401c-0.331,0.109-0.663,0.216-0.992,0.327  c-0.426,0.145-0.846,0.297-1.267,0.447c-0.311,0.111-0.624,0.219-0.935,0.333c-0.454,0.166-0.903,0.34-1.353,0.516  c-0.276,0.106-0.554,0.207-0.829,0.316c-0.711,0.282-1.422,0.57-2.126,0.869c-0.204,0.085-0.401,0.175-0.603,0.263  c-0.508,0.218-1.017,0.437-1.522,0.665c-0.3,0.135-0.598,0.277-0.897,0.417c-0.4,0.186-0.802,0.37-1.2,0.56  c-0.322,0.155-0.641,0.315-0.961,0.472c-0.37,0.183-0.741,0.364-1.108,0.552c-0.329,0.166-0.656,0.341-0.983,0.512  c-0.353,0.185-0.708,0.37-1.06,0.559c-0.329,0.177-0.655,0.359-0.981,0.54c-0.346,0.193-0.693,0.384-1.036,0.578  c-0.327,0.187-0.651,0.378-0.976,0.567c-0.337,0.198-0.674,0.395-1.009,0.597c-0.326,0.196-0.649,0.393-0.971,0.594  c-0.329,0.204-0.658,0.406-0.986,0.614c-0.32,0.203-0.64,0.409-0.959,0.617c-0.323,0.21-0.645,0.423-0.968,0.636  c-0.316,0.21-0.632,0.425-0.947,0.641c-0.315,0.214-0.629,0.434-0.943,0.653c-0.314,0.22-0.627,0.44-0.938,0.665  c-0.07,0.052-0.14,0.101-0.208,0.153c-7.622,17.468-11.86,36.756-11.86,57.033c0,50.873,26.618,95.526,66.68,120.807  c0.881,0.023,1.76,0.056,2.646,0.056l0,0h0.001c44.925,0,82.808-30.162,94.501-71.339c1.103-3.885,1.974-7.868,2.595-11.932  c0.248-1.626,0.456-3.265,0.623-4.917c0.336-3.303,0.508-6.652,0.508-10.043c0-1.131-0.025-2.256-0.065-3.377  C302.37,243.335,302.359,243.056,302.347,242.777z"/>
<path style="fill:#83D4ED;" d="M457.948,263.52c-4.693,0-9.247,0.602-13.592,1.727c-7.781-11.235-20.756-18.597-35.457-18.597  c-4.777,0-9.364,0.79-13.658,2.222c-7.237-32.032-35.852-55.959-70.073-55.959c-39.686,0-71.858,32.172-71.858,71.86  c0,0.817,0.032,1.629,0.063,2.437c-5.052-1.583-10.424-2.437-15.998-2.437c-24.313,0-44.819,16.246-51.286,38.472  c10.941-6.747,23.83-10.641,37.63-10.641c39.686,0,71.86,32.172,71.86,71.858c0,0.819-0.034,1.63-0.063,2.439  c5.05-1.583,10.422-2.439,15.994-2.439c9.734,0,18.848,2.615,26.709,7.162h87.714h32.016c29.853,0,54.052-24.201,54.052-54.052  S487.8,263.52,457.948,263.52z"/>
<path style="fill:#D7EDF9;" d="M311.507,363.358c-5.573,0-10.945,0.856-15.994,2.439c0.028-0.808,0.063-1.62,0.063-2.439  c0-39.686-32.174-71.858-71.86-71.858c-34.221,0-62.834,23.925-70.073,55.957c-4.292-1.433-8.882-2.22-13.658-2.22  c-14.702,0-27.677,7.362-35.457,18.595c-4.344-1.123-8.897-1.724-13.595-1.724c-29.851,0-54.05,24.199-54.05,54.05  c0,29.851,24.2,54.052,54.05,54.052h220.574c29.507,0,53.427-23.922,53.427-53.427C364.934,387.278,341.014,363.358,311.507,363.358  z"/>
<path style="fill:#E4F2F9;" d="M311.507,363.358c-5.573,0-10.945,0.856-15.994,2.439c0.028-0.808,0.063-1.62,0.063-2.439  c0-39.686-32.174-71.858-71.86-71.858c-34.221,0-62.834,23.925-70.073,55.957c-4.292-1.433-8.882-2.22-13.658-2.22  c-4.259,0-8.367,0.635-12.252,1.786c22.822,60.327,73.887,106.772,137.069,123.186h46.706c29.507,0,53.427-23.922,53.427-53.427  C364.934,387.278,341.014,363.358,311.507,363.358z"/>
<path style="fill:#9FDEF7;" d="M457.948,263.52c-4.693,0-9.247,0.602-13.592,1.727c-7.781-11.235-20.756-18.597-35.457-18.597  c-4.777,0-9.364,0.79-13.658,2.222c-7.237-32.032-35.852-55.959-70.073-55.959c-17.56,0-33.643,6.307-46.123,16.769  c0,0.025-0.002,0.051-0.002,0.076c0,77.445,52.516,142.614,123.877,161.865h23.011h32.016c29.853,0,54.052-24.201,54.052-54.052  S487.8,263.52,457.948,263.52z"/>
<g>
</g>
<g>
</g>
<g>
</g>
<g>
</g>
<g>
</g>
<g>
</g>
<g>
</g>
<g>
</g>
<g>
</g>
<g>
</g>
<g>
</g>
<g>
</g>
<g>
</g>
<g>
</g>
<g>
</g>
</svg>
