<?xml version="1.0" encoding="iso-8859-1"?>
<!-- Generator: Adobe Illustrator 19.0.0, SVG Export Plug-In . SVG Version: 6.00 Build 0)  -->
<svg xmlns="http://www.w3.org/2000/svg" xmlns:xlink="http://www.w3.org/1999/xlink" version="1.1" id="Layer_1" x="0px" y="0px" viewBox="0 0 512 512" style="enable-background:new 0 0 512 512;" xml:space="preserve">
<path style="fill:#F29F26;" d="M201.791,184.124c-1.68-1.34-4.056-1.366-5.763-0.062c-13.047,9.966-28.642,15.236-45.099,15.236  c-41.008,0-74.371-33.364-74.371-74.372c0-16.456,5.268-32.05,15.236-45.099c1.303-1.707,1.278-4.084-0.063-5.762  c-1.339-1.68-3.651-2.233-5.605-1.336C70.95,79.672,58.08,90.735,48.911,104.731c-9.413,14.366-14.388,31.073-14.388,48.32  c0,48.68,39.603,88.282,88.283,88.282c17.246,0,33.955-4.975,48.32-14.387c13.993-9.17,25.06-22.039,32.002-37.215  C204.021,187.775,203.47,185.464,201.791,184.124z"/>
<path style="fill:#EF8229;" d="M187.753,212.487c-14.366,9.412-31.073,14.387-48.32,14.387c-48.68,0-88.283-39.602-88.283-88.282  c0-17.246,4.975-33.955,14.388-48.32c2.45-3.739,5.17-7.261,8.122-10.558C63.869,86.28,55.445,94.755,48.91,104.73  c-9.413,14.366-14.388,31.073-14.388,48.32c0,48.68,39.603,88.282,88.283,88.282c17.246,0,33.955-4.975,48.32-14.387  c6.493-4.255,12.345-9.316,17.459-15.024C188.306,212.108,188.033,212.303,187.753,212.487z"/>
<g>
	<path style="fill:#F29F26;" d="M297.142,147.996c-14.109,0-25.587-11.478-25.587-25.587c0-1.497-1.213-2.711-2.711-2.711   s-2.711,1.213-2.711,2.711c0,14.109-11.478,25.587-25.587,25.587c-1.496,0-2.711,1.213-2.711,2.711s1.214,2.711,2.711,2.711   c14.109,0,25.587,11.478,25.587,25.587c0,1.497,1.213,2.711,2.711,2.711s2.711-1.213,2.711-2.711   c0-14.109,11.478-25.587,25.587-25.587c1.497,0,2.711-1.213,2.711-2.711S298.639,147.996,297.142,147.996z"/>
	<path style="fill:#F29F26;" d="M203.349,111.503c-14.109,0-25.587-11.478-25.587-25.587c0-1.497-1.214-2.711-2.711-2.711   c-1.496,0-2.711,1.213-2.711,2.711c0,14.109-11.478,25.587-25.587,25.587c-1.496,0-2.711,1.213-2.711,2.711   s1.214,2.711,2.711,2.711c14.109,0,25.587,11.478,25.587,25.587c0,1.497,1.214,2.711,2.711,2.711c1.496,0,2.711-1.213,2.711-2.711   c0-14.109,11.478-25.587,25.587-25.587c1.496,0,2.711-1.213,2.711-2.711C206.06,112.716,204.846,111.503,203.349,111.503z"/>
	<path style="fill:#F29F26;" d="M245.48,83.61c0,1.497,1.214,2.711,2.711,2.711c1.497,0,2.711-1.213,2.711-2.711   c0-14.109,11.478-25.587,25.587-25.587c1.497,0,2.711-1.213,2.711-2.711s-1.213-2.711-2.711-2.711   c-14.109,0-25.587-11.478-25.587-25.587c0-1.498-1.213-2.711-2.711-2.711c-1.496,0-2.711,1.213-2.711,2.711   c0,14.109-11.478,25.587-25.585,25.587c-1.496,0-2.711,1.213-2.711,2.711s1.214,2.711,2.711,2.711   C234.003,58.025,245.48,69.503,245.48,83.61z"/>
</g>
<g>
	<path style="fill:#EF8229;" d="M253.892,144.231c-3.889,2.387-8.458,3.766-13.345,3.766c-1.496,0-2.711,1.213-2.711,2.711   s1.214,2.711,2.711,2.711c14.109,0,25.587,11.478,25.587,25.587c0,1.497,1.213,2.711,2.711,2.711s2.711-1.213,2.711-2.711   c0-5.213,1.569-10.062,4.257-14.111C273.788,154.067,264.926,145.626,253.892,144.231z"/>
	<path style="fill:#EF8229;" d="M253.892,157.184c-3.889-2.387-8.458-3.766-13.345-3.766c-1.496,0-2.711-1.213-2.711-2.711   s1.214-2.711,2.711-2.711c14.109,0,25.587-11.478,25.587-25.587c0-1.497,1.213-2.711,2.711-2.711s2.711,1.213,2.711,2.711   c0,5.213,1.569,10.062,4.257,14.111C273.788,147.348,264.926,155.789,253.892,157.184z"/>
	<path style="fill:#EF8229;" d="M160.1,107.737c-3.887,2.387-8.458,3.766-13.345,3.766c-1.496,0-2.711,1.213-2.711,2.711   s1.214,2.711,2.711,2.711c14.109,0,25.587,11.478,25.587,25.587c0,1.497,1.214,2.711,2.711,2.711c1.496,0,2.711-1.213,2.711-2.711   c0-5.213,1.57-10.062,4.257-14.111C179.995,117.574,171.133,109.132,160.1,107.737z"/>
	<path style="fill:#EF8229;" d="M160.1,120.691c-3.887-2.387-8.458-3.766-13.345-3.766c-1.496,0-2.711-1.213-2.711-2.711   s1.214-2.711,2.711-2.711c14.109,0,25.587-11.478,25.587-25.587c0-1.497,1.214-2.711,2.711-2.711c1.496,0,2.711,1.213,2.711,2.711   c0,5.213,1.57,10.062,4.257,14.111C179.995,110.854,171.133,119.296,160.1,120.691z"/>
	<path style="fill:#EF8229;" d="M233.239,48.837c-3.889,2.387-8.458,3.766-13.345,3.766c-1.496,0-2.711,1.213-2.711,2.711   s1.214,2.711,2.711,2.711c14.108,0,25.585,11.478,25.585,25.587c0,1.497,1.214,2.711,2.711,2.711c1.497,0,2.711-1.213,2.711-2.711   c0-5.213,1.57-10.062,4.257-14.111C253.134,58.673,244.273,50.231,233.239,48.837z"/>
	<path style="fill:#EF8229;" d="M233.239,61.79c-3.889-2.387-8.458-3.766-13.345-3.766c-1.496,0-2.711-1.213-2.711-2.711   s1.214-2.711,2.711-2.711c14.108,0,25.585-11.478,25.585-25.587c0-1.498,1.214-2.711,2.711-2.711c1.497,0,2.711,1.213,2.711,2.711   c0,5.213,1.57,10.062,4.257,14.111C253.134,51.953,244.273,60.395,233.239,61.79z"/>
</g>
<path style="fill:#9FDEF7;" d="M416.034,363.841H306.71c-21.125,0-38.251-17.127-38.251-38.251  c0-21.123,17.125-38.249,38.251-38.249c3.322,0,6.544,0.426,9.619,1.22c4.037-5.826,10.053-10.172,17.076-12.081  c-11.595-29.907-40.623-51.12-74.623-51.12c-38.112,0-69.98,26.649-78.042,62.324c-4.781-1.595-9.893-2.471-15.211-2.471  c-16.374,0-30.825,8.199-39.491,20.709c-4.837-1.249-9.911-1.922-15.139-1.922c-33.249,0-60.199,26.951-60.199,60.197  c0,9.646,2.281,18.758,6.316,26.84c7.07-21.876,27.593-37.703,51.823-37.703c25.937,0,47.623,18.134,53.109,42.41  c3.255-1.084,6.733-1.682,10.355-1.682c11.14,0,20.976,5.58,26.874,14.092c3.291-0.849,6.744-1.307,10.301-1.307  c13.915,0,26.2,6.942,33.604,17.547h66.67h31.446h15.361c32.862,0,59.502-26.638,59.502-59.5  C416.061,364.543,416.041,364.193,416.034,363.841z"/>
<path style="fill:#E4F2F9;" d="M472.163,285.247c-4.157,0-8.163,0.639-11.93,1.818c0.023-0.603,0.047-1.207,0.047-1.818  c0-29.592-23.99-53.585-53.584-53.585c-25.519,0-46.856,17.842-52.252,41.727c-3.202-1.067-6.623-1.654-10.185-1.654  c-10.962,0-20.639,5.49-26.441,13.866c-3.24-0.837-6.634-1.285-10.137-1.285c-22.261,0-40.306,18.045-40.306,40.303  s18.045,40.306,40.306,40.306h164.482c22,0,39.837-17.836,39.837-39.837C512,303.085,494.162,285.247,472.163,285.247z"/>
<path style="fill:#83D4ED;" d="M175.064,286.171c-3.082-0.625-6.27-0.959-9.536-0.959c-16.374,0-30.825,8.199-39.491,20.709  c-4.837-1.249-9.911-1.921-15.139-1.921c-33.249,0-60.199,26.951-60.199,60.197c0,9.646,2.281,18.758,6.316,26.84  c7.07-21.876,27.593-37.703,51.823-37.703c25.937,0,47.623,18.134,53.109,42.41c3.255-1.084,6.733-1.682,10.355-1.682  c11.14,0,20.976,5.58,26.874,14.092c3.291-0.849,6.744-1.307,10.301-1.307c13.915,0,26.2,6.942,33.604,17.547h45.223  C225.828,407.93,179.047,352.819,175.064,286.171z"/>
<path style="fill:#D7EDF9;" d="M351.359,272.55c-2.285-0.518-4.657-0.813-7.102-0.813c-10.962,0-20.639,5.49-26.441,13.866  c-3.24-0.837-6.634-1.285-10.137-1.285c-22.261,0-40.306,18.045-40.306,40.303c0,22.259,18.045,40.306,40.306,40.306h102.433  C375.48,348.559,351.49,313.365,351.359,272.55z"/>
<path style="fill:#E4F2F9;" d="M210.085,404.812c-3.599,0-7.092,0.463-10.421,1.322c-5.967-8.611-15.917-14.256-27.186-14.256  c-3.664,0-7.182,0.604-10.475,1.701c-5.549-24.56-27.487-42.904-53.726-42.904c-30.429,0-55.096,24.667-55.096,55.095  c0,0.628,0.026,1.249,0.048,1.871c-3.872-1.212-7.992-1.871-12.265-1.871C18.34,405.77,0,424.11,0,446.735  c0,22.623,18.34,40.961,40.963,40.961h108.317h29.617h31.188c22.889,0,41.442-18.554,41.442-41.441  C251.527,423.366,232.974,404.812,210.085,404.812z"/>
<path style="fill:#D7EDF9;" d="M67.987,368.206c-9.181,9.843-14.807,23.043-14.807,37.563c0,0.628,0.026,1.249,0.048,1.871  c-3.872-1.212-7.992-1.871-12.265-1.871C18.34,405.77,0,424.11,0,446.735c0,22.623,18.34,40.961,40.963,40.961h108.317h3.664  C103.839,469.998,68.617,423.261,67.987,368.206z"/>
<g>
</g>
<g>
</g>
<g>
</g>
<g>
</g>
<g>
</g>
<g>
</g>
<g>
</g>
<g>
</g>
<g>
</g>
<g>
</g>
<g>
</g>
<g>
</g>
<g>
</g>
<g>
</g>
<g>
</g>
</svg>
