<?xml version="1.0" encoding="iso-8859-1"?>
<!-- Generator: Adobe Illustrator 19.0.0, SVG Export Plug-In . SVG Version: 6.00 Build 0)  -->
<svg xmlns="http://www.w3.org/2000/svg" xmlns:xlink="http://www.w3.org/1999/xlink" version="1.1" id="Layer_1" x="0px" y="0px" viewBox="0 0 512.003 512.003" style="enable-background:new 0 0 512.003 512.003;" xml:space="preserve">
<path style="fill:#9FDEF7;" d="M452.604,95.779c-5.186,0-10.182,0.796-14.878,2.269c0.027-0.752,0.059-1.507,0.059-2.269  c0-13.539-4.039-26.128-10.961-36.655c-0.055-0.087-0.099-0.172-0.156-0.26c-0.291-0.445-0.595-0.867-0.894-1.299  c-0.126-0.182-0.248-0.369-0.38-0.551c-1.281-1.812-2.624-3.52-4.028-5.108c-1.47-1.688-3.025-3.303-4.656-4.835l-0.403-0.235  c-7.88-7.062-16.667-11.387-23.985-14.006l-1.499-0.875c-2.898-0.901-5.885-1.6-8.938-2.103c-3.329-0.706-5.366-0.899-5.366-0.899  l-0.113,0.223c-1.797-0.145-3.614-0.223-5.448-0.223c-31.825,0-58.435,22.251-65.165,52.038c-3.994-1.33-8.26-2.062-12.702-2.062  c-13.672,0-25.739,6.848-32.976,17.293c-4.04-1.044-8.274-1.602-12.641-1.602c-18.848,0-35.263,10.379-43.867,25.727  c44.941,1.285,82.288,32.728,92.585,74.802h6.605c4.03-0.874,8.209-1.347,12.5-1.347c4.278,0,8.439,0.481,12.459,1.347h67.283  h57.564c27.437,0,49.683-22.243,49.683-49.682C502.287,118.024,480.041,95.779,452.604,95.779z"/>
<path style="fill:#83D4ED;" d="M302.646,84.51c0-1.476,0.025-2.946,0.065-4.412c-3.081-0.761-6.302-1.17-9.619-1.17  c-13.672,0-25.739,6.848-32.976,17.293c-4.04-1.044-8.274-1.602-12.641-1.602c-18.848,0-35.263,10.379-43.867,25.727  c44.941,1.285,82.288,32.728,92.585,74.802h6.605c4.03-0.874,8.209-1.347,12.5-1.347c4.278,0,8.439,0.481,12.459,1.347h21.442  C320.478,167.049,302.646,127.865,302.646,84.51z"/>
<path style="fill:#D7EDF9;" d="M438.553,339.085c11.735-13.088,18.871-30.382,18.871-49.341c0-5.105-1.01-10.012-1.504-14.901  c-1.504-14.901-12.085-27.826-12.085-27.826c-13.397-18.887-35.437-31.213-60.357-31.213c-6.423,0-12.651,0.823-18.596,2.357  c-10.645-15.363-28.398-25.438-48.506-25.438c-6.535,0-12.811,1.078-18.687,3.034c-9.9-43.818-49.045-76.551-95.861-76.551  c-54.292,0-98.306,44.016-98.306,98.304c0,1.122,0.046,2.23,0.087,3.338c-6.911-2.167-14.26-3.338-21.888-3.338  c-40.36-0.001-73.085,32.724-73.085,73.094c0,25.227,12.783,47.47,32.225,60.604c0,0,22.396,1.49,44.357-17.409  s49.008-6.435,68.228,8.204s51.516,11.914,72.79-7.954s55.432-8.201,65.34,5.037c9.909,13.238,46.768,21.574,70.438-0.226  C385.686,317.06,424.968,327.259,438.553,339.085z"/>
<path style="fill:#E4F2F9;" d="M443.836,247.017c-13.397-18.887-35.437-31.213-60.357-31.213c-6.423,0-12.651,0.823-18.596,2.357  c-10.645-15.363-28.398-25.438-48.506-25.438c-6.535,0-12.811,1.078-18.687,3.034c-9.9-43.818-49.045-76.551-95.861-76.551  c-9.405,0-18.501,1.323-27.113,3.789c-3.109,15.049-4.746,30.637-4.746,46.608c0,61.678,24.366,117.659,63.988,158.86  c21.025-11.583,48.839-1.105,57.618,10.624c9.909,13.238,46.768,21.574,70.438-0.226s62.952-11.6,76.537,0.226  c11.735-13.088,18.871-30.382,18.871-49.341c0-5.105-1.01-10.012-1.504-14.901C454.419,259.943,443.836,247.017,443.836,247.017z"/>
<g>
	<path style="fill:#5ABCE2;" d="M43.977,362.145c15.647,0,30.366-6.1,41.442-17.179c0.004-0.004,0.006-0.008,0.011-0.011   c7.814-7.81,18.192-12.112,29.223-12.112c11.026,0,21.401,4.298,29.213,12.104c0.006,0.006,0.011,0.013,0.017,0.019   c11.078,11.078,25.796,17.178,41.444,17.178s30.367-6.1,41.444-17.179c0.004-0.004,0.009-0.011,0.014-0.015   c7.813-7.807,18.189-12.107,29.217-12.107c11.027,0,21.401,4.297,29.214,12.104c0.006,0.006,0.012,0.013,0.018,0.019   c11.426,11.425,26.434,17.139,41.443,17.139s30.018-5.714,41.444-17.139c0.006-0.007,0.011-0.013,0.017-0.019   c7.813-7.805,18.187-12.104,29.214-12.104c11.025,0,21.397,4.297,29.209,12.101c0.009,0.007,0.014,0.015,0.022,0.023   c11.427,11.427,26.433,17.139,41.444,17.139c15.007,0,30.02-5.715,41.446-17.139c3.372-3.372,3.372-8.84,0-12.213   c-3.373-3.373-8.84-3.372-12.213-0.001c-16.116,16.116-42.334,16.118-58.452,0.01c-0.004-0.003-0.006-0.007-0.011-0.011   c-11.078-11.08-25.795-17.18-41.443-17.18s-30.367,6.1-41.444,17.18c-0.002,0.002-0.004,0.005-0.007,0.008   c-16.114,16.109-42.329,16.111-58.446,0.003c-0.003-0.003-0.007-0.007-0.011-0.011c-11.078-11.08-25.795-17.18-41.444-17.18   s-30.368,6.1-41.446,17.18c-0.004,0.004-0.009,0.011-0.014,0.015c-7.813,7.806-18.188,12.106-29.216,12.106   c-11.032,0-21.41-4.302-29.225-12.114c-0.002-0.002-0.003-0.005-0.006-0.008c-11.078-11.08-25.796-17.18-41.444-17.18   c-15.649,0-30.367,6.1-41.447,17.179c-0.008,0.008-0.013,0.016-0.021,0.023c-7.812,7.804-18.184,12.1-29.209,12.1   c-11.034,0-21.416-4.304-29.232-12.12c-3.373-3.371-8.841-3.372-12.213,0.001c-3.372,3.372-3.372,8.841,0,12.213   C13.61,356.043,28.328,362.145,43.977,362.145z"/>
	<path style="fill:#5ABCE2;" d="M497.26,393.206c-16.116,16.114-42.334,16.118-58.452,0.01c-0.004-0.003-0.007-0.007-0.011-0.011   c-11.078-11.08-25.795-17.18-41.443-17.18s-30.367,6.1-41.444,17.18c-0.002,0.002-0.004,0.005-0.007,0.008   c-16.114,16.109-42.329,16.109-58.446,0.003c-0.003-0.003-0.006-0.007-0.011-0.011c-11.078-11.08-25.795-17.18-41.444-17.18   c-15.649,0-30.368,6.1-41.445,17.18c-0.004,0.004-0.009,0.011-0.014,0.015c-7.813,7.807-18.188,12.106-29.216,12.106   c-11.032,0-21.41-4.302-29.225-12.114c-0.002-0.002-0.003-0.005-0.006-0.008c-11.078-11.08-25.796-17.18-41.444-17.18   c-15.649,0-30.367,6.1-41.447,17.179c-0.008,0.008-0.013,0.016-0.021,0.023c-7.812,7.802-18.184,12.1-29.209,12.1   c-11.034,0-21.416-4.304-29.232-12.12c-3.373-3.371-8.841-3.372-12.213,0.001c-3.372,3.372-3.372,8.84,0,12.213   c11.078,11.078,25.796,17.178,41.444,17.178c15.647,0,30.366-6.1,41.442-17.179c0.004-0.004,0.006-0.008,0.011-0.011   c7.814-7.811,18.192-12.112,29.223-12.112c11.026,0,21.401,4.297,29.213,12.104c0.006,0.007,0.011,0.013,0.017,0.019   c11.078,11.078,25.796,17.178,41.444,17.178s30.367-6.1,41.444-17.179c0.004-0.004,0.009-0.011,0.014-0.015   c7.813-7.807,18.189-12.107,29.217-12.107c11.027,0,21.401,4.297,29.214,12.104c0.006,0.005,0.012,0.013,0.018,0.019   c11.426,11.425,26.434,17.139,41.443,17.139s30.018-5.714,41.444-17.139c0.006-0.007,0.011-0.013,0.017-0.019   c7.813-7.806,18.187-12.104,29.214-12.104c11.025,0,21.397,4.297,29.209,12.101c0.009,0.007,0.014,0.015,0.022,0.023   c11.427,11.427,26.433,17.139,41.444,17.139c15.007,0,30.02-5.715,41.446-17.139c3.372-3.372,3.372-8.841,0-12.213   C506.1,389.833,500.633,389.834,497.26,393.206z"/>
	<path style="fill:#5ABCE2;" d="M497.26,453.659c-16.116,16.114-42.334,16.118-58.452,0.01c-0.004-0.003-0.007-0.006-0.011-0.011   c-11.078-11.08-25.795-17.18-41.443-17.18s-30.367,6.1-41.444,17.18c-0.002,0.002-0.004,0.005-0.007,0.008   c-16.114,16.109-42.329,16.109-58.446,0.003c-0.003-0.003-0.006-0.006-0.011-0.011c-11.078-11.08-25.795-17.18-41.444-17.18   c-15.649,0-30.368,6.1-41.445,17.18c-0.004,0.004-0.009,0.011-0.014,0.015c-7.813,7.806-18.188,12.106-29.216,12.106   c-11.032,0-21.41-4.302-29.225-12.114c-0.002-0.002-0.003-0.005-0.006-0.008c-11.078-11.08-25.796-17.18-41.444-17.18   c-15.649,0-30.367,6.1-41.447,17.179c-0.008,0.008-0.013,0.016-0.021,0.023c-7.812,7.802-18.184,12.1-29.209,12.1   c-11.034,0-21.416-4.304-29.232-12.119c-3.373-3.371-8.841-3.372-12.213,0.001c-3.372,3.372-3.372,8.84,0,12.212   c11.078,11.078,25.796,17.178,41.444,17.178c15.647,0,30.366-6.1,41.442-17.179c0.004-0.004,0.006-0.008,0.011-0.011   c7.814-7.811,18.192-12.112,29.223-12.112c11.026,0,21.401,4.297,29.213,12.104c0.006,0.007,0.011,0.013,0.017,0.019   c11.078,11.078,25.796,17.178,41.444,17.178s30.367-6.1,41.444-17.179c0.004-0.004,0.009-0.011,0.014-0.015   c7.813-7.807,18.189-12.107,29.217-12.107c11.027,0,21.401,4.297,29.214,12.104c0.006,0.005,0.012,0.013,0.018,0.019   c11.426,11.425,26.434,17.139,41.443,17.139s30.018-5.714,41.444-17.139c0.006-0.007,0.011-0.013,0.017-0.019   c7.813-7.806,18.187-12.104,29.214-12.104c11.025,0,21.397,4.297,29.209,12.101c0.009,0.007,0.014,0.015,0.022,0.023   c11.427,11.427,26.433,17.139,41.444,17.139c15.007,0,30.02-5.715,41.446-17.139c3.372-3.372,3.372-8.84,0-12.212   C506.1,450.287,500.633,450.286,497.26,453.659z"/>
</g>
<g>
</g>
<g>
</g>
<g>
</g>
<g>
</g>
<g>
</g>
<g>
</g>
<g>
</g>
<g>
</g>
<g>
</g>
<g>
</g>
<g>
</g>
<g>
</g>
<g>
</g>
<g>
</g>
<g>
</g>
</svg>
