<?xml version="1.0" encoding="iso-8859-1"?>
<!-- Generator: Adobe Illustrator 19.0.0, SVG Export Plug-In . SVG Version: 6.00 Build 0)  -->
<svg xmlns="http://www.w3.org/2000/svg" xmlns:xlink="http://www.w3.org/1999/xlink" version="1.1" id="Layer_1" x="0px" y="0px" viewBox="0 0 512.001 512.001" style="enable-background:new 0 0 512.001 512.001;" xml:space="preserve">
<g>
	<path style="fill:#F29F26;" d="M147.541,368.554l-34.023,3.512l13.439-55.364c0.22-0.91-0.038-1.869-0.688-2.543   c-0.649-0.674-1.597-0.969-2.515-0.785l-43.491,8.797c-1.08,0.218-1.925,1.063-2.142,2.143l-17.594,87.474   c-0.173,0.862,0.078,1.755,0.674,2.399c0.597,0.646,1.469,0.969,2.341,0.857l36.517-4.452l-11.395,78.175   c-0.196,1.339,0.616,2.619,1.911,3.013c0.264,0.08,0.533,0.118,0.798,0.118c1.029,0,2.004-0.585,2.469-1.555l56.449-117.886   c0.428-0.893,0.34-1.948-0.231-2.759C149.488,368.891,148.524,368.447,147.541,368.554z"/>
	<path style="fill:#F29F26;" d="M279.988,368.554l-34.022,3.512l13.437-55.364c0.221-0.91-0.037-1.869-0.686-2.543   c-0.649-0.674-1.597-0.969-2.515-0.785l-43.491,8.797c-1.08,0.218-1.925,1.063-2.142,2.143l-17.594,87.474   c-0.173,0.862,0.078,1.755,0.674,2.399c0.597,0.646,1.469,0.969,2.341,0.857l36.517-4.452l-11.395,78.175   c-0.196,1.339,0.616,2.619,1.911,3.013c0.264,0.08,0.533,0.118,0.798,0.118c1.029,0,2.004-0.585,2.469-1.555l56.45-117.886   c0.428-0.893,0.341-1.949-0.231-2.759C281.937,368.891,280.972,368.447,279.988,368.554z"/>
	<path style="fill:#F29F26;" d="M414.957,307.897c-0.572-0.809-1.534-1.256-2.519-1.146l-34.022,3.512l13.439-55.364   c0.22-0.91-0.038-1.869-0.688-2.543c-0.649-0.674-1.599-0.969-2.516-0.785l-43.491,8.797c-1.08,0.218-1.925,1.063-2.142,2.143   l-17.594,87.474c-0.173,0.862,0.078,1.755,0.674,2.399c0.597,0.646,1.469,0.967,2.341,0.857l36.517-4.452l-11.394,78.175   c-0.196,1.339,0.617,2.619,1.911,3.013c0.265,0.08,0.532,0.118,0.798,0.118c1.03,0,2.004-0.585,2.469-1.555l56.449-117.886   C415.615,309.761,415.527,308.706,414.957,307.897z"/>
</g>
<g>
	<path style="fill:#EF8229;" d="M351.796,329.367c-0.871,0.109-1.743-0.211-2.341-0.857c-0.597-0.645-0.847-1.537-0.674-2.399   l13.938-69.295l-17.558,3.552c-1.08,0.218-1.925,1.063-2.142,2.143l-17.594,87.474c-0.173,0.862,0.078,1.755,0.674,2.399   c0.597,0.646,1.469,0.967,2.341,0.857l36.517-4.452l-11.394,78.175c-0.196,1.339,0.617,2.619,1.911,3.013   c0.265,0.08,0.532,0.118,0.798,0.118c0.297,0,0.584-0.061,0.861-0.154l31.183-105.027L351.796,329.367z"/>
	<path style="fill:#EF8229;" d="M219.348,391.172c-0.872,0.109-1.743-0.211-2.341-0.857c-0.597-0.645-0.847-1.537-0.674-2.399   l13.938-69.295l-17.558,3.552c-1.08,0.218-1.925,1.063-2.142,2.143l-17.594,87.474c-0.173,0.862,0.078,1.755,0.674,2.399   c0.597,0.646,1.469,0.967,2.341,0.857l36.517-4.452l-11.394,78.175c-0.196,1.339,0.616,2.619,1.911,3.013   c0.265,0.08,0.532,0.118,0.798,0.118c0.297,0,0.584-0.061,0.861-0.154l31.184-105.027L219.348,391.172z"/>
	<path style="fill:#EF8229;" d="M86.899,391.172c-0.872,0.109-1.743-0.211-2.341-0.857c-0.597-0.645-0.847-1.537-0.674-2.399   l13.938-69.295l-17.558,3.552c-1.08,0.218-1.925,1.063-2.142,2.143l-17.594,87.474c-0.173,0.862,0.078,1.755,0.674,2.399   c0.597,0.646,1.469,0.967,2.341,0.857l36.517-4.452l-11.394,78.175c-0.196,1.339,0.616,2.619,1.911,3.013   c0.265,0.08,0.532,0.118,0.798,0.118c0.297,0,0.584-0.061,0.861-0.154l31.183-105.027L86.899,391.172z"/>
</g>
<path style="fill:#9FDEF7;" d="M418.652,159.922H308.269c-21.33,0-38.621-17.293-38.621-38.621s17.291-38.619,38.621-38.619  c3.355,0,6.608,0.43,9.713,1.232c4.076-5.883,10.15-10.271,17.242-12.198c-11.707-30.196-41.017-51.615-75.346-51.615  c-38.481,0-70.658,26.907-78.798,62.927c-4.827-1.611-9.988-2.495-15.359-2.495c-16.532,0-31.124,8.278-39.874,20.91  c-4.884-1.261-10.007-1.939-15.285-1.939c-33.57,0-60.782,27.212-60.782,60.78c0,9.74,2.304,18.94,6.378,27.1  c7.139-22.088,27.86-38.068,52.325-38.068c26.188,0,48.084,18.309,53.623,42.821c3.287-1.095,6.798-1.698,10.455-1.698  c11.248,0,21.179,5.634,27.134,14.229c3.323-0.857,6.809-1.319,10.401-1.319c14.049,0,26.454,7.009,33.93,17.717h67.315h31.751  h15.51c33.18,0,60.078-26.896,60.078-60.076C418.679,160.63,418.658,160.277,418.652,159.922z"/>
<path style="fill:#E4F2F9;" d="M472.355,81.722c-4.137,0-8.124,0.635-11.873,1.81c0.022-0.6,0.047-1.201,0.047-1.81  c0-29.45-23.875-53.326-53.326-53.326c-25.396,0-46.63,17.757-52.001,41.527c-3.187-1.062-6.591-1.646-10.136-1.646  c-10.909,0-20.539,5.463-26.313,13.799c-3.224-0.833-6.603-1.279-10.087-1.279c-22.154,0-40.111,17.958-40.111,40.109  s17.958,40.111,40.111,40.111h163.69c21.894,0,39.645-17.75,39.645-39.645C512,99.473,494.249,81.722,472.355,81.722z"/>
<path style="fill:#83D4ED;" d="M175.348,81.5c-3.112-0.631-6.329-0.968-9.628-0.968c-16.532,0-31.124,8.278-39.874,20.91  c-4.884-1.261-10.007-1.939-15.285-1.939c-33.57,0-60.782,27.212-60.782,60.78c0,9.74,2.304,18.94,6.378,27.1  c7.139-22.088,27.86-38.068,52.325-38.068c26.188,0,48.084,18.309,53.623,42.821c3.287-1.095,6.798-1.698,10.455-1.698  c11.248,0,21.179,5.634,27.134,14.229c3.323-0.857,6.809-1.319,10.401-1.319c14.049,0,26.454,7.009,33.93,17.717h45.661  C226.604,204.439,179.369,148.793,175.348,81.5z"/>
<path style="fill:#D7EDF9;" d="M352.132,69.086c-2.274-0.517-4.635-0.809-7.067-0.809c-10.909,0-20.539,5.463-26.313,13.799  c-3.224-0.833-6.603-1.279-10.087-1.279c-22.154,0-40.111,17.958-40.111,40.109s17.958,40.111,40.111,40.111h101.939  C376.138,144.73,352.264,109.705,352.132,69.086z"/>
<path style="fill:#E4F2F9;" d="M210.941,201.755c-3.614,0-7.121,0.464-10.464,1.327c-5.991-8.646-15.982-14.314-27.297-14.314  c-3.679,0-7.211,0.607-10.517,1.708c-5.572-24.66-27.599-43.079-53.945-43.079c-30.553,0-55.32,24.767-55.32,55.319  c0,0.631,0.026,1.254,0.047,1.878c-3.888-1.217-8.024-1.878-12.315-1.878C18.415,202.716,0,221.132,0,243.848  c0,22.715,18.415,41.127,41.13,41.127h108.757h29.739h31.314c22.981,0,41.61-18.63,41.61-41.609  C252.551,220.385,233.922,201.755,210.941,201.755z"/>
<path style="fill:#D7EDF9;" d="M68.265,165c-9.218,9.883-14.867,23.137-14.867,37.717c0,0.631,0.026,1.254,0.047,1.878  c-3.888-1.217-8.024-1.878-12.315-1.878C18.415,202.716,0,221.132,0,243.848c0,22.715,18.415,41.127,41.13,41.127h108.757h3.68  C104.263,267.207,68.897,220.279,68.265,165z"/>
<g>
</g>
<g>
</g>
<g>
</g>
<g>
</g>
<g>
</g>
<g>
</g>
<g>
</g>
<g>
</g>
<g>
</g>
<g>
</g>
<g>
</g>
<g>
</g>
<g>
</g>
<g>
</g>
<g>
</g>
</svg>
