<?xml version="1.0" encoding="iso-8859-1"?>
<!-- Generator: Adobe Illustrator 19.0.0, SVG Export Plug-In . SVG Version: 6.00 Build 0)  -->
<svg xmlns="http://www.w3.org/2000/svg" xmlns:xlink="http://www.w3.org/1999/xlink" version="1.1" id="Layer_1" x="0px" y="0px" viewBox="0 0 512 512" style="enable-background:new 0 0 512 512;" xml:space="preserve">
<g>
	<path style="fill:#9FDEF7;" d="M502.654,263.542h-9.33l6.597-6.597c3.37-3.371,3.37-8.834,0-12.204   c-3.371-3.369-8.834-3.369-12.205,0l-6.595,6.595v-9.327c0-4.766-3.864-8.629-8.629-8.629s-8.629,3.864-8.629,8.629v9.328   l-6.596-6.596c-3.37-3.368-8.834-3.37-12.203,0c-3.371,3.37-3.371,8.833-0.001,12.204l6.597,6.597h-9.328   c-4.766,0-8.629,3.864-8.629,8.629c0,4.766,3.864,8.629,8.629,8.629h9.326l-6.595,6.595c-3.37,3.371-3.37,8.834,0.001,12.204   c1.685,1.685,3.893,2.527,6.101,2.527s4.417-0.842,6.102-2.527l6.596-6.596v9.328c0,4.766,3.864,8.629,8.629,8.629   s8.629-3.864,8.629-8.629v-9.327l6.595,6.596c1.686,1.685,3.893,2.527,6.102,2.527c2.208,0,4.417-0.842,6.102-2.527   c3.37-3.37,3.37-8.833,0-12.204l-6.595-6.595h9.327c4.766,0,8.629-3.864,8.629-8.629   C511.284,267.405,507.42,263.542,502.654,263.542z"/>
	<path style="fill:#9FDEF7;" d="M428.764,361.702h-9.33l6.597-6.597c3.37-3.371,3.37-8.834,0-12.204   c-3.371-3.369-8.834-3.369-12.205,0l-6.595,6.595v-9.327c0-4.766-3.864-8.629-8.629-8.629s-8.629,3.864-8.629,8.629v9.328   l-6.596-6.596c-3.37-3.368-8.834-3.37-12.203,0c-3.371,3.37-3.371,8.833-0.001,12.204l6.597,6.597h-9.328   c-4.766,0-8.629,3.864-8.629,8.629c0,4.766,3.864,8.629,8.629,8.629h9.326l-6.595,6.595c-3.37,3.371-3.37,8.834,0.001,12.204   c1.685,1.685,3.893,2.527,6.101,2.527s4.417-0.842,6.102-2.527l6.596-6.596v9.328c0,4.766,3.864,8.629,8.629,8.629   s8.629-3.864,8.629-8.629v-9.327l6.595,6.596c1.686,1.685,3.893,2.527,6.102,2.527c2.208,0,4.417-0.842,6.102-2.527   c3.37-3.37,3.37-8.833,0-12.204l-6.595-6.595h9.327c4.766,0,8.629-3.864,8.629-8.629S433.53,361.702,428.764,361.702z"/>
	<path style="fill:#9FDEF7;" d="M354.874,459.862h-9.33l6.597-6.597c3.37-3.371,3.37-8.834,0-12.204   c-3.371-3.369-8.834-3.369-12.205,0l-6.595,6.595v-9.327c0-4.766-3.864-8.629-8.629-8.629s-8.629,3.864-8.629,8.629v9.328   l-6.596-6.596c-3.37-3.369-8.834-3.369-12.203,0c-3.371,3.37-3.371,8.833-0.001,12.204l6.597,6.597h-9.328   c-4.766,0-8.629,3.864-8.629,8.629c0,4.766,3.864,8.629,8.629,8.629h9.326l-6.595,6.595c-3.37,3.371-3.37,8.834,0.001,12.204   c1.685,1.685,3.893,2.527,6.101,2.527s4.417-0.842,6.102-2.527l6.596-6.596v9.328c0,4.766,3.864,8.629,8.629,8.629   s8.629-3.864,8.629-8.629v-9.327l6.595,6.596c1.686,1.685,3.893,2.527,6.102,2.527c2.208,0,4.417-0.842,6.102-2.527   c3.37-3.37,3.37-8.833,0-12.204l-6.595-6.595h9.327c4.766,0,8.629-3.864,8.629-8.629S359.64,459.862,354.874,459.862z"/>
	<path style="fill:#9FDEF7;" d="M299.692,280.801h9.327l-6.595,6.595c-3.371,3.371-3.371,8.833,0,12.204   c1.686,1.685,3.893,2.527,6.102,2.527c2.209,0,4.417-0.842,6.102-2.527l6.597-6.597v9.328c0,4.766,3.864,8.629,8.629,8.629   c4.766,0,8.629-3.864,8.629-8.629v-9.326l6.595,6.595c1.686,1.685,3.893,2.527,6.102,2.527c2.209,0,4.417-0.842,6.102-2.527   c3.37-3.371,3.37-8.833,0-12.204l-6.595-6.595h9.327c4.766,0,8.629-3.864,8.629-8.629c0-4.766-3.864-8.629-8.629-8.629h-9.328   l6.597-6.597c3.37-3.371,3.37-8.833,0-12.204c-3.371-3.369-8.834-3.369-12.205,0l-6.595,6.595v-9.326   c0-4.766-3.864-8.629-8.629-8.629c-4.766,0-8.629,3.864-8.629,8.629v9.328l-6.597-6.597c-3.371-3.369-8.834-3.369-12.205,0   c-3.371,3.371-3.371,8.833,0,12.204l6.597,6.597h-9.328c-4.766,0-8.629,3.864-8.629,8.629   C291.063,276.937,294.927,280.801,299.692,280.801z"/>
	<path style="fill:#9FDEF7;" d="M283.395,385.556l-6.595-6.595h9.327c4.766,0,8.629-3.864,8.629-8.629   c0-4.766-3.864-8.629-8.629-8.629h-9.328l6.597-6.597c3.37-3.371,3.37-8.833,0-12.204c-3.371-3.369-8.834-3.369-12.205,0   l-6.595,6.595v-9.326c0-4.766-3.864-8.629-8.629-8.629s-8.629,3.864-8.629,8.629v9.328l-6.597-6.597   c-3.371-3.369-8.834-3.369-12.205,0c-3.371,3.371-3.371,8.833,0,12.204l6.597,6.597h-9.328c-4.766,0-8.629,3.864-8.629,8.629   c0,4.766,3.864,8.629,8.629,8.629h9.327l-6.595,6.595c-3.371,3.371-3.371,8.833,0,12.204c1.686,1.685,3.893,2.527,6.102,2.527   s4.417-0.842,6.102-2.527l6.597-6.597v9.328c0,4.766,3.864,8.629,8.629,8.629s8.629-3.864,8.629-8.629v-9.326l6.595,6.595   c1.686,1.685,3.893,2.527,6.102,2.527s4.417-0.842,6.102-2.527C286.765,394.39,286.765,388.927,283.395,385.556z"/>
	<path style="fill:#9FDEF7;" d="M212.237,459.862h-9.328l6.597-6.597c3.37-3.371,3.37-8.833,0-12.204   c-3.371-3.369-8.834-3.369-12.205,0l-6.595,6.595v-9.326c0-4.766-3.864-8.629-8.629-8.629c-4.766,0-8.629,3.864-8.629,8.629v9.328   l-6.597-6.597c-3.371-3.369-8.834-3.369-12.205,0c-3.371,3.371-3.371,8.833,0,12.204l6.597,6.597h-9.328   c-4.766,0-8.629,3.864-8.629,8.629c0,4.766,3.864,8.629,8.629,8.629h9.327l-6.595,6.595c-3.371,3.371-3.371,8.833,0,12.204   c1.686,1.685,3.893,2.527,6.102,2.527s4.417-0.842,6.102-2.527l6.597-6.597v9.328c0,4.766,3.864,8.629,8.629,8.629   c4.766,0,8.629-3.864,8.629-8.629v-9.326l6.595,6.595c1.686,1.685,3.893,2.527,6.102,2.527s4.417-0.842,6.102-2.527   c3.37-3.371,3.37-8.833,0-12.204l-6.595-6.595h9.327c4.766,0,8.629-3.864,8.629-8.629S217.002,459.862,212.237,459.862z"/>
	<path style="fill:#9FDEF7;" d="M151.474,370.331c0-4.766-3.864-8.629-8.629-8.629h-9.33l6.597-6.597   c3.37-3.371,3.37-8.834-0.001-12.204c-3.369-3.369-8.832-3.369-12.203,0l-6.596,6.596v-9.328c0-4.766-3.864-8.629-8.629-8.629   c-4.766,0-8.629,3.864-8.629,8.629v9.327l-6.595-6.595c-3.37-3.368-8.834-3.37-12.205,0c-3.37,3.37-3.37,8.833,0,12.204   l6.597,6.597h-9.331c-4.766,0-8.629,3.864-8.629,8.629c0,4.766,3.864,8.629,8.629,8.629h9.327l-6.595,6.595   c-3.37,3.371-3.37,8.834,0,12.204c1.686,1.685,3.893,2.527,6.102,2.527c2.209,0,4.417-0.842,6.102-2.527l6.595-6.596v9.327   c0,4.766,3.864,8.629,8.629,8.629c4.766,0,8.629-3.864,8.629-8.629v-9.328l6.596,6.596c1.686,1.685,3.893,2.527,6.102,2.527   c2.208,0,4.417-0.842,6.101-2.527c3.371-3.37,3.371-8.833,0.001-12.204l-6.595-6.595h9.327   C147.611,378.961,151.474,375.097,151.474,370.331z"/>
	<path style="fill:#9FDEF7;" d="M68.955,459.862h-9.33l6.597-6.597c3.37-3.371,3.37-8.834-0.001-12.204   c-3.369-3.369-8.832-3.369-12.203,0l-6.596,6.596v-9.328c0-4.766-3.864-8.629-8.629-8.629s-8.629,3.864-8.629,8.629v9.327   l-6.595-6.595c-3.371-3.369-8.836-3.369-12.205,0c-3.37,3.37-3.37,8.833,0,12.204l6.597,6.597H8.629   c-4.766,0-8.629,3.864-8.629,8.629c0,4.766,3.864,8.629,8.629,8.629h9.327l-6.595,6.595c-3.37,3.371-3.37,8.834,0,12.204   c1.686,1.685,3.893,2.527,6.102,2.527s4.417-0.842,6.102-2.527l6.595-6.596v9.327c0,4.766,3.864,8.629,8.629,8.629   s8.629-3.864,8.629-8.629v-9.328l6.596,6.596c1.686,1.685,3.893,2.527,6.102,2.527c2.208,0,4.417-0.842,6.101-2.527   c3.371-3.37,3.371-8.833,0.001-12.204l-6.595-6.595h9.327c4.766,0,8.629-3.864,8.629-8.629S73.721,459.862,68.955,459.862z"/>
	<path style="fill:#9FDEF7;" d="M420.581,142.473H311.831c-21.015,0-38.051-17.038-38.051-38.051s17.036-38.048,38.051-38.048   c3.306,0,6.51,0.424,9.569,1.214c4.016-5.796,10.002-10.119,16.987-12.018c-11.534-29.751-40.411-50.852-74.233-50.852   c-37.915,0-69.615,26.51-77.634,61.997c-4.757-1.587-9.841-2.458-15.133-2.458c-16.288,0-30.663,8.156-39.284,20.601   c-4.812-1.243-9.86-1.91-15.06-1.91c-33.075,0-59.884,26.81-59.884,59.882c0,9.596,2.27,18.66,6.282,26.7   c7.033-21.761,27.448-37.506,51.551-37.506c25.802,0,47.374,18.039,52.831,42.188c3.238-1.079,6.698-1.673,10.3-1.673   c11.081,0,20.866,5.551,26.733,14.019c3.274-0.845,6.708-1.3,10.248-1.3c13.842,0,26.063,6.906,33.428,17.455h66.322h31.282h15.281   c32.69,0,59.191-26.499,59.191-59.189C420.609,143.17,420.588,142.823,420.581,142.473z"/>
</g>
<path style="fill:#E4F2F9;" d="M473.03,65.607c-4.067,0-7.986,0.625-11.67,1.779c0.022-0.589,0.045-1.181,0.045-1.779  c0-28.948-23.468-52.418-52.418-52.418c-24.963,0-45.835,17.453-51.115,40.819c-3.133-1.043-6.48-1.618-9.964-1.618  c-10.723,0-20.189,5.371-25.865,13.563c-3.17-0.819-6.49-1.258-9.915-1.258c-21.776,0-39.428,17.653-39.428,39.426  c0,21.774,17.653,39.428,39.428,39.428H473.03c21.521,0,38.97-17.447,38.97-38.97C512,83.056,494.551,65.607,473.03,65.607z"/>
<path style="fill:#83D4ED;" d="M180.874,65.209c-3.066-0.621-6.236-0.954-9.487-0.954c-16.288,0-30.663,8.156-39.284,20.601  c-4.812-1.243-9.86-1.91-15.06-1.91c-33.075,0-59.884,26.81-59.884,59.882c0,9.596,2.27,18.66,6.282,26.7  c7.033-21.761,27.448-37.506,51.551-37.506c25.802,0,47.374,18.039,52.831,42.188c3.238-1.079,6.698-1.673,10.3-1.673  c11.081,0,20.866,5.551,26.733,14.019c3.274-0.845,6.708-1.3,10.248-1.3c13.842,0,26.063,6.906,33.428,17.455h44.987  C231.37,186.332,184.835,131.508,180.874,65.209z"/>
<path style="fill:#D7EDF9;" d="M354.856,53.186c-2.236-0.508-4.556-0.796-6.947-0.796c-10.723,0-20.189,5.371-25.865,13.563  c-3.17-0.819-6.49-1.258-9.915-1.258c-21.776,0-39.428,17.653-39.428,39.426c0,21.774,17.653,39.428,39.428,39.428h100.202  C378.452,127.542,354.986,93.114,354.856,53.186z"/>
<path style="fill:#E4F2F9;" d="M215.651,183.111c-3.586,0-7.064,0.461-10.381,1.317c-5.945-8.578-15.857-14.202-27.083-14.202  c-3.65,0-7.155,0.602-10.435,1.695c-5.528-24.467-27.382-42.741-53.521-42.741c-30.312,0-54.886,24.574-54.886,54.886  c0,0.626,0.026,1.245,0.046,1.863c-3.858-1.208-7.961-1.863-12.219-1.863c-22.537,0-40.807,18.27-40.807,40.809  c0,22.537,18.271,40.805,40.807,40.805h107.905h29.504h31.069c22.801,0,41.286-18.483,41.286-41.283  C256.935,201.595,238.452,183.111,215.651,183.111z"/>
<path style="fill:#D7EDF9;" d="M74.095,146.643c-9.146,9.805-14.751,22.955-14.751,37.421c0,0.626,0.026,1.245,0.046,1.863  c-3.858-1.208-7.961-1.863-12.219-1.863c-22.537,0-40.807,18.27-40.807,40.809c0,22.537,18.271,40.805,40.807,40.805h107.905h3.649  C109.809,248.05,74.723,201.49,74.095,146.643z"/>
<g>
</g>
<g>
</g>
<g>
</g>
<g>
</g>
<g>
</g>
<g>
</g>
<g>
</g>
<g>
</g>
<g>
</g>
<g>
</g>
<g>
</g>
<g>
</g>
<g>
</g>
<g>
</g>
<g>
</g>
</svg>
