<?xml version="1.0" encoding="UTF-8" standalone="no"?>
<!-- Generator: Adobe Illustrator 19.0.0, SVG Export Plug-In . SVG Version: 6.00 Build 0)  -->

<svg
   version="1.1"
   id="Capa_1"
   x="0px"
   y="0px"
   viewBox="0 0 512 512"
   style="enable-background:new 0 0 512 512;"
   xml:space="preserve"
   sodipodi:docname="floating_button.svg"
   inkscape:version="1.1 (c4e8f9ed74, 2021-05-24)"
   xmlns:inkscape="http://www.inkscape.org/namespaces/inkscape"
   xmlns:sodipodi="http://sodipodi.sourceforge.net/DTD/sodipodi-0.dtd"
   xmlns="http://www.w3.org/2000/svg"
   xmlns:svg="http://www.w3.org/2000/svg"><defs
   id="defs931" /><sodipodi:namedview
   id="namedview929"
   pagecolor="#ffffff"
   bordercolor="#666666"
   borderopacity="1.0"
   inkscape:pageshadow="2"
   inkscape:pageopacity="0.0"
   inkscape:pagecheckerboard="0"
   showgrid="false"
   inkscape:zoom="1.6130873"
   inkscape:cx="86.170163"
   inkscape:cy="243.94215"
   inkscape:window-width="3812"
   inkscape:window-height="2062"
   inkscape:window-x="12"
   inkscape:window-y="47"
   inkscape:window-maximized="0"
   inkscape:current-layer="Capa_1" />



<path
   style="fill:#fdaa18;stroke-width:0.78125;fill-opacity:1"
   d="M 381.52109,56 H 130.47891 C 89.410937,56 56,89.411719 56,130.47969 V 381.52031 C 56,422.58828 89.410937,456 130.47891,456 H 381.52109 C 422.58906,456 456,422.58828 456,381.52031 V 130.47969 C 456,89.411719 422.58906,56 381.52109,56 Z"
   id="path890" /><path
   style="fill:#e67014;stroke-width:0.78125;fill-opacity:1"
   d="M 381.52109,56 H 256 V 456 H 381.52109 C 422.58906,456 456,422.58828 456,381.52031 V 130.47969 C 456,89.411719 422.58906,56 381.52109,56 Z"
   id="path892" />
<g
   id="g898">
</g>
<g
   id="g900">
</g>
<g
   id="g902">
</g>
<g
   id="g904">
</g>
<g
   id="g906">
</g>
<g
   id="g908">
</g>
<g
   id="g910">
</g>
<g
   id="g912">
</g>
<g
   id="g914">
</g>
<g
   id="g916">
</g>
<g
   id="g918">
</g>
<g
   id="g920">
</g>
<g
   id="g922">
</g>
<g
   id="g924">
</g>
<g
   id="g926">
</g>
<path
   style="color:#000000;fill:#d4a071;stroke-width:0.697253;-inkscape-stroke:none"
   d="m 256,154 h 199.15274 c 0.23469,0 0.42363,44.036 0.42363,98.73545 0,54.69944 -0.18894,98.73544 -0.42363,98.73544 H 256 c -0.23469,0 -0.42363,-44.036 -0.42363,-98.73544 C 255.57637,198.036 255.76531,154 256,154 Z"
   id="rect7119" /></svg>
