<?xml version="1.0" encoding="UTF-8" standalone="no"?>
<svg
   height="512"
   viewBox="0 0 383.99999 383.99999"
   width="512"
   version="1.1"
   id="svg6057"
   sodipodi:docname="maximize.svg"
   inkscape:version="1.1 (c4e8f9ed74, 2021-05-24)"
   xmlns:inkscape="http://www.inkscape.org/namespaces/inkscape"
   xmlns:sodipodi="http://sodipodi.sourceforge.net/DTD/sodipodi-0.dtd"
   xmlns="http://www.w3.org/2000/svg"
   xmlns:svg="http://www.w3.org/2000/svg">
  <defs
     id="defs6061" />
  <sodipodi:namedview
     id="namedview6059"
     pagecolor="#ffffff"
     bordercolor="#666666"
     borderopacity="1.0"
     inkscape:pageshadow="2"
     inkscape:pageopacity="0.0"
     inkscape:pagecheckerboard="0"
     inkscape:document-units="pt"
     showgrid="false"
     units="px"
     width="512px"
     inkscape:zoom="3.2261746"
     inkscape:cx="261.61015"
     inkscape:cy="289.66194"
     inkscape:window-width="3812"
     inkscape:window-height="2062"
     inkscape:window-x="12"
     inkscape:window-y="47"
     inkscape:window-maximized="0"
     inkscape:current-layer="svg6057" />
  <path
     style="fill:#50a14f;stroke-width:0.585938;fill-opacity:1"
     d="M 286.14083,42 H 97.85919 C 67.05821,42 42,67.05879 42,97.85977 v 188.28047 c 0,30.80098 25.05821,55.85977 55.85919,55.85977 h 188.28164 c 30.80097,0 55.85918,-25.05879 55.85918,-55.85977 V 97.85977 C 342.00001,67.05879 316.9418,42 286.14083,42 Z"
     id="path1043" />
  <g
     id="g6487"
     transform="translate(60.75001,60.75)">
    <path
       d="M 192.26074,262.5 H 7.6904297 C 3.442669,262.5 0,259.05733 0,254.80957 V 70.239258 c 0,-4.247761 3.442669,-7.69043 7.6904297,-7.69043 H 192.26074 c 4.24776,0 7.69043,3.442669 7.69043,7.69043 V 254.80957 c 0,4.24776 -3.44267,7.69043 -7.69043,7.69043 z m 0,0"
       fill="#008fd2"
       id="path6045"
       style="stroke-width:0.512695" />
    <path
       d="M 192.26074,62.548828 H 99.462891 V 262.5 h 92.797849 c 4.24776,0 7.69043,-3.44267 7.69043,-7.69043 V 70.239258 c 0,-4.247761 -3.44267,-7.69043 -7.69043,-7.69043 z m 0,0"
       fill="#005f95"
       id="path6047"
       style="stroke-width:0.512695" />
    <path
       d="M 224.04785,230.71289 H 39.477539 c -4.247761,0 -7.69043,-3.44267 -7.69043,-7.69043 V 38.452148 c 0,-4.24776 3.442669,-7.690429 7.69043,-7.690429 H 224.04785 c 4.24776,0 7.69043,3.442669 7.69043,7.690429 V 223.02246 c 0,4.24776 -3.44267,7.69043 -7.69043,7.69043 z m 0,0"
       fill="#e6f0f0"
       id="path6049"
       style="stroke-width:0.512695" />
    <path
       d="M 224.04785,30.761719 H 131.25 V 230.71289 h 92.79785 c 4.24776,0 7.69043,-3.44267 7.69043,-7.69043 V 38.452148 c 0,-4.24776 -3.44267,-7.690429 -7.69043,-7.690429 z m 0,0"
       fill="#cdd7d7"
       id="path6051"
       style="stroke-width:0.512695" />
    <path
       d="m 163.7701,128.17183 c -1.96666,0 -3.93533,-0.75102 -5.43737,-2.25306 l -21.7515,-21.7515 c -3.00407,-3.00407 -3.00407,-7.872676 0,-10.87675 l 47.14794,-47.147942 h -10.95085 c -4.24776,0 -7.69043,-3.442669 -7.69043,-7.69043 V 7.6904297 C 165.08789,3.442669 168.53056,0 172.77832,0 h 82.03125 C 259.05733,0 262.5,3.442669 262.5,7.6904297 V 89.72168 c 0,4.24776 -3.44267,7.690429 -7.69043,7.690429 h -30.76172 c -4.24776,0 -7.69043,-3.442669 -7.69043,-7.690429 V 78.770828 l -47.14994,47.147942 c -1.50004,1.50204 -3.46871,2.25306 -5.43738,2.25306 z m 0,0"
       fill="#ff5036"
       id="path6053"
       style="stroke-width:0.512695" />
    <path
       d="m 147.45598,115.04402 10.87675,10.87475 c 1.50204,1.50204 3.47071,2.25306 5.43737,2.25306 1.96867,0 3.93734,-0.75102 5.43738,-2.25306 L 216.35742,78.770828 V 89.72168 c 0,4.24776 3.44267,7.690429 7.69043,7.690429 h 30.76172 c 4.24776,0 7.69043,-3.442669 7.69043,-7.690429 V 7.6904297 c 0,-2.122879 -0.86117,-4.0454865 -2.25306,-5.4373743 z m 0,0"
       fill="#e62300"
       id="path6055"
       style="stroke-width:0.512695" />
  </g>
</svg>
