<?xml version="1.0" encoding="UTF-8" standalone="no"?>
<!-- Created with Inkscape (http://www.inkscape.org/) -->

<svg
   width="512"
   height="512"
   viewBox="0 0 135.46666 135.46667"
   version="1.1"
   id="svg1045"
   inkscape:version="1.1 (c4e8f9ed74, 2021-05-24)"
   sodipodi:docname="sticky_button.svg"
   xmlns:inkscape="http://www.inkscape.org/namespaces/inkscape"
   xmlns:sodipodi="http://sodipodi.sourceforge.net/DTD/sodipodi-0.dtd"
   xmlns="http://www.w3.org/2000/svg"
   xmlns:svg="http://www.w3.org/2000/svg">
  <sodipodi:namedview
     id="namedview1047"
     pagecolor="#ffffff"
     bordercolor="#666666"
     borderopacity="1.0"
     inkscape:pageshadow="2"
     inkscape:pageopacity="0.0"
     inkscape:pagecheckerboard="0"
     inkscape:document-units="mm"
     showgrid="false"
     units="px"
     inkscape:zoom="0.79731341"
     inkscape:cx="-124.16698"
     inkscape:cy="561.25984"
     inkscape:window-width="3812"
     inkscape:window-height="2062"
     inkscape:window-x="12"
     inkscape:window-y="47"
     inkscape:window-maximized="0"
     inkscape:current-layer="layer1" />
  <defs
     id="defs1042" />
  <g
     inkscape:label="Layer 1"
     inkscape:groupmode="layer"
     id="layer1">
    <path
       style="fill:#61afef;stroke-width:0.206706;fill-opacity:1"
       d="M 100.94412,14.816667 H 34.522545 c -10.865901,0 -19.705878,8.84018 -19.705878,19.70608 v 66.421163 c 0,10.8659 8.839977,19.70609 19.705878,19.70609 h 66.421575 c 10.8659,0 19.70588,-8.84019 19.70588,-19.70609 V 34.522747 c 0,-10.8659 -8.83998,-19.70608 -19.70588,-19.70608 z"
       id="path890" />
    <g
       id="g1398"
       transform="matrix(0.46541817,0,0,0.46541817,90.12801,-32.965479)">
      <path
         style="fill:#cfd8dc;stroke-width:0.264583"
         d="m -68.696708,248.23319 -11.288977,-11.28897 c -0.57732,-0.59161 -1.389062,-0.89377 -2.21271,-0.82418 -0.818092,0.059 -1.570302,0.47096 -2.06031,1.12898 l -31.027425,42.33333 c -0.9353,1.24698 -0.68262,3.01598 0.56436,3.95102 1.00356,0.75248 2.3831,0.75248 3.38666,0 l 42.333338,-31.04435 c 1.2573,-0.92102 1.530085,-2.68711 0.609071,-3.94441 -0.08546,-0.11642 -0.179388,-0.22622 -0.281517,-0.32835 z"
         id="path1249" />
      <path
         style="fill:#d32f2f;stroke-width:0.264583"
         d="M -32.007996,228.47755 -60.230041,200.2555 c -4.747948,-3.69649 -10.663502,-5.56895 -16.673777,-5.27764 -7.86765,-0.27517 -15.511462,2.64663 -21.189156,8.09969 -4.583376,4.58338 -4.109246,11.66707 1.411023,21.05951 5.21335,8.17457 11.370469,15.70699 18.344356,22.44222 11.2268,11.22125 25.4,22.88249 35.729333,22.88249 2.91121,0.0738 5.723466,-1.0578 7.7724,-3.12711 11.751733,-11.74591 8.822266,-31.85689 2.827866,-37.85711 z"
         id="path1251" />
      <path
         style="fill:#f44336;stroke-width:0.264583"
         d="M -9.4300418,205.89986 -37.652352,177.67755 c -1.101989,-1.10173 -2.888456,-1.10173 -3.99071,0 l -22.577689,22.57769 c -3.691467,3.69147 -3.386667,11.85333 8.466666,23.74609 7.738533,7.73853 13.907823,10.55502 18.288,10.55502 2.027237,0.0717 3.996531,-0.68183 5.458089,-2.08836 l 22.5776897,-22.57768 c 1.1019895,-1.10199 1.1019895,-2.88846 2.645e-4,-3.99045 z"
         id="path1253" />
      <path
         style="fill:#d32f2f;stroke-width:0.264583"
         d="m 19.401604,198.35315 c -0.436298,-1.05542 -1.465792,-1.74387 -2.607734,-1.74413 -6.118489,0 -19.5524431,-6.61538 -29.046222,-16.10916 -9.493779,-9.49378 -16.109156,-22.92218 -16.109156,-29.04622 0.0026,-1.55866 -1.258623,-2.82443 -2.817283,-2.82734 -0.751417,-10e-4 -1.472407,0.29713 -2.003161,0.8292 -11.526043,11.5316 -15.127023,31.19676 2.822311,49.14609 6.828631,7.58852 16.440414,12.08696 26.6416888,12.46849 8.4851873,-0.0974 16.5827602,-3.56817 22.5043992,-9.64644 0.806186,-0.80513 1.048809,-2.01639 0.615157,-3.07049 z"
         id="path1255" />
      <path
         style="fill:#f44336;stroke-width:0.264583"
         d="M 1.8586706,166.38884 C -10.096263,154.43946 -20.905285,148.63133 -31.183819,148.63133 c -1.55866,0 -2.82231,1.26365 -2.82231,2.82231 0,8.42724 7.970044,23.24946 17.75751,33.04249 9.7874668,9.79302 24.6210666,17.75751 33.042489,17.75751 1.558661,0 2.822311,-1.26365 2.822311,-2.82231 0,-10.28409 -5.808133,-21.09338 -17.7575104,-33.04249 z"
         id="path1257" />
    </g>
  </g>
</svg>
