<?xml version="1.0" encoding="UTF-8" standalone="no"?>
<svg
   xmlns:dc="http://purl.org/dc/elements/1.1/"
   xmlns:cc="http://creativecommons.org/ns#"
   xmlns:rdf="http://www.w3.org/1999/02/22-rdf-syntax-ns#"
   xmlns:svg="http://www.w3.org/2000/svg"
   xmlns="http://www.w3.org/2000/svg"
   xmlns:sodipodi="http://sodipodi.sourceforge.net/DTD/sodipodi-0.dtd"
   xmlns:inkscape="http://www.inkscape.org/namespaces/inkscape"
   id="Capa_1"
   enable-background="new 0 0 497 497"
   height="460.02118"
   viewBox="0 0 495.04405 446.544"
   width="509.98502"
   version="1.1"
   sodipodi:docname="praying_fajr.svg"
   inkscape:version="1.0.2 (e86c870879, 2021-01-15, custom)"
   inkscape:export-filename="/home/hisham/.config/awesome/icons/prayers/praying_fajr.png"
   inkscape:export-xdpi="96"
   inkscape:export-ydpi="96">
  <metadata
     id="metadata999">
    <rdf:RDF>
      <cc:Work
         rdf:about="">
        <dc:format>image/svg+xml</dc:format>
        <dc:type
           rdf:resource="http://purl.org/dc/dcmitype/StillImage" />
        <dc:title></dc:title>
      </cc:Work>
    </rdf:RDF>
  </metadata>
  <defs
     id="defs997" />
  <sodipodi:namedview
     pagecolor="#ffffff"
     bordercolor="#666666"
     borderopacity="1"
     objecttolerance="10"
     gridtolerance="10"
     guidetolerance="10"
     inkscape:pageopacity="0"
     inkscape:pageshadow="2"
     inkscape:window-width="1904"
     inkscape:window-height="1018"
     id="namedview995"
     showgrid="false"
     inkscape:zoom="0.61177291"
     inkscape:cx="139.52573"
     inkscape:cy="180.0544"
     inkscape:window-x="8"
     inkscape:window-y="31"
     inkscape:window-maximized="0"
     inkscape:current-layer="Capa_1"
     inkscape:document-rotation="0"
     fit-margin-top="0"
     fit-margin-left="0"
     fit-margin-right="0"
     fit-margin-bottom="0" />
  <g
     id="g1100">
    <path
       d="m 478.62366,446.544 h -462.204 c -10.4179998,0 -18.2009998,-9.581 -16.06499981,-19.778 L 13.73766,356.609 c 1.592,-7.603 8.297,-13.049 16.065,-13.049 h 435.439 c 7.768,0 14.473,5.446 16.065,13.049 l 13.383,70.157 c 2.135,10.197 -5.647,19.778 -16.066,19.778 z"
       fill="#8b8089"
       id="path934" />
    <path
       d="m 494.68866,426.766 -13.383,-70.157 c -1.593,-7.603 -8.297,-13.049 -16.065,-13.049 h -22.664 c 7.768,0 14.473,5.446 16.065,13.049 l 13.383,70.157 c 2.136,10.197 -5.646,19.778 -16.065,19.778 h 22.664 c 10.419,0 18.201,-9.581 16.065,-19.778 z"
       fill="#7b7179"
       id="path936" />
    <path
       d="m 271.05066,361.044 127.475,36.87 c 25.851,0 46.807,-20.956 46.807,-46.807 v -119.34 c 0,-31.056 -10.19,-61.423 -29.688,-85.611 -14.039,-17.422 -33.234,-32.2 -57.949,-32.2 l -36.424,0.436 v 157.382 c 0,8.275 -6.708,14.983 -14.983,14.983 h -35.227 l -8.54,38.787 z"
       fill="#aca6d6"
       id="path938" />
    <path
       d="m 415.64366,146.156 c -14.039,-17.422 -33.234,-32.2 -57.949,-32.2 l -17.658,0.211 c 22.316,1.835 39.866,15.763 52.942,31.989 19.499,24.188 29.688,54.555 29.688,85.611 v 119.341 c 0,25.851 -20.956,46.807 -46.806,46.807 h 22.664 c 25.85,0 46.807,-20.956 46.807,-46.807 V 231.767 c 0,-31.056 -10.19,-61.423 -29.688,-85.611 z"
       fill="#978ecb"
       id="path940" />
    <path
       d="m 186.64466,321.612 v 41.448 c 0,19.245 15.599,34.854 34.854,34.854 h 49.551 V 286.757 h -49.551 c -19.255,0 -34.854,15.609 -34.854,34.855 z"
       fill="#c38f86"
       id="path942" />
    <path
       d="m 248.38666,286.757 h 22.664 v 111.157 h -22.664 z"
       fill="#b87d72"
       id="path944" />
    <path
       d="m 376.90566,358.141 h -23.036 l -3.745,19.903 3.745,19.867 h 16.153 l 12.794,14.899 c 1.124,1.309 2.764,2.063 4.49,2.063 h 16.434 c 4.162,0 7.024,-4.183 5.516,-8.062 l -14.046,-36.145 c -2.935,-7.551 -10.204,-12.525 -18.305,-12.525 z"
       fill="#fff3de"
       id="path946" />
    <path
       d="m 409.25666,406.811 -14.047,-36.145 c -2.934,-7.55 -10.203,-12.524 -18.304,-12.524 h -20.795 c 8.101,0 15.37,4.974 18.304,12.524 l 14.047,36.145 c 1.223,3.147 -0.43,6.492 -3.318,7.644 0.682,0.268 1.413,0.418 2.163,0.418 h 16.434 c 4.162,0 7.023,-4.182 5.516,-8.062 z"
       fill="#ffe5c2"
       id="path948" />
    <path
       d="m 225.85766,397.91 h 128.012 v -46.092 c 0,-4.561 -3.697,-8.258 -8.258,-8.258 h -119.754 z"
       fill="#c38f86"
       id="path950" />
    <path
       d="m 345.61266,343.56 h -22.664 c 4.561,0 8.258,3.697 8.258,8.258 v 46.092 h 22.664 v -46.092 c -10e-4,-4.561 -3.698,-8.258 -8.258,-8.258 z"
       fill="#b87d72"
       id="path952" />
    <path
       d="m 141.27266,416.899 h -77.307 c -4.126,0 -7.267,-3.702 -6.594,-7.773 l 5.085,-30.772 c 0.533,-3.227 3.323,-5.594 6.594,-5.594 h 72.222 c 3.691,0 6.683,2.992 6.683,6.683 v 30.772 c 0,3.692 -2.992,6.684 -6.683,6.684 z"
       fill="#fed2a4"
       id="path962" />
    <path
       d="m 141.27266,372.76 h -22.664 c 3.691,0 6.683,2.992 6.683,6.683 v 30.772 c 0,3.691 -2.992,6.683 -6.683,6.683 h 22.664 c 3.691,0 6.683,-2.992 6.683,-6.683 v -30.771 c 0,-3.691 -2.992,-6.684 -6.683,-6.684 z"
       fill="#ffbd86"
       id="path964" />
    <path
       d="m 303.56466,122.95 0.03,0.01 c 33.801,9.187 68.655,-10.767 77.842,-44.567996 l 3.292,-13.067 -39.691,-27.295 -58.237,-1.654 -10.291,39.331 c -5.581,20.512 6.534,41.671996 27.055,47.242996 z"
       fill="#fff3de"
       id="path966" />
    <path
       d="m 365.41666,52.044004 -3.351,13.281 -3.292,13.067 c -6.616,24.341996 -26.545,41.499996 -49.805,45.766996 32.046,5.819 63.769,-13.755 72.469,-45.766996 l 3.292,-13.067 z"
       fill="#ffe5c2"
       id="path968" />
    <path
       d="m 286.80166,36.376004 97.928,28.949 3.099,-12.276 c 5.166,-19.002 -6.057,-38.582 -25.049,-43.7480001 l -29.597,-8.043 c -18.992,-5.166 -38.582,6.047 -43.748,25.0490001 z"
       fill="#5a74d1"
       id="path970" />
    <path
       d="m 362.77966,9.3010039 -29.597,-8.043 c -7.032,-1.91300001 -14.144,-1.57500001 -20.577,0.567 l 27.51,7.475 c 18.992,5.1660001 30.215,24.7450001 25.049,43.7480001 l -1.525,6.042 21.09,6.235 3.099,-12.276 c 5.166,-19.002 -6.057,-38.582 -25.049,-43.7480001 z"
       fill="#4f66d0"
       id="path972" />
    <g
       id="g984"
       transform="translate(-0.97833981,-50.455996)">
      <path
         d="m 391.393,380.17 c -1.919,0 -3.839,-0.732 -5.304,-2.196 l -29.442,-29.442 c -2.929,-2.93 -2.929,-7.678 0,-10.607 2.93,-2.928 7.678,-2.928 10.607,0 l 29.442,29.442 c 2.929,2.93 2.929,7.678 0,10.607 -1.465,1.464 -3.385,2.196 -5.303,2.196 z"
         fill="#978ecb"
         id="path982" />
    </g>
    <path
       d="m 190.90666,187.581 1.128,-11.56 c 0.302,-3.092 4.036,-4.475 6.279,-2.325 l 13.453,12.895 c 1.836,1.759 4.04,3.088 6.454,3.889 l 20.977,6.963 v 19.101 l -12.909,15.415 -28.909,-27.165 c -4.71,-4.424 -7.1,-10.782 -6.473,-17.213 z"
       fill="#fff3de"
       id="path986" />
    <path
       d="m 367.55866,149.26 -0.571,-0.213 c -12.206,-4.565 -25.802,1.629 -30.367,13.835 l -19.458,52.028 -66.536,-24.884 c -4.193,-1.568 -8.864,0.56 -10.432,4.753 l -13.905,37.18 92.652,34.652 c 14.498,5.422 30.646,-1.935 36.068,-16.433 l 26.386,-70.551 c 4.563,-12.206 -1.631,-25.801 -13.837,-30.367 z"
       fill="#aca6d6"
       id="path988" />
    <path
       d="m 367.55866,149.26 -0.571,-0.213 c -6.655,-2.489 -13.72,-1.774 -19.512,1.365 10.471,5.406 15.484,17.905 11.254,29.216 l -26.386,70.551 c -2.76,7.38 -8.303,12.904 -14.99,15.84 l 1.586,0.593 c 14.498,5.422 30.646,-1.935 36.068,-16.433 l 26.386,-70.551 c 4.565,-12.207 -1.629,-25.802 -13.835,-30.368 z"
       fill="#978ecb"
       id="path990" />
  </g>
  <text
     xml:space="preserve"
     style="font-style:normal;font-weight:normal;font-size:38.8281px;line-height:1.25;font-family:sans-serif;fill:#978ecb;fill-opacity:1;stroke:none;stroke-width:0.970703"
     x="-0.91003418"
     y="187.83105"
     id="text1091"><tspan
       sodipodi:role="line"
       id="tspan1089"
       x="-0.91003418"
       y="187.83105"
       style="font-style:normal;font-variant:normal;font-weight:normal;font-stretch:normal;font-size:186.375px;font-family:Aldhabi;-inkscape-font-specification:'Aldhabi, Normal';font-variant-ligatures:normal;font-variant-caps:normal;font-variant-numeric:normal;font-variant-east-asian:normal;fill:#978ecb;fill-opacity:1;stroke-width:0.970703">الفَجْر</tspan></text>
</svg>
