<?xml version="1.0" encoding="UTF-8" standalone="no"?>
<!-- Created with Inkscape (http://www.inkscape.org/) -->

<svg
   version="1.1"
   id="svg2"
   xml:space="preserve"
   width="512"
   height="511.21387"
   viewBox="0 0 512.00001 511.21388"
   sodipodi:docname="aorus_logo.svg"
   inkscape:version="1.1 (c4e8f9ed74, 2021-05-24)"
   inkscape:export-filename="C:\Users\suitedoalex\sites\aorus-logo-0.png"
   inkscape:export-xdpi="561.73712"
   inkscape:export-ydpi="561.73712"
   xmlns:inkscape="http://www.inkscape.org/namespaces/inkscape"
   xmlns:sodipodi="http://sodipodi.sourceforge.net/DTD/sodipodi-0.dtd"
   xmlns="http://www.w3.org/2000/svg"
   xmlns:svg="http://www.w3.org/2000/svg"
   xmlns:rdf="http://www.w3.org/1999/02/22-rdf-syntax-ns#"
   xmlns:cc="http://creativecommons.org/ns#"
   xmlns:dc="http://purl.org/dc/elements/1.1/"><metadata
     id="metadata8"><rdf:RDF><cc:Work
         rdf:about=""><dc:format>image/svg+xml</dc:format><dc:type
           rdf:resource="http://purl.org/dc/dcmitype/StillImage" /></cc:Work></rdf:RDF></metadata><defs
     id="defs6" /><sodipodi:namedview
     pagecolor="#ffffff"
     bordercolor="#666666"
     borderopacity="1"
     objecttolerance="10"
     gridtolerance="10"
     guidetolerance="10"
     inkscape:pageopacity="0"
     inkscape:pageshadow="2"
     inkscape:window-width="3836"
     inkscape:window-height="2086"
     id="namedview4"
     showgrid="false"
     inkscape:zoom="1.4328874"
     inkscape:cx="210.76324"
     inkscape:cy="145.51039"
     inkscape:window-x="0"
     inkscape:window-y="35"
     inkscape:window-maximized="1"
     inkscape:current-layer="g10"
     inkscape:pagecheckerboard="0"
     fit-margin-top="0"
     fit-margin-left="0"
     fit-margin-right="0"
     fit-margin-bottom="0" /><g
     id="g10"
     inkscape:groupmode="layer"
     inkscape:label="aorus-seeklogo.com"
     transform="matrix(1.3333333,0,0,-1.3333333,-62.77665,636.05923)"><circle
       style="fill:#00ddff;fill-opacity:1;stroke-width:0.896766"
       id="circle4583"
       cx="234.64703"
       cy="-289.47989"
       r="187.56454"
       transform="scale(1,-1)" /><path
       id="path1068"
       style="fill:#0082ff;fill-opacity:1;stroke-width:0.896764"
       d="m 367.97379,421.48847 c 7.22118,-21.63667 -7.41128,-43.1749 -2.82728,-65.51943 23.90479,-116.52285 -26.0566,-95.49483 -134.90448,-200.44351 -17.43354,-7.1912 -102.48612,-10.17489 -121.33434,-4.69572 35.28198,-36.49476 83.84923,-57.130948 134.61025,-57.195798 103.58905,-6e-6 187.56456,83.975508 187.56456,187.564558 -0.0101,53.63556 -22.98157,104.70077 -63.10871,140.2899 z"
       sodipodi:nodetypes="csccccc" /><path
       d="m 252.62101,280.87648 -69.79367,-71.08796 -3.75029,-16.753 51.16498,-37.50999 116.64378,95.20591 -13.73383,19.65614 -34.82401,-7.32397 22.65259,-9.00988 -76.2394,-40.38354 -11.31544,7.37119 z m 111.32702,94.9691 6.83046,17.36161 c 3.28869,8.3589 -1.54342,16.24432 -9.86872,12.86179 l -30.38641,-12.34976 -19.87649,-22.2456 -21.23493,5.94489 39.74181,16.53557 -14.76136,3.81437 c -3.10775,0.8023 -6.56506,0.33394 -9.6001,-0.71172 -15.22281,-5.24436 -177.59684,-70.59117 -175.81753,-72.87534 0.94707,-1.21572 12.13633,1.96663 19.21222,-4.43639 -10.62599,-3.3693 -22.53685,-8.17444 -32.97067,-13.97719 23.27216,0.28738 30.12945,-1.18861 48.9654,-10.75374 -9.89718,-3.04706 -20.09434,-7.18454 -28.8461,-11.69592 10.77879,-0.63858 21.77956,-4.07483 31.66303,-9.63857 0.81852,-23.36391 0.51574,-50.86894 -2.58361,-74.4578 l 189.95478,188.58068 c 5.18849,5.15097 8.59098,4.87143 8.75974,0.0571 l 0.42234,-12.04795 c 0.0242,-0.61548 0.20471,-0.45228 0.39614,0.0341"
       style="fill:#fffffe;fill-opacity:1;fill-rule:evenodd;stroke:none;stroke-width:1.67386"
       id="path14-0"
       inkscape:connector-curvature="0"
       sodipodi:nodetypes="ccccccccccccscccccccccccccccccc"
       inkscape:export-filename="C:\Users\suitedoalex\sites\aorus-logo-5.png"
       inkscape:export-xdpi="100.30736"
       inkscape:export-ydpi="100.30736" /></g></svg>
