<?xml version="1.0" encoding="UTF-8" standalone="no"?>
<!-- Created with Inkscape (http://www.inkscape.org/) -->

<svg
   width="1896.2821"
   height="531.37921"
   viewBox="0 0 501.72463 140.59409"
   version="1.1"
   id="svg5"
   inkscape:version="1.1.1 (3bf5ae0d25, 2021-09-20, custom)"
   sodipodi:docname="drawing.svg"
   xmlns:inkscape="http://www.inkscape.org/namespaces/inkscape"
   xmlns:sodipodi="http://sodipodi.sourceforge.net/DTD/sodipodi-0.dtd"
   xmlns="http://www.w3.org/2000/svg"
   xmlns:svg="http://www.w3.org/2000/svg">
  <sodipodi:namedview
     id="namedview7"
     pagecolor="#505050"
     bordercolor="#eeeeee"
     borderopacity="1"
     inkscape:pageshadow="0"
     inkscape:pageopacity="0"
     inkscape:pagecheckerboard="false"
     inkscape:document-units="px"
     showgrid="false"
     units="px"
     width="1920px"
     showborder="true"
     inkscape:zoom="1"
     inkscape:cx="898"
     inkscape:cy="81.5"
     inkscape:current-layer="layer3" />
  <defs
     id="defs2">
    <inkscape:path-effect
       effect="powerclip"
       id="path-effect60481"
       is_visible="true"
       lpeversion="1"
       inverse="true"
       flatten="false"
       hide_clip="false"
       message="Use fill-rule evenodd on &lt;b&gt;fill and stroke&lt;/b&gt; dialog if no flatten result after convert clip to paths." />
    <inkscape:path-effect
       effect="powerclip"
       id="path-effect60473"
       is_visible="true"
       lpeversion="1"
       inverse="true"
       flatten="false"
       hide_clip="false"
       message="Use fill-rule evenodd on &lt;b&gt;fill and stroke&lt;/b&gt; dialog if no flatten result after convert clip to paths." />
    <inkscape:path-effect
       effect="powerclip"
       id="path-effect60465"
       is_visible="true"
       lpeversion="1"
       inverse="true"
       flatten="false"
       hide_clip="false"
       message="Use fill-rule evenodd on &lt;b&gt;fill and stroke&lt;/b&gt; dialog if no flatten result after convert clip to paths." />
    <inkscape:path-effect
       effect="powerclip"
       id="path-effect60457"
       is_visible="true"
       lpeversion="1"
       inverse="true"
       flatten="false"
       hide_clip="false"
       message="Use fill-rule evenodd on &lt;b&gt;fill and stroke&lt;/b&gt; dialog if no flatten result after convert clip to paths." />
    <inkscape:path-effect
       effect="powerclip"
       id="path-effect60449"
       is_visible="true"
       lpeversion="1"
       inverse="true"
       flatten="false"
       hide_clip="false"
       message="Use fill-rule evenodd on &lt;b&gt;fill and stroke&lt;/b&gt; dialog if no flatten result after convert clip to paths." />
    <inkscape:path-effect
       effect="powerclip"
       id="path-effect60441"
       is_visible="true"
       lpeversion="1"
       inverse="true"
       flatten="false"
       hide_clip="false"
       message="Use fill-rule evenodd on &lt;b&gt;fill and stroke&lt;/b&gt; dialog if no flatten result after convert clip to paths." />
    <inkscape:path-effect
       effect="powerclip"
       id="path-effect60433"
       is_visible="true"
       lpeversion="1"
       inverse="true"
       flatten="false"
       hide_clip="false"
       message="Use fill-rule evenodd on &lt;b&gt;fill and stroke&lt;/b&gt; dialog if no flatten result after convert clip to paths." />
    <inkscape:path-effect
       effect="powerclip"
       id="path-effect60425"
       is_visible="true"
       lpeversion="1"
       inverse="true"
       flatten="false"
       hide_clip="false"
       message="Use fill-rule evenodd on &lt;b&gt;fill and stroke&lt;/b&gt; dialog if no flatten result after convert clip to paths." />
    <inkscape:path-effect
       effect="powerclip"
       id="path-effect60417"
       is_visible="true"
       lpeversion="1"
       inverse="true"
       flatten="false"
       hide_clip="false"
       message="Use fill-rule evenodd on &lt;b&gt;fill and stroke&lt;/b&gt; dialog if no flatten result after convert clip to paths." />
    <inkscape:path-effect
       effect="powerclip"
       id="path-effect60409"
       is_visible="true"
       lpeversion="1"
       inverse="true"
       flatten="false"
       hide_clip="false"
       message="Use fill-rule evenodd on &lt;b&gt;fill and stroke&lt;/b&gt; dialog if no flatten result after convert clip to paths." />
    <inkscape:path-effect
       effect="powerclip"
       id="path-effect60401"
       is_visible="true"
       lpeversion="1"
       inverse="true"
       flatten="false"
       hide_clip="false"
       message="Use fill-rule evenodd on &lt;b&gt;fill and stroke&lt;/b&gt; dialog if no flatten result after convert clip to paths." />
    <inkscape:path-effect
       effect="powerclip"
       id="path-effect60393"
       is_visible="true"
       lpeversion="1"
       inverse="true"
       flatten="false"
       hide_clip="false"
       message="Use fill-rule evenodd on &lt;b&gt;fill and stroke&lt;/b&gt; dialog if no flatten result after convert clip to paths." />
    <inkscape:path-effect
       effect="offset"
       id="path-effect59821"
       is_visible="true"
       lpeversion="1"
       linejoin_type="miter"
       unit="px"
       offset="-12"
       miter_limit="4"
       attempt_force_join="false"
       update_on_knot_move="true" />
    <inkscape:path-effect
       effect="offset"
       id="path-effect59817"
       is_visible="true"
       lpeversion="1"
       linejoin_type="miter"
       unit="px"
       offset="-16"
       miter_limit="4"
       attempt_force_join="false"
       update_on_knot_move="true" />
    <inkscape:path-effect
       effect="offset"
       id="path-effect59813"
       is_visible="true"
       lpeversion="1"
       linejoin_type="miter"
       unit="px"
       offset="-12"
       miter_limit="4"
       attempt_force_join="false"
       update_on_knot_move="true" />
    <inkscape:path-effect
       effect="offset"
       id="path-effect59809"
       is_visible="true"
       lpeversion="1"
       linejoin_type="miter"
       unit="px"
       offset="-16"
       miter_limit="4"
       attempt_force_join="false"
       update_on_knot_move="true" />
    <inkscape:path-effect
       effect="offset"
       id="path-effect55132"
       is_visible="true"
       lpeversion="1"
       linejoin_type="miter"
       unit="px"
       offset="-12"
       miter_limit="4"
       attempt_force_join="false"
       update_on_knot_move="true" />
    <inkscape:path-effect
       effect="offset"
       id="path-effect55128"
       is_visible="true"
       lpeversion="1"
       linejoin_type="miter"
       unit="px"
       offset="-16"
       miter_limit="4"
       attempt_force_join="false"
       update_on_knot_move="true" />
    <inkscape:path-effect
       effect="offset"
       id="path-effect55124"
       is_visible="true"
       lpeversion="1"
       linejoin_type="miter"
       unit="px"
       offset="-12"
       miter_limit="4"
       attempt_force_join="false"
       update_on_knot_move="true" />
    <inkscape:path-effect
       effect="offset"
       id="path-effect55120"
       is_visible="true"
       lpeversion="1"
       linejoin_type="miter"
       unit="px"
       offset="-16"
       miter_limit="4"
       attempt_force_join="false"
       update_on_knot_move="true" />
    <inkscape:path-effect
       effect="offset"
       id="path-effect54218"
       is_visible="true"
       lpeversion="1"
       linejoin_type="miter"
       unit="px"
       offset="-12"
       miter_limit="4"
       attempt_force_join="false"
       update_on_knot_move="true" />
    <inkscape:path-effect
       effect="offset"
       id="path-effect54194"
       is_visible="true"
       lpeversion="1"
       linejoin_type="miter"
       unit="px"
       offset="-16"
       miter_limit="4"
       attempt_force_join="false"
       update_on_knot_move="true" />
    <inkscape:path-effect
       effect="offset"
       id="path-effect52734"
       is_visible="true"
       lpeversion="1"
       linejoin_type="miter"
       unit="px"
       offset="-12"
       miter_limit="4"
       attempt_force_join="false"
       update_on_knot_move="true" />
    <inkscape:path-effect
       effect="offset"
       id="path-effect52712"
       is_visible="true"
       lpeversion="1"
       linejoin_type="miter"
       unit="px"
       offset="-16"
       miter_limit="4"
       attempt_force_join="false"
       update_on_knot_move="true" />
    <clipPath
       clipPathUnits="userSpaceOnUse"
       id="clipPath60389">
      <path
         d=""
         id="path60391"
         style="font-size:10.5833px;direction:rtl;display:none;fill:#ff0000;stroke-width:0.264583"
         inkscape:original-d="M 67.217915,91.473283 V 129.3615 H 47.956309 V 57.395055 H 65.842087 L 93.570333,96.447433 V 57.395055 H 112.83194 V 129.3615 H 94.840328 Z"
         inkscape:path-effect="#path-effect54194" />
      <path
         id="lpe_path-effect60393"
         style="font-size:10.5833px;direction:rtl;display:inline;fill:#ff0000;stroke-width:0.264583"
         class="powerclip"
         d="M 33.757292,43.196038 H 127.03095 V 143.56052 H 33.757292 Z M 67.217915,91.473283 94.840328,129.3615 H 112.83194 V 57.395055 H 93.570333 V 96.447433 L 65.842087,57.395055 H 47.956309 V 129.3615 h 19.261606 z" />
    </clipPath>
    <clipPath
       clipPathUnits="userSpaceOnUse"
       id="clipPath60397">
      <path
         style="display:none;fill:#ff0000;stroke:none;stroke-width:0.0467722"
         d="m 134.70384,123.37799 c -0.0772,-0.009 -0.34026,-0.0395 -0.58465,-0.0678 -1.89152,-0.21883 -3.73557,-1.15557 -5.07797,-2.57949 -1.49392,-1.58464 -2.44791,-3.75513 -2.78048,-6.32602 -0.57022,-4.40799 0.65985,-8.49874 3.31428,-11.02209 1.30781,-1.24322 2.84427,-1.9822 4.70788,-2.26428 0.70071,-0.10607 2.15581,-0.10576 2.8531,5.3e-4 2.26995,0.34623 3.98114,1.34267 5.46175,3.18043 1.35549,1.68243 2.1093,3.57851 2.42767,6.10633 0.0961,0.76282 0.081,3.14799 -0.0243,3.85531 -0.40853,2.74314 -1.35658,4.75628 -3.09344,6.56873 -1.64795,1.71968 -3.85987,2.60131 -6.4519,2.57161 -0.33638,-0.004 -0.67475,-0.0144 -0.75193,-0.0234 z"
         id="path60399" />
      <path
         id="lpe_path-effect60401"
         style="display:inline;fill:#ff0000;stroke:none;stroke-width:0.0467722"
         class="powerclip"
         d="m 103.78352,80.025788 h 63.7464 v 64.451952 h -63.7464 z m 30.92032,43.352202 10e-6,-1.4e-4 c 0.0772,0.009 0.41555,0.0194 0.75193,0.0234 2.59203,0.0297 4.80395,-0.85193 6.4519,-2.57161 1.73686,-1.81245 2.68491,-3.82559 3.09344,-6.56873 0.1053,-0.70732 0.1204,-3.09249 0.0243,-3.85531 -0.31837,-2.52782 -1.07218,-4.4239 -2.42767,-6.10633 -1.48061,-1.83776 -3.1918,-2.8342 -5.46175,-3.18043 -0.69729,-0.10629 -2.15239,-0.1066 -2.8531,-5.3e-4 -1.86361,0.28208 -3.40007,1.02106 -4.70788,2.26428 -2.65443,2.52335 -3.8845,6.6141 -3.31428,11.02209 0.33257,2.57089 1.28656,4.74138 2.78048,6.32602 1.3424,1.42392 3.18645,2.36066 5.07797,2.57949 0.24439,0.0283 0.50745,0.0588 0.58465,0.0678 z" />
    </clipPath>
    <clipPath
       clipPathUnits="userSpaceOnUse"
       id="clipPath60405">
      <path
         style="display:none;fill:#ff0000;stroke:none;stroke-width:0.0467722"
         d="m 194.19086,123.86935 c -1.11519,-0.10625 -2.12028,-0.52874 -2.81608,-1.18373 -0.71202,-0.67026 -1.21162,-1.56748 -1.39038,-2.49696 -0.0783,-0.4073 -0.086,-1.26026 -0.0159,-1.7646 0.2074,-1.49119 1.05569,-2.8489 2.28662,-3.65983 0.68527,-0.45145 1.49514,-0.73955 2.38598,-0.84879 0.24644,-0.0302 1.94025,-0.0486 4.47844,-0.0486 h 4.0821 v 3.05902 3.05902 l -0.50423,0.46323 c -2.25173,2.06867 -4.66435,3.22667 -7.13812,3.42612 -0.6692,0.054 -0.75415,0.0537 -1.36848,-0.005 z"
         id="path60407" />
      <path
         id="lpe_path-effect60409"
         style="display:inline;fill:#ff0000;stroke:none;stroke-width:0.0467722"
         class="powerclip"
         d="m 168.76518,80.025789 h 56.54973 v 64.381391 h -56.54973 z m 25.42568,43.843561 -5e-5,-1.2e-4 c 0.61433,0.0587 0.69928,0.059 1.36848,0.005 2.47377,-0.19945 4.88639,-1.35745 7.13812,-3.42612 l 0.50423,-0.46323 v -3.05902 -3.05902 h -4.0821 c -2.53819,0 -4.232,0.0184 -4.47844,0.0486 -0.89084,0.10924 -1.70071,0.39734 -2.38598,0.84879 -1.23093,0.81093 -2.07922,2.16864 -2.28662,3.65983 -0.0701,0.50434 -0.0624,1.3573 0.0159,1.7646 0.17876,0.92948 0.67836,1.8267 1.39038,2.49696 0.6958,0.65499 1.70089,1.07748 2.81608,1.18373 z" />
    </clipPath>
    <clipPath
       clipPathUnits="userSpaceOnUse"
       id="clipPath60413">
      <path
         style="display:none;fill:#ff0000;stroke:none;stroke-width:0.0467722"
         d="m 254.16678,123.87301 c -1.14116,-0.11712 -2.13301,-0.53607 -2.84435,-1.20145 -0.57028,-0.53343 -1.10735,-1.43552 -1.3058,-2.19327 -0.12368,-0.47227 -0.16658,-1.35347 -0.093,-1.91084 0.16562,-1.25494 0.60676,-2.19914 1.42769,-3.05581 0.8688,-0.90661 1.8012,-1.37536 3.12752,-1.5723 0.41229,-0.0612 1.12598,-0.0725 4.58686,-0.0725 h 4.09859 l -0.012,3.07295 -0.012,3.07295 -0.60543,0.55268 c -1.94715,1.77747 -4.19573,2.92421 -6.34183,3.23423 -0.65254,0.0943 -1.51742,0.12558 -2.02617,0.0734 z"
         id="path60415" />
      <path
         id="lpe_path-effect60417"
         style="display:inline;fill:#ff0000;stroke:none;stroke-width:0.0467722"
         class="powerclip"
         d="m 228.73734,80.025789 h 56.54972 v 64.381391 h -56.54972 z m 25.42944,43.847221 8e-5,4e-5 c 0.50875,0.0522 1.37363,0.0209 2.02617,-0.0734 2.1461,-0.31002 4.39468,-1.45676 6.34183,-3.23423 l 0.60543,-0.55268 0.012,-3.07295 0.012,-3.07295 h -4.09859 c -3.46088,0 -4.17457,0.0113 -4.58686,0.0725 -1.32632,0.19694 -2.25872,0.66569 -3.12752,1.5723 -0.82093,0.85667 -1.26207,1.80087 -1.42769,3.05581 -0.0736,0.55737 -0.0307,1.43857 0.093,1.91084 0.19845,0.75775 0.73552,1.65984 1.3058,2.19327 0.71134,0.66538 1.70319,1.08433 2.84435,1.20145 z" />
    </clipPath>
    <clipPath
       clipPathUnits="userSpaceOnUse"
       id="clipPath60421">
      <path
         style="display:none;fill:#ff0000;stroke:none;stroke-width:0.0467722"
         d="m 34.050137,166.7626 c -1.25703,-0.17151 -2.284161,-0.78315 -3.060152,-1.82226 -0.512313,-0.68602 -0.846035,-1.47975 -1.01204,-2.40706 -0.114916,-0.64191 -0.114916,-1.88377 0,-2.52569 0.381651,-2.1319 1.70443,-3.69202 3.557699,-4.19602 0.477319,-0.12981 1.467951,-0.1624 2.018205,-0.0664 1.997525,0.34854 3.481154,1.962 3.876402,4.21564 0.109474,0.62419 0.111218,1.79508 0.0036,2.43204 -0.301501,1.78491 -1.324259,3.24439 -2.788529,3.97926 -0.668766,0.33563 -1.776111,0.50224 -2.595211,0.39048 z"
         id="path60423" />
      <path
         id="lpe_path-effect60425"
         style="display:inline;fill:#ff0000;stroke:none;stroke-width:0.0467722"
         class="powerclip"
         d="m 10.452221,137.14161 h 48.499337 v 48.1889 H 10.452221 Z m 23.597916,29.62099 -2.6e-5,-1e-5 c 0.8191,0.11176 1.926445,-0.0548 2.595211,-0.39048 1.46427,-0.73487 2.487028,-2.19435 2.788529,-3.97926 0.107618,-0.63696 0.105874,-1.80785 -0.0036,-2.43204 -0.395248,-2.25364 -1.878877,-3.8671 -3.876402,-4.21564 -0.550254,-0.096 -1.540886,-0.0634 -2.018205,0.0664 -1.853269,0.504 -3.176048,2.06412 -3.557699,4.19602 -0.114916,0.64192 -0.114916,1.88378 0,2.52569 0.166005,0.92731 0.499727,1.72104 1.01204,2.40706 0.775991,1.03911 1.803122,1.65075 3.060152,1.82226 z" />
    </clipPath>
    <clipPath
       clipPathUnits="userSpaceOnUse"
       id="clipPath60429">
      <path
         style="display:none;fill:#ff0000;stroke:none;stroke-width:0.0467722"
         d="m 96.077784,159.17738 c 0.06757,-0.35671 0.264613,-0.97136 0.411446,-1.28348 0.485843,-1.03273 1.342204,-1.77868 2.389783,-2.08165 0.316515,-0.0915 0.478877,-0.10742 1.096499,-0.10726 0.837518,2.2e-4 1.115468,0.0571 1.715768,0.35131 0.46641,0.22857 1.03246,0.74076 1.35524,1.2263 0.26195,0.39403 0.52755,0.99363 0.66838,1.50891 0.0562,0.2058 0.11278,0.41101 0.12563,0.45603 0.0221,0.0775 -0.18497,0.0819 -3.884084,0.0819 h -3.907459 z"
         id="path60431" />
      <path
         id="lpe_path-effect60433"
         style="display:inline;fill:#ff0000;stroke:none;stroke-width:0.0467722"
         class="powerclip"
         d="m 76.421768,137.14161 h 46.442642 v 48.1889 H 76.421768 Z m 19.656016,22.03577 -0.0288,0.15206 h 3.907459 c 3.699117,0 3.906187,-0.004 3.884087,-0.0819 -0.0129,-0.045 -0.0694,-0.25023 -0.12563,-0.45603 -0.14083,-0.51528 -0.40643,-1.11488 -0.66838,-1.50891 -0.32278,-0.48554 -0.88883,-0.99773 -1.35524,-1.2263 -0.6003,-0.29421 -0.87825,-0.35109 -1.715771,-0.35131 -0.617622,-1.6e-4 -0.779984,0.0158 -1.096499,0.10726 -1.047579,0.30297 -1.90394,1.04892 -2.389783,2.08165 -0.146833,0.31212 -0.343876,0.92677 -0.411446,1.28348 z" />
    </clipPath>
    <clipPath
       clipPathUnits="userSpaceOnUse"
       id="clipPath60437">
      <path
         style="display:none;fill:#ff0000;stroke:none;stroke-width:0.0467722"
         d="m 184.00171,166.76468 c -0.49892,-0.0652 -1.1891,-0.30691 -1.60167,-0.56081 -0.6073,-0.37373 -1.16971,-1.00451 -1.52123,-1.70615 -0.74148,-1.48002 -0.88214,-3.83483 -0.33231,-5.56312 0.43045,-1.35303 1.2905,-2.40757 2.36353,-2.89806 0.50369,-0.23023 0.88002,-0.31369 1.54257,-0.34209 1.38323,-0.0593 2.54738,0.34407 3.84072,1.3307 l 0.26919,0.20536 -0.012,4.03117 -0.0119,4.03116 -0.45679,0.30604 c -0.80156,0.53702 -1.70596,0.94338 -2.43451,1.09387 -0.4552,0.094 -1.2208,0.12749 -1.6456,0.0719 z"
         id="path60439" />
      <path
         id="lpe_path-effect60441"
         style="display:inline;fill:#ff0000;stroke:none;stroke-width:0.0467722"
         class="powerclip"
         d="m 160.78513,137.14161 h 47.10234 v 56.64852 h -47.10234 z m 23.21658,29.62307 v -3e-5 c 0.4248,0.0556 1.1904,0.0221 1.6456,-0.0719 0.72855,-0.15049 1.63295,-0.55685 2.43451,-1.09387 l 0.45679,-0.30604 0.0119,-4.03116 0.012,-4.03117 -0.26919,-0.20536 c -1.29334,-0.98663 -2.45749,-1.39 -3.84072,-1.3307 -0.66255,0.0284 -1.03888,0.11186 -1.54257,0.34209 -1.07303,0.49049 -1.93308,1.54503 -2.36353,2.89806 -0.54983,1.72829 -0.40917,4.0831 0.33231,5.56312 0.35152,0.70164 0.91393,1.33242 1.52123,1.70615 0.41257,0.2539 1.10275,0.49561 1.60167,0.56081 z" />
    </clipPath>
    <clipPath
       clipPathUnits="userSpaceOnUse"
       id="clipPath60445">
      <path
         style="display:none;fill:#ff0000;stroke:none;stroke-width:0.0233861"
         d="m 214.08323,160.25899 c 0.023,-0.0611 0.79381,-2.11323 1.7128,-4.56029 0.919,-2.44706 1.67622,-4.44898 1.68273,-4.44871 0.007,2.6e-4 0.79584,2.04328 1.75409,4.54002 0.95824,2.49674 1.74577,4.54864 1.75006,4.55979 0.004,0.0114 -1.51582,0.0203 -3.4669,0.0203 h -3.47468 z"
         id="path60447" />
      <path
         id="lpe_path-effect60449"
         style="display:inline;fill:#ff0000;stroke:none;stroke-width:0.0233861"
         class="powerclip"
         d="m 190.97594,130.07899 h 53.19481 v 55.17391 h -53.19481 z m 23.10729,30.18 -0.0419,0.11111 h 3.47468 c 1.95108,0 3.4709,-0.009 3.4669,-0.0203 -0.004,-0.0111 -0.79182,-2.06305 -1.75006,-4.55979 -0.95825,-2.49674 -1.74709,-4.53976 -1.75409,-4.54002 -0.007,-2.7e-4 -0.76373,2.00165 -1.68273,4.44871 -0.91899,2.44706 -1.6898,4.49919 -1.7128,4.56029 z" />
    </clipPath>
    <clipPath
       clipPathUnits="userSpaceOnUse"
       id="clipPath60453">
      <path
         style="display:none;fill:#ff0000;stroke:none;stroke-width:0.0233861"
         d="m 252.58813,167.10295 c -0.87161,-0.10148 -1.604,-0.6153 -1.89147,-1.327 -0.11034,-0.27318 -0.13601,-0.41743 -0.13593,-0.76374 1.8e-4,-0.74784 0.25925,-1.36584 0.78501,-1.87258 0.36097,-0.34791 0.73715,-0.54036 1.31103,-0.67071 0.21023,-0.0478 0.28238,-0.0496 2.32755,-0.0581 l 2.1106,-0.009 v 1.42587 1.42589 l -0.19294,0.17988 c -0.91691,0.85494 -1.97563,1.41619 -3.02187,1.60197 -0.48049,0.0853 -0.9345,0.10899 -1.29198,0.0674 z"
         id="path60455" />
      <path
         id="lpe_path-effect60457"
         style="display:inline;fill:#ff0000;stroke:none;stroke-width:0.0233861"
         class="powerclip"
         d="m 232.03229,137.14161 h 44.30834 v 48.1889 h -44.30834 z m 20.55584,29.96134 v -1.2e-4 c 0.35748,0.0416 0.81149,0.0179 1.29198,-0.0674 1.04624,-0.18578 2.10496,-0.74703 3.02187,-1.60197 l 0.19294,-0.17988 v -1.42589 -1.42587 l -2.1106,0.009 c -2.04517,0.008 -2.11732,0.0103 -2.32755,0.0581 -0.57388,0.13035 -0.95006,0.3228 -1.31103,0.67071 -0.52576,0.50674 -0.78483,1.12474 -0.78501,1.87258 -8e-5,0.34631 0.0256,0.49056 0.13593,0.76374 0.28747,0.7117 1.01986,1.22552 1.89147,1.327 z" />
    </clipPath>
    <clipPath
       clipPathUnits="userSpaceOnUse"
       id="clipPath60461">
      <path
         style="display:none;fill:#ff0000;stroke:none;stroke-width:0.0233861"
         d="m 274.26029,166.76374 c -0.83344,-0.11095 -1.64674,-0.4285 -2.54323,-0.99299 l -0.0526,-0.0331 v -4.47938 -4.47937 l 0.23971,-0.14968 c 0.51099,-0.31908 1.19047,-0.62468 1.72048,-0.77379 0.44582,-0.12542 0.72512,-0.16643 1.22338,-0.17962 0.83362,-0.0221 1.41049,0.0919 2.04322,0.40375 1.26108,0.62149 2.19276,2.07751 2.45367,3.83451 0.12713,0.85635 0.10739,2.05857 -0.0469,2.85311 -0.20974,1.08007 -0.61617,1.97375 -1.21928,2.68112 -0.62072,0.728 -1.43704,1.17239 -2.41827,1.31648 -0.31028,0.0456 -1.05439,0.045 -1.40017,-0.001 z"
         id="path60463" />
      <path
         id="lpe_path-effect60465"
         style="display:inline;fill:#ff0000;stroke:none;stroke-width:0.0233861"
         class="powerclip"
         d="m 252.44404,129.07005 h 46.40384 v 56.26046 h -46.40384 z m 21.81625,37.69369 10e-6,4e-5 c 0.34578,0.046 1.08989,0.0466 1.40017,0.001 0.98123,-0.14409 1.79755,-0.58848 2.41827,-1.31648 0.60311,-0.70737 1.00954,-1.60105 1.21928,-2.68112 0.15429,-0.79454 0.17403,-1.99676 0.0469,-2.85311 -0.26091,-1.757 -1.19259,-3.21302 -2.45367,-3.83451 -0.63273,-0.31185 -1.2096,-0.42585 -2.04322,-0.40375 -0.49826,0.0132 -0.77756,0.0542 -1.22338,0.17962 -0.53001,0.14911 -1.20949,0.45471 -1.72048,0.77379 l -0.23971,0.14968 v 4.47937 4.47938 l 0.0526,0.0331 c 0.89649,0.56449 1.70979,0.88204 2.54323,0.99299 z" />
    </clipPath>
    <clipPath
       clipPathUnits="userSpaceOnUse"
       id="clipPath60469">
      <path
         d=""
         id="path60471"
         style="font-size:10.5833px;direction:rtl;display:none;fill:#ff0000;stroke-width:0.264583"
         inkscape:original-d="m 294.51245,57.395055 h 61.59481 l 1.79914,15.134119 H 334.94065 V 129.3615 H 315.67903 V 72.529174 h -21.16658 z"
         inkscape:path-effect="#path-effect54218" />
      <path
         id="lpe_path-effect60473"
         style="font-size:10.5833px;direction:rtl;display:inline;fill:#ff0000;stroke-width:0.264583"
         class="powerclip"
         d="m 280.31342,43.196038 h 91.79201 V 143.56052 h -91.79201 z m 14.19903,14.199017 v 15.134119 h 21.16658 V 129.3615 h 19.26162 V 72.529174 h 22.96575 l -1.79914,-15.134119 z" />
    </clipPath>
    <clipPath
       clipPathUnits="userSpaceOnUse"
       id="clipPath60477">
      <path
         style="display:none;fill:#ff0000;stroke:none;stroke-width:0.0467722"
         d="m 348.28896,108.91211 c 0,-0.18944 0.23704,-1.35782 0.37443,-1.84561 0.62291,-2.21134 1.80584,-3.94136 3.35852,-4.91179 1.87891,-1.17433 4.67736,-1.46952 6.89928,-0.72776 2.58362,0.8625 4.26984,3.0791 5.05131,6.64014 0.0649,0.29584 0.13208,0.62734 0.14923,0.73667 l 0.0312,0.19878 h -7.93202 c -7.80976,0 -7.93195,-10e-4 -7.93195,-0.0904 z"
         id="path60479" />
      <path
         id="lpe_path-effect60481"
         style="display:inline;fill:#ff0000;stroke:none;stroke-width:0.0467722"
         class="powerclip"
         d="m 325.57453,80.025789 h 60.43028 v 64.381391 h -60.43028 z m 22.71443,28.886321 v 3e-5 c 0,0.0894 0.12219,0.0904 7.93195,0.0904 h 7.93202 l -0.0312,-0.19878 c -0.0172,-0.10933 -0.0843,-0.44083 -0.14923,-0.73667 -0.78147,-3.56104 -2.46769,-5.77764 -5.05131,-6.64014 -2.22192,-0.74176 -5.02037,-0.44657 -6.89928,0.72776 -1.55268,0.97043 -2.73561,2.70045 -3.35852,4.91179 -0.13739,0.48779 -0.37443,1.65617 -0.37443,1.84561 z" />
    </clipPath>
    <filter
       inkscape:collect="always"
       style="color-interpolation-filters:sRGB"
       id="filter62600"
       x="-0.017995377"
       y="-0.079941759"
       width="1.0359908"
       height="1.1598835">
      <feGaussianBlur
         inkscape:collect="always"
         stdDeviation="3.6312757"
         id="feGaussianBlur62602" />
    </filter>
  </defs>
  <g
     inkscape:groupmode="layer"
     id="layer3"
     inkscape:label="Layer 3"
     style="display:inline"
     transform="translate(5.5622859,-48.196038)">
    <path
       d="M 67.217916,91.473282 V 129.3615 H 47.95631 V 57.395056 H 65.842087 L 93.570333,96.447433 V 57.395056 H 112.83194 V 129.3615 H 94.840329 Z"
       id="path52162"
       style="font-size:10.5833px;direction:rtl;display:inline;mix-blend-mode:normal;stroke-width:0.264583"
       clip-path="url(#clipPath60389)"
       inkscape:path-effect="#path-effect60393"
       inkscape:original-d="M 67.217916,91.473282 V 129.3615 H 47.95631 V 57.395056 H 65.842087 L 93.570333,96.447433 V 57.395056 H 112.83194 V 129.3615 H 94.840329 Z" />
    <path
       d="m 135.55089,130.27872 q -5.36223,0 -9.31334,-2.25778 -3.95112,-2.25778 -6.13834,-6.27945 -2.11667,-4.09222 -2.11667,-9.52501 0,-5.36222 2.11667,-9.38389 2.18722,-4.092226 6.20889,-6.350005 4.02167,-2.257779 9.3839,-2.257779 5.36222,0 9.31334,2.257779 4.02167,2.187224 6.13833,6.279445 2.18723,4.09223 2.18723,9.45445 0,5.36223 -2.18723,9.45446 -2.18722,4.09222 -6.20889,6.35 -4.02167,2.25778 -9.38389,2.25778 z m 9.59556,-17.99168 q 0,-5.00945 -2.61056,-8.11389 -2.54,-3.17501 -6.84389,-3.17501 -4.23334,0 -6.91445,3.17501 -2.61056,3.175 -2.68112,8.04333 0,5.00945 2.54001,8.1139 2.61055,3.10445 6.91445,3.10445 4.30389,0 6.91444,-3.17501 2.68112,-3.175 2.68112,-7.97278 z"
       style="font-size:10.5833px;-inkscape-font-specification:'Mosk, Semi-Bold';direction:rtl;display:inline;mix-blend-mode:normal;stroke-width:0.264583"
       id="path52164"
       clip-path="url(#clipPath60397)"
       inkscape:path-effect="#path-effect60401"
       inkscape:original-d="m 135.55089,130.27872 q -5.36223,0 -9.31334,-2.25778 -3.95112,-2.25778 -6.13834,-6.27945 -2.11667,-4.09222 -2.11667,-9.52501 0,-5.36222 2.11667,-9.38389 2.18722,-4.092226 6.20889,-6.350005 4.02167,-2.257779 9.3839,-2.257779 5.36222,0 9.31334,2.257779 4.02167,2.187224 6.13833,6.279445 2.18723,4.09223 2.18723,9.45445 0,5.36223 -2.18723,9.45446 -2.18722,4.09222 -6.20889,6.35 -4.02167,2.25778 -9.38389,2.25778 z m 9.59556,-17.99168 q 0,-5.00945 -2.61056,-8.11389 -2.54,-3.17501 -6.84389,-3.17501 -4.23334,0 -6.91445,3.17501 -2.61056,3.175 -2.68112,8.04333 0,5.00945 2.54001,8.1139 2.61055,3.10445 6.91445,3.10445 4.30389,0 6.91444,-3.17501 2.68112,-3.175 2.68112,-7.97278 z" />
    <path
       d="m 161.44477,101.49203 h -5.22111 v -6.067779 h 5.22111 v -3.598336 q 0,-5.573892 3.17501,-8.748895 3.24555,-3.245557 8.89,-3.245557 1.55223,0 3.38667,0.564444 1.905,0.49389 2.89278,1.270001 l -2.18722,5.926671 q -2.25778,-0.846667 -3.52778,-0.846667 -2.39889,0 -3.52778,1.622779 -1.12889,1.622778 -1.12889,4.445003 v 2.610557 h 6.35 l 2.54,6.067779 h -8.89 v 44.09725 h -7.97279 z"
       style="font-size:10.5833px;-inkscape-font-specification:'Mosk, Semi-Bold';direction:rtl;display:inline;mix-blend-mode:normal;stroke-width:0.264583"
       id="path52166" />
    <path
       d="m 196.93421,101.42148 q -4.65667,0 -9.87778,2.32833 l -2.18722,-6.491113 q 1.83444,-1.199446 5.64444,-2.116668 3.88056,-0.917223 6.27945,-0.917223 3.95112,0 7.19667,1.622779 3.31612,1.622778 5.22112,4.445005 1.905,2.75167 1.905,6.20889 v 22.86002 h -5.29167 l -1.19945,-3.45723 q -1.97555,1.905 -4.51555,3.10445 -2.54001,1.19944 -5.08001,1.19944 -5.92667,0 -9.03111,-2.96333 -3.0339,-2.96334 -3.0339,-7.90223 0,-5.15056 3.45723,-7.97278 3.52778,-2.82223 9.24278,-2.82223 h 7.4789 q -0.14111,-7.12611 -6.2089,-7.12611 z m -1.41111,12.41778 q -2.61056,0 -4.16278,1.62278 -1.48167,1.55223 -1.48167,3.88056 0,1.83445 1.34056,3.24556 1.34056,1.34055 3.66889,1.34055 2.18723,0 4.37445,-1.05833 2.18722,-1.05833 3.95111,-2.89278 v -6.13834 z"
       style="font-size:10.5833px;-inkscape-font-specification:'Mosk, Semi-Bold';direction:rtl;display:inline;mix-blend-mode:normal;stroke-width:0.264583"
       id="path52168"
       clip-path="url(#clipPath60405)"
       inkscape:path-effect="#path-effect60409"
       inkscape:original-d="m 196.93421,101.42148 q -4.65667,0 -9.87778,2.32833 l -2.18722,-6.491113 q 1.83444,-1.199446 5.64444,-2.116668 3.88056,-0.917223 6.27945,-0.917223 3.95112,0 7.19667,1.622779 3.31612,1.622778 5.22112,4.445005 1.905,2.75167 1.905,6.20889 v 22.86002 h -5.29167 l -1.19945,-3.45723 q -1.97555,1.905 -4.51555,3.10445 -2.54001,1.19944 -5.08001,1.19944 -5.92667,0 -9.03111,-2.96333 -3.0339,-2.96334 -3.0339,-7.90223 0,-5.15056 3.45723,-7.97278 3.52778,-2.82223 9.24278,-2.82223 h 7.4789 q -0.14111,-7.12611 -6.2089,-7.12611 z m -1.41111,12.41778 q -2.61056,0 -4.16278,1.62278 -1.48167,1.55223 -1.48167,3.88056 0,1.83445 1.34056,3.24556 1.34056,1.34055 3.66889,1.34055 2.18723,0 4.37445,-1.05833 2.18722,-1.05833 3.95111,-2.89278 v -6.13834 z" />
    <path
       d="m 239.05585,101.49203 q -2.54001,0 -5.92667,1.76389 -3.38667,1.76389 -6.2089,4.30389 v 21.80169 h -7.90223 V 95.142029 h 4.23334 l 2.61056,5.644451 q 2.54,-2.116671 5.78556,-3.880561 3.31611,-1.76389 5.78556,-1.76389 z"
       style="font-size:10.5833px;-inkscape-font-specification:'Mosk, Semi-Bold';direction:rtl;display:inline;mix-blend-mode:normal;stroke-width:0.264583"
       id="path52170" />
    <path
       d="m 256.90637,101.42148 q -4.65667,0 -9.87779,2.32833 l -2.18722,-6.491113 q 1.83444,-1.199446 5.64445,-2.116668 3.88055,-0.917223 6.27945,-0.917223 3.95111,0 7.19667,1.622779 3.31611,1.622778 5.22111,4.445005 1.905,2.75167 1.905,6.20889 v 22.86002 h -5.29167 l -1.19944,-3.45723 q -1.97556,1.905 -4.51556,3.10445 -2.54,1.19944 -5.08,1.19944 -5.92668,0 -9.03112,-2.96333 -3.03389,-2.96334 -3.03389,-7.90223 0,-5.15056 3.45722,-7.97278 3.52778,-2.82223 9.24279,-2.82223 h 7.47889 q -0.14111,-7.12611 -6.20889,-7.12611 z m -1.41112,12.41778 q -2.61055,0 -4.16278,1.62278 -1.48166,1.55223 -1.48166,3.88056 0,1.83445 1.34055,3.24556 1.34056,1.34055 3.66889,1.34055 2.18723,0 4.37445,-1.05833 2.18723,-1.05833 3.95112,-2.89278 v -6.13834 z"
       style="font-size:10.5833px;-inkscape-font-specification:'Mosk, Semi-Bold';direction:rtl;display:inline;mix-blend-mode:normal;stroke-width:0.264583"
       id="path52172"
       clip-path="url(#clipPath60413)"
       inkscape:path-effect="#path-effect60417"
       inkscape:original-d="m 256.90637,101.42148 q -4.65667,0 -9.87779,2.32833 l -2.18722,-6.491113 q 1.83444,-1.199446 5.64445,-2.116668 3.88055,-0.917223 6.27945,-0.917223 3.95111,0 7.19667,1.622779 3.31611,1.622778 5.22111,4.445005 1.905,2.75167 1.905,6.20889 v 22.86002 h -5.29167 l -1.19944,-3.45723 q -1.97556,1.905 -4.51556,3.10445 -2.54,1.19944 -5.08,1.19944 -5.92668,0 -9.03112,-2.96333 -3.03389,-2.96334 -3.03389,-7.90223 0,-5.15056 3.45722,-7.97278 3.52778,-2.82223 9.24279,-2.82223 h 7.47889 q -0.14111,-7.12611 -6.20889,-7.12611 z m -1.41112,12.41778 q -2.61055,0 -4.16278,1.62278 -1.48166,1.55223 -1.48166,3.88056 0,1.83445 1.34055,3.24556 1.34056,1.34055 3.66889,1.34055 2.18723,0 4.37445,-1.05833 2.18723,-1.05833 3.95112,-2.89278 v -6.13834 z" />
    <path
       d="m 310.8108,107.34815 v 22.01335 h -7.90223 v -21.51946 q 0,-7.12612 -5.36222,-7.12612 -4.23334,0 -9.94834,4.72723 v 23.91835 h -7.90223 V 80.325352 l 7.90223,-0.776112 v 18.767791 q 2.89278,-1.975557 5.99722,-3.104447 3.10445,-1.199445 5.85612,-1.199445 11.35945,0 11.35945,13.335011 z"
       style="font-size:10.5833px;-inkscape-font-specification:'Mosk, Semi-Bold';direction:rtl;display:inline;mix-blend-mode:normal;stroke-width:0.264583"
       id="path52174" />
    <path
       d="m 294.51244,57.395056 h 61.59481 l 1.79916,15.134119 H 334.94065 V 129.3615 H 315.67904 V 72.529175 h -21.1666 z"
       id="path52176"
       style="font-size:10.5833px;direction:rtl;display:inline;mix-blend-mode:normal;stroke-width:0.264583"
       clip-path="url(#clipPath60469)"
       inkscape:path-effect="#path-effect60473"
       inkscape:original-d="m 294.51244,57.395056 h 61.59481 l 1.79916,15.134119 H 334.94065 V 129.3615 H 315.67904 V 72.529175 h -21.1666 z" />
    <path
       d="m 356.49523,94.224806 q 7.54944,0 11.43,5.009447 3.88056,5.009447 3.88056,12.770567 v 2.32833 h -23.70668 q 1.05833,9.17223 10.93612,9.17223 2.75167,0 4.86833,-0.70556 2.18723,-0.77611 5.22112,-2.32833 l 2.39889,5.78556 q -5.71501,3.95111 -12.62945,3.95111 -9.31334,0 -14.25224,-4.79778 -4.86833,-4.86833 -4.86833,-13.1939 0,-5.36222 1.97555,-9.38389 2.04612,-4.092226 5.78556,-6.350005 3.81001,-2.257779 8.96057,-2.257779 z m -0.21167,6.773334 q -3.38667,0 -5.50334,2.11667 -2.04611,2.11667 -2.54,5.92667 h 15.94557 q -0.635,-3.95111 -2.61056,-5.99722 -1.97556,-2.04612 -5.29167,-2.04612 z"
       style="font-size:10.5833px;-inkscape-font-specification:'Mosk, Semi-Bold';direction:rtl;display:inline;mix-blend-mode:normal;stroke-width:0.264583"
       id="path52178"
       clip-path="url(#clipPath60477)"
       inkscape:path-effect="#path-effect60481"
       inkscape:original-d="m 356.49523,94.224806 q 7.54944,0 11.43,5.009447 3.88056,5.009447 3.88056,12.770567 v 2.32833 h -23.70668 q 1.05833,9.17223 10.93612,9.17223 2.75167,0 4.86833,-0.70556 2.18723,-0.77611 5.22112,-2.32833 l 2.39889,5.78556 q -5.71501,3.95111 -12.62945,3.95111 -9.31334,0 -14.25224,-4.79778 -4.86833,-4.86833 -4.86833,-13.1939 0,-5.36222 1.97555,-9.38389 2.04612,-4.092226 5.78556,-6.350005 3.81001,-2.257779 8.96057,-2.257779 z m -0.21167,6.773334 q -3.38667,0 -5.50334,2.11667 -2.04611,2.11667 -2.54,5.92667 h 15.94557 q -0.635,-3.95111 -2.61056,-5.99722 -1.97556,-2.04612 -5.29167,-2.04612 z" />
    <path
       d="m 393.25476,123.43483 q 2.61056,0 4.72723,-0.56445 2.11667,-0.56444 4.65667,-1.76389 l 2.32833,5.78556 q -2.18722,1.55222 -5.715,2.46945 -3.52778,0.91722 -5.99723,0.91722 -5.36222,0 -9.31334,-2.25778 -3.95111,-2.25778 -6.13833,-6.27945 -2.11667,-4.09222 -2.11667,-9.52501 0,-5.36222 2.11667,-9.38389 2.18722,-4.092226 6.20889,-6.350005 4.02167,-2.257779 9.3839,-2.257779 2.39889,0 5.92667,0.987778 3.52778,0.917223 5.715,2.469446 l -2.25778,5.64445 q -2.75167,-1.19945 -4.86834,-1.76389 -2.04611,-0.56445 -4.51555,-0.56445 -4.23334,0 -6.91445,3.17501 -2.61056,3.175 -2.68112,8.04333 0,5.00945 2.54001,8.1139 2.61055,3.10445 6.91444,3.10445 z"
       style="font-size:10.5833px;-inkscape-font-specification:'Mosk, Semi-Bold';direction:rtl;display:inline;mix-blend-mode:normal;stroke-width:0.264583"
       id="path52180" />
    <path
       style="font-size:10.5833px;-inkscape-font-specification:'Mosk, Semi-Bold';direction:rtl;display:inline;mix-blend-mode:normal;stroke-width:0.264583"
       d="m 419.43074,79.549151 -5.50923,0.532267 v 0.0088 z"
       id="path53297" />
    <path
       d="m 193.68845,171.55835 q 0,3.88056 -2.71639,5.93726 -2.71639,2.0955 -7.29545,2.0955 -1.43581,0 -3.88056,-0.62089 -2.44476,-0.58209 -3.80295,-1.51342 l 1.51341,-3.57012 q 1.74626,0.85373 3.18206,1.24178 1.43581,0.38806 2.87162,0.42687 2.28953,-0.0388 3.64772,-1.12537 1.39701,-1.08655 1.39701,-2.91042 v -1.59103 q -1.94028,1.20298 -4.1522,1.20298 -4.38504,0 -6.94621,-2.63878 -2.52236,-2.67759 -2.52236,-7.21785 0,-2.94922 1.12536,-5.19995 1.16417,-2.25072 3.33728,-3.4925 2.17312,-1.24178 5.16115,-1.24178 1.28058,0 2.71639,0.62089 1.47461,0.62089 2.59998,1.59103 l 1.12536,-1.70745 h 2.63878 z m -5.08353,-6.28651 v -8.03276 q -1.00895,-0.85372 -1.94028,-1.20297 -0.93134,-0.38806 -2.01789,-0.38806 -2.0567,0 -3.25968,1.59103 -1.20297,1.55223 -1.20297,4.03578 0,2.48356 1.16417,4.03579 1.20297,1.51342 3.29848,1.51342 1.00894,0 1.94028,-0.38806 0.97014,-0.38806 2.01789,-1.16417 z"
       style="font-size:10.5833px;-inkscape-font-specification:'Mosk, Bold';direction:rtl;display:inline;mix-blend-mode:normal;stroke-width:0.264583"
       id="path52202"
       clip-path="url(#clipPath60437)"
       inkscape:path-effect="#path-effect60441"
       inkscape:original-d="m 193.68845,171.55835 q 0,3.88056 -2.71639,5.93726 -2.71639,2.0955 -7.29545,2.0955 -1.43581,0 -3.88056,-0.62089 -2.44476,-0.58209 -3.80295,-1.51342 l 1.51341,-3.57012 q 1.74626,0.85373 3.18206,1.24178 1.43581,0.38806 2.87162,0.42687 2.28953,-0.0388 3.64772,-1.12537 1.39701,-1.08655 1.39701,-2.91042 v -1.59103 q -1.94028,1.20298 -4.1522,1.20298 -4.38504,0 -6.94621,-2.63878 -2.52236,-2.67759 -2.52236,-7.21785 0,-2.94922 1.12536,-5.19995 1.16417,-2.25072 3.33728,-3.4925 2.17312,-1.24178 5.16115,-1.24178 1.28058,0 2.71639,0.62089 1.47461,0.62089 2.59998,1.59103 l 1.12536,-1.70745 h 2.63878 z m -5.08353,-6.28651 v -8.03276 q -1.00895,-0.85372 -1.94028,-1.20297 -0.93134,-0.38806 -2.01789,-0.38806 -2.0567,0 -3.25968,1.59103 -1.20297,1.55223 -1.20297,4.03578 0,2.48356 1.16417,4.03579 1.20297,1.51342 3.29848,1.51342 1.00894,0 1.94028,-0.38806 0.97014,-0.38806 2.01789,-1.16417 z" />
    <path
       d="m 34.701889,171.13149 q -3.026837,0 -5.316367,-1.20298 -2.250725,-1.20297 -3.492504,-3.41489 -1.241779,-2.25072 -1.241779,-5.23876 0,-2.98803 1.241779,-5.23875 1.241779,-2.25073 3.492504,-3.4537 2.28953,-1.24178 5.316367,-1.24178 3.026836,0 5.277561,1.20298 2.289531,1.20297 3.53131,3.45369 1.241779,2.21192 1.241779,5.19995 0,2.98803 -1.241779,5.23876 -1.241779,2.25072 -3.53131,3.4925 -2.250725,1.20298 -5.277561,1.20298 z m 4.8507,-9.93424 q 0,-2.44475 -1.358196,-3.99697 -1.358196,-1.55223 -3.492504,-1.55223 -2.095503,0 -3.492504,1.59103 -1.358196,1.59103 -1.358196,4.03578 0,2.44476 1.358196,3.99698 1.358196,1.55223 3.492504,1.55223 2.095502,0 3.453698,-1.59103 1.397002,-1.59103 1.397002,-4.03579 z"
       style="font-size:10.5833px;-inkscape-font-specification:'Mosk, Bold';direction:rtl;display:inline;mix-blend-mode:normal;stroke-width:0.264583"
       id="path52186"
       clip-path="url(#clipPath60421)"
       inkscape:path-effect="#path-effect60425"
       inkscape:original-d="m 34.701889,171.13149 q -3.026837,0 -5.316367,-1.20298 -2.250725,-1.20297 -3.492504,-3.41489 -1.241779,-2.25072 -1.241779,-5.23876 0,-2.98803 1.241779,-5.23875 1.241779,-2.25073 3.492504,-3.4537 2.28953,-1.24178 5.316367,-1.24178 3.026836,0 5.277561,1.20298 2.289531,1.20297 3.53131,3.45369 1.241779,2.21192 1.241779,5.19995 0,2.98803 -1.241779,5.23876 -1.241779,2.25072 -3.53131,3.4925 -2.250725,1.20298 -5.277561,1.20298 z m 4.8507,-9.93424 q 0,-2.44475 -1.358196,-3.99697 -1.358196,-1.55223 -3.492504,-1.55223 -2.095503,0 -3.492504,1.59103 -1.358196,1.59103 -1.358196,4.03578 0,2.44476 1.358196,3.99698 1.358196,1.55223 3.492504,1.55223 2.095502,0 3.453698,-1.59103 1.397002,-1.59103 1.397002,-4.03579 z" />
    <path
       d="m 57.946473,155.41522 q -1.31939,0 -2.483558,0.62089 -1.164168,0.58208 -2.56117,1.59103 v 13.03868 H 47.857017 V 151.8451 h 3.298476 l 0.853723,2.0179 q 1.746252,-1.24178 3.725338,-1.94028 1.979085,-0.69851 3.531309,-0.69851 3.570116,0 5.005923,2.0179 1.435807,2.01789 1.435807,5.62681 v 11.7969 h -5.044728 v -11.56407 q 0,-1.74625 -0.737306,-2.71639 -0.698501,-0.97014 -1.979086,-0.97014 z"
       style="font-size:10.5833px;-inkscape-font-specification:'Mosk, Bold';direction:rtl;display:inline;mix-blend-mode:normal;stroke-width:0.264583"
       id="path52188" />
    <path
       d="m 79.910443,155.41522 q -1.31939,0 -2.483558,0.62089 -1.164168,0.58208 -2.56117,1.59103 v 13.03868 H 69.820987 V 151.8451 h 3.298476 l 0.853724,2.0179 q 1.746251,-1.24178 3.725337,-1.94028 1.979086,-0.69851 3.53131,-0.69851 3.570115,0 5.005922,2.0179 1.435807,2.01789 1.435807,5.62681 v 11.7969 h -5.044728 v -11.56407 q 0,-1.74625 -0.737306,-2.71639 -0.698501,-0.97014 -1.979086,-0.97014 z"
       style="font-size:10.5833px;-inkscape-font-specification:'Mosk, Bold';direction:rtl;display:inline;mix-blend-mode:normal;stroke-width:0.264583"
       id="path52190" />
    <path
       d="m 100.08935,151.34063 q 2.83281,0 4.77309,1.31939 1.94028,1.31939 2.87162,3.57012 0.93133,2.21192 0.93133,4.96711 v 1.55223 H 95.975958 q 0.388056,1.97908 1.668641,3.02683 1.319391,1.04776 3.996981,1.04776 1.55222,0 2.794,-0.42687 1.24178,-0.42686 2.67759,-1.24178 l 1.47461,3.64773 q -1.43581,1.12536 -3.10445,1.74625 -1.66864,0.58209 -3.95817,0.58209 -5.355174,0 -8.149177,-2.59998 -2.755197,-2.63878 -2.755197,-7.25665 0,-2.98803 1.125362,-5.23875 1.164168,-2.25073 3.298476,-3.4537 2.134308,-1.24178 5.044726,-1.24178 z m -0.116415,4.30742 q -1.552224,0 -2.599975,0.97014 -1.047751,0.93134 -1.358196,2.7552 h 7.877536 q -0.38806,-1.86267 -1.397,-2.794 -0.97014,-0.93134 -2.522365,-0.93134 z"
       style="font-size:10.5833px;-inkscape-font-specification:'Mosk, Bold';direction:rtl;display:inline;mix-blend-mode:normal;stroke-width:0.264583"
       id="path52192"
       clip-path="url(#clipPath60429)"
       inkscape:path-effect="#path-effect60433"
       inkscape:original-d="m 100.08935,151.34063 q 2.83281,0 4.77309,1.31939 1.94028,1.31939 2.87162,3.57012 0.93133,2.21192 0.93133,4.96711 v 1.55223 H 95.975958 q 0.388056,1.97908 1.668641,3.02683 1.319391,1.04776 3.996981,1.04776 1.55222,0 2.794,-0.42687 1.24178,-0.42686 2.67759,-1.24178 l 1.47461,3.64773 q -1.43581,1.12536 -3.10445,1.74625 -1.66864,0.58209 -3.95817,0.58209 -5.355174,0 -8.149177,-2.59998 -2.755197,-2.63878 -2.755197,-7.25665 0,-2.98803 1.125362,-5.23875 1.164168,-2.25073 3.298476,-3.4537 2.134308,-1.24178 5.044726,-1.24178 z m -0.116415,4.30742 q -1.552224,0 -2.599975,0.97014 -1.047751,0.93134 -1.358196,2.7552 h 7.877536 q -0.38806,-1.86267 -1.397,-2.794 -0.97014,-0.93134 -2.522365,-0.93134 z" />
    <path
       d="m 120.61749,151.34063 q 1.31939,0 3.25967,0.54328 1.94028,0.54328 3.25967,1.43581 l -1.43581,3.60892 q -1.47461,-0.6597 -2.63878,-0.97014 -1.16417,-0.31045 -2.40595,-0.31045 -2.0955,0 -3.4925,1.59103 -1.3582,1.59103 -1.3582,4.03578 0,2.44476 1.3582,3.99698 1.35819,1.55223 3.4925,1.55223 1.24178,0 2.40595,-0.31045 1.16417,-0.31044 2.63878,-0.97014 l 1.43581,3.64773 q -1.20298,0.93133 -3.14326,1.4358 -1.94028,0.50448 -3.37608,0.50448 -3.02684,0 -5.31637,-1.20298 -2.25073,-1.20297 -3.4925,-3.41489 -1.20298,-2.25072 -1.20298,-5.23876 0,-2.98803 1.20298,-5.23875 1.24177,-2.25073 3.4925,-3.4537 2.28953,-1.24178 5.31637,-1.24178 z"
       style="font-size:10.5833px;-inkscape-font-specification:'Mosk, Bold';direction:rtl;display:inline;mix-blend-mode:normal;stroke-width:0.264583"
       id="path52194" />
    <path
       d="m 135.8681,151.88391 h 3.41489 l 1.55222,3.88056 h -4.96711 v 7.99395 q 0,1.51342 0.6985,2.44476 0.7373,0.93133 2.05669,0.93133 1.00895,0 2.0567,-0.50447 l 1.47461,3.64772 q -0.58208,0.46567 -1.74625,0.81492 -1.12536,0.34925 -2.05669,0.34925 -3.53131,0 -5.5104,-1.78506 -1.97908,-1.78505 -1.97908,-5.00592 v -8.88648 h -2.52237 v -3.88056 h 2.52237 v -4.46264 l 5.00592,-0.89253 z"
       style="font-size:10.5833px;-inkscape-font-specification:'Mosk, Bold';direction:rtl;display:inline;mix-blend-mode:normal;stroke-width:0.264583"
       id="path52196" />
    <path
       style="font-size:10.5833px;-inkscape-font-specification:'Mosk, Bold';direction:rtl;display:inline;mix-blend-mode:normal;stroke-width:0.264583"
       d="m 149.91575,151.8451 v 18.82072 h -5.04473 V 151.8451 Z"
       id="path52425" />
    <path
       d="m 164.2738,155.41522 q -1.31939,0 -2.48356,0.62089 -1.16417,0.58208 -2.56117,1.59103 v 13.03868 h -5.04473 V 151.8451 h 3.29848 l 0.85372,2.0179 q 1.74626,-1.24178 3.72534,-1.94028 1.97909,-0.69851 3.53131,-0.69851 3.57012,0 5.00592,2.0179 1.43581,2.01789 1.43581,5.62681 v 11.7969 h -5.04473 v -11.56407 q 0,-1.74625 -0.7373,-2.71639 -0.6985,-0.97014 -1.97909,-0.97014 z"
       style="font-size:10.5833px;-inkscape-font-specification:'Mosk, Bold';direction:rtl;display:inline;mix-blend-mode:normal;stroke-width:0.264583"
       id="path52200" />
    <path
       d="m 205.17496,170.66582 10.28348,-26.38781 h 4.26861 l 10.24468,26.07737 -5.04472,0.6985 -2.36715,-6.59696 h -10.01184 l -2.32834,6.2089 z m 8.84767,-10.28348 h 6.98501 l -3.53131,-9.19693 z"
       style="font-size:10.5833px;-inkscape-font-specification:'Mosk, Bold';direction:rtl;display:inline;mix-blend-mode:normal;stroke-width:0.264583"
       id="path52204"
       clip-path="url(#clipPath60445)"
       inkscape:path-effect="#path-effect60449"
       inkscape:original-d="m 205.17496,170.66582 10.28348,-26.38781 h 4.26861 l 10.24468,26.07737 -5.04472,0.6985 -2.36715,-6.59696 h -10.01184 l -2.32834,6.2089 z m 8.84767,-10.28348 h 6.98501 l -3.53131,-9.19693 z" />
    <path
       d="m 244.2134,155.88089 q -1.28058,0 -3.18205,0.93133 -1.86267,0.93134 -3.49251,2.36714 v 11.48646 h -5.04473 V 151.8451 h 2.63878 l 1.66865,3.14326 q 1.35819,-1.20298 3.18205,-2.17312 1.82387,-0.97014 3.22087,-0.97014 z"
       style="font-size:10.5833px;-inkscape-font-specification:'Mosk, Bold';direction:rtl;display:inline;mix-blend-mode:normal;stroke-width:0.264583"
       id="path52206" />
    <path
       d="m 254.03123,155.9973 q -1.28058,0 -2.8328,0.38806 -1.55223,0.34925 -2.63878,0.85372 l -1.3582,-4.191 q 1.00895,-0.6597 3.22086,-1.16417 2.21192,-0.54328 3.53131,-0.54328 2.25073,0 4.1134,0.89253 1.86267,0.89253 2.94922,2.48356 1.12537,1.59103 1.12537,3.57011 v 12.37899 h -3.29848 l -0.85372,-2.01789 q -2.36715,2.48356 -4.96712,2.48356 -3.37609,0 -5.08353,-1.62984 -1.70745,-1.66864 -1.70745,-4.46264 0,-2.87162 1.94028,-4.42384 1.94028,-1.59103 5.19995,-1.59103 h 3.68653 q -0.0388,-1.43581 -0.85372,-2.21192 -0.77611,-0.81492 -2.17312,-0.81492 z m -0.7373,6.40293 q -1.24178,0 -2.01789,0.77611 -0.73731,0.77611 -0.73731,1.86267 0,0.85372 0.6597,1.47461 0.6985,0.62089 1.74625,0.62089 2.25072,0 4.1522,-1.86267 v -2.87161 z"
       style="font-size:10.5833px;-inkscape-font-specification:'Mosk, Bold';direction:rtl;display:inline;mix-blend-mode:normal;stroke-width:0.264583"
       id="path52208"
       clip-path="url(#clipPath60453)"
       inkscape:path-effect="#path-effect60457"
       inkscape:original-d="m 254.03123,155.9973 q -1.28058,0 -2.8328,0.38806 -1.55223,0.34925 -2.63878,0.85372 l -1.3582,-4.191 q 1.00895,-0.6597 3.22086,-1.16417 2.21192,-0.54328 3.53131,-0.54328 2.25073,0 4.1134,0.89253 1.86267,0.89253 2.94922,2.48356 1.12537,1.59103 1.12537,3.57011 v 12.37899 h -3.29848 l -0.85372,-2.01789 q -2.36715,2.48356 -4.96712,2.48356 -3.37609,0 -5.08353,-1.62984 -1.70745,-1.66864 -1.70745,-4.46264 0,-2.87162 1.94028,-4.42384 1.94028,-1.59103 5.19995,-1.59103 h 3.68653 q -0.0388,-1.43581 -0.85372,-2.21192 -0.77611,-0.81492 -2.17312,-0.81492 z m -0.7373,6.40293 q -1.24178,0 -2.01789,0.77611 -0.73731,0.77611 -0.73731,1.86267 0,0.85372 0.6597,1.47461 0.6985,0.62089 1.74625,0.62089 2.25072,0 4.1522,-1.86267 v -2.87161 z" />
    <path
       d="m 284.64886,161.19725 q 0,2.94923 -1.16417,5.19995 -1.12536,2.25073 -3.29847,3.49251 -2.17312,1.24178 -5.16115,1.24178 -1.16416,0 -2.44475,-0.50448 -1.28058,-0.50447 -2.36714,-1.28058 l -1.00895,1.31939 h -2.56117 v -26.96989 l 5.00593,-0.42686 v 8.92528 q 1.70744,-0.85372 3.53131,-0.85372 4.38503,0 6.90739,2.67759 2.56117,2.63878 2.56117,7.17903 z m -5.19995,0 q 0,-2.48355 -1.20297,-3.99697 -1.16417,-1.55223 -3.25967,-1.55223 -1.62984,0 -3.33728,1.12537 v 8.96409 q 1.59103,1.08656 3.33728,1.08656 2.05669,0 3.25967,-1.55223 1.20297,-1.59103 1.20297,-4.07459 z"
       style="font-size:10.5833px;-inkscape-font-specification:'Mosk, Bold';direction:rtl;display:inline;mix-blend-mode:normal;stroke-width:0.264583"
       id="path52210"
       clip-path="url(#clipPath60461)"
       inkscape:path-effect="#path-effect60465"
       inkscape:original-d="m 284.64886,161.19725 q 0,2.94923 -1.16417,5.19995 -1.12536,2.25073 -3.29847,3.49251 -2.17312,1.24178 -5.16115,1.24178 -1.16416,0 -2.44475,-0.50448 -1.28058,-0.50447 -2.36714,-1.28058 l -1.00895,1.31939 h -2.56117 v -26.96989 l 5.00593,-0.42686 v 8.92528 q 1.70744,-0.85372 3.53131,-0.85372 4.38503,0 6.90739,2.67759 2.56117,2.63878 2.56117,7.17903 z m -5.19995,0 q 0,-2.48355 -1.20297,-3.99697 -1.16417,-1.55223 -3.25967,-1.55223 -1.62984,0 -3.33728,1.12537 v 8.96409 q 1.59103,1.08656 3.33728,1.08656 2.05669,0 3.25967,-1.55223 1.20297,-1.59103 1.20297,-4.07459 z" />
    <path
       d="m 293.18614,171.13149 q -1.4358,0 -3.37608,-0.50448 -1.94028,-0.50447 -3.14326,-1.4358 l 1.51342,-3.4149 q 2.87162,1.28059 4.92831,1.28059 1.16417,0 2.13431,-0.42686 0.97014,-0.42686 0.97014,-1.20298 0,-1.51341 -3.29847,-2.52236 -2.67759,-0.89253 -4.46265,-2.28953 -1.78506,-1.397 -1.78506,-3.53131 0,-2.67759 1.97909,-4.191 1.97908,-1.55223 5.35517,-1.55223 1.31939,0 3.22087,0.54328 1.90147,0.54328 3.22086,1.43581 l -1.51342,3.37608 q -1.47461,-0.65969 -2.63878,-0.97014 -1.12536,-0.31044 -2.36714,-0.31044 -0.97014,0 -1.62983,0.50447 -0.62089,0.46567 -0.62089,1.12536 0,0.50448 0.7373,0.93134 0.77611,0.38805 2.21192,0.89253 2.7552,1.00894 4.57906,2.56117 1.82387,1.55222 1.82387,3.80295 0,2.8328 -2.0179,4.38503 -2.01789,1.51342 -5.82084,1.51342 z"
       style="font-size:10.5833px;-inkscape-font-specification:'Mosk, Bold';direction:rtl;display:inline;mix-blend-mode:normal;stroke-width:0.264583"
       id="path52212" />
    <path
       d="m 338.16188,151.8451 -6.01487,18.82072 h -4.22981 l -3.53131,-11.52526 -3.37608,11.52526 h -4.26862 l -5.62681,-18.0446 4.96711,-1.47462 2.91042,11.64168 2.7164,-10.94318 h 5.5492 l 2.91042,10.94318 2.67758,-10.94318 z"
       style="font-size:10.5833px;-inkscape-font-specification:'Mosk, Bold';direction:rtl;display:inline;mix-blend-mode:normal;stroke-width:0.264583"
       id="path52214" />
    <path
       style="font-size:10.5833px;-inkscape-font-specification:'Mosk, Bold';direction:rtl;display:inline;mix-blend-mode:normal;stroke-width:0.264583"
       d="m 345.72894,151.8451 v 18.82072 h -5.04473 V 151.8451 Z"
       id="path52403" />
    <path
       d="m 355.77957,151.88391 h 3.41489 l 1.55222,3.88056 h -4.96711 v 7.99395 q 0,1.51342 0.6985,2.44476 0.7373,0.93133 2.05669,0.93133 1.00895,0 2.0567,-0.50447 l 1.47461,3.64772 q -0.58208,0.46567 -1.74625,0.81492 -1.12536,0.34925 -2.0567,0.34925 -3.53131,0 -5.51039,-1.78506 -1.97909,-1.78505 -1.97909,-5.00592 v -8.88648 h -2.52236 v -3.88056 h 2.52236 v -4.46264 l 5.00593,-0.89253 z"
       style="font-size:10.5833px;-inkscape-font-specification:'Mosk, Bold';direction:rtl;display:inline;mix-blend-mode:normal;stroke-width:0.264583"
       id="path52218" />
    <path
       d="m 382.9823,158.86892 v 11.7969 h -5.04473 v -11.56407 q 0,-1.74625 -0.7373,-2.71639 -0.6985,-0.97014 -1.97909,-0.97014 -1.31939,0 -2.48356,0.62089 -1.16417,0.58208 -2.56117,1.59103 v 13.03868 h -5.00592 v -26.96989 l 5.00592,-0.42686 v 10.01184 q 1.59103,-0.97014 3.29848,-1.51342 1.70744,-0.54328 3.06564,-0.54328 3.57012,0 5.00592,2.0179 1.43581,2.01789 1.43581,5.62681 z"
       style="font-size:10.5833px;-inkscape-font-specification:'Mosk, Bold';direction:rtl;display:inline;mix-blend-mode:normal;stroke-width:0.264583"
       id="path52220" />
    <path
       d="m 401.99709,166.74645 h 11.64168 l 0.77611,3.91937 h -17.42371 v -26.38781 h 5.00592 z"
       style="font-size:10.5833px;-inkscape-font-specification:'Mosk, Bold';direction:rtl;display:inline;mix-blend-mode:normal;stroke-width:0.264583"
       id="path52222" />
    <path
       style="font-size:10.5833px;-inkscape-font-specification:'Mosk, Bold';direction:rtl;display:inline;mix-blend-mode:normal;stroke-width:0.264583"
       d="m 421.98202,151.8451 v 18.82072 h -5.04473 V 151.8451 Z"
       id="path52607" />
    <path
       style="font-size:10.5833px;-inkscape-font-specification:'Mosk, Bold';direction:rtl;display:inline;mix-blend-mode:normal;stroke-width:0.264583"
       d="m 422.29246,146.33471 q 0,1.20297 -0.85372,2.01789 -0.81492,0.81492 -2.01789,0.81492 -1.16417,0 -1.97909,-0.81492 -0.81491,-0.81492 -0.81491,-2.01789 0,-1.20297 0.81491,-2.01789 0.81492,-0.81492 1.97909,-0.81492 1.20297,0 2.01789,0.81492 0.85372,0.81492 0.85372,2.01789 z"
       id="path52224" />
    <path
       d="m 436.34007,155.41522 q -1.31939,0 -2.48356,0.62089 -1.16417,0.58208 -2.56117,1.59103 v 13.03868 h -5.04473 V 151.8451 h 3.29848 l 0.85372,2.0179 q 1.74625,-1.24178 3.72534,-1.94028 1.97909,-0.69851 3.53131,-0.69851 3.57012,0 5.00592,2.0179 1.43581,2.01789 1.43581,5.62681 v 11.7969 h -5.04473 v -11.56407 q 0,-1.74625 -0.7373,-2.71639 -0.69851,-0.97014 -1.97909,-0.97014 z"
       style="font-size:10.5833px;-inkscape-font-specification:'Mosk, Bold';direction:rtl;display:inline;mix-blend-mode:normal;stroke-width:0.264583"
       id="path52226" />
    <path
       d="m 455.82047,167.0957 q 1.31939,0 2.48356,-0.58208 1.16417,-0.62089 2.56117,-1.62983 V 151.8451 h 5.04473 v 18.82072 h -3.29848 l -0.85372,-2.01789 q -1.74626,1.24178 -3.72534,1.94028 -1.97909,0.6985 -3.53131,0.6985 -3.57012,0 -5.00592,-2.01789 -1.43581,-2.01789 -1.43581,-5.62681 V 151.8451 h 5.04473 v 11.56407 q 0,1.74625 0.6985,2.71639 0.73731,0.97014 2.01789,0.97014 z"
       style="font-size:10.5833px;-inkscape-font-specification:'Mosk, Bold';direction:rtl;display:inline;mix-blend-mode:normal;stroke-width:0.264583"
       id="path52228" />
    <path
       style="font-size:10.5833px;-inkscape-font-specification:'Mosk, Semi-Bold';direction:rtl;mix-blend-mode:normal;stroke-width:0.264583"
       d="m 419.43074,79.549151 -5.50923,0.532267 v 0.0088 z"
       id="path55060" />
  </g>
  <g
     inkscape:label="Layer 1"
     inkscape:groupmode="layer"
     id="layer1"
     style="display:none"
     transform="translate(5.5622859,-48.196038)">
    <path
       id="path59687"
       style="font-size:10.5833px;direction:rtl;display:inline;fill:#ffffff;stroke-width:0.999999"
       d="m 181.25195,216.92578 v 272 h 72.80078 V 345.72656 l 104.39844,143.19922 h 68 v -272 H 353.65234 V 364.52539 L 248.85156,216.92578 Z m 16,15.99414 h 43.33789 l 129.0586,181.7793 v -181.7793 h 40.80664 v 240.00781 h -43.8711 C 323.74196,414.15559 280.90062,355.38348 238.05859,296.61133 v 176.3164 h -40.80664 z"
       transform="scale(0.26458334)" />
    <path
       d="m 135.55089,130.27872 q -5.36223,0 -9.31334,-2.25778 -3.95112,-2.25778 -6.13834,-6.27945 -2.11667,-4.09222 -2.11667,-9.52501 0,-5.36222 2.11667,-9.38389 2.18722,-4.092226 6.20889,-6.350005 4.02167,-2.257779 9.3839,-2.257779 5.36222,0 9.31334,2.257779 4.02167,2.187224 6.13833,6.279445 2.18723,4.09223 2.18723,9.45445 0,5.36223 -2.18723,9.45446 -2.18722,4.09222 -6.20889,6.35 -4.02167,2.25778 -9.38389,2.25778 z m 9.59556,-17.99168 q 0,-5.00945 -2.61056,-8.11389 -2.54,-3.17501 -6.84389,-3.17501 -4.23334,0 -6.91445,3.17501 -2.61056,3.175 -2.68112,8.04333 0,5.00945 2.54001,8.1139 2.61055,3.10445 6.91445,3.10445 4.30389,0 6.91444,-3.17501 2.68112,-3.175 2.68112,-7.97278 z"
       style="font-size:10.5833px;-inkscape-font-specification:'Mosk, Semi-Bold';direction:rtl;display:inline;fill:#ff0000;stroke-width:0.264583"
       id="path59689" />
    <path
       d="m 161.44477,101.49203 h -5.22111 v -6.067779 h 5.22111 v -3.598336 q 0,-5.573892 3.17501,-8.748895 3.24555,-3.245557 8.89,-3.245557 1.55223,0 3.38667,0.564444 1.905,0.49389 2.89278,1.270001 l -2.18722,5.926671 q -2.25778,-0.846667 -3.52778,-0.846667 -2.39889,0 -3.52778,1.622779 -1.12889,1.622778 -1.12889,4.445003 v 2.610557 h 6.35 l 2.54,6.067779 h -8.89 v 44.09725 h -7.97279 z"
       style="font-size:10.5833px;-inkscape-font-specification:'Mosk, Semi-Bold';direction:rtl;display:inline;fill:#ffffff;stroke-width:0.264583"
       id="path59691" />
    <path
       d="m 196.93421,101.42148 q -4.65667,0 -9.87778,2.32833 l -2.18722,-6.491113 q 1.83444,-1.199446 5.64444,-2.116668 3.88056,-0.917223 6.27945,-0.917223 3.95112,0 7.19667,1.622779 3.31612,1.622778 5.22112,4.445005 1.905,2.75167 1.905,6.20889 v 22.86002 h -5.29167 l -1.19945,-3.45723 q -1.97555,1.905 -4.51555,3.10445 -2.54001,1.19944 -5.08001,1.19944 -5.92667,0 -9.03111,-2.96333 -3.0339,-2.96334 -3.0339,-7.90223 0,-5.15056 3.45723,-7.97278 3.52778,-2.82223 9.24278,-2.82223 h 7.4789 q -0.14111,-7.12611 -6.2089,-7.12611 z m -1.41111,12.41778 q -2.61056,0 -4.16278,1.62278 -1.48167,1.55223 -1.48167,3.88056 0,1.83445 1.34056,3.24556 1.34056,1.34055 3.66889,1.34055 2.18723,0 4.37445,-1.05833 2.18722,-1.05833 3.95111,-2.89278 v -6.13834 z"
       style="font-size:10.5833px;-inkscape-font-specification:'Mosk, Semi-Bold';direction:rtl;display:inline;fill:#ffffff;stroke-width:0.264583"
       id="path59693" />
    <path
       d="m 239.05585,101.49203 q -2.54001,0 -5.92667,1.76389 -3.38667,1.76389 -6.2089,4.30389 v 21.80169 h -7.90223 V 95.142029 h 4.23334 l 2.61056,5.644451 q 2.54,-2.116671 5.78556,-3.880561 3.31611,-1.76389 5.78556,-1.76389 z"
       style="font-size:10.5833px;-inkscape-font-specification:'Mosk, Semi-Bold';direction:rtl;display:inline;fill:#ffffff;stroke-width:0.264583"
       id="path59695" />
    <path
       d="m 256.90637,101.42148 q -4.65667,0 -9.87779,2.32833 l -2.18722,-6.491113 q 1.83444,-1.199446 5.64445,-2.116668 3.88055,-0.917223 6.27945,-0.917223 3.95111,0 7.19667,1.622779 3.31611,1.622778 5.22111,4.445005 1.905,2.75167 1.905,6.20889 v 22.86002 h -5.29167 l -1.19944,-3.45723 q -1.97556,1.905 -4.51556,3.10445 -2.54,1.19944 -5.08,1.19944 -5.92668,0 -9.03112,-2.96333 -3.03389,-2.96334 -3.03389,-7.90223 0,-5.15056 3.45722,-7.97278 3.52778,-2.82223 9.24279,-2.82223 h 7.47889 q -0.14111,-7.12611 -6.20889,-7.12611 z m -1.41112,12.41778 q -2.61055,0 -4.16278,1.62278 -1.48166,1.55223 -1.48166,3.88056 0,1.83445 1.34055,3.24556 1.34056,1.34055 3.66889,1.34055 2.18723,0 4.37445,-1.05833 2.18723,-1.05833 3.95112,-2.89278 v -6.13834 z"
       style="font-size:10.5833px;-inkscape-font-specification:'Mosk, Semi-Bold';direction:rtl;display:inline;fill:#ffffff;stroke-width:0.264583"
       id="path59697" />
    <path
       d="m 310.8108,107.34815 v 22.01335 h -7.90223 v -21.51946 q 0,-7.12612 -5.36222,-7.12612 -4.23334,0 -9.94834,4.72723 v 23.91835 h -7.90223 V 80.325352 l 7.90223,-0.776112 v 18.767791 q 2.89278,-1.975557 5.99722,-3.104447 3.10445,-1.199445 5.85612,-1.199445 11.35945,0 11.35945,13.335011 z"
       style="font-size:10.5833px;-inkscape-font-specification:'Mosk, Semi-Bold';direction:rtl;display:inline;fill:#ff0000;stroke-width:0.264583"
       id="path59699" />
    <path
       id="path59701"
       style="font-size:10.5833px;direction:rtl;display:inline;fill:#ffffff;stroke-width:0.999999"
       d="m 1113.1172,216.92578 v 57.20117 h 80 v 214.79883 h 72.8008 V 274.12695 h 86.7988 l -6.7988,-57.20117 z m 12,12.00195 h 210.1406 c 1.3165,11.06546 2.6328,22.12986 3.9492,33.19532 h -85.289 v 214.79883 h -48.795 V 262.12305 h -80.0058 z"
       transform="scale(0.26458334)" />
    <path
       d="m 356.49523,94.224806 q 7.54944,0 11.43,5.009447 3.88056,5.009447 3.88056,12.770567 v 2.32833 h -23.70668 q 1.05833,9.17223 10.93612,9.17223 2.75167,0 4.86833,-0.70556 2.18723,-0.77611 5.22112,-2.32833 l 2.39889,5.78556 q -5.71501,3.95111 -12.62945,3.95111 -9.31334,0 -14.25224,-4.79778 -4.86833,-4.86833 -4.86833,-13.1939 0,-5.36222 1.97555,-9.38389 2.04612,-4.092226 5.78556,-6.350005 3.81001,-2.257779 8.96057,-2.257779 z m -0.21167,6.773334 q -3.38667,0 -5.50334,2.11667 -2.04611,2.11667 -2.54,5.92667 h 15.94557 q -0.635,-3.95111 -2.61056,-5.99722 -1.97556,-2.04612 -5.29167,-2.04612 z"
       style="font-size:10.5833px;-inkscape-font-specification:'Mosk, Semi-Bold';direction:rtl;display:inline;fill:#ffffff;stroke-width:0.264583"
       id="path59703" />
    <path
       d="m 393.25476,123.43483 q 2.61056,0 4.72723,-0.56445 2.11667,-0.56444 4.65667,-1.76389 l 2.32833,5.78556 q -2.18722,1.55222 -5.715,2.46945 -3.52778,0.91722 -5.99723,0.91722 -5.36222,0 -9.31334,-2.25778 -3.95111,-2.25778 -6.13833,-6.27945 -2.11667,-4.09222 -2.11667,-9.52501 0,-5.36222 2.11667,-9.38389 2.18722,-4.092226 6.20889,-6.350005 4.02167,-2.257779 9.3839,-2.257779 2.39889,0 5.92667,0.987778 3.52778,0.917223 5.715,2.469446 l -2.25778,5.64445 q -2.75167,-1.19945 -4.86834,-1.76389 -2.04611,-0.56445 -4.51555,-0.56445 -4.23334,0 -6.91445,3.17501 -2.61056,3.175 -2.68112,8.04333 0,5.00945 2.54001,8.1139 2.61055,3.10445 6.91444,3.10445 z"
       style="font-size:10.5833px;-inkscape-font-specification:'Mosk, Semi-Bold';direction:rtl;display:inline;fill:#ffffff;stroke-width:0.264583"
       id="path59705" />
    <path
       style="font-size:10.5833px;-inkscape-font-specification:'Mosk, Semi-Bold';direction:rtl;display:inline;fill:#ffffff;stroke-width:0.264583"
       d="m 419.43074,79.549151 -5.50923,0.532267 v 0.0088 z"
       id="path59707" />
    <path
       d="m 193.68845,171.55835 q 0,3.88056 -2.71639,5.93726 -2.71639,2.0955 -7.29545,2.0955 -1.43581,0 -3.88056,-0.62089 -2.44476,-0.58209 -3.80295,-1.51342 l 1.51341,-3.57012 q 1.74626,0.85373 3.18206,1.24178 1.43581,0.38806 2.87162,0.42687 2.28953,-0.0388 3.64772,-1.12537 1.39701,-1.08655 1.39701,-2.91042 v -1.59103 q -1.94028,1.20298 -4.1522,1.20298 -4.38504,0 -6.94621,-2.63878 -2.52236,-2.67759 -2.52236,-7.21785 0,-2.94922 1.12536,-5.19995 1.16417,-2.25072 3.33728,-3.4925 2.17312,-1.24178 5.16115,-1.24178 1.28058,0 2.71639,0.62089 1.47461,0.62089 2.59998,1.59103 l 1.12536,-1.70745 h 2.63878 z m -5.08353,-6.28651 v -8.03276 q -1.00895,-0.85372 -1.94028,-1.20297 -0.93134,-0.38806 -2.01789,-0.38806 -2.0567,0 -3.25968,1.59103 -1.20297,1.55223 -1.20297,4.03578 0,2.48356 1.16417,4.03579 1.20297,1.51342 3.29848,1.51342 1.00894,0 1.94028,-0.38806 0.97014,-0.38806 2.01789,-1.16417 z"
       style="font-size:10.5833px;-inkscape-font-specification:'Mosk, Bold';direction:rtl;display:inline;fill:#ffffff;stroke-width:0.264583"
       id="path59709" />
    <path
       d="m 34.701889,171.13149 q -3.026837,0 -5.316367,-1.20298 -2.250725,-1.20297 -3.492504,-3.41489 -1.241779,-2.25072 -1.241779,-5.23876 0,-2.98803 1.241779,-5.23875 1.241779,-2.25073 3.492504,-3.4537 2.28953,-1.24178 5.316367,-1.24178 3.026836,0 5.277561,1.20298 2.289531,1.20297 3.53131,3.45369 1.241779,2.21192 1.241779,5.19995 0,2.98803 -1.241779,5.23876 -1.241779,2.25072 -3.53131,3.4925 -2.250725,1.20298 -5.277561,1.20298 z m 4.8507,-9.93424 q 0,-2.44475 -1.358196,-3.99697 -1.358196,-1.55223 -3.492504,-1.55223 -2.095503,0 -3.492504,1.59103 -1.358196,1.59103 -1.358196,4.03578 0,2.44476 1.358196,3.99698 1.358196,1.55223 3.492504,1.55223 2.095502,0 3.453698,-1.59103 1.397002,-1.59103 1.397002,-4.03579 z"
       style="font-size:10.5833px;-inkscape-font-specification:'Mosk, Bold';direction:rtl;display:inline;fill:#ffffff;stroke-width:0.264583"
       id="path59711" />
    <path
       d="m 57.946473,155.41522 q -1.31939,0 -2.483558,0.62089 -1.164168,0.58208 -2.56117,1.59103 v 13.03868 H 47.857017 V 151.8451 h 3.298476 l 0.853723,2.0179 q 1.746252,-1.24178 3.725338,-1.94028 1.979085,-0.69851 3.531309,-0.69851 3.570116,0 5.005923,2.0179 1.435807,2.01789 1.435807,5.62681 v 11.7969 h -5.044728 v -11.56407 q 0,-1.74625 -0.737306,-2.71639 -0.698501,-0.97014 -1.979086,-0.97014 z"
       style="font-size:10.5833px;-inkscape-font-specification:'Mosk, Bold';direction:rtl;display:inline;fill:#ffffff;stroke-width:0.264583"
       id="path59713" />
    <path
       d="m 79.910443,155.41522 q -1.31939,0 -2.483558,0.62089 -1.164168,0.58208 -2.56117,1.59103 v 13.03868 H 69.820987 V 151.8451 h 3.298476 l 0.853724,2.0179 q 1.746251,-1.24178 3.725337,-1.94028 1.979086,-0.69851 3.53131,-0.69851 3.570115,0 5.005922,2.0179 1.435807,2.01789 1.435807,5.62681 v 11.7969 h -5.044728 v -11.56407 q 0,-1.74625 -0.737306,-2.71639 -0.698501,-0.97014 -1.979086,-0.97014 z"
       style="font-size:10.5833px;-inkscape-font-specification:'Mosk, Bold';direction:rtl;display:inline;fill:#ffffff;stroke-width:0.264583"
       id="path59715" />
    <path
       d="m 100.08935,151.34063 q 2.83281,0 4.77309,1.31939 1.94028,1.31939 2.87162,3.57012 0.93133,2.21192 0.93133,4.96711 v 1.55223 H 95.975958 q 0.388056,1.97908 1.668641,3.02683 1.319391,1.04776 3.996981,1.04776 1.55222,0 2.794,-0.42687 1.24178,-0.42686 2.67759,-1.24178 l 1.47461,3.64773 q -1.43581,1.12536 -3.10445,1.74625 -1.66864,0.58209 -3.95817,0.58209 -5.355174,0 -8.149177,-2.59998 -2.755197,-2.63878 -2.755197,-7.25665 0,-2.98803 1.125362,-5.23875 1.164168,-2.25073 3.298476,-3.4537 2.134308,-1.24178 5.044726,-1.24178 z m -0.116415,4.30742 q -1.552224,0 -2.599975,0.97014 -1.047751,0.93134 -1.358196,2.7552 h 7.877536 q -0.38806,-1.86267 -1.397,-2.794 -0.97014,-0.93134 -2.522365,-0.93134 z"
       style="font-size:10.5833px;-inkscape-font-specification:'Mosk, Bold';direction:rtl;display:inline;fill:#ffffff;stroke-width:0.264583"
       id="path59717" />
    <path
       d="m 120.61749,151.34063 q 1.31939,0 3.25967,0.54328 1.94028,0.54328 3.25967,1.43581 l -1.43581,3.60892 q -1.47461,-0.6597 -2.63878,-0.97014 -1.16417,-0.31045 -2.40595,-0.31045 -2.0955,0 -3.4925,1.59103 -1.3582,1.59103 -1.3582,4.03578 0,2.44476 1.3582,3.99698 1.35819,1.55223 3.4925,1.55223 1.24178,0 2.40595,-0.31045 1.16417,-0.31044 2.63878,-0.97014 l 1.43581,3.64773 q -1.20298,0.93133 -3.14326,1.4358 -1.94028,0.50448 -3.37608,0.50448 -3.02684,0 -5.31637,-1.20298 -2.25073,-1.20297 -3.4925,-3.41489 -1.20298,-2.25072 -1.20298,-5.23876 0,-2.98803 1.20298,-5.23875 1.24177,-2.25073 3.4925,-3.4537 2.28953,-1.24178 5.31637,-1.24178 z"
       style="font-size:10.5833px;-inkscape-font-specification:'Mosk, Bold';direction:rtl;display:inline;fill:#ffffff;stroke-width:0.264583"
       id="path59719" />
    <path
       d="m 135.8681,151.88391 h 3.41489 l 1.55222,3.88056 h -4.96711 v 7.99395 q 0,1.51342 0.6985,2.44476 0.7373,0.93133 2.05669,0.93133 1.00895,0 2.0567,-0.50447 l 1.47461,3.64772 q -0.58208,0.46567 -1.74625,0.81492 -1.12536,0.34925 -2.05669,0.34925 -3.53131,0 -5.5104,-1.78506 -1.97908,-1.78505 -1.97908,-5.00592 v -8.88648 h -2.52237 v -3.88056 h 2.52237 v -4.46264 l 5.00592,-0.89253 z"
       style="font-size:10.5833px;-inkscape-font-specification:'Mosk, Bold';direction:rtl;display:inline;fill:#ffffff;stroke-width:0.264583"
       id="path59721" />
    <path
       style="font-size:10.5833px;-inkscape-font-specification:'Mosk, Bold';direction:rtl;display:inline;fill:#ffffff;stroke-width:0.264583"
       d="m 149.91575,151.8451 v 18.82072 h -5.04473 V 151.8451 Z"
       id="path59723" />
    <path
       d="m 164.2738,155.41522 q -1.31939,0 -2.48356,0.62089 -1.16417,0.58208 -2.56117,1.59103 v 13.03868 h -5.04473 V 151.8451 h 3.29848 l 0.85372,2.0179 q 1.74626,-1.24178 3.72534,-1.94028 1.97909,-0.69851 3.53131,-0.69851 3.57012,0 5.00592,2.0179 1.43581,2.01789 1.43581,5.62681 v 11.7969 h -5.04473 v -11.56407 q 0,-1.74625 -0.7373,-2.71639 -0.6985,-0.97014 -1.97909,-0.97014 z"
       style="font-size:10.5833px;-inkscape-font-specification:'Mosk, Bold';direction:rtl;display:inline;fill:#ffffff;stroke-width:0.264583"
       id="path59725" />
    <path
       d="m 205.17496,170.66582 10.28348,-26.38781 h 4.26861 l 10.24468,26.07737 -5.04472,0.6985 -2.36715,-6.59696 h -10.01184 l -2.32834,6.2089 z m 8.84767,-10.28348 h 6.98501 l -3.53131,-9.19693 z"
       style="font-size:10.5833px;-inkscape-font-specification:'Mosk, Bold';direction:rtl;display:inline;fill:#ffffff;stroke-width:0.264583"
       id="path59727" />
    <path
       d="m 244.2134,155.88089 q -1.28058,0 -3.18205,0.93133 -1.86267,0.93134 -3.49251,2.36714 v 11.48646 h -5.04473 V 151.8451 h 2.63878 l 1.66865,3.14326 q 1.35819,-1.20298 3.18205,-2.17312 1.82387,-0.97014 3.22087,-0.97014 z"
       style="font-size:10.5833px;-inkscape-font-specification:'Mosk, Bold';direction:rtl;display:inline;fill:#ffffff;stroke-width:0.264583"
       id="path59729" />
    <path
       d="m 254.03123,155.9973 q -1.28058,0 -2.8328,0.38806 -1.55223,0.34925 -2.63878,0.85372 l -1.3582,-4.191 q 1.00895,-0.6597 3.22086,-1.16417 2.21192,-0.54328 3.53131,-0.54328 2.25073,0 4.1134,0.89253 1.86267,0.89253 2.94922,2.48356 1.12537,1.59103 1.12537,3.57011 v 12.37899 h -3.29848 l -0.85372,-2.01789 q -2.36715,2.48356 -4.96712,2.48356 -3.37609,0 -5.08353,-1.62984 -1.70745,-1.66864 -1.70745,-4.46264 0,-2.87162 1.94028,-4.42384 1.94028,-1.59103 5.19995,-1.59103 h 3.68653 q -0.0388,-1.43581 -0.85372,-2.21192 -0.77611,-0.81492 -2.17312,-0.81492 z m -0.7373,6.40293 q -1.24178,0 -2.01789,0.77611 -0.73731,0.77611 -0.73731,1.86267 0,0.85372 0.6597,1.47461 0.6985,0.62089 1.74625,0.62089 2.25072,0 4.1522,-1.86267 v -2.87161 z"
       style="font-size:10.5833px;-inkscape-font-specification:'Mosk, Bold';direction:rtl;display:inline;fill:#ffffff;stroke-width:0.264583"
       id="path59731" />
    <path
       d="m 284.64886,161.19725 q 0,2.94923 -1.16417,5.19995 -1.12536,2.25073 -3.29847,3.49251 -2.17312,1.24178 -5.16115,1.24178 -1.16416,0 -2.44475,-0.50448 -1.28058,-0.50447 -2.36714,-1.28058 l -1.00895,1.31939 h -2.56117 v -26.96989 l 5.00593,-0.42686 v 8.92528 q 1.70744,-0.85372 3.53131,-0.85372 4.38503,0 6.90739,2.67759 2.56117,2.63878 2.56117,7.17903 z m -5.19995,0 q 0,-2.48355 -1.20297,-3.99697 -1.16417,-1.55223 -3.25967,-1.55223 -1.62984,0 -3.33728,1.12537 v 8.96409 q 1.59103,1.08656 3.33728,1.08656 2.05669,0 3.25967,-1.55223 1.20297,-1.59103 1.20297,-4.07459 z"
       style="font-size:10.5833px;-inkscape-font-specification:'Mosk, Bold';direction:rtl;display:inline;fill:#ffffff;stroke-width:0.264583"
       id="path59733" />
    <path
       d="m 293.18614,171.13149 q -1.4358,0 -3.37608,-0.50448 -1.94028,-0.50447 -3.14326,-1.4358 l 1.51342,-3.4149 q 2.87162,1.28059 4.92831,1.28059 1.16417,0 2.13431,-0.42686 0.97014,-0.42686 0.97014,-1.20298 0,-1.51341 -3.29847,-2.52236 -2.67759,-0.89253 -4.46265,-2.28953 -1.78506,-1.397 -1.78506,-3.53131 0,-2.67759 1.97909,-4.191 1.97908,-1.55223 5.35517,-1.55223 1.31939,0 3.22087,0.54328 1.90147,0.54328 3.22086,1.43581 l -1.51342,3.37608 q -1.47461,-0.65969 -2.63878,-0.97014 -1.12536,-0.31044 -2.36714,-0.31044 -0.97014,0 -1.62983,0.50447 -0.62089,0.46567 -0.62089,1.12536 0,0.50448 0.7373,0.93134 0.77611,0.38805 2.21192,0.89253 2.7552,1.00894 4.57906,2.56117 1.82387,1.55222 1.82387,3.80295 0,2.8328 -2.0179,4.38503 -2.01789,1.51342 -5.82084,1.51342 z"
       style="font-size:10.5833px;-inkscape-font-specification:'Mosk, Bold';direction:rtl;display:inline;fill:#ffffff;stroke-width:0.264583"
       id="path59735" />
    <path
       d="m 338.16188,151.8451 -6.01487,18.82072 h -4.22981 l -3.53131,-11.52526 -3.37608,11.52526 h -4.26862 l -5.62681,-18.0446 4.96711,-1.47462 2.91042,11.64168 2.7164,-10.94318 h 5.5492 l 2.91042,10.94318 2.67758,-10.94318 z"
       style="font-size:10.5833px;-inkscape-font-specification:'Mosk, Bold';direction:rtl;display:inline;fill:#ffffff;stroke-width:0.264583"
       id="path59737" />
    <path
       style="font-size:10.5833px;-inkscape-font-specification:'Mosk, Bold';direction:rtl;display:inline;fill:#ffffff;stroke-width:0.264583"
       d="m 345.72894,151.8451 v 18.82072 h -5.04473 V 151.8451 Z"
       id="path59739" />
    <path
       d="m 355.77957,151.88391 h 3.41489 l 1.55222,3.88056 h -4.96711 v 7.99395 q 0,1.51342 0.6985,2.44476 0.7373,0.93133 2.05669,0.93133 1.00895,0 2.0567,-0.50447 l 1.47461,3.64772 q -0.58208,0.46567 -1.74625,0.81492 -1.12536,0.34925 -2.0567,0.34925 -3.53131,0 -5.51039,-1.78506 -1.97909,-1.78505 -1.97909,-5.00592 v -8.88648 h -2.52236 v -3.88056 h 2.52236 v -4.46264 l 5.00593,-0.89253 z"
       style="font-size:10.5833px;-inkscape-font-specification:'Mosk, Bold';direction:rtl;display:inline;fill:#ffffff;stroke-width:0.264583"
       id="path59741" />
    <path
       d="m 382.9823,158.86892 v 11.7969 h -5.04473 v -11.56407 q 0,-1.74625 -0.7373,-2.71639 -0.6985,-0.97014 -1.97909,-0.97014 -1.31939,0 -2.48356,0.62089 -1.16417,0.58208 -2.56117,1.59103 v 13.03868 h -5.00592 v -26.96989 l 5.00592,-0.42686 v 10.01184 q 1.59103,-0.97014 3.29848,-1.51342 1.70744,-0.54328 3.06564,-0.54328 3.57012,0 5.00592,2.0179 1.43581,2.01789 1.43581,5.62681 z"
       style="font-size:10.5833px;-inkscape-font-specification:'Mosk, Bold';direction:rtl;display:inline;fill:#ffffff;stroke-width:0.264583"
       id="path59743" />
    <path
       d="m 401.99709,166.74645 h 11.64168 l 0.77611,3.91937 h -17.42371 v -26.38781 h 5.00592 z"
       style="font-size:10.5833px;-inkscape-font-specification:'Mosk, Bold';direction:rtl;display:inline;fill:#ffffff;stroke-width:0.264583"
       id="path59745" />
    <path
       style="font-size:10.5833px;-inkscape-font-specification:'Mosk, Bold';direction:rtl;display:inline;fill:#ffffff;stroke-width:0.264583"
       d="m 421.98202,151.8451 v 18.82072 h -5.04473 V 151.8451 Z"
       id="path59747" />
    <path
       style="font-size:10.5833px;-inkscape-font-specification:'Mosk, Bold';direction:rtl;display:inline;fill:#ff0000;stroke-width:0.264583"
       d="m 422.29246,146.33471 q 0,1.20297 -0.85372,2.01789 -0.81492,0.81492 -2.01789,0.81492 -1.16417,0 -1.97909,-0.81492 -0.81491,-0.81492 -0.81491,-2.01789 0,-1.20297 0.81491,-2.01789 0.81492,-0.81492 1.97909,-0.81492 1.20297,0 2.01789,0.81492 0.85372,0.81492 0.85372,2.01789 z"
       id="path59749" />
    <path
       d="m 436.34007,155.41522 q -1.31939,0 -2.48356,0.62089 -1.16417,0.58208 -2.56117,1.59103 v 13.03868 h -5.04473 V 151.8451 h 3.29848 l 0.85372,2.0179 q 1.74625,-1.24178 3.72534,-1.94028 1.97909,-0.69851 3.53131,-0.69851 3.57012,0 5.00592,2.0179 1.43581,2.01789 1.43581,5.62681 v 11.7969 h -5.04473 v -11.56407 q 0,-1.74625 -0.7373,-2.71639 -0.69851,-0.97014 -1.97909,-0.97014 z"
       style="font-size:10.5833px;-inkscape-font-specification:'Mosk, Bold';direction:rtl;display:inline;fill:#ffffff;stroke-width:0.264583"
       id="path59751" />
    <path
       d="m 455.82047,167.0957 q 1.31939,0 2.48356,-0.58208 1.16417,-0.62089 2.56117,-1.62983 V 151.8451 h 5.04473 v 18.82072 h -3.29848 l -0.85372,-2.01789 q -1.74626,1.24178 -3.72534,1.94028 -1.97909,0.6985 -3.53131,0.6985 -3.57012,0 -5.00592,-2.01789 -1.43581,-2.01789 -1.43581,-5.62681 V 151.8451 h 5.04473 v 11.56407 q 0,1.74625 0.6985,2.71639 0.73731,0.97014 2.01789,0.97014 z"
       style="font-size:10.5833px;-inkscape-font-specification:'Mosk, Bold';direction:rtl;display:inline;fill:#ffffff;stroke-width:0.264583"
       id="path59753" />
    <path
       style="font-size:10.5833px;-inkscape-font-specification:'Mosk, Semi-Bold';direction:rtl;fill:#ffffff;stroke-width:0.264583"
       d="m 419.43074,79.549151 -5.50923,0.532267 v 0.0088 z"
       id="path59803" />
  </g>
  <g
     inkscape:groupmode="layer"
     id="layer2"
     inkscape:label="Layer 2"
     style="display:none"
     transform="translate(5.5622859,-48.196038)">
    <path
       id="path62580"
       style="font-size:10.5833px;-inkscape-font-specification:'Mosk, Semi-Bold';direction:rtl;fill:#000000;stroke-width:0.264583;filter:url(#filter62600)"
       d="m 413.9215,62.191554 v 0.05994 H 58.615024 v 0.0011 h -3.763078 v 83.209386 l -31.976343,-0.0196 -1.561662,3.60857 h 39.032244 0.01498 V 67.76124 H 413.9215 v 12.320177 49.279163 h 5.50923 v -23.91741 c 3.81,-3.15148 7.12653,-4.72736 9.94876,-4.72736 3.57481,0 5.36194,2.37544 5.36194,7.12619 v 21.51961 h 7.90236 39.29269 v 22.48338 l -3.88038,6.01514 -4.26847,-6.63577 -4.69585,1.43557 5.74331,8.42068 -6.4027,9.58546 h 5.58778 l 3.7641,-5.6658 3.49282,5.6658 h 5.54902 l -5.78209,-8.84804 6.40323,-9.97304 v 0 -26.94254 h -0.003 v -1.05006 h -44.80036 v -16.50442 c 0,-8.890007 -3.78656,-13.334587 -11.35951,-13.334587 -1.83447,0 -3.78635,0.39978 -5.85597,1.19941 -2.06965,0.75259 -4.06906,1.78717 -5.99758,3.10421 V 79.54915 62.191554 Z m -392.607559,86.859296 1.55236,-3.60857 c -1.034816,-0.56914 -2.225064,-0.99596 -3.570325,-1.28054 -1.34526,-0.28458 -2.483444,-0.42684 -3.414778,-0.42684 -2.535299,0 -4.773006,0.59486 -6.7132858,1.7849 -1.9144097,1.16417 -3.4020907,2.79412 -4.462777,4.88962 -1.0348158,2.0955 -1.5523599,4.48837 -1.5523599,7.1789 0,2.58703 0.4788832,4.91546 1.436088,6.9851 0.9572048,2.04376 2.3799343,3.66082 4.2684733,4.85086 1.8885394,1.19004 4.1654234,1.78491 6.8300744,1.78491 1.138298,0 2.405867,-0.15516 3.802869,-0.46561 1.422872,-0.31044 2.62549,-0.72437 3.608565,-1.24178 l -1.901176,-3.72536 c -1.94028,0.80199 -3.867667,1.20303 -5.782076,1.20303 -1.448743,0 -2.703426,-0.41393 -3.764112,-1.24178 -1.060686,-0.85373 -1.8756629,-1.99243 -2.4448116,-3.4153 -0.5432785,-1.44874 -0.8149373,-3.03952 -0.8149373,-4.77283 0,-1.94028 0.3103197,-3.63467 0.9312093,-5.08341 0.6467599,-1.44874 1.5266886,-2.56116 2.6391156,-3.33727 1.112427,-0.77611 2.367109,-1.16427 3.764111,-1.16427 0.879594,0 1.616732,0.0644 2.211752,0.19379 0.595019,0.10348 1.397109,0.3107 2.406054,0.62115 z" />
    <path
       id="path53988"
       style="font-size:10.5833px;-inkscape-font-specification:'Mosk, Semi-Bold';direction:rtl;fill:#ff0000;stroke-width:0.264583"
       d="m 413.9215,62.191554 v 0.05994 H 58.615024 v 0.0011 h -3.763078 v 83.209386 l -31.976343,-0.0196 -1.561662,3.60857 h 39.032244 0.01498 V 67.76124 H 413.9215 v 12.320177 49.279163 h 5.50923 v -23.91741 c 3.81,-3.15148 7.12653,-4.72736 9.94876,-4.72736 3.57481,0 5.36194,2.37544 5.36194,7.12619 v 21.51961 h 7.90236 39.29269 v 22.48338 l -3.88038,6.01514 -4.26847,-6.63577 -4.69585,1.43557 5.74331,8.42068 -6.4027,9.58546 h 5.58778 l 3.7641,-5.6658 3.49282,5.6658 h 5.54902 l -5.78209,-8.84804 6.40323,-9.97304 v 0 -26.94254 h -0.003 v -1.05006 h -44.80036 v -16.50442 c 0,-8.890007 -3.78656,-13.334587 -11.35951,-13.334587 -1.83447,0 -3.78635,0.39978 -5.85597,1.19941 -2.06965,0.75259 -4.06906,1.78717 -5.99758,3.10421 V 79.54915 62.191554 Z m -392.607559,86.859296 1.55236,-3.60857 c -1.034816,-0.56914 -2.225064,-0.99596 -3.570325,-1.28054 -1.34526,-0.28458 -2.483444,-0.42684 -3.414778,-0.42684 -2.535299,0 -4.773006,0.59486 -6.7132858,1.7849 -1.9144097,1.16417 -3.4020907,2.79412 -4.462777,4.88962 -1.0348158,2.0955 -1.5523599,4.48837 -1.5523599,7.1789 0,2.58703 0.4788832,4.91546 1.436088,6.9851 0.9572048,2.04376 2.3799343,3.66082 4.2684733,4.85086 1.8885394,1.19004 4.1654234,1.78491 6.8300744,1.78491 1.138298,0 2.405867,-0.15516 3.802869,-0.46561 1.422872,-0.31044 2.62549,-0.72437 3.608565,-1.24178 l -1.901176,-3.72536 c -1.94028,0.80199 -3.867667,1.20303 -5.782076,1.20303 -1.448743,0 -2.703426,-0.41393 -3.764112,-1.24178 -1.060686,-0.85373 -1.8756629,-1.99243 -2.4448116,-3.4153 -0.5432785,-1.44874 -0.8149373,-3.03952 -0.8149373,-4.77283 0,-1.94028 0.3103197,-3.63467 0.9312093,-5.08341 0.6467599,-1.44874 1.5266886,-2.56116 2.6391156,-3.33727 1.112427,-0.77611 2.367109,-1.16427 3.764111,-1.16427 0.879594,0 1.616732,0.0644 2.211752,0.19379 0.595019,0.10348 1.397109,0.3107 2.406054,0.62115 z" />
  </g>
</svg>
