<?xml version="1.0" encoding="UTF-8" standalone="no"?>
<svg
   xmlns:dc="http://purl.org/dc/elements/1.1/"
   xmlns:cc="http://creativecommons.org/ns#"
   xmlns:rdf="http://www.w3.org/1999/02/22-rdf-syntax-ns#"
   xmlns:svg="http://www.w3.org/2000/svg"
   xmlns="http://www.w3.org/2000/svg"
   xmlns:sodipodi="http://sodipodi.sourceforge.net/DTD/sodipodi-0.dtd"
   xmlns:inkscape="http://www.inkscape.org/namespaces/inkscape"
   height="512pt"
   viewBox="0 -23 512.00073 512"
   width="512pt"
   version="1.1"
   id="svg976"
   sodipodi:docname="graphic-card.svg"
   inkscape:version="1.0.2 (e86c870879, 2021-01-15)">
  <metadata
     id="metadata982">
    <rdf:RDF>
      <cc:Work
         rdf:about="">
        <dc:format>image/svg+xml</dc:format>
        <dc:type
           rdf:resource="http://purl.org/dc/dcmitype/StillImage" />
      </cc:Work>
    </rdf:RDF>
  </metadata>
  <defs
     id="defs980" />
  <sodipodi:namedview
     pagecolor="#ffffff"
     bordercolor="#666666"
     borderopacity="1"
     objecttolerance="10"
     gridtolerance="10"
     guidetolerance="10"
     inkscape:pageopacity="0"
     inkscape:pageshadow="2"
     inkscape:window-width="1886"
     inkscape:window-height="992"
     id="namedview978"
     showgrid="false"
     inkscape:zoom="1.1821289"
     inkscape:cx="341.33333"
     inkscape:cy="341.33333"
     inkscape:window-x="16"
     inkscape:window-y="43"
     inkscape:window-maximized="0"
     inkscape:current-layer="svg976" />
  <path
     d="m445.566406 357.507812v76.894532c0 2.84375-2.316406 5.160156-5.171875 5.160156h-271.621093c-2.847657 0-5.164063-2.316406-5.164063-5.160156v-76.894532zm0 0"
     fill="#ffc14f"
     id="path930" />
  <path
     d="m512 100.203125v276.71875c0 6.558594-5.316406 11.878906-11.875 11.878906h-402.949219v-300.476562h402.949219c6.558594 0 11.875 5.320312 11.875 11.878906zm0 0"
     fill="#6990d7"
     id="path932"
     style="fill:#ff2a2a" />
  <path
     d="m512 100.203125v257.3125h-349.996094c-10.363281 0-18.769531-8.402344-18.769531-18.777344v-250.414062h356.890625c6.558594 0 11.875 5.320312 11.875 11.878906zm0 0"
     fill="#91aee2"
     id="path934"
     style="fill:#ff8080" />
  <g
     fill="#f29500"
     id="g950">
    <path
       d="m208.699219 414.109375v25.453125h-15.640625v-25.453125c0-4.316406 3.503906-7.820313 7.820312-7.820313s7.820313 3.503907 7.820313 7.820313zm0 0"
       id="path936" />
    <path
       d="m243.269531 414.109375v25.453125h-15.640625v-25.453125c0-4.316406 3.5-7.820313 7.820313-7.820313 4.316406 0 7.820312 3.503907 7.820312 7.820313zm0 0"
       id="path938" />
    <path
       d="m277.835938 414.109375v25.453125h-15.640626v-25.453125c0-4.316406 3.503907-7.820313 7.820313-7.820313s7.820313 3.503907 7.820313 7.820313zm0 0"
       id="path940" />
    <path
       d="m312.402344 414.109375v25.453125h-15.640625v-25.453125c0-4.316406 3.503906-7.820313 7.820312-7.820313 4.328125 0 7.820313 3.503907 7.820313 7.820313zm0 0"
       id="path942" />
    <path
       d="m346.980469 414.109375v25.453125h-15.640625v-25.453125c0-4.316406 3.496094-7.820313 7.820312-7.820313 4.320313 0 7.820313 3.503907 7.820313 7.820313zm0 0"
       id="path944" />
    <path
       d="m381.550781 414.109375v25.453125h-15.640625v-25.453125c0-4.316406 3.492188-7.820313 7.820313-7.820313 4.316406 0 7.820312 3.503907 7.820312 7.820313zm0 0"
       id="path946" />
    <path
       d="m416.117188 414.109375v25.453125h-15.640626v-25.453125c0-4.316406 3.492188-7.820313 7.820313-7.820313 4.316406 0 7.820313 3.503907 7.820313 7.820313zm0 0"
       id="path948" />
  </g>
  <path
     d="m248.597656 388.800781h-151.421875v-224.28125l9.71875.585938h16.445313c27.695312 0 52.378906 17.457031 61.605468 43.566406l61.304688 173.570313zm0 0"
     fill="#2e5aac"
     id="path952"
     style="fill:#aa0000" />
  <path
     d="m39.453125 106.34375h50.273437c4.320313 0 7.820313-3.5 7.820313-7.820312 0-4.316407-3.5-7.820313-7.820313-7.820313h-50.273437c-4.320313 0-7.820313 3.503906-7.820313 7.820313 0 4.320312 3.5 7.820312 7.820313 7.820312zm0 0"
     fill="#2e5aac"
     id="path954"
     style="fill:#aa0000" />
  <path
     d="m89.726562 358.695312h-50.273437c-4.320313 0-7.820313 3.5-7.820313 7.820313s3.5 7.820313 7.820313 7.820313h50.273437c4.320313 0 7.820313-3.5 7.820313-7.820313s-3.5-7.820313-7.820313-7.820313zm0 0"
     fill="#2e5aac"
     id="path956"
     style="fill:#aa0000" />
  <path
     d="m49.359375 139.367188c-5.472656 0-9.90625 4.433593-9.90625 9.90625v166.496093c0 5.46875 4.433594 9.90625 9.90625 9.90625h39.984375l.382812-186.308593zm0 0"
     fill="#2e5aac"
     id="path958"
     style="fill:#aa0000" />
  <path
     d="m360.214844 357.523438c-65.59375 0-118.960938-53.363282-118.960938-118.960938 0-65.59375 53.367188-118.960938 118.960938-118.960938 65.597656 0 118.960937 53.363282 118.960937 118.960938s-53.363281 118.960938-118.960937 118.960938zm0 0"
     fill="#4172cc"
     id="path960"
     style="fill:#ff5555" />
  <path
     d="m441.363281 238.558594c0 50.464844-45.515625 88.332031-94.421875 80.0625-29.105468-4.773438-52.984375-25.035156-62.910156-52.054688-3.210938-8.726562-4.964844-18.164062-4.964844-28.007812 0-44.808594 36.320313-81.148438 81.148438-81.148438 44.761718 0 81.148437 36.273438 81.148437 81.148438zm0 0"
     fill="#ebebf0"
     id="path962" />
  <path
     d="m436.378906 210.496094c-1.933594.125.746094.09375-18.289062.09375-7.78125 0-14.078125 6.308594-14.078125 14.078125 0 3.890625-1.574219 7.414062-4.121094 9.957031-5.132813 5.117188-9.648437 4.121094-23.847656 4.121094l-7.757813-13.796875 6.945313-12.03125c3.890625-6.738281 1.585937-15.339844-5.152344-19.230469-4.511719-2.605469-7.035156-7.339844-7.035156-12.199219 0-4.203125.695312-5.566406 11.0625-22.890625 28.800781 4.964844 52.410156 25.109375 62.273437 51.898438zm0 0"
     fill="#d2d2d7"
     id="path964" />
  <path
     d="m352.457031 224.761719-8.070312 13.617187h-13.890625c-7.777344 0-14.078125 6.300782-14.078125 14.078125 0 7.765625-6.296875 14.078125-14.078125 14.078125-19.054688 0-16.347656-.011718-18.308594.03125-3.210938-8.726562-4.964844-18.164062-4.964844-28.007812 0-19.65625 6.988282-37.6875 18.625-51.722656 1.265625 1.347656-.148437-.890626 9.363282 15.589843 3.890624 6.738281 12.492187 9.039063 19.230468 5.152344 6.898438-3.953125 15.417969-1.449219 19.226563 5.152344zm0 0"
     fill="#d2d2d7"
     id="path966" />
  <path
     d="m422.519531 290.5625c-18.5625 22.214844-47.398437 32.824219-75.578125 28.058594.195313-1.835938-.953125.527344 8.558594-15.953125 3.890625-6.738281 1.585938-15.339844-5.148438-19.230469-4.515624-2.605469-7.039062-7.339844-7.039062-12.199219 0-4.839843 1.617188-6.5625 8.832031-19.0625l15.828125.1875 6.945313 12.023438c3.878906 6.738281 12.492187 9.042969 19.230469 5.164062 6.714843-3.878906 15.332031-1.59375 19.226562 5.148438 9.515625 16.480469 8.140625 14.09375 9.144531 15.863281zm0 0"
     fill="#d2d2d7"
     id="path968" />
  <path
     d="m91.578125 465.023438c-8.71875-.414063-15.421875-7.917969-15.421875-16.644532v-410.007812c0-3.292969-2.667969-5.960938-5.960938-5.960938h-53.535156c-8.722656 0-16.230468-6.707031-16.6406248-15.421875-.4375002-9.304687 6.9765628-16.988281 16.1835938-16.988281h64.003906c15.660157 0 28.355469 12.695312 28.355469 28.359375v420.476563c.003906 9.210937-7.679688 16.625-16.984375 16.1875zm0 0"
     fill="#91aee2"
     id="path970"
     style="fill:#ff8080" />
  <path
     d="m376.226562 238.5625c0 8.839844-7.167968 16.007812-16.011718 16.007812-8.839844 0-16.007813-7.167968-16.007813-16.007812 0-8.84375 7.167969-16.011719 16.007813-16.011719 8.84375 0 16.011718 7.167969 16.011718 16.011719zm0 0"
     fill="#4172cc"
     id="path972"
     style="fill:#ff5555" />
  <path
     d="m184.945312 208.671875c-6.933593-19.625-22.597656-34.359375-41.710937-40.460937v170.527343c0 10.375 8.40625 18.777344 18.769531 18.777344h75.519532zm0 0"
     fill="#4172cc"
     id="path974"
     style="fill:#ff5555" />
</svg>
