<svg id="color" height="512" viewBox="0 0 24 24" width="512" xmlns="http://www.w3.org/2000/svg"><path d="m18.25 24h-12.5c-1.517 0-2.75-1.233-2.75-2.75v-18.5c0-1.517 1.233-2.75 2.75-2.75h12.5c1.517 0 2.75 1.233 2.75 2.75v18.5c0 1.517-1.233 2.75-2.75 2.75z" fill="#607d8b"/><path d="m18 9c0 3.314-2.687 6-6 6-3.314 0-6-2.686-6-6 0-3.313 2.686-6 6-6 3.313 0 6 2.687 6 6z" fill="#90a4ae"/><path d="m12 0h-6.25c-1.517 0-2.75 1.233-2.75 2.75v18.5c0 1.517 1.233 2.75 2.75 2.75h6.25v-9c-.204 0-.406-.01-.605-.03l-1.28 4.482c-.26.911-1.089 1.548-2.015 1.548-1.159 0-2.1-.967-2.1-2.156 0-.5.171-.988.48-1.374l.001-.001 2.601-3.225c-1.838-1.025-3.082-2.99-3.082-5.244 0-3.313 2.686-6 6-6z" fill="#546d79"/><path d="m12 3c-3.313 0-6 2.687-6 6 0 2.254 1.244 4.219 3.082 5.244l1.584-1.964c.146-.183.362-.28.584-.28.117 0 .236.027.346.084.316.165.474.529.375.872l-.575 2.014c.198.02.4.03.604.03z" fill="#7d8f97"/><path d="m8.1 21c-1.159 0-2.1-.967-2.1-2.156 0-.5.171-.988.48-1.373l.001-.001 4.185-5.19c.224-.278.611-.358.93-.195.316.165.474.529.375.872l-1.855 6.496c-.261.91-1.09 1.547-2.016 1.547z" fill="#fff"/><path d="m11.576 12.074-4.617 8.577-.001.002c.329.219.721.347 1.142.347.927 0 1.756-.637 2.016-1.548l1.855-6.496c.099-.343-.059-.708-.375-.872-.007-.003-.013-.007-.02-.01z" fill="#dedede"/><path d="m18 19.5c0 .829-.672 1.5-1.5 1.5s-1.5-.671-1.5-1.5.672-1.5 1.5-1.5 1.5.671 1.5 1.5z" fill="#fff"/><path d="m16.5 18c-.828 0-1.5.671-1.5 1.5s.672 1.5 1.5 1.5z" fill="#dedede"/></svg>