<?xml version="1.0" encoding="UTF-8" standalone="no"?>
<!-- Created with Inkscape (http://www.inkscape.org/) -->

<svg
   width="1050"
   height="1050"
   viewBox="0 0 277.81251 277.81255"
   version="1.1"
   id="svg5"
   inkscape:version="1.2.2 (b0a8486541, 2022-12-01)"
   sodipodi:docname="logo_2023.svg"
   inkscape:export-filename="logo_gradient.png"
   inkscape:export-xdpi="96"
   inkscape:export-ydpi="96"
   xmlns:inkscape="http://www.inkscape.org/namespaces/inkscape"
   xmlns:sodipodi="http://sodipodi.sourceforge.net/DTD/sodipodi-0.dtd"
   xmlns:xlink="http://www.w3.org/1999/xlink"
   xmlns="http://www.w3.org/2000/svg"
   xmlns:svg="http://www.w3.org/2000/svg">
  <sodipodi:namedview
     id="namedview7"
     pagecolor="#505050"
     bordercolor="#eeeeee"
     borderopacity="1"
     inkscape:showpageshadow="0"
     inkscape:pageopacity="0"
     inkscape:pagecheckerboard="0"
     inkscape:deskcolor="#505050"
     inkscape:document-units="px"
     showgrid="true"
     inkscape:zoom="0.8519574"
     inkscape:cx="147.30783"
     inkscape:cy="595.68706"
     inkscape:window-width="3840"
     inkscape:window-height="2037"
     inkscape:window-x="3840"
     inkscape:window-y="44"
     inkscape:window-maximized="1"
     inkscape:current-layer="layer2"
     inkscape:lockguides="true" />
  <defs
     id="defs2">
    <inkscape:path-effect
       effect="offset"
       id="path-effect307"
       is_visible="true"
       lpeversion="1.2"
       linejoin_type="miter"
       unit="px"
       offset="-5"
       miter_limit="4"
       attempt_force_join="false"
       update_on_knot_move="true" />
    <inkscape:path-effect
       effect="offset"
       id="path-effect300"
       is_visible="true"
       lpeversion="1.2"
       linejoin_type="miter"
       unit="px"
       offset="5"
       miter_limit="4"
       attempt_force_join="false"
       update_on_knot_move="true" />
    <inkscape:path-effect
       effect="simplify"
       id="path-effect1121"
       is_visible="true"
       lpeversion="1"
       steps="1"
       threshold="0.00172414"
       smooth_angles="360"
       helper_size="0"
       simplify_individual_paths="false"
       simplify_just_coalesce="false" />
    <inkscape:path-effect
       effect="powerstroke"
       id="path-effect1115"
       is_visible="true"
       lpeversion="1"
       offset_points="0.95426029,6.5770045"
       not_jump="true"
       sort_points="true"
       interpolator_type="CentripetalCatmullRom"
       interpolator_beta="0.75"
       start_linecap_type="round"
       linejoin_type="spiro"
       miter_limit="4"
       scale_width="1"
       end_linecap_type="round" />
    <inkscape:path-effect
       effect="simplify"
       id="path-effect1113"
       is_visible="true"
       lpeversion="1"
       steps="1"
       threshold="0.0047745358"
       smooth_angles="0"
       helper_size="0"
       simplify_individual_paths="false"
       simplify_just_coalesce="false"
       step="1" />
    <inkscape:path-effect
       effect="simplify"
       id="path-effect1110"
       is_visible="true"
       lpeversion="1"
       steps="1"
       threshold="0.00172414"
       smooth_angles="360"
       helper_size="0"
       simplify_individual_paths="false"
       simplify_just_coalesce="false" />
    <rect
       x="1257.7371"
       y="1354.0743"
       width="2542.2346"
       height="818.86713"
       id="rect496" />
    <linearGradient
       inkscape:collect="always"
       id="linearGradient961">
      <stop
         style="stop-color:#7b4397;stop-opacity:1;"
         offset="0"
         id="stop957" />
      <stop
         style="stop-color:#dc2430;stop-opacity:1;"
         offset="1"
         id="stop959" />
    </linearGradient>
    <rect
       x="22.706921"
       y="1453.2429"
       width="1313.2169"
       height="473.06085"
       id="rect5508" />
    <rect
       x="1574.6924"
       y="360.867"
       width="1083.5767"
       height="257.25073"
       id="rect347" />
    <inkscape:path-effect
       effect="offset"
       id="path-effect6480"
       is_visible="true"
       lpeversion="1.2"
       linejoin_type="miter"
       unit="px"
       offset="-5"
       miter_limit="4"
       attempt_force_join="false"
       update_on_knot_move="true" />
    <inkscape:path-effect
       effect="offset"
       id="path-effect6478"
       is_visible="true"
       lpeversion="1.2"
       linejoin_type="miter"
       unit="px"
       offset="-10"
       miter_limit="4"
       attempt_force_join="false"
       update_on_knot_move="true" />
    <inkscape:path-effect
       effect="offset"
       id="path-effect6474"
       is_visible="true"
       lpeversion="1.2"
       linejoin_type="miter"
       unit="px"
       offset="-10"
       miter_limit="4"
       attempt_force_join="false"
       update_on_knot_move="true" />
    <inkscape:path-effect
       effect="offset"
       id="path-effect6470"
       is_visible="true"
       lpeversion="1.2"
       linejoin_type="miter"
       unit="px"
       offset="-10"
       miter_limit="4"
       attempt_force_join="false"
       update_on_knot_move="true" />
    <inkscape:path-effect
       effect="offset"
       id="path-effect6462"
       is_visible="true"
       lpeversion="1.2"
       linejoin_type="miter"
       unit="px"
       offset="-10"
       miter_limit="4"
       attempt_force_join="false"
       update_on_knot_move="true" />
    <inkscape:path-effect
       effect="offset"
       id="path-effect6460"
       is_visible="true"
       lpeversion="1.2"
       linejoin_type="miter"
       unit="px"
       offset="-10"
       miter_limit="4"
       attempt_force_join="false"
       update_on_knot_move="true" />
    <inkscape:path-effect
       effect="offset"
       id="path-effect6456"
       is_visible="true"
       lpeversion="1.2"
       linejoin_type="miter"
       unit="px"
       offset="-10"
       miter_limit="4"
       attempt_force_join="false"
       update_on_knot_move="true" />
    <inkscape:path-effect
       effect="offset"
       id="path-effect6450"
       is_visible="true"
       lpeversion="1.2"
       linejoin_type="miter"
       unit="px"
       offset="-10"
       miter_limit="4"
       attempt_force_join="false"
       update_on_knot_move="true" />
    <inkscape:path-effect
       effect="offset"
       id="path-effect6448"
       is_visible="true"
       lpeversion="1.2"
       linejoin_type="miter"
       unit="px"
       offset="-10"
       miter_limit="4"
       attempt_force_join="false"
       update_on_knot_move="true" />
    <inkscape:path-effect
       effect="offset"
       id="path-effect6442"
       is_visible="true"
       lpeversion="1.2"
       linejoin_type="miter"
       unit="px"
       offset="-10"
       miter_limit="4"
       attempt_force_join="false"
       update_on_knot_move="true" />
    <inkscape:path-effect
       effect="simplify"
       id="path-effect2329"
       is_visible="true"
       lpeversion="1"
       steps="1"
       threshold="0.00172414"
       smooth_angles="360"
       helper_size="0"
       simplify_individual_paths="false"
       simplify_just_coalesce="false" />
    <linearGradient
       inkscape:collect="always"
       xlink:href="#linearGradient961"
       id="linearGradient963"
       x1="300.31653"
       y1="403.22504"
       x2="564.8999"
       y2="403.22504"
       gradientUnits="userSpaceOnUse"
       gradientTransform="matrix(1.024,0,0,1.024,-8.279132,-273.99617)" />
  </defs>
  <g
     inkscape:groupmode="layer"
     id="layer2"
     inkscape:label="Layer 2"
     style="display:inline"
     transform="translate(-295.80536)">
    <g
       id="g517">
      <rect
         style="display:inline;opacity:0;fill:#ffffff;stroke-width:0.628316;stroke-linecap:round;stroke-linejoin:round;paint-order:stroke markers fill"
         id="rect528"
         width="277.81253"
         height="277.81253"
         x="295.80536"
         y="0"
         inkscape:export-filename="logo_gradient.png"
         inkscape:export-xdpi="96"
         inkscape:export-ydpi="96" />
      <circle
         style="fill:url(#linearGradient963);fill-opacity:1;stroke-width:0.435105;stroke-linecap:round;stroke-linejoin:round;paint-order:stroke markers fill"
         id="path953"
         cx="434.71164"
         cy="138.90627"
         r="135.46667" />
      <path
         style="fill:#ffffff;fill-opacity:1;stroke:none;stroke-width:9.46253;stroke-linecap:square"
         d="m 434.6786,33.112191 v 19.84375 a 85.989586,85.989586 0 0 1 41.56491,10.748698 L 415.03433,124.91382 371.20341,81.082906 357.17068,67.050171 a 105.83333,105.83333 0 0 0 -28.17657,67.926609 v 7.93749 a 105.83333,105.83333 0 0 0 28.09595,68.00722 l 14.05496,-14.05495 a 85.989586,85.989586 0 0 1 -22.29166,-53.95227 v -7.93749 h -0.0553 a 85.989586,85.989586 0 0 1 10.61848,-37.622514 l 55.62089,55.619864 14.0286,-14.02861 63.53359,-63.533586 14.05495,-14.054956 A 105.83333,105.83333 0 0 0 434.6786,33.112191 Z"
         id="path380" />
      <path
         style="fill:#ffffff;fill-opacity:1;stroke:none;stroke-width:9.46253;stroke-linecap:square"
         d="m 444.50074,134.73596 -14.0317,14.0317 57.56238,57.56238 a 85.989586,85.989586 0 0 1 -49.38407,18.48104 v 19.85874 A 105.83333,105.83333 0 0 0 540.42874,142.91427 h -19.86029 a 85.989586,85.989586 0 0 1 -18.50533,49.38407 z"
         id="path6497" />
      <path
         id="path6499"
         style="fill:#ffffff;fill-opacity:1;stroke:none;stroke-width:9.46253;stroke-linecap:square"
         d="m 377.12398,209.59599 -6.5722,6.57221 c 15.59287,12.94521 34.68542,20.85006 54.86537,22.72058 v -9.27902 c -17.72337,-1.81503 -34.48126,-8.76028 -48.29317,-20.01377 z m 0.30696,3.43545 c 13.19803,10.19886 28.79581,16.66491 45.33935,18.7911 v 4.05298 c -17.6076,-2.16229 -34.23662,-9.04716 -48.21669,-19.96674 z m 0.16795,1.70326 -0.97875,0.97875 c 13.13357,9.93038 28.51849,16.30115 44.82826,18.56424 v -1.36891 c -15.95179,-2.25098 -30.98164,-8.48199 -43.84951,-18.17408 z m -0.84129,-12.25559 -14.05496,14.05496 a 105.83333,105.83333 0 0 0 68.00722,28.16624 V 224.83796 A 85.989586,85.989586 0 0 1 376.7576,202.47911 Z m 0.16123,3.57963 c 14.35336,12.35448 32.25983,19.77574 51.14467,21.19561 v 14.5743 c -22.74834,-1.46331 -44.33945,-10.40385 -61.46084,-25.45323 z" />
      <path
         id="path6501"
         style="fill:#ffffff;fill-opacity:1;stroke:none;stroke-width:9.46253;stroke-linecap:square"
         d="m 525.32543,129.69315 h 9.29451 c -1.87219,-20.17948 -9.78307,-39.269507 -22.72981,-54.86156 l -6.56126,6.56126 c 11.24889,13.815742 18.18749,30.57639 19.99656,48.3003 z m 2.21217,-2.64629 c -2.12072,-16.54408 -8.57784,-32.145578 -18.77244,-45.347069 l 2.86589,-2.86589 c 10.92149,13.979431 17.81164,30.606259 19.97573,48.212979 z m 1.08563,-1.32313 1.38416,1e-5 c -2.265,-16.30869 -8.63897,-31.692278 -18.57147,-44.825278 l -0.96796,0.967958 c 9.68794,12.871302 15.90966,27.905 18.15527,43.85731 z m -8.07113,9.2609 h 19.87672 A 105.83333,105.83333 0 0 0 512.257,66.979723 l -14.04481,14.044788 a 85.989586,85.989586 0 0 1 22.33991,53.960119 z m 2.41718,-2.64519 c -1.41343,-18.88531 -8.82759,-36.794718 -21.17719,-51.152309 l 10.30558,-10.305583 c 15.05079,17.120221 23.99611,38.709352 25.46124,61.457522 z" />
      <path
         id="path371"
         style="fill:#ffffff;stroke-width:0.327388;stroke-linecap:round;stroke-linejoin:round;paint-order:stroke markers fill"
         d="M 434.71163,6.6145843 A 132.29169,132.29169 0 0 0 302.41995,138.90627 132.29169,132.29169 0 0 0 434.71163,271.19795 132.29169,132.29169 0 0 0 567.00331,138.90627 132.29169,132.29169 0 0 0 434.71163,6.6145843 Z m 1.13998,2.639116 0.87023,0.05168 -0.41961,7.0739867 0.0377,0.0021 c 0.59942,-0.932461 1.51294,-1.612119 2.74041,-2.039151 0.71928,-0.286368 1.59931,-0.39912 2.63963,-0.337447 l 0.15089,0.0093 c 1.07184,0.06354 2.20805,0.535973 3.40858,1.416968 0.85046,0.809619 1.38508,1.613232 1.60352,2.410706 0.27197,0.534964 0.37004,1.439007 0.29456,2.712495 l -0.33848,5.712314 -0.87023,-0.05116 0.34778,-5.863725 c 0.13903,-2.345349 -0.84966,-4.024136 -2.96623,-5.035351 -0.45092,-0.184909 -1.06266,-0.32227 -1.83555,-0.412379 -1.29252,-0.07662 -2.51695,0.293807 -3.67264,1.111044 l -0.40308,0.393774 c -0.80929,0.844102 -1.26286,2.095153 -1.36115,3.753259 l -0.32298,5.44773 -0.87023,-0.05168 z m 20.95945,2.1099487 0.85473,0.171566 -0.85215,4.2354 5.09013,1.023711 -0.17208,0.854728 -5.08961,-1.02371 -0.96429,4.792473 c -0.12338,0.677371 -0.1021,1.467742 0.0641,2.370915 0.0898,0.546313 0.49034,1.309758 1.20148,2.290299 0.94288,0.885414 1.94098,1.434148 2.99362,1.645895 l 0.1111,0.02222 -0.17156,0.854728 -0.0372,-0.0078 c -1.83282,-0.368693 -3.26115,-1.338728 -4.28501,-2.910417 -0.79612,-1.422835 -1.01503,-3.026281 -0.65629,-4.809527 z m -23.73447,2.272213 0.65887,11.91917 -0.83199,0.04599 -0.14676,-2.648417 c -0.63791,1.161205 -1.69054,2.028885 -3.15795,2.603459 -0.54028,0.181698 -0.9773,0.281747 -1.31154,0.30024 l -0.34055,0.01912 c -1.48831,0.08233 -2.74482,-0.202877 -3.76721,-0.854728 -1.03408,-0.62597 -1.79331,-1.545555 -2.2779,-2.758488 -0.27029,-0.769427 -0.42111,-1.444023 -0.4532,-2.024166 -0.0506,-0.914424 0.1463,-1.925093 0.59117,-3.03134 0.72031,-1.387163 1.83125,-2.346723 3.33262,-2.878895 0.7547,-0.193516 1.26775,-0.297645 1.53892,-0.312642 2.39642,-0.132561 4.22395,0.664291 5.48339,2.391069 l -0.15038,-2.724382 z m -35.44177,0.972034 0.26458,0.83044 -0.0362,0.01137 c -2.53933,0.809824 -3.85043,2.434975 -3.93413,4.874638 l 4.62091,-1.473812 0.2651,0.830441 -4.87412,1.554427 0.31781,1.370459 2.93625,9.206674 -0.83044,0.264583 -2.93625,-9.206674 c -0.6314,-1.979615 -0.53263,-3.747934 0.29662,-5.305103 0.52545,-0.929923 1.35892,-1.726203 2.50011,-2.388485 l 0.68781,-0.33848 z m 21.408,0.08423 0.11317,0.82579 -0.0377,0.0052 c -1.20772,0.165444 -2.06682,0.780428 -2.57763,1.844849 -0.26452,0.488863 -0.32592,1.249582 -0.18448,2.282032 l 0.99787,7.283794 -0.86351,0.118339 -1.62057,-11.82667 0.8263,-0.113171 0.22634,1.652095 c 0.76616,-1.201355 1.78126,-1.888792 3.0453,-2.061889 z m 8.51886,0.206706 c -0.0317,-1.53e-4 -0.0634,6e-5 -0.0951,5.17e-4 -0.0676,9.75e-4 -0.13529,0.0035 -0.20308,0.0072 l -0.22738,0.0124 c -1.22975,0.06802 -2.37654,0.599692 -3.44114,1.594735 -0.87705,1.0606 -1.28023,2.246761 -1.20767,3.558439 h 5.1e-4 l 0.004,0.07545 -0.0357,0.04031 0.0398,0.03566 0.008,0.151412 c 0.1043,1.88551 1.02848,3.263796 2.77193,4.135149 0.86738,0.356817 1.67327,0.515037 2.41742,0.473873 l 0.22686,-0.01292 c 1.52614,-0.08437 2.80458,-0.76204 3.83491,-2.033467 0.65084,-1.041731 0.94407,-2.146342 0.87953,-3.312977 -0.0879,-1.589113 -0.77896,-2.866505 -2.07222,-3.832324 -0.95189,-0.590789 -1.91859,-0.888741 -2.9006,-0.893486 z m -14.796,0.542086 2.57349,11.656654 -0.81391,0.179834 -0.57205,-2.59054 c -0.44222,1.248913 -1.341,2.275669 -2.69648,3.079399 -0.50388,0.266508 -0.91903,0.435833 -1.24592,0.507979 l -0.33331,0.07338 c -1.45553,0.321352 -2.74043,0.242689 -3.85507,-0.235645 -1.12102,-0.4509 -2.01942,-1.235991 -2.69337,-2.354895 -0.39087,-0.715701 -0.64885,-1.357073 -0.77411,-1.92443 -0.19745,-0.894288 -0.16602,-1.923627 0.0946,-3.087151 0.48707,-1.485143 1.42879,-2.611237 2.82464,-3.378605 0.71358,-0.312784 1.20292,-0.498518 1.46813,-0.557072 2.34314,-0.517434 4.27653,-0.02561 5.79757,1.475362 l -0.58807,-2.664437 z m -4.49998,2.075326 c -0.0764,5.09e-4 -0.15245,0.0027 -0.22841,0.0067 -0.27011,0.01431 -0.53785,0.051 -0.80306,0.109554 l -0.2222,0.04909 c -1.20266,0.265527 -2.24873,0.975339 -3.13883,2.129069 -0.69491,1.188274 -0.90076,2.424015 -0.61753,3.706751 l 0.0165,0.0739 -0.0289,0.04496 0.045,0.02894 0.0326,0.148311 c 0.40714,1.843979 1.54164,3.05524 3.40237,3.633887 0.9136,0.212249 1.73463,0.23819 2.46239,0.07751 l 0.22169,-0.04909 c 1.49252,-0.329474 2.64494,-1.204691 3.45664,-2.625679 0.47424,-1.133094 0.58521,-2.270747 0.33331,-3.411679 -0.34314,-1.554107 -1.23074,-2.70327 -2.66289,-3.447852 -0.74766,-0.310282 -1.47829,-0.468523 -2.19211,-0.474389 -0.0255,-2.1e-4 -0.051,-1.7e-4 -0.0765,0 z m 59.61083,1.297078 c 0.7175,0.0019 1.43536,0.06983 2.15284,0.203605 1.67132,0.495497 2.94743,1.480084 3.8282,2.953309 l 0.36586,0.898653 c 0.34252,1.155545 0.34142,2.314744 -0.003,3.477307 l -0.0754,0.254765 -10.57249,-3.134692 -0.0543,0.181384 c -0.28904,0.974885 -0.22158,2.035942 0.20258,3.182752 0.56234,0.99029 1.12888,1.659 1.69808,2.005562 0.56021,0.376899 1.05251,0.628333 1.4764,0.753959 2.12548,0.630148 3.92064,0.174046 5.38572,-1.367875 0.24048,-0.277853 0.46448,-0.632948 0.67179,-1.065568 l 0.87178,0.258382 -0.0217,0.07286 c -0.16517,0.557064 -0.68906,1.257788 -1.572,2.102714 -0.93247,0.678772 -1.99844,1.07432 -3.19774,1.186491 -0.84578,-0.01359 -1.49559,-0.0876 -1.94975,-0.222208 l -0.58136,-0.1726 c -1.08998,-0.323105 -2.07571,-0.997116 -2.95744,-2.022615 -0.65566,-1.077086 -1.00202,-1.865293 -1.0387,-2.363681 -0.14248,-1.030359 -0.0754,-2.012024 0.20102,-2.944523 0.27468,-0.926445 0.80796,-1.835621 1.59939,-2.727483 0.95539,-0.889328 2.14585,-1.392756 3.57032,-1.510502 z m -0.14986,0.904338 c -0.66637,0.09229 -1.37318,0.343696 -2.1208,0.754476 -0.91593,0.690028 -1.48729,1.416926 -1.71359,2.179712 l 9.59218,2.843754 0.0103,-0.03617 c 0.12822,-0.943516 0.0787,-1.709121 -0.14883,-2.297018 -0.31093,-0.928785 -0.85186,-1.68219 -1.62264,-2.25981 -0.63915,-0.466177 -1.24151,-0.789615 -1.80713,-0.970484 -0.47838,-0.141829 -1.20827,-0.213403 -2.18953,-0.214457 z m 25.08323,3.380672 0.76119,0.425297 -3.4556,6.186704 0.0331,0.0186 c 0.94544,-0.578765 2.06384,-0.793371 3.35484,-0.643888 0.77223,0.05511 1.61298,0.336811 2.52284,0.844909 l 0.13229,0.0739 c 0.93743,0.523501 1.75546,1.442917 2.45308,2.758488 0.41348,1.098988 0.54458,2.055481 0.39429,2.868559 0.0121,0.599955 -0.2926,1.456538 -0.91467,2.570386 l -2.79001,4.996078 -0.76119,-0.42478 2.8639,-5.12837 c 1.14565,-2.051235 0.9857,-3.992602 -0.48007,-5.823934 -0.32555,-0.362673 -0.8166,-0.753068 -1.4733,-1.170472 -1.13,-0.631295 -2.39378,-0.830438 -3.78995,-0.597379 l -0.53381,0.179317 c -1.09595,0.407911 -2.0493,1.337208 -2.85926,2.787427 l -2.66082,4.764051 -0.76068,-0.424781 z m -105.06337,0.13746 c 0.22875,-6.35e-4 0.4611,0.0081 0.69608,0.02687 1.31859,0.18313 2.43542,0.781082 3.35019,1.793173 0.46029,0.504794 0.81559,1.053686 1.0666,1.646928 l 0.17725,0.419096 c 0.45253,1.07036 0.56443,2.243669 0.3359,3.519682 -0.33274,1.045776 -0.66455,1.720797 -0.99529,2.0252 -0.56354,0.759344 -1.07521,1.23662 -1.53479,1.43092 0.0295,0.0698 -0.42104,0.301582 -1.35186,0.695048 l -0.0698,0.02946 c -0.97152,0.41068 -2.10963,0.507692 -3.41478,0.291455 -1.92838,-0.473908 -3.30105,-1.676746 -4.11758,-3.608049 -0.44024,-1.041283 -0.57535,-2.204809 -0.40566,-3.490227 0.43409,-1.92516 1.59352,-3.334121 3.47886,-4.227132 0.79845,-0.337562 1.65086,-0.520602 2.55695,-0.548804 0.0755,-0.0023 0.15164,-0.0034 0.22789,-0.0036 z m 93.33333,0.1788 c 0.23664,-6.5e-4 0.47907,0.01249 0.72709,0.03979 0.50919,-0.0049 1.45681,0.284346 2.84221,0.867647 l 3.77186,1.588534 -0.35295,0.838192 -4.01629,-1.69137 c -1.55421,-0.654403 -2.72327,-0.872292 -3.50728,-0.654224 -1.00643,0.06279 -2.00473,0.642806 -2.99465,1.740463 -0.24756,0.327512 -0.51356,0.763982 -0.79789,1.308964 -0.24756,0.718083 -0.39123,1.384361 -0.43046,1.998328 -0.003,1.307857 0.40426,2.424561 1.2206,3.3507 0.46401,0.52452 1.33773,1.056523 2.61792,1.595769 l 3.98116,1.6769 -0.33797,0.803052 -4.95939,-2.088245 c -1.70512,-0.718132 -2.82043,-2.010093 -3.34398,-3.875216 -0.14274,-0.669992 -0.15215,-1.427916 -0.0289,-2.273763 l 0.31988,-1.345655 c 0.37012,-0.878928 0.95986,-1.727001 1.76992,-2.544031 l 0.76326,-0.542086 c 0.74967,-0.485964 1.58983,-0.748991 2.52129,-0.788582 0.0776,-0.0033 0.15574,-0.005 0.23461,-0.0052 z m -93.43823,0.728638 c -0.074,1.91e-4 -0.14838,0.0018 -0.22324,0.0052 -0.58482,0.02781 -1.22773,0.162376 -1.92805,0.403593 -0.78537,0.33197 -1.52979,0.907565 -2.23294,1.725993 -0.64054,0.901613 -0.95715,1.871785 -0.94981,2.910933 0.006,0.484365 0.15549,1.161895 0.44803,2.032435 0.49189,1.163397 1.30203,2.041799 2.43035,2.634464 0.69256,0.324361 1.4977,0.477805 2.41587,0.459921 0.75935,-0.101597 1.33415,-0.235193 1.72393,-0.399976 l 0.17466,-0.07338 c 0.97151,-0.410732 1.81824,-1.16627 2.53886,-2.266529 0.36064,-0.817566 0.53819,-1.469055 0.53227,-1.953369 0.006,-0.893951 -0.14594,-1.707154 -0.45578,-2.440162 -0.28284,-0.668957 -0.76766,-1.328279 -1.45366,-1.977657 -0.90464,-0.710374 -1.91121,-1.064306 -3.02049,-1.061434 z m 47.07,2.315104 A 112.44793,112.44793 0 0 1 547.15956,138.90627 112.44793,112.44793 0 0 1 434.71163,251.3542 112.44793,112.44793 0 0 1 322.2637,138.90627 112.44793,112.44793 0 0 1 434.71163,26.458336 Z m -59.2982,2.790011 c 0.14971,5.41e-4 0.30021,0.0058 0.45166,0.0155 1.29186,0.155216 2.44672,0.735836 3.4649,1.742013 0.27437,0.280247 0.62293,0.794181 1.04542,1.542025 l 2.81429,4.982642 -0.75861,0.428398 -2.87062,-5.081345 c -1.18048,-2.089549 -2.93891,-2.967641 -5.27513,-2.634464 -0.37319,0.05849 -0.95064,0.268505 -1.73271,0.630452 -0.65992,0.372775 -1.29749,0.964966 -1.91255,1.776636 -0.32167,0.573438 -0.51005,0.98466 -0.56534,1.233517 -0.24833,0.793101 -0.24834,1.692508 5.2e-4,2.698027 0.19781,0.555579 0.49584,1.185443 0.89348,1.88929 l 2.55334,4.520655 -0.75861,0.428914 -5.89008,-10.426755 0.75861,-0.428914 1.34203,2.376083 c 0.0202,-0.439394 0.11848,-0.959637 0.29456,-1.559595 0.38271,-0.876266 0.63575,-1.352936 0.75913,-1.429887 0.50508,-0.749587 1.29668,-1.428776 2.37453,-2.037602 0.82271,-0.383146 1.67752,-0.600867 2.5647,-0.65319 0.14787,-0.0087 0.29678,-0.01294 0.44648,-0.0124 z m 137.53374,10.527524 -0.14727,4.656047 3.4432,-3.13831 -2.45877,3.955315 4.55683,-0.994255 -4.10259,2.196765 4.43745,1.418519 -4.66328,-0.152963 3.14555,3.448886 -3.96255,-2.464966 1.00149,4.563029 -2.204,-4.108277 -1.41129,4.443141 0.13953,-4.661732 -3.43597,3.143995 2.45825,-3.968751 -4.55579,1.007691 4.10104,-2.210202 -4.43591,-1.405082 4.66173,0.139526 -3.14399,-3.435966 3.961,2.452047 -0.99994,-4.549594 2.20245,4.095358 z m -163.21486,4.751132 1.65572,4.348572 1.973,-4.219898 -0.74672,4.605404 3.8225,-2.67994 -2.95072,3.615801 4.65346,-0.411345 -4.35581,1.661914 4.22714,1.966806 -4.60592,-0.733289 2.67994,3.80907 -3.62252,-2.944006 0.41806,4.646745 -1.66863,-4.349606 -1.95957,4.220931 0.73329,-4.606437 -3.80907,2.680457 2.93729,-3.616317 -4.64003,0.411861 4.34237,-1.662431 -4.2137,-1.966289 4.59921,0.740007 -2.67323,-3.815272 3.60909,2.94349 z m 176.95253,12.417848 c 0.14691,-0.0017 0.29344,0.0033 0.43925,0.01499 0.87483,0.06984 1.72882,0.380351 2.5616,0.930693 0.45525,0.228091 1.16596,0.917616 2.13217,2.069124 l 2.63033,3.135726 -0.6966,0.584461 -2.80138,-3.338815 c -1.08394,-1.291782 -2.02443,-2.019423 -2.82153,-2.183329 -0.92408,-0.403662 -2.07681,-0.343215 -3.45871,0.181384 -0.36978,0.178359 -0.80561,0.444901 -1.30741,0.799951 -0.54814,0.525875 -0.97979,1.053016 -1.29501,1.581299 -0.59937,1.162437 -0.74767,2.342197 -0.44442,3.538803 0.17373,0.678668 0.70731,1.550396 1.60042,2.614828 l 2.77709,3.309359 -0.66766,0.560172 -3.45922,-4.122229 c -1.1895,-1.417624 -1.59143,-3.075976 -1.20561,-4.974374 0.17892,-0.661256 0.51654,-1.339721 1.01234,-2.036052 l 0.89865,-1.051098 c 0.73061,-0.613013 1.64303,-1.098129 2.73679,-1.455209 l 0.92656,-0.134359 c 0.14814,-0.01506 0.29543,-0.02359 0.44235,-0.02532 z m -190.50984,3.276803 0.68781,0.535368 -3.18947,4.096908 3.85713,3.002917 c 0.55097,0.412987 1.26744,0.747272 2.14974,1.002007 0.52893,0.163693 1.39091,0.146033 2.58589,-0.05219 1.21339,-0.448052 2.15,-1.095324 2.80965,-1.942517 l 0.0698,-0.08992 0.68781,0.535368 -0.0233,0.02997 c -1.14857,1.475112 -2.65447,2.319758 -4.51807,2.533696 -1.62865,0.07669 -3.16086,-0.443614 -4.5961,-1.561145 l -7.65483,-5.96036 0.53588,-0.687814 3.40858,2.654102 z m 199.45606,4.552177 0.48576,0.677995 -1.35599,0.971 c 1.42015,0.116936 2.50213,0.694061 3.24476,1.731161 l 0.0444,0.0615 -0.67748,0.485242 -0.0222,-0.03049 c -0.70991,-0.990911 -1.6546,-1.464041 -2.83446,-1.419035 -0.5554,-0.0058 -1.2576,0.294885 -2.10478,0.901753 l -5.97638,4.28191 -0.50746,-0.709001 z m -204.46558,1.993677 0.76327,0.494544 -2.36834,3.658175 c -0.9165,1.41558 -1.33627,2.528209 -1.25883,3.338298 -0.11444,1.001874 0.28221,2.086183 1.18959,3.253031 0.27909,0.301084 0.66195,0.639544 1.14877,1.014926 0.66366,0.369498 1.29426,0.62745 1.89187,0.773596 1.28725,0.23149 2.45818,0.02639 3.51296,-0.61495 0.59774,-0.365424 1.27415,-1.13115 2.02934,-2.297534 l 2.34818,-3.626653 0.73173,0.473873 -2.92488,4.517038 c -1.00577,1.55342 -2.4727,2.424467 -4.40077,2.613277 -0.68468,0.02321 -1.43254,-0.09955 -2.24379,-0.36897 l -1.26866,-0.55087 c -0.80057,-0.51833 -1.53211,-1.247864 -2.19469,-2.188498 l -0.4005,-0.845943 c -0.46321,-1.097476 -0.50705,-2.284617 -0.13177,-3.56154 0.0844,-0.502174 0.53489,-1.384526 1.35185,-2.64635 z m 206.05153,5.260662 c 1.56301,-0.01266 2.9316,0.519605 4.10414,1.597318 0.52426,0.576358 0.85616,0.981253 0.99633,1.21388 1.23867,2.05567 1.38982,4.044448 0.4532,5.965528 l 2.33681,-1.408183 0.43046,0.714168 -10.2247,6.160348 -0.43046,-0.714168 2.27221,-1.368909 c -1.32478,-0.02028 -2.58459,-0.544151 -3.7791,-1.571997 -0.41342,-0.392427 -0.70625,-0.732375 -0.87901,-1.019059 l -0.1757,-0.291972 c -0.7693,-1.276676 -1.10511,-2.519978 -1.00769,-3.728972 0.0692,-1.206761 0.5263,-2.307775 1.37149,-3.303675 0.55348,-0.598916 1.07894,-1.048347 1.57665,-1.348238 0.78442,-0.472667 1.7695,-0.771517 2.95537,-0.896069 z m 0.17002,0.928625 c -0.90133,0.0035 -1.74767,0.243647 -2.53887,0.72037 h -5.1e-4 l -0.0646,0.03927 -0.0522,-0.01292 -0.0129,0.05168 -0.12971,0.07855 c -1.61755,0.974589 -2.40336,2.436242 -2.35748,4.384746 0.0906,0.933498 0.32798,1.719668 0.71262,2.357996 l 0.11782,0.194303 c 0.78887,1.309135 1.98618,2.121581 3.59203,2.437061 1.22525,0.08762 2.33851,-0.170083 3.33933,-0.773079 1.36328,-0.821452 2.16909,-2.029728 2.41743,-3.624586 0.0844,-1.230623 -0.15403,-2.311207 -0.71469,-3.241663 l -0.11782,-0.194303 c -0.63563,-1.054889 -1.64223,-1.819837 -3.01945,-2.294951 -0.33701,-0.06978 -0.66743,-0.109931 -0.99012,-0.119889 -0.0606,-0.0019 -0.12078,-0.0028 -0.18087,-0.0026 z m -213.53583,5.247226 10.6779,5.336625 -0.37258,0.745691 -2.37299,-1.185974 c 0.69222,1.129723 0.92411,2.474646 0.69557,4.033863 -0.11006,0.559291 -0.23998,0.988344 -0.38964,1.287777 l -0.15245,0.305407 c -0.66638,1.333321 -1.53589,2.282275 -2.60914,2.847372 -1.05631,0.587694 -2.23167,0.791371 -3.52537,0.610816 -0.80221,-0.14675 -1.46305,-0.350007 -1.98282,-0.609782 -0.8192,-0.409429 -1.59867,-1.081591 -2.33888,-2.016415 -0.84759,-1.313295 -1.1302,-2.753999 -0.84801,-4.3217 0.20608,-0.75138 0.36951,-1.248451 0.49093,-1.491382 1.07299,-2.146873 2.67151,-3.338905 4.79557,-3.576527 l -2.44068,-1.22008 z m 2.63963,2.879411 c -0.68143,0.0041 -1.36917,0.15741 -2.06292,0.459403 -1.08455,0.587695 -1.86925,1.36713 -2.35489,2.338876 l -0.10181,0.203605 c -0.55062,1.101684 -0.65779,2.361203 -0.32142,3.779098 0.48602,1.28794 1.3167,2.225949 2.49183,2.813265 l 0.0677,0.03359 0.0171,0.05064 0.0506,-0.01654 0.1359,0.0677 c 1.68926,0.84428 3.34448,0.72501 4.96559,-0.357084 0.73996,-0.576339 1.27653,-1.197824 1.60972,-1.864486 l 0.10129,-0.203088 c 0.68332,-1.367224 0.7283,-2.813568 0.13488,-4.338754 -0.58205,-1.081724 -1.3955,-1.883678 -2.44068,-2.406055 -0.71186,-0.355779 -1.43053,-0.542312 -2.15646,-0.559139 -0.0454,-0.0011 -0.091,-0.0013 -0.13643,-0.001 z m 221.23252,1.205094 c 0.034,9.4e-5 0.0679,3.87e-4 0.1018,0.001 0.65186,0.01241 1.28907,0.130819 1.91151,0.355017 0.9956,0.386961 1.9025,1.098105 2.72128,2.132686 l 0.43409,0.631487 0.33124,0.681612 -0.78393,0.381372 -0.0171,-0.03411 c -1.16494,-2.39718 -2.96059,-3.46251 -5.38727,-3.196187 l 2.12028,4.362525 -0.78445,0.380855 -2.23603,-4.60127 -1.31052,0.510563 -8.69146,4.223515 -0.38137,-0.783931 8.69198,-4.223515 c 1.09473,-0.532155 2.15429,-0.806032 3.17758,-0.821139 0.0341,-5.03e-4 0.0683,-6.1e-4 0.10232,-5.17e-4 z m 6.43682,5.816183 0.32814,0.807703 -4.00234,1.625741 1.95389,4.810043 -0.80771,0.328145 -1.95388,-4.810043 -4.52944,1.839681 c -0.63309,0.270786 -1.28039,0.724273 -1.942,1.361158 -0.40615,0.376269 -0.8219,1.131956 -1.24747,2.266011 -0.21841,1.27483 -0.12517,2.40969 0.27853,3.40444 l 0.0429,0.10542 -0.80771,0.327634 -0.014,-0.0351 c -0.70356,-1.732034 -0.6826,-3.458514 0.0636,-5.179531 0.74761,-1.448883 1.96411,-2.51581 3.64939,-3.200321 z m -235.65283,3.143478 c 0.51156,-0.002 1.18293,0.148138 2.01383,0.450619 1.13953,0.414805 2.00267,0.997913 2.58951,1.749247 0.89651,0.971606 1.34419,2.291059 1.34255,3.957385 -0.065,0.76946 -0.21229,1.46843 -0.44131,2.09754 -0.47099,1.293834 -1.36272,2.340604 -2.67529,3.139864 -0.70702,0.35429 -1.21951,0.54371 -1.53789,0.56896 l -0.0129,0.0357 6.58771,2.3983 -0.29817,0.81907 -15.31225,-5.57382 0.29817,-0.81907 2.56367,0.93328 c -0.73835,-1.129124 -1.1062,-2.002694 -1.10329,-2.620004 -0.20043,-0.92658 -0.0529,-2.06909 0.44183,-3.42821 0.34833,-0.827648 0.88053,-1.588334 1.5968,-2.282032 1.06875,-0.941805 2.38433,-1.4176 3.94705,-1.426786 z m -0.0842,0.939994 c -0.0404,-2.58e-4 -0.0809,-1.28e-4 -0.12144,5.17e-4 -0.50504,0.008 -1.02259,0.08602 -1.55288,0.234094 -1.49386,0.632466 -2.49657,1.652137 -3.0086,3.058729 l -0.078,0.213424 c -0.37592,1.032683 -0.37626,2.215653 -10e-4,3.548623 0.6104,1.351394 1.58047,2.268874 2.90991,2.752804 v 5.2e-4 l 0.10697,0.0388 0.0222,0.0486 0.0486,-0.0227 0.14263,0.0517 c 1.51343,0.55092 2.97688,0.3714 4.39043,-0.53899 0.90247,-0.70659 1.51133,-1.49304 1.82676,-2.359544 l 0.14263,-0.39171 c 0.29166,-0.80122 0.34587,-1.76318 0.16278,-2.885096 -0.51908,-1.694556 -1.59455,-2.838746 -3.22668,-3.432866 -0.56961,-0.207355 -1.1579,-0.312895 -1.76423,-0.316777 z m 233.30671,13.302551 c 0.0419,1.2e-4 0.0831,0.001 0.12351,0.004 0.32369,0.0176 0.60011,0.10216 0.82992,0.25321 0.47208,0.29865 0.78944,0.74156 0.95188,1.32705 0.15898,0.57339 0.11291,1.10959 -0.13797,1.60869 -0.23497,0.50812 -0.76991,0.87796 -1.60507,1.1095 -0.82269,0.22811 -1.47164,0.18621 -1.94717,-0.12454 -0.47208,-0.29866 -0.78775,-0.73505 -0.94671,-1.30845 -0.16244,-0.58585 -0.11772,-1.12819 0.1328,-1.62729 0.2509,-0.49911 0.78756,-0.86279 1.61024,-1.09089 0.36538,-0.10131 0.69504,-0.15173 0.98857,-0.1509 z m -236.02334,0.25012 c 0.0469,2.3e-4 0.0941,0.001 0.14108,0.003 0.25058,0.0104 0.50191,0.045 0.75395,0.10438 l 7.67189,1.80868 -0.1912,0.81132 -7.59799,-1.79111 c -0.72541,-0.171 -1.50525,-0.0562 -2.33939,0.34417 -0.87832,0.53271 -1.44388,1.3338 -1.69602,2.40347 -0.0725,0.30737 -0.0717,0.80079 0.002,1.48001 l 10.47533,2.4691 -0.19998,0.84853 -10.40144,-2.45205 c -0.4154,0.551 -0.69287,1.12188 -0.83199,1.71204 -0.0947,0.81477 -0.0615,1.44517 0.0992,1.89188 0.51233,1.18499 1.33106,1.89714 2.45566,2.1363 l 7.4874,1.76527 -0.19998,0.84801 -7.37682,-1.73891 c -1.48765,-0.3507 -2.51703,-1.21592 -3.08715,-2.59623 -0.32514,-0.8229 -0.37376,-1.71689 -0.14624,-2.682 h -5.2e-4 c 0.12898,-0.54714 0.44559,-1.17359 0.9493,-1.87896 -0.13273,-0.86839 -0.14483,-1.53313 -0.0362,-1.99419 l 0.0434,-0.18449 c 0.26086,-1.10655 0.90417,-2.01927 1.93012,-2.73782 0.69284,-0.38419 1.39133,-0.57399 2.09548,-0.5705 z m 241.90929,11.91503 c 0.0598,-5.7e-4 0.11914,-2.5e-4 0.17828,5.2e-4 1.41956,0.0185 2.65853,0.42464 3.71709,1.21853 0.83826,0.66203 1.49691,1.6077 1.97611,2.83704 l 0.22944,0.73173 0.11679,0.7488 -0.86145,0.13435 -0.006,-0.0377 c -0.41036,-2.63358 -1.81463,-4.17906 -4.21267,-4.63641 l 0.74673,4.79299 -0.86145,0.13436 -0.78755,-5.05499 -1.40301,0.10335 -9.54826,1.48777 -0.13384,-0.86145 9.54826,-1.48776 c 0.44912,-0.07 0.88283,-0.10711 1.30121,-0.11111 z m -252.38411,1.00253 1.9358,0.31677 -0.13642,0.83199 -1.93528,-0.31677 z m 4.30258,0.69453 11.78017,1.92908 -0.13746,0.84129 -11.78068,-1.92856 z m 250.22558,6.31331 0.0811,0.82992 -1.65882,0.16226 c 1.17098,0.81199 1.81882,1.85305 1.94304,3.12281 l 0.007,0.0755 -0.82941,0.0811 -0.004,-0.0377 c -0.11868,-1.21321 -0.7001,-2.09536 -1.74408,-2.64687 -0.47828,-0.28321 -1.23605,-0.37432 -2.27324,-0.27285 l -7.31687,0.71572 -0.0847,-0.86713 z m -246.94464,3.62562 c 0.10056,5.9e-4 0.2046,0.005 0.31264,0.0124 0.85149,0.0618 1.44889,0.31918 1.79214,0.77204 0.34419,0.43999 0.49465,0.95632 0.45166,1.54978 -0.044,0.60636 -0.26772,1.10258 -0.6718,1.48828 -0.40408,0.3857 -1.03218,0.54753 -1.8836,0.48576 -0.86439,-0.0627 -1.46189,-0.31339 -1.79318,-0.75241 -0.34418,-0.43998 -0.4946,-0.96305 -0.45062,-1.56941 0.0431,-0.59346 0.26668,-1.08346 0.67076,-1.46916 0.29409,-0.29965 0.72132,-0.46886 1.28106,-0.5085 0.0933,-0.007 0.19038,-0.009 0.29094,-0.009 z m 241.73566,2.75177 c 0.93972,-4.6e-4 1.93668,0.23557 2.99103,0.70745 1.13521,0.64423 1.97284,1.62847 2.51303,2.95227 0.21363,0.68496 0.36421,1.38964 0.45217,2.1146 v 0.001 c 0.0293,1.74298 -0.52626,3.25572 -1.66709,4.53823 l -0.74775,0.61908 c -0.9994,0.67374 -2.10563,1.02044 -3.31815,1.04077 l -0.2651,0.004 -0.185,-11.0262 -0.18914,0.003 c -1.0164,0.0171 -2.00845,0.3998 -2.97501,1.14877 -0.77562,0.8342 -1.24331,1.57508 -1.40301,2.22208 -0.19128,0.64754 -0.28337,1.19247 -0.27596,1.63453 0.0372,2.2166 1.01104,3.79191 2.92179,4.72633 0.33725,0.14594 0.74363,0.25307 1.21853,0.32091 l 0.015,0.90899 -0.0755,0.001 c -0.58099,0.01 -1.40729,-0.2792 -2.4784,-0.86765 -0.92746,-0.68562 -1.62508,-1.58363 -2.09186,-2.69389 -0.24102,-0.81083 -0.36516,-1.45338 -0.37311,-1.92702 l -0.0103,-0.60616 c -0.0191,-1.13672 0.32778,-2.27972 1.04128,-3.42873 0.83054,-0.94883 1.47816,-1.5155 1.94251,-1.70016 0.94007,-0.44531 1.89655,-0.67614 2.86908,-0.69246 0.0302,-5.1e-4 0.0606,-10e-4 0.091,-10e-4 z m 0.72089,1.01234 c -0.025,-2.5e-4 -0.0501,1e-4 -0.0749,5.1e-4 l 0.16794,10.00353 0.0377,-0.001 c 0.93852,-0.16103 1.6542,-0.43789 2.14664,-0.83148 0.79258,-0.5755 1.34855,-1.31806 1.66811,-2.22674 0.25274,-0.74963 0.38025,-1.42103 0.38292,-2.01486 -0.008,-0.49889 -0.15906,-1.21655 -0.45268,-2.15284 -0.28814,-0.60791 -0.74072,-1.20702 -1.35702,-1.79679 -0.90429,-0.64574 -1.74375,-0.97265 -2.51871,-0.9803 z m -241.46798,9.20357 0.73174,11.00346 0.18914,-0.0124 c 1.01464,-0.0675 1.9858,-0.49903 2.91403,-1.29501 0.7333,-0.87164 1.16397,-1.63462 1.29139,-2.28875 0.15894,-0.65622 0.22363,-1.20474 0.19431,-1.64589 -0.14705,-2.21203 -1.19805,-3.73741 -3.15278,-4.57595 -0.34407,-0.12905 -0.75487,-0.21573 -1.23248,-0.25993 l -0.0605,-0.90744 0.0754,-0.005 c 0.57979,-0.0385 1.41929,0.20953 2.51819,0.74414 0.96032,0.63879 1.7016,1.5012 2.22312,2.58692 0.28092,0.79789 0.43677,1.43317 0.46819,1.90583 l 0.0403,0.60461 c 0.0754,1.13438 -0.2146,2.2933 -0.87023,3.47628 -0.78248,0.98884 -1.40107,1.58674 -1.8557,1.7942 -0.91683,0.49139 -1.86031,0.76954 -2.83084,0.83406 -0.96422,0.0641 -2.00232,-0.11992 -3.1135,-0.55242 -1.16576,-0.58714 -2.051,-1.52873 -2.65617,-2.82412 -0.24733,-0.67352 -0.43275,-1.37008 -0.55656,-2.08979 -0.11562,-1.73938 0.36443,-3.27779 1.44023,-4.61522 l 0.71572,-0.65526 c 0.96469,-0.72245 2.05232,-1.12415 3.26233,-1.20458 z m -0.80667,1.00304 -0.0377,0.003 c -0.92938,0.20737 -1.6304,0.51989 -2.10272,0.93741 -0.763,0.61409 -1.28187,1.38292 -1.55597,2.30632 -0.21526,0.76125 -0.30945,1.43817 -0.28267,2.0314 0.0331,0.49787 0.2199,1.20745 0.55965,2.12804 0.31793,0.59286 0.79904,1.16854 1.44384,1.72702 0.96536,0.61946 1.84506,0.90287 2.63912,0.85008 v -5.1e-4 z m 240.95173,2.55282 c 0.21256,2e-4 0.42489,0.0108 0.63665,0.0315 0.96176,0.0941 1.95551,0.44512 2.98122,1.05317 1.05433,0.76917 1.7744,1.84266 2.16007,3.21944 0.13412,0.70485 0.20355,1.42257 0.20826,2.15284 l 5.1e-4,-5.2e-4 c -0.16974,1.73494 -0.8944,3.17456 -2.17402,4.3186 l -0.81391,0.52917 c -1.06972,0.55534 -2.20786,0.77437 -3.41478,0.65629 l -0.26406,-0.0258 1.07383,-10.97556 -0.18862,-0.0186 c -1.01171,-0.099 -2.04096,0.16869 -3.08663,0.80253 -0.8657,0.74031 -1.41448,1.42286 -1.64693,2.04742 -0.26388,0.6215 -0.41738,1.15213 -0.46043,1.59215 -0.21587,2.2064 0.57197,3.8829 2.36368,5.02916 0.3184,0.18345 0.7095,0.33577 1.17357,0.45733 l -0.0884,0.90537 -0.0754,-0.007 c -0.57831,-0.0566 -1.36615,-0.43839 -2.36316,-1.14515 -0.84321,-0.78693 -1.43349,-1.75827 -1.77095,-2.91455 -0.14696,-0.83304 -0.19753,-1.48554 -0.15141,-1.95699 l 0.0589,-0.60358 c 0.1107,-1.13148 0.58639,-2.227 1.42627,-3.28714 0.93334,-0.84791 1.641,-1.33712 2.12338,-1.46761 0.73855,-0.25139 1.47226,-0.38213 2.20142,-0.39171 0.0304,-4e-4 0.0606,-5.4e-4 0.091,-5.1e-4 z m 1.25419,1.11983 -0.9741,9.95701 0.0377,0.004 c 0.95076,-0.0529 1.69314,-0.24702 2.22725,-0.58188 0.85307,-0.48133 1.49042,-1.15526 1.91152,-2.02158 0.33625,-0.71592 0.53991,-1.36889 0.61029,-1.95854 0.0486,-0.4966 -0.0197,-1.22638 -0.20463,-2.19005 -0.21693,-0.6368 -0.59807,-1.28371 -1.14309,-1.93993 -0.85133,-0.76868 -1.67293,-1.19168 -2.46496,-1.26917 z m -234.68596,8.03051 0.15916,0.89504 -0.41031,0.0734 c -0.49746,0.0885 -1.17653,0.45319 -2.0376,1.09399 -1.33689,1.28361 -1.83667,2.87367 -1.49913,4.77025 0.0574,0.32336 0.32936,1.05775 0.81545,2.20297 l 0.44545,1.42162 0.007,0.0372 4.29069,-0.76326 0.15296,0.85783 -16.04346,2.85513 -0.15245,-0.85783 10.85722,-1.93219 -0.007,-0.0372 c -0.38291,-2.15153 -1.5662,-3.82667 -3.55017,-5.02605 -1.17542,-0.65688 -2.35038,-0.98692 -3.52485,-0.98961 l -0.76637,0.0207 -0.14624,-0.82062 c 1.15277,-0.0833 2.12753,-0.013 2.92437,0.21084 0.72649,0.15298 1.71041,0.63246 2.95072,1.43816 0.009,0.0498 0.13045,0.15636 0.36484,0.31987 0.24104,0.20089 0.36721,0.33263 0.37827,0.39481 l 0.0372,-0.007 c -0.0847,-0.90871 0.0829,-1.91363 0.50281,-3.01481 0.95056,-1.76007 2.34261,-2.80358 4.17701,-3.13004 z m 231.2934,4.4943 c 0.0381,-2e-5 0.0755,1.1e-4 0.11265,5.2e-4 0.0991,0.001 0.19499,0.003 0.28784,0.007 0.37143,0.0151 0.69309,0.0518 0.9648,0.11008 0.66076,0.14186 1.45125,0.49235 2.37091,1.05161 1.26346,0.97537 2.00134,2.23194 2.21382,3.7698 0.11042,0.77952 0.10874,1.45138 -0.006,2.01434 l -0.0398,0.18501 c -0.46005,2.14252 -1.63385,3.63542 -3.51968,4.47724 l -0.20103,0.0341 -0.008,0.0372 6.92826,1.48776 -0.17466,0.81494 -15.93237,-3.42046 0.17519,-0.81494 2.59364,0.55655 c -0.81357,-0.8142 -1.34724,-1.82014 -1.60042,-3.0179 -0.11877,-0.89113 -0.12134,-1.60213 -0.007,-2.1332 l 0.0481,-0.22221 c 0.27974,-1.30299 0.77229,-2.33452 1.47795,-3.09387 0.84028,-0.9953 1.99088,-1.60122 3.45199,-1.81694 0.26471,-0.0158 0.51421,-0.0243 0.74775,-0.0264 0.0389,-3.3e-4 0.0777,-5e-4 0.11576,-5.2e-4 z m -0.22789,0.87489 c -0.0895,6.7e-4 -0.17817,0.004 -0.26614,0.009 -1.40746,0.0903 -2.6128,0.81236 -3.6158,2.16679 -0.35753,0.58215 -0.60916,1.21311 -0.75499,1.89239 -0.39243,1.82789 0.0563,3.40973 1.34565,4.74597 0.76997,0.65594 1.60887,1.08203 2.51665,1.27692 1.16681,0.25057 2.32083,0.11062 3.4618,-0.41961 0.68083,-0.40292 1.18746,-0.83689 1.5198,-1.30173 0.51419,-0.71003 0.85141,-1.43871 1.01183,-2.18592 0.28637,-1.33355 0.0941,-2.60261 -0.57774,-3.80596 -0.52024,-0.79644 -1.08778,-1.34458 -1.70171,-1.64435 -0.46838,-0.25559 -0.90917,-0.42793 -1.32292,-0.51676 l -0.18551,-0.0398 -0.0289,-0.045 -0.045,0.0289 -0.14831,-0.0315 c -0.38558,-0.0828 -0.75851,-0.12594 -1.1188,-0.1297 -0.03,-3.2e-4 -0.0601,-2.3e-4 -0.0899,0 z m -228.91215,6.34535 0.23564,0.79943 -2.54506,0.74931 c 1.27635,0.35515 2.36247,1.18097 3.25768,2.47788 0.30055,0.48435 0.49822,0.88707 0.59273,1.2082 l 0.0961,0.32711 c 0.42082,1.42994 0.43091,2.71737 0.0305,3.8623 -0.37264,1.14992 -1.0938,2.09953 -2.16369,2.84892 -0.687,0.43944 -1.30899,0.74152 -1.86655,0.90537 -0.87857,0.25856 -1.90737,0.29763 -3.08612,0.11782 -1.51526,-0.38364 -2.70395,-1.24517 -3.56567,-2.58485 -0.36118,-0.69036 -0.58014,-1.16574 -0.65681,-1.42627 -0.6776,-2.30245 -0.31988,-4.26467 1.0728,-5.88595 l -2.61741,0.7705 -0.23564,-0.79995 z m -4.01423,2.30166 c -0.49855,0.006 -0.99323,0.0805 -1.48363,0.2248 -1.52689,0.44935 -2.61246,1.41386 -3.25665,2.89388 -0.39331,1.16916 -0.43641,2.27494 -0.12971,3.31711 l 0.0641,0.21807 c 0.34771,1.18151 1.12806,2.1768 2.34043,2.98535 1.23335,0.61144 2.48005,0.73159 3.74034,0.3607 l 0.0723,-0.0217 0.0476,0.0258 0.0253,-0.047 0.14573,-0.0429 c 1.81157,-0.53317 2.94185,-1.74809 3.391,-3.64474 0.14884,-0.92604 0.11794,-1.74638 -0.0925,-2.46135 l -0.0641,-0.21807 c -0.43152,-1.4663 -1.38409,-2.55559 -2.8577,-3.26751 -0.58156,-0.19745 -1.15757,-0.30409 -1.72858,-0.32039 -0.0714,-0.002 -0.14272,-0.003 -0.21394,-0.002 z m 229.35967,3.69539 c 0.69544,-0.002 1.41552,0.12325 2.16059,0.37465 1.07123,0.36145 2.0317,1.03196 2.88096,2.01176 1.15257,1.60208 1.4373,3.40508 0.85473,5.40794 -0.36953,1.09518 -1.00818,2.07961 -1.91616,2.95279 -1.01182,0.86512 -2.19992,1.30426 -3.56413,1.31724 -0.68312,0.009 -1.33003,-0.0886 -1.94045,-0.29456 l -0.43046,-0.14573 c -1.10115,-0.37154 -2.0535,-1.066 -2.85668,-2.08359 -0.5618,-0.94278 -0.84693,-1.63911 -0.85524,-2.08824 -0.19434,-0.92547 -0.21173,-1.62477 -0.0522,-2.09755 -0.0718,-0.0243 0.0536,-0.51478 0.37672,-1.47226 l 0.0243,-0.0718 c 0.33692,-0.99942 1.01974,-1.91557 2.04742,-2.74867 1.02091,-0.7053 2.11153,-1.05934 3.2706,-1.06195 z m 0.11679,0.92604 c -0.0373,-10e-5 -0.0748,2.9e-4 -0.11214,0.001 -0.59724,0.0118 -1.19405,0.13053 -1.79007,0.35605 -0.70217,0.30301 -1.35119,0.80389 -1.94665,1.50275 -0.42776,0.63558 -0.70962,1.15346 -0.84491,1.55443 l -0.0605,0.17983 c -0.33721,0.99942 -0.33351,2.13416 0.0114,3.40341 0.37252,0.81228 0.74214,1.37702 1.10846,1.69396 0.66492,0.59764 1.37481,1.02354 2.12855,1.27796 0.68823,0.23222 1.50275,0.30722 2.44378,0.22479 1.20718,-0.21927 2.18805,-0.79506 2.94246,-1.72703 0.36718,-0.45604 0.69256,-1.02594 0.97668,-1.70997 0.2726,-0.80791 0.33605,-1.74675 0.19017,-2.81585 -0.24971,-1.07746 -0.76579,-1.95774 -1.54822,-2.6417 -0.36634,-0.31692 -0.97243,-0.65506 -1.81798,-1.01337 -0.56105,-0.18931 -1.12109,-0.28482 -1.68103,-0.28629 z m -221.71363,5.65598 0.32867,0.76585 -7.17476,3.07681 c -0.68496,0.29375 -1.24366,0.84978 -1.67638,1.6676 -0.38957,0.9505 -0.36744,1.93088 0.0656,2.94091 0.12447,0.29023 0.41769,0.6866 0.88057,1.18907 l 9.89139,-4.24212 0.34365,0.80099 -9.82163,4.21215 c -0.007,0.69 0.10965,1.31343 0.34882,1.87068 0.40819,0.71148 0.80975,1.19933 1.20458,1.46296 1.11644,0.64828 2.19774,0.73415 3.24424,0.25787 l 7.07037,-3.03186 0.34365,0.80099 -6.96598,2.98741 c -1.40475,0.60243 -2.74658,0.51777 -4.0256,-0.25321 -0.75066,-0.4684 -1.32121,-1.1584 -1.71204,-2.06964 -0.22155,-0.51663 -0.33968,-1.20816 -0.35398,-2.07481 -0.62298,-0.61936 -1.0277,-1.14646 -1.2144,-1.58182 l -0.0749,-0.17415 c -0.44808,-1.04485 -0.47316,-2.16145 -0.0754,-3.34915 0.46751,-1.02516 1.17761,-1.74149 2.12959,-2.14974 z m 213.84744,4.30103 6.84661,3.25149 c 1.38071,0.65535 2.20503,1.71808 2.4722,3.1874 0.14487,0.87286 0.004,1.7568 -0.42116,2.65255 -0.24113,0.50779 -0.68164,1.05392 -1.3224,1.63763 -0.0528,0.87659 -0.18155,1.52908 -0.38447,1.95698 l -0.0811,0.17105 c -0.48767,1.02697 -1.30829,1.78388 -2.46238,2.27066 -1.07823,0.32702 -2.08532,0.26862 -3.021,-0.1757 l -7.1205,-3.38119 0.3576,-0.75344 7.05177,3.34915 c 0.67324,0.3197 1.45987,0.37108 2.35954,0.15503 0.97069,-0.33613 1.69177,-1.00041 2.16318,-1.99316 0.13547,-0.28527 0.23859,-0.76745 0.30954,-1.44694 l -9.72189,-4.61677 0.37362,-0.78755 9.65368,4.58422 c 0.52197,-0.45134 0.91297,-0.9509 1.17305,-1.49862 0.26392,-0.77664 0.3645,-1.40017 0.30128,-1.87069 -0.25175,-1.26622 -0.90238,-2.13422 -1.9513,-2.60449 l -6.94945,-3.30006 z m -209.5769,17.43305 c 0.014,-2e-5 0.0281,1.4e-4 0.0419,5.2e-4 0.14728,0.004 0.28866,0.0274 0.42427,0.0698 0.53567,0.15844 0.95816,0.49173 1.26762,0.99994 0.31619,0.51926 0.42189,1.05334 0.31678,1.60197 -0.10512,0.54863 -0.52243,1.04478 -1.25161,1.4888 -0.74023,0.45072 -1.37243,0.59354 -1.89704,0.42839 -0.53567,-0.15844 -0.96176,-0.49721 -1.27796,-1.01647 -0.30946,-0.50821 -0.41155,-1.03679 -0.30644,-1.58543 0.0873,-0.55296 0.50104,-1.0546 1.24127,-1.50534 0.5127,-0.3122 0.97903,-0.47271 1.3994,-0.48162 0.014,-3e-4 0.0279,-5e-4 0.0419,-5.2e-4 z m 204.38497,4.11655 c 0.0181,-1.2e-4 0.036,4e-5 0.0543,5.1e-4 0.43793,0.0114 0.9239,0.19404 1.45727,0.54829 0.72194,0.47949 1.11897,0.99167 1.19166,1.53686 0.0835,0.55234 -0.0429,1.08158 -0.3793,1.58801 -0.3292,0.49565 -0.76439,0.81254 -1.30587,0.94982 -0.53786,0.1552 -1.16815,-0.007 -1.8898,-0.4868 -0.71116,-0.47233 -1.10501,-0.98975 -1.18133,-1.55287 -0.0835,-0.55234 0.0393,-1.07635 0.36846,-1.572 0.33607,-0.50643 0.77574,-0.82857 1.31723,-0.96583 0.11845,-0.03 0.24091,-0.0452 0.36742,-0.046 z m -193.18461,2.7838 0.0233,0.03 c 1.14623,1.47693 1.59334,3.14452 1.341,5.00331 -0.3274,1.59725 -1.20986,2.95374 -2.64686,4.069 l -7.66414,5.94796 -0.53433,-0.68833 3.41323,-2.64893 -3.18327,-4.10156 0.68833,-0.53434 3.18327,4.10156 3.8623,-2.99723 c 0.53612,-0.43207 1.03619,-1.04436 1.50068,-1.83658 0.28911,-0.47222 0.48492,-1.31176 0.58756,-2.51871 -0.13492,-1.28642 -0.53128,-2.35364 -1.18959,-3.20187 l -0.0698,-0.0899 z m 4.57078,6.01204 0.59428,0.63769 -4.26899,3.97908 c -1.75572,1.63642 -2.19833,3.55147 -1.32809,5.74487 0.14413,0.34918 0.48371,0.86165 1.01854,1.53738 0.51677,0.55444 1.24151,1.03564 2.17455,1.44384 0.63276,0.17866 1.0763,0.26592 1.33118,0.26148 0.82924,0.056 1.70361,-0.15487 2.6231,-0.632 0.49379,-0.32254 1.03674,-0.75907 1.62832,-1.31 l 3.7977,-3.53984 0.59428,0.63769 -8.76019,8.16488 -0.59427,-0.63769 1.99626,-1.86035 c -0.43194,0.0831 -0.96037,0.10896 -1.58492,0.078 -0.94152,-0.16718 -1.4642,-0.30163 -1.56786,-0.40359 -0.84692,-0.3158 -1.69224,-0.92635 -2.53628,-1.83193 -0.75322,-0.94708 -1.23359,-2.01876 -1.44178,-3.21479 -0.15117,-1.29236 0.14305,-2.55127 0.88315,-3.77652 0.20832,-0.3323 0.62687,-0.791 1.25523,-1.37666 z m 177.74007,0.1757 c 1.63043,-0.0113 3.14016,0.56989 4.52944,1.74408 l 7.40989,6.26215 -0.56276,0.66611 -3.29954,-2.78898 -3.35122,3.96514 -0.66611,-0.56276 3.35174,-3.96513 -3.73414,-3.15537 c -0.53396,-0.43475 -1.23651,-0.79737 -2.10789,-1.08727 -0.52168,-0.18478 -1.38419,-0.20185 -2.58588,-0.0517 -1.23038,0.39904 -2.192,1.00904 -2.8851,1.82882 l -0.0734,0.0868 -0.66559,-0.56276 0.0243,-0.0289 c 1.2068,-1.42788 2.74558,-2.21121 4.61626,-2.35025 z m -5.32474,3.30316 11.46649,11.63185 -0.62064,0.61185 -4.97489,-5.04672 -0.0269,0.0269 c 0.29158,1.0695 0.18496,2.20329 -0.31936,3.40082 -0.26871,0.72608 -0.77403,1.45482 -1.51619,2.18644 l -0.108,0.10645 c -0.76465,0.75378 -1.87602,1.28168 -3.33417,1.58388 -1.17053,0.0899 -2.12569,-0.0507 -2.86442,-0.4222 -0.57949,-0.156 -1.31711,-0.68821 -2.21279,-1.5968 l -4.0168,-4.0752 0.62063,-0.61185 4.12326,4.18269 c 1.64946,1.67324 3.55822,2.06245 5.72627,1.16685 0.43921,-0.21095 0.95105,-0.57384 1.53531,-1.08778 0.92181,-0.90898 1.46659,-2.06674 1.63297,-3.47214 l -0.0227,-0.56276 c -0.0854,-1.16629 -0.71126,-2.34086 -1.8774,-3.52382 l -3.83129,-3.88658 z m -163.42002,6.07611 0.63511,0.54054 -1.71979,2.02003 c 1.26245,-0.40161 2.62379,-0.30477 4.08295,0.29042 0.51667,0.24077 0.90214,0.46927 1.15704,0.68627 l 0.25993,0.22117 c 1.135,0.96622 1.84821,2.03797 2.13992,3.21531 0.31771,1.16629 0.2339,2.35607 -0.25115,3.56877 -0.33454,0.74375 -0.68994,1.33691 -1.0666,1.77922 -0.59366,0.69736 -1.43297,1.29365 -2.51767,1.78853 -1.47804,0.50852 -2.94416,0.43797 -4.3987,-0.21136 -0.68019,-0.37997 -1.12386,-0.658 -1.33067,-0.83406 -1.82755,-1.55578 -2.60223,-3.39329 -2.32441,-5.51232 l -1.76888,2.07739 -0.63511,-0.54002 z m 0.55604,3.27526 c -0.0842,-2.7e-4 -0.16915,0.001 -0.25476,0.005 -0.19569,0.008 -0.39504,0.0248 -0.5979,0.0512 -1.18961,0.30614 -2.16334,0.90395 -2.92075,1.79369 -1.03174,1.21194 -1.41169,2.6132 -1.1405,4.20439 0.31095,1.19372 0.87967,2.14266 1.70687,2.84686 l 0.17312,0.14779 c 0.93782,0.79837 2.13535,1.20358 3.59255,1.21647 1.3667,-0.16356 2.47637,-0.74543 3.32796,-1.74563 l -5.2e-4,-5.2e-4 0.0491,-0.0574 0.0537,-0.004 -0.004,-0.0532 0.0982,-0.11576 c 1.22416,-1.43799 1.50482,-3.0736 0.84232,-4.90668 -0.38242,-0.85641 -0.85721,-1.52606 -1.42472,-2.00918 l -0.17311,-0.14727 c -0.95473,-0.81276 -2.06384,-1.22121 -3.32745,-1.22525 z m 152.32716,2.10219 c 1.25745,0.091 2.09978,0.26627 2.52697,0.52555 0.92189,0.48184 1.68243,1.10596 2.28152,1.87224 0.5952,0.76129 1.02631,1.72302 1.29346,2.8851 0.16999,1.29416 -0.11039,2.55542 -0.84129,3.78426 -0.41788,0.58325 -0.88936,1.12848 -1.4149,1.63556 -1.37332,1.07369 -2.91564,1.54208 -4.6266,1.40457 l -0.94412,-0.22376 c -1.13991,-0.39155 -2.08341,-1.06519 -2.83032,-2.02055 l -0.1633,-0.20877 8.68733,-6.79235 -0.11679,-0.14935 c -0.62632,-0.8011 -1.52923,-1.36156 -2.7094,-1.68155 -1.13312,-0.11625 -2.00587,-0.0434 -2.61844,0.21911 -0.63201,0.23756 -1.1224,0.49301 -1.47072,0.76533 -1.74624,1.3652 -2.417,3.09211 -2.01124,5.18004 0.0868,0.35708 0.24647,0.74543 0.47852,1.16531 l -0.71675,0.56017 -0.0465,-0.06 c -0.35788,-0.45778 -0.62509,-1.29123 -0.80098,-2.50062 -0.0117,-1.1533 0.28486,-2.25098 0.88935,-3.29282 0.50183,-0.68095 0.93939,-1.16706 1.31258,-1.45883 l 0.47749,-0.37362 c 0.89564,-0.70023 2.01724,-1.11203 3.36414,-1.23507 z m 4.44624,3.59513 -7.88169,6.1619 0.0238,0.03 c 0.69408,0.65166 1.34614,1.0555 1.95698,1.21129 0.9369,0.2857 1.86455,0.28223 2.78226,-0.0103 0.75054,-0.25006 1.36367,-0.55276 1.83917,-0.90848 0.39309,-0.30732 0.87465,-0.86024 1.44487,-1.65881 0.31149,-0.59628 0.51674,-1.318 0.61598,-2.16524 -0.0306,-1.14661 -0.2912,-2.03336 -0.78134,-2.66031 z m -146.3053,1.07694 c 0.91616,0.002 1.68742,0.21071 2.31355,0.62632 l 0.66301,0.44028 c 0.21573,0.14326 0.57399,0.56307 1.07435,1.25936 l 0.063,0.0419 c 0.76753,0.14575 1.30403,0.31995 1.6092,0.52244 l 0.59997,0.39843 c 0.97866,0.64987 1.562,1.68907 1.75028,3.11816 0.0158,0.98095 -0.2487,1.88202 -0.79375,2.70267 l -4.2137,6.34587 -0.75809,-0.50333 4.38164,-6.59805 c 0.40328,-0.75558 0.56719,-1.39011 0.49093,-1.90324 -0.0135,-0.67614 -0.2849,-1.34155 -0.81339,-1.99574 l -0.70538,-0.65009 -1.19889,-0.52348 c 0.18396,0.97874 0.18139,1.64433 -0.007,1.99677 -0.0588,0.40826 -0.39699,1.07839 -1.01544,2.0097 l -0.52452,0.7891 -0.72605,-0.48214 0.46147,-0.69453 c 0.81758,-1.23122 1.17326,-2.13232 1.06712,-2.7032 -0.0905,-0.60594 -0.16812,-0.9456 -0.23306,-1.01906 -1.08269,-0.0593 -2.10128,0.6291 -3.05511,2.06551 l -0.54467,0.82114 -0.66301,-0.44028 0.90124,-1.35754 c 0.75104,-1.13125 1.72428,-1.77451 2.91868,-1.92909 -0.37209,-0.39872 -0.67386,-0.67463 -0.90537,-0.82837 l -0.032,-0.0212 -0.0103,-0.0522 -0.0527,0.0103 -0.12609,-0.0837 c -0.64192,-0.42627 -1.43051,-0.58585 -2.36574,-0.47904 -0.914,0.23465 -1.5584,0.61066 -1.93218,1.1281 l -4.52789,6.8187 -0.69454,-0.46095 4.38113,-6.59805 c 0.73374,-1.10493 1.80831,-1.69532 3.22358,-1.77147 z m 128.6025,9.34 c 0.0253,-4.2e-4 0.0506,-5.1e-4 0.076,0 0.1353,0.003 0.27114,0.019 0.40773,0.0481 0.54637,0.11634 1.03399,0.54345 1.46296,1.28158 0.43547,0.7493 0.56502,1.3847 0.38912,1.90582 -0.16938,0.53232 -0.51667,0.95078 -1.04231,1.25626 -0.51445,0.29896 -1.04476,0.39021 -1.59112,0.27388 -0.55104,-0.0987 -1.04454,-0.52269 -1.48001,-1.27175 -0.429,-0.73811 -0.55319,-1.37631 -0.37259,-1.91513 0.16939,-0.53232 0.51133,-0.94797 1.02578,-1.24696 0.36957,-0.2148 0.74461,-0.32548 1.12448,-0.33176 z m -14.56397,2.2996 c 0.0228,-1.6e-4 0.0459,-2.3e-4 0.0687,0 0.68582,0.007 1.40527,0.2014 2.15852,0.58343 0.81834,0.54114 1.41245,1.26833 1.78181,2.18178 l 2.85512,7.06158 -0.84336,0.34107 -2.96881,-7.34271 c -0.39575,-0.7597 -0.82698,-1.25304 -1.29346,-1.48001 -0.56554,-0.37085 -1.26747,-0.52278 -2.10582,-0.4563 l -0.93482,0.21445 -1.1095,0.69402 c 0.91165,0.40123 1.45954,0.77909 1.64383,1.13378 0.30364,0.27918 0.6651,0.93711 1.08417,1.97352 l 0.35502,0.87799 -0.8077,0.32711 -0.31265,-0.77308 c -0.55402,-1.37018 -1.09676,-2.17269 -1.6278,-2.40761 -0.55108,-0.26769 -0.87525,-0.39553 -0.97255,-0.38344 -0.66063,0.85984 -0.66755,2.08933 -0.0212,3.68763 l 0.36948,0.91313 -0.73793,0.29869 -0.61082,-1.51102 c -0.50904,-1.25893 -0.48988,-2.4246 0.0574,-3.49746 -0.53921,0.0818 -0.93764,0.17488 -1.19528,0.27905 l -0.0351,0.0139 -0.0496,-0.0212 -0.0207,0.0496 -0.14056,0.0568 c -0.71413,0.28885 -1.29197,0.84899 -1.73219,1.68103 -0.32274,0.88672 -0.37591,1.63053 -0.1602,2.23139 l 3.06803,7.58869 -0.77256,0.31264 -2.96933,-7.34271 c -0.4972,-1.22964 -0.37705,-2.44994 0.35967,-3.66076 0.51909,-0.75468 1.12686,-1.27319 1.82366,-1.55494 l 0.73794,-0.29817 c 0.24007,-0.0971 0.7886,-0.15556 1.6459,-0.17519 l 0.0703,-0.0284 c 0.55387,-0.55098 1.00035,-0.89517 1.33997,-1.03249 l 0.66766,-0.26975 c 0.40841,-0.16515 0.83054,-0.25358 1.26659,-0.2651 0.0227,-6.1e-4 0.0454,-8.7e-4 0.0682,-0.001 z m -98.5263,2.34146 c 0.067,-6.4e-4 0.134,0.002 0.20102,0.008 0.26808,0.0234 0.53636,0.0988 0.80512,0.22635 0.54921,0.26071 0.93054,0.64943 1.1436,1.16582 0.21307,0.51638 0.13666,1.15991 -0.22944,1.93115 -0.37166,0.78275 -0.82209,1.24919 -1.35134,1.39888 -0.5348,0.16137 -1.07704,0.11189 -1.62626,-0.14883 -0.53752,-0.25517 -0.91296,-0.64065 -1.12603,-1.15704 -0.2303,-0.51024 -0.15926,-1.157 0.21239,-1.93993 0.36612,-0.77124 0.82243,-1.2348 1.36891,-1.39061 0.20055,-0.0605 0.40115,-0.0916 0.60203,-0.0935 z m 12.08712,0.0155 0.7953,0.25012 -0.79582,2.53059 c 1.01211,-0.86023 2.27551,-1.29773 3.78944,-1.31154 0.54711,-0.0133 1.04346,0.0504 1.48931,0.19068 l 0.21704,0.0682 c 1.95814,0.61586 3.25889,1.70058 3.90261,3.25355 0.4237,0.71591 0.5845,1.72005 0.48266,3.01222 -0.0931,0.63282 -0.18879,1.10573 -0.28733,1.41904 l -1.75079,5.5671 -0.86765,-0.27285 1.52342,-4.84415 c 0.51542,-1.63882 0.651,-2.82778 0.40669,-3.56671 -0.18727,-1.02556 -0.75379,-1.91847 -1.69963,-2.67942 -0.60504,-0.45513 -1.1577,-0.76154 -1.65778,-0.91881 l -0.28887,-0.0909 c -0.97004,-0.30509 -2.07667,-0.28254 -3.31918,0.0682 -1.46758,0.62428 -2.45908,1.75581 -2.9745,3.39463 l -1.76216,5.60379 -0.79531,-0.25011 z m 71.81785,2.88768 c 0.0405,-2.7e-4 0.0807,0 0.12092,5.2e-4 0.64368,0.008 1.24932,0.11855 1.81746,0.33073 1.14185,0.39667 2.07613,1.13776 2.80293,2.22312 0.42474,0.69619 0.71326,1.32492 0.86558,1.88567 0.24008,0.8838 0.25822,1.91295 0.0537,3.08767 -0.41532,1.50689 -1.30179,2.67695 -2.65927,3.51038 -0.69754,0.34663 -1.17761,0.55565 -1.4397,0.62684 -2.31615,0.62918 -4.27045,0.23057 -5.86218,-1.1958 l 0.71572,2.63292 -0.8046,0.21859 -3.12952,-11.51971 0.8046,-0.21859 0.69556,2.56005 c 0.38185,-1.26872 1.23018,-2.33716 2.54558,-3.20498 0.49054,-0.29012 0.89755,-0.47915 1.2206,-0.56689 l 0.32918,-0.0894 c 0.67428,-0.18316 1.31553,-0.27704 1.9234,-0.28112 z m -0.15968,0.92191 c -0.0259,7e-5 -0.0519,9e-5 -0.0775,5.2e-4 -0.41048,0.007 -0.79587,0.0589 -1.15548,0.15658 l -0.21911,0.0599 c -1.47502,0.40068 -2.58375,1.3301 -3.32641,2.78846 -0.4194,1.15456 -0.47633,2.29545 -0.17002,3.42305 0.41724,1.53597 1.35897,2.64174 2.82515,3.31659 1.16066,0.41774 2.26513,0.48426 3.3135,0.19948 l 0.21962,-0.0594 c 1.18855,-0.32287 2.19961,-1.08224 3.03341,-2.27738 0.63708,-1.22011 0.78346,-2.46395 0.43925,-3.73156 l -0.0202,-0.0734 0.0269,-0.0465 -0.0465,-0.0269 -0.0398,-0.14624 c -0.49483,-1.82245 -1.68631,-2.97815 -3.5729,-3.46698 -0.43253,-0.0788 -0.84213,-0.11732 -1.2299,-0.11627 z m -11.69645,0.33745 0.006,0.0372 -0.97565,5.1108 6.08335,10.53114 -0.89762,0.14572 c -0.0374,0.006 -0.42296,-0.63573 -1.15652,-1.92443 l -4.25297,-7.52615 -0.0749,0.0119 -2.07223,10.66344 -0.93534,0.15141 -0.006,-0.0372 3.38378,-17.0186 z m -43.19892,0.70177 c 0.14755,-0.002 0.2822,0.009 0.40463,0.0331 0.0145,-0.0744 0.51816,-0.0149 1.50999,0.1788 l 0.0744,0.015 c 1.03522,0.20216 2.03354,0.75751 2.99517,1.66605 1.33437,1.47045 1.80078,3.23485 1.39888,5.2927 -0.21669,1.10961 -0.75439,2.14995 -1.61334,3.12126 -1.43568,1.35421 -3.18533,1.87487 -5.24774,1.56218 -1.13441,-0.22153 -2.19434,-0.72439 -3.18017,-1.50895 -0.99127,-0.88859 -1.58347,-2.00845 -1.77664,-3.35897 -0.0997,-0.67587 -0.0878,-1.32986 0.0357,-1.96216 l 0.0873,-0.44648 c 0.22274,-1.14061 0.78526,-2.17615 1.68776,-3.10679 0.86008,-0.68147 1.5126,-1.05578 1.95698,-1.12344 0.66875,-0.23622 1.22443,-0.35699 1.66708,-0.36225 z m 14.18105,0.15141 0.90537,0.0853 -0.004,0.0377 -2.23036,4.70049 3.23702,11.7228 -0.90538,-0.0847 c -0.0377,-0.003 -0.24949,-0.72126 -0.6351,-2.15336 l -2.22157,-8.35401 -0.0755,-0.007 -4.68912,9.79837 -0.94361,-0.0889 0.004,-0.0377 z m -13.7511,0.75757 c -0.76498,0.006 -1.57396,0.18891 -2.42672,0.54726 -0.75591,0.47662 -1.26649,0.91739 -1.53221,1.3224 -0.50451,0.73807 -0.83346,1.49787 -0.98599,2.27893 -0.1392,0.71288 -0.10531,1.53016 0.10077,2.45205 0.37691,1.16742 1.07714,2.0636 2.10065,2.6882 0.50057,0.30368 1.10859,0.55086 1.82418,0.74208 0.83685,0.16342 1.77541,0.10245 2.81585,-0.18345 1.035,-0.38994 1.83979,-1.01816 2.41432,-1.88413 0.26572,-0.40502 0.52058,-1.05026 0.76429,-1.9358 0.24211,-1.23978 0.0605,-2.42044 -0.54415,-3.54242 -0.39316,-0.65596 -0.97518,-1.233 -1.74666,-1.73116 -0.68654,-0.34 -1.2378,-0.55038 -1.65313,-0.63148 l -0.18604,-0.0367 c -0.2588,-0.0505 -0.52281,-0.0787 -0.79271,-0.0848 -0.0506,-0.001 -0.10145,-0.001 -0.15245,-0.001 z m 26.89655,5.95261 c 0.0188,-2.7e-4 0.0372,-1.3e-4 0.0558,0 0.55903,0.004 1.0385,0.17563 1.43764,0.5147 0.42576,0.36165 0.65215,0.96883 0.67955,1.82211 0.0278,0.86621 -0.15914,1.48713 -0.56121,1.86242 -0.40167,0.38821 -0.90648,0.59182 -1.51412,0.61133 -0.59471,0.0191 -1.1049,-0.15205 -1.53065,-0.51366 -0.43827,-0.3483 -0.67137,-0.95538 -0.69919,-1.8216 -0.0274,-0.85328 0.16625,-1.47431 0.58085,-1.86293 0.40167,-0.38821 0.89977,-0.59172 1.49448,-0.61082 0.019,-6.1e-4 0.0381,-0.001 0.0568,-0.002 z" />
      <path
         id="path4683"
         style="fill:#ffffff;fill-opacity:1;stroke:none;stroke-width:9.46253;stroke-linecap:square"
         d="m 424.01378,48.455745 -0.15242,-9.29326 c -20.14606,2.202862 -39.10379,10.425737 -54.48144,23.62643 l 6.66799,6.452779 c 13.62941,-11.473942 30.27402,-18.686468 47.96587,-20.785949 z m -2.68221,-2.168475 c -16.50708,2.391742 -32.00058,9.103842 -45.03312,19.513563 l -2.9125,-2.818507 C 387.1844,51.833055 403.696,44.671169 421.26486,42.218636 Z m -1.34075,-1.063787 -0.0227,-1.383973 c -16.26934,2.532141 -31.54633,9.15753 -44.51469,19.304063 l 0.98371,0.951956 c 12.71069,-9.897714 27.64033,-16.365135 43.55368,-18.872046 z m 9.39201,7.918174 -0.32595,-19.874046 A 105.83333,105.83333 0 0 0 361.5231,62.550858 l 14.27323,13.812599 a 85.989586,85.989586 0 0 1 53.5865,-23.2218 z m -2.68448,-2.373475 c -18.85958,1.722941 -36.645,9.4298 -50.79814,22.01319 L 365.42701,62.646179 C 382.29812,47.316658 403.73764,38.018501 426.45873,36.18052 Z"
         inkscape:transform-center-x="39.258677"
         inkscape:transform-center-y="-84.090737" />
    </g>
  </g>
  <g
     inkscape:label="Layer 1"
     inkscape:groupmode="layer"
     id="layer1"
     style="display:inline"
     transform="translate(-295.80536)" />
</svg>
