<?xml version="1.0" encoding="UTF-8" standalone="no"?>
<!-- Created with Inkscape (http://www.inkscape.org/) -->

<svg
   width="878.74353"
   height="301.03693"
   viewBox="0 0 232.50089 79.649356"
   version="1.1"
   id="svg5"
   inkscape:version="1.1.1 (3bf5ae0d25, 2021-09-20, custom)"
   sodipodi:docname="nofarahText.svg"
   xmlns:inkscape="http://www.inkscape.org/namespaces/inkscape"
   xmlns:sodipodi="http://sodipodi.sourceforge.net/DTD/sodipodi-0.dtd"
   xmlns="http://www.w3.org/2000/svg"
   xmlns:svg="http://www.w3.org/2000/svg">
  <sodipodi:namedview
     id="namedview7"
     pagecolor="#333333"
     bordercolor="#666666"
     borderopacity="1.0"
     inkscape:pageshadow="2"
     inkscape:pageopacity="0"
     inkscape:pagecheckerboard="0"
     inkscape:document-units="px"
     showgrid="false"
     units="px"
     width="1920px"
     inkscape:zoom="3.15109"
     inkscape:cx="439.37178"
     inkscape:cy="150.42414"
     inkscape:window-width="3812"
     inkscape:window-height="2002"
     inkscape:window-x="12"
     inkscape:window-y="56"
     inkscape:window-maximized="0"
     inkscape:current-layer="layer1"
     inkscape:lockguides="false" />
  <defs
     id="defs2">
    <inkscape:path-effect
       effect="offset"
       id="path-effect8316"
       is_visible="true"
       lpeversion="1"
       linejoin_type="miter"
       unit="px"
       offset="4"
       miter_limit="4"
       attempt_force_join="false"
       update_on_knot_move="true" />
    <inkscape:path-effect
       effect="offset"
       id="path-effect1385"
       is_visible="true"
       lpeversion="1"
       linejoin_type="miter"
       unit="px"
       offset="2"
       miter_limit="4"
       attempt_force_join="false"
       update_on_knot_move="true" />
    <inkscape:path-effect
       effect="offset"
       id="path-effect44221"
       is_visible="true"
       lpeversion="1"
       linejoin_type="miter"
       unit="px"
       offset="-5"
       miter_limit="4"
       attempt_force_join="false"
       update_on_knot_move="true" />
    <inkscape:path-effect
       effect="offset"
       id="path-effect44180"
       is_visible="true"
       lpeversion="1"
       linejoin_type="miter"
       unit="px"
       offset="-5"
       miter_limit="4"
       attempt_force_join="false"
       update_on_knot_move="true" />
    <inkscape:path-effect
       effect="offset"
       id="path-effect44174"
       is_visible="true"
       lpeversion="1"
       linejoin_type="miter"
       unit="px"
       offset="0"
       miter_limit="4"
       attempt_force_join="false"
       update_on_knot_move="true" />
    <rect
       x="222.87556"
       y="280.27725"
       width="1034.7239"
       height="424.17374"
       id="rect14249" />
    <rect
       x="236.93637"
       y="305.65289"
       width="1129.8278"
       height="350.57983"
       id="rect3023" />
    <filter
       inkscape:collect="always"
       style="color-interpolation-filters:sRGB"
       id="filter8336"
       x="-0.04566162"
       y="-0.16161224"
       width="1.0913232"
       height="1.3232245">
      <feGaussianBlur
         inkscape:collect="always"
         stdDeviation="4.0533316"
         id="feGaussianBlur8338" />
    </filter>
  </defs>
  <g
     inkscape:label="Layer 1"
     inkscape:groupmode="layer"
     id="layer1"
     transform="translate(-100.4888,-78.389192)">
    <g
       id="g8314"
       style="fill:#000000;filter:url(#filter8336)"
       inkscape:path-effect="#path-effect8316">
      <path
         id="path8248"
         style="font-weight:900;font-size:200px;line-height:1.25;font-family:Mosk;-inkscape-font-specification:'Mosk, Heavy';direction:rtl;white-space:pre;fill:#000000;stroke-width:0.999999"
         d="m 434.07726,333.04133 v 144.0059 h 44.40207 V 413.718 l 46.16633,63.32923 h 40.032 v -144.0059 h -44.40208 v 65.25589 l -46.32873,-65.25589 z m 12.99949,12.99951 h 20.15255 c 19.59425,27.60072 39.18781,55.20192 58.78201,82.80264 l 7.26376,10.22392 v -93.02656 h 18.40305 v 118.0069 H 531.24505 C 511.734,437.27908 492.22513,410.5088 472.71408,383.74015 l -7.23428,-9.92126 v 90.22885 h -18.40305 z"
         transform="scale(0.26458334)"
         inkscape:original-d="m 438.07812,337.04492 v 136 h 36.4004 v -71.59961 l 52.20117,71.59961 h 34 v -136 H 524.2793 v 73.80078 l -52.40039,-73.80078 z m 4.99805,4.99414 h 26.22071 c 19.9926,28.16191 39.98395,56.32443 59.97656,84.48633 v -84.48633 h 26.40625 V 468.04883 H 529.21484 C 509.30342,440.73093 489.39189,413.4136 469.48047,386.0957 v 81.95313 h -26.4043 z" />
      <path
         d="m 158.89453,106.5332 c -1.98369,0 -3.77278,0.40819 -5.33203,1.25391 -1.55586,0.83159 -2.74546,2.00886 -3.60156,3.56055 -0.8514,1.54316 -1.26172,3.31327 -1.26172,5.27539 0,1.9667 0.40765,3.72426 1.26562,5.27929 0.85742,1.52728 2.04491,2.69238 3.60352,3.52539 1.56303,0.82125 3.3471,1.21485 5.32617,1.21485 1.9791,0 3.75186,-0.39476 5.30078,-1.22266 1.57344,-0.85339 2.77541,-2.03968 3.63281,-3.59375 0.8542,-1.54819 1.26172,-3.30674 1.26172,-5.27344 0,-1.96211 -0.41008,-3.72333 -1.26172,-5.24023 -0.85903,-1.55699 -2.06606,-2.73429 -3.63867,-3.56055 -1.54322,-0.82483 -3.31583,-1.21875 -5.29492,-1.21875 z m 0,6.03321 c 0.97346,0 1.77982,0.36639 2.37695,1.04882 0.61935,0.70781 0.97461,1.67719 0.97461,2.9375 0,1.25408 -0.35993,2.2309 -1.00781,2.96875 l -0.006,0.006 -0.004,0.006 c -0.60563,0.70946 -1.39941,1.07617 -2.33399,1.07618 -0.97212,0 -1.78186,-0.36845 -2.37891,-1.05079 -0.61926,-0.70772 -0.97266,-1.67418 -0.97265,-2.93554 -1e-5,-1.25764 0.35276,-2.2405 0.97656,-2.97461 0.62902,-0.71347 1.44152,-1.08203 2.375,-1.08203 z"
         style="font-weight:bold;font-size:133.333px;line-height:1.25;font-family:Mosk;-inkscape-font-specification:'Mosk, Bold';direction:rtl;white-space:pre;opacity:1;fill:#000000;fill-opacity:1;stroke-width:0.264583"
         id="path8250"
         inkscape:original-d="m 158.89431,125.58328 q -2.75165,0 -4.83304,-1.0936 -2.0461,-1.09361 -3.17499,-3.10444 -1.12889,-2.04611 -1.12889,-4.76249 0,-2.71638 1.12889,-4.76249 1.12889,-2.0461 3.17499,-3.13971 2.08139,-1.12889 4.83304,-1.12889 2.75167,0 4.79777,1.09361 2.08138,1.09361 3.21027,3.13972 1.12889,2.01082 1.12889,4.72721 0,2.71638 -1.12889,4.76248 -1.12889,2.04611 -3.21027,3.175 -2.0461,1.0936 -4.79777,1.0936 z m 4.40972,-9.03108 q 0,-2.2225 -1.23472,-3.6336 -1.23472,-1.41111 -3.175,-1.41111 -1.90499,0 -3.17499,1.44638 -1.23472,1.44639 -1.23472,3.66888 0,2.2225 1.23472,3.6336 1.23472,1.41111 3.17499,1.41111 1.905,0 3.13972,-1.44638 1.27,-1.44639 1.27,-3.66888 z" />
      <path
         d="m 178.65039,99.335938 c -2.3072,0 -4.20604,0.614821 -5.63672,1.988282 -1.42961,1.37244 -2.08984,3.22459 -2.08984,5.45703 v 0.24609 h -2.64649 v 5.64454 h 2.64649 v 21.66015 h 6.70312 v -21.66015 h 5.21094 l -2.3125,-5.64454 h -2.80859 c 0.0532,-0.5058 0.12014,-0.99325 0.28515,-1.23046 l 0.006,-0.008 0.006,-0.008 c 0.14391,-0.21586 0.39339,-0.37695 0.84766,-0.37695 0.32969,0 0.79259,0.0999 1.51562,0.38476 l 0.98633,0.38867 1.97852,-5.02148 -0.60157,-0.49023 c -0.50843,-0.41311 -1.18553,-0.730262 -1.9414,-0.964848 -0.75212,-0.233416 -1.47705,-0.365234 -2.14844,-0.365234 z"
         style="font-weight:bold;font-size:133.333px;line-height:1.25;font-family:Mosk;-inkscape-font-specification:'Mosk, Bold';direction:rtl;white-space:pre;fill:#000000;stroke-width:0.264583"
         id="path8252"
         inkscape:original-d="m 171.98237,111.61332 h -2.64583 v -3.52777 h 2.64583 v -1.30527 q 0,-2.99861 1.76388,-4.69194 1.76388,-1.69333 4.9036,-1.69333 0.81138,0 1.83444,0.3175 1.02305,0.3175 1.5875,0.77611 l -1.30528,3.31611 q -1.16416,-0.45861 -1.905,-0.45861 -1.16416,0 -1.7286,0.84666 -0.56444,0.81139 -0.56444,2.2225 v 0.67027 h 3.24554 l 1.44639,3.52777 h -4.69193 v 21.6605 h -4.5861 z" />
      <path
         d="m 190.57422,106.5332 c -0.90566,0 -2.08115,0.18764 -3.45117,0.52344 -1.38492,0.31634 -2.51288,0.70772 -3.26758,1.20117 l -0.67578,0.44336 1.85156,5.71485 1.08398,-0.50391 c 0.57378,-0.2664 1.29584,-0.50099 2.18555,-0.70117 l 0.0117,-0.004 0.0117,-0.002 c 0.87671,-0.21918 1.64841,-0.32227 2.32031,-0.32227 0.61388,0 0.98336,0.17716 1.20899,0.41407 l 0.0176,0.0176 0.0176,0.0176 c 0.0345,0.0329 0.0341,0.14511 0.0664,0.18555 h -1.91016 c -2.15606,0 -3.98056,0.52661 -5.39453,1.68359 -1.48347,1.189 -2.15625,2.80763 -2.15625,4.84375 0,1.93611 0.59894,3.57121 1.87109,4.81446 l 0.006,0.004 0.004,0.004 c 1.29443,1.23559 3.12957,1.77539 5.35156,1.77539 1.48124,0 2.80731,-0.67801 4.06836,-1.6582 l 0.52344,1.23437 h 4.75781 v -12.3125 c 0,-1.42294 -0.40123,-2.69885 -1.21484,-3.85156 -0.77163,-1.12677 -1.80813,-1.99233 -3.0918,-2.60742 -1.28819,-0.61726 -2.68307,-0.91407 -4.19531,-0.91407 z m -0.59961,12.17188 h 2.39844 v 1.01953 c -0.88551,0.76089 -1.79124,1.16602 -2.7168,1.16601 -0.39266,0 -0.66778,-0.11675 -0.86914,-0.29101 -0.1714,-0.1678 -0.25977,-0.38204 -0.25977,-0.55469 0,-0.38404 0.12492,-0.68499 0.37305,-0.95117 0.24393,-0.23915 0.57567,-0.38867 1.07422,-0.38867 z"
         style="font-weight:bold;font-size:133.333px;line-height:1.25;font-family:Mosk;-inkscape-font-specification:'Mosk, Bold';direction:rtl;white-space:pre;fill:#000000;stroke-width:0.264583"
         id="path8254"
         inkscape:original-d="m 190.64424,111.82499 q -1.16417,0 -2.57527,0.35277 -1.41111,0.3175 -2.39889,0.77611 l -1.23472,-3.80999 q 0.91722,-0.59972 2.92805,-1.05833 2.01083,-0.49389 3.21027,-0.49389 2.04611,0 3.73944,0.81139 1.69333,0.81139 2.6811,2.25777 1.02305,1.44639 1.02305,3.24555 v 11.25358 h -2.9986 l -0.77611,-1.83444 q -2.15194,2.25777 -4.51554,2.25777 -3.06916,0 -4.62138,-1.48166 -1.55222,-1.51694 -1.55222,-4.05693 0,-2.61055 1.76388,-4.02166 1.76389,-1.44638 4.72721,-1.44638 h 3.35139 q -0.0353,-1.30528 -0.77611,-2.01083 -0.70556,-0.74083 -1.97555,-0.74083 z m -0.67028,5.82082 q -1.12889,0 -1.83444,0.70555 -0.67027,0.70555 -0.67027,1.69333 0,0.77611 0.59972,1.34055 0.63499,0.56444 1.58749,0.56444 2.04611,0 3.77471,-1.69333 v -2.61054 z" />
      <path
         d="m 200.69727,106.99219 v 19.22656 h 6.70507 v -10.95117 c 0.82183,-0.68092 1.6707,-1.29528 2.58008,-1.75 1.07907,-0.52853 1.87691,-0.74024 2.42774,-0.74024 h 1.35546 l -1.44531,-5.78515 h -0.82617 c -1.07549,0 -2.22688,0.36813 -3.42578,1.00586 -0.75964,0.40406 -1.36782,0.90005 -2.01172,1.375 l -1.26367,-2.38086 z"
         style="font-weight:bold;font-size:133.333px;line-height:1.25;font-family:Mosk;-inkscape-font-specification:'Mosk, Bold';direction:rtl;white-space:pre;fill:#000000;stroke-width:0.264583"
         id="path8256"
         inkscape:original-d="m 212.41058,111.71915 q -1.16416,0 -2.89277,0.84667 -1.69333,0.84666 -3.17499,2.15194 v 10.44219 h -4.5861 v -17.10968 h 2.39888 l 1.51694,2.8575 q 1.23472,-1.09361 2.89277,-1.97555 1.65805,-0.88195 2.92805,-0.88195 z" />
      <path
         d="m 221.26562,106.5332 c -0.90565,0 -2.08115,0.18764 -3.45117,0.52344 -1.38492,0.31634 -2.51287,0.70772 -3.26757,1.20117 l -0.67579,0.44336 1.85157,5.71485 1.08398,-0.50391 c 0.57378,-0.2664 1.29584,-0.50099 2.18555,-0.70117 l 0.0117,-0.004 0.0117,-0.002 c 0.87672,-0.21918 1.64841,-0.32227 2.32032,-0.32227 0.61387,0 0.98334,0.17714 1.20898,0.41407 l 0.0176,0.0176 0.0176,0.0176 c 0.0345,0.0329 0.0341,0.14511 0.0664,0.18555 h -1.91015 c -2.15436,0 -3.97566,0.52697 -5.38867,1.68164 -1.48453,1.18872 -2.16211,2.80755 -2.16211,4.8457 0,1.93611 0.59892,3.57121 1.87109,4.81446 l 0.006,0.004 0.004,0.004 c 1.29442,1.23559 3.12955,1.77539 5.35156,1.77539 1.48123,0 2.80731,-0.67801 4.06836,-1.6582 l 0.52344,1.23437 h 4.75781 v -12.3125 c 0,-1.42292 -0.40122,-2.69884 -1.21485,-3.85156 -0.77163,-1.12676 -1.80813,-1.99233 -3.09179,-2.60742 -1.2882,-0.61726 -2.68306,-0.91407 -4.19532,-0.91407 z m -0.5996,12.17188 h 2.39843 v 1.01953 c -0.88551,0.76089 -1.79124,1.16602 -2.71679,1.16601 -0.39266,0 -0.66778,-0.11675 -0.86914,-0.29101 -0.1714,-0.16779 -0.25977,-0.38202 -0.25977,-0.55469 0,-0.38174 0.12571,-0.68377 0.375,-0.95117 0.24496,-0.24023 0.57372,-0.38867 1.07227,-0.38867 z"
         style="font-weight:bold;font-size:133.333px;line-height:1.25;font-family:Mosk;-inkscape-font-specification:'Mosk, Bold';direction:rtl;white-space:pre;fill:#000000;stroke-width:0.264583"
         id="path8258"
         inkscape:original-d="m 221.33585,111.82499 q -1.16417,0 -2.57527,0.35277 -1.41111,0.3175 -2.39889,0.77611 l -1.23472,-3.80999 q 0.91722,-0.59972 2.92805,-1.05833 2.01083,-0.49389 3.21027,-0.49389 2.04611,0 3.73944,0.81139 1.69333,0.81139 2.6811,2.25777 1.02306,1.44639 1.02306,3.24555 v 11.25358 h -2.99861 l -0.77611,-1.83444 q -2.15194,2.25777 -4.51554,2.25777 -3.06916,0 -4.62138,-1.48166 -1.55222,-1.51694 -1.55222,-4.05693 0,-2.61055 1.76389,-4.02166 1.76388,-1.44638 4.72721,-1.44638 h 3.35138 q -0.0353,-1.30528 -0.77611,-2.01083 -0.70556,-0.74083 -1.97555,-0.74083 z m -0.67028,5.82082 q -1.12888,0 -1.83444,0.70555 -0.67027,0.70555 -0.67027,1.69333 0,0.77611 0.59972,1.34055 0.635,0.56444 1.58749,0.56444 2.04611,0 3.77472,-1.69333 v -2.61054 z" />
      <path
         d="m 238.41016,99.101562 -6.66797,0.56836 v 26.548828 h 6.66797 v -12.32813 c 0.62195,-0.42543 1.22967,-0.82773 1.74218,-1.08398 l 0.0137,-0.008 0.0117,-0.006 c 0.54991,-0.29329 1.13654,-0.43945 1.75977,-0.43945 0.44105,0 0.73955,0.16571 0.93945,0.44336 l 0.008,0.01 0.01,0.0117 c 0.26417,0.34761 0.45508,0.91865 0.45508,1.82812 v 11.57227 h 6.70312 v -11.7832 c 0,-2.32362 -0.46468,-4.27073 -1.50195,-5.72852 -1.14051,-1.60288 -3.02621,-2.2793 -5.41406,-2.2793 -0.95564,0 -2.00029,0.19265 -3.10742,0.54493 -0.56111,0.17853 -1.07958,0.49452 -1.61914,0.74218 z"
         style="font-weight:bold;font-size:133.333px;line-height:1.25;font-family:Mosk;-inkscape-font-specification:'Mosk, Bold';direction:rtl;white-space:pre;opacity:1;fill:#000000;fill-opacity:1;stroke-width:0.264583"
         id="path8260"
         inkscape:original-d="m 248.99356,114.43553 v 10.72442 h -4.5861 V 114.6472 q 0,-1.58749 -0.67027,-2.46944 -0.635,-0.88194 -1.79916,-0.88194 -1.19945,0 -2.25778,0.56444 -1.05833,0.52917 -2.32832,1.44639 v 11.8533 h -4.55082 v -24.51799 l 4.55082,-0.38806 v 9.10165 q 1.44638,-0.88194 2.9986,-1.37583 1.55222,-0.49389 2.78694,-0.49389 3.24555,0 4.55082,1.83444 1.30527,1.83444 1.30527,5.11526 z" />
      <path
         id="path8262"
         style="font-weight:900;font-size:200px;line-height:1.25;font-family:Mosk;-inkscape-font-specification:'Mosk, Heavy';direction:rtl;white-space:pre;fill:#000000;stroke-width:0.999999"
         d="m 907.21207,333.04133 v 36.60679 h 39.99507 v 107.39911 h 44.40208 V 369.64812 h 43.90748 l -4.3553,-36.60679 z m 12.99954,12.99951 h 99.40449 c 0.4208,3.53592 0.8415,7.07184 1.2623,10.60777 H 978.60973 V 464.04774 H 960.20668 V 356.64861 h -39.99507 z"
         transform="scale(0.26458334)"
         inkscape:original-d="m 911.21094,337.04492 v 28.59961 h 40 v 107.40039 h 36.40039 V 365.64453 h 43.40037 l -3.4004,-28.59961 z m 5,4.99414 H 1023.166 c 0.7382,6.20325 1.4767,12.40808 2.2149,18.61133 H 982.61133 V 468.04883 H 956.20508 V 360.65039 h -39.99414 z" />
      <path
         d="m 272.22461,106.5332 c -1.92058,0 -3.6291,0.40798 -5.11328,1.26953 -1.48611,0.83919 -2.61105,2.02161 -3.41211,3.57032 l -0.004,0.006 -0.004,0.008 c -0.76848,1.53695 -1.13477,3.28824 -1.13477,5.23633 0,3.03581 0.91206,5.52054 2.83203,7.35937 l 0.006,0.006 0.006,0.006 c 1.9476,1.81235 4.70635,2.64844 8.12891,2.64844 1.47453,0 2.79653,-0.18717 3.94531,-0.58789 l 0.0117,-0.004 0.01,-0.004 c 1.11761,-0.41586 2.15057,-0.9996 3.10547,-1.74805 l 0.62696,-0.49024 -1.9336,-4.78711 h 1.7832 v -2.46875 c 0,-1.79236 -0.30078,-3.43561 -0.92578,-4.91992 -0.64481,-1.55828 -1.63113,-2.78997 -2.99414,-3.71679 -1.38611,-0.94259 -3.04227,-1.38282 -4.93359,-1.38282 z m -0.10742,6.03321 c 0.7034,0 1.20188,0.20646 1.56054,0.55078 l 0.008,0.008 0.006,0.006 c 0.14372,0.13267 0.21475,0.50404 0.33984,0.70508 h -3.88477 c 0.11853,-0.18668 0.17075,-0.53199 0.31055,-0.65625 l 0.008,-0.008 0.008,-0.006 c 0.41954,-0.38847 0.95092,-0.59961 1.64453,-0.59961 z m -1.91602,6.45507 h 8.25391 l -0.36719,0.20899 c -0.82828,0.47009 -1.57583,0.81506 -2.25586,1.04883 -0.62473,0.21474 -1.35391,0.33008 -2.19726,0.33008 -1.48788,0 -2.4218,-0.28913 -2.9668,-0.71876 -0.21831,-0.17945 -0.29535,-0.60092 -0.4668,-0.86914 z"
         style="font-weight:bold;font-size:133.333px;line-height:1.25;font-family:Mosk;-inkscape-font-specification:'Mosk, Bold';direction:rtl;white-space:pre;fill:#000000;stroke-width:0.264583"
         id="path8264"
         inkscape:original-d="m 272.22373,107.59166 q 2.57527,0 4.33914,1.19945 1.7639,1.19944 2.61057,3.24554 0.84666,2.01083 0.84666,4.51555 v 1.4111 h -11.53581 q 0.35277,1.79917 1.51694,2.75166 1.19944,0.9525 3.6336,0.9525 1.41111,0 2.54,-0.38805 1.12887,-0.38806 2.43417,-1.12889 l 1.34054,3.3161 q -1.30527,1.02306 -2.82221,1.5875 -1.51696,0.52916 -3.59833,0.52916 -4.86833,0 -7.40831,-2.3636 -2.50473,-2.39888 -2.50473,-6.59693 0,-2.71638 1.02307,-4.76249 1.05833,-2.0461 2.9986,-3.13971 1.94027,-1.12889 4.5861,-1.12889 z m -0.10583,3.91583 q -1.41111,0 -2.36361,0.88194 -0.9525,0.84666 -1.23473,2.50471 h 7.16138 q -0.35277,-1.69332 -1.27,-2.53999 -0.88194,-0.84666 -2.29304,-0.84666 z" />
      <path
         d="m 290.88477,106.5332 c -1.98823,0 -3.76585,0.40548 -5.33008,1.25391 -1.55545,0.83137 -2.74699,2.00811 -3.60352,3.56055 l -0.004,0.006 -0.004,0.008 c -0.82381,1.54133 -1.21875,3.30427 -1.21875,5.26172 0,1.95744 0.39515,3.71881 1.21875,5.25976 l 0.006,0.01 0.006,0.01 c 0.85201,1.51762 2.05769,2.69817 3.60547,3.52539 1.56265,0.82106 3.34513,1.21485 5.32422,1.21485 0.97889,0 2.10619,-0.17441 3.33593,-0.49414 1.27438,-0.33134 2.37079,-0.81907 3.24024,-1.49219 l 0.62695,-0.48437 -2,-5.08594 -1.01172,0.45117 c -0.85681,0.38331 -1.60367,0.65395 -2.24219,0.82422 -0.61445,0.16385 -1.25197,0.24804 -1.91406,0.24805 -0.97212,0 -1.77922,-0.36767 -2.37695,-1.05079 -0.61926,-0.70772 -0.97266,-1.67419 -0.97266,-2.93554 0,-1.25764 0.35277,-2.2405 0.97657,-2.97461 0.62966,-0.71421 1.43955,-1.08203 2.37304,-1.08203 0.66395,0 1.3014,0.0827 1.91406,0.24609 0.63688,0.16984 1.38429,0.44236 2.24219,0.82617 l 1.00781,0.44922 2.02735,-5.09766 -0.70508,-0.47656 c -0.913,-0.61762 -2.01354,-1.09503 -3.27148,-1.44726 -1.2285,-0.34398 -2.32309,-0.53321 -3.25,-0.53321 z"
         style="font-weight:bold;font-size:133.333px;line-height:1.25;font-family:Mosk;-inkscape-font-specification:'Mosk, Bold';direction:rtl;white-space:pre;fill:#000000;stroke-width:0.264583"
         id="path8266"
         inkscape:original-d="m 290.88561,107.59166 q 1.19944,0 2.96334,0.49389 1.76387,0.49389 2.9633,1.30528 l -1.30526,3.28082 q -1.34054,-0.59972 -2.39888,-0.88194 -1.05833,-0.28222 -2.18723,-0.28222 -1.905,0 -3.175,1.44638 -1.2347,1.44639 -1.2347,3.66888 0,2.2225 1.2347,3.6336 1.23473,1.41111 3.175,1.41111 1.1289,0 2.18723,-0.28222 1.05834,-0.28222 2.39888,-0.88194 l 1.30526,3.3161 q -1.0936,0.84666 -2.85747,1.30527 -1.7639,0.45861 -3.06917,0.45861 -2.75166,0 -4.83303,-1.0936 -2.04611,-1.09361 -3.175,-3.10444 -1.09361,-2.04611 -1.09361,-4.76249 0,-2.71638 1.09361,-4.76249 1.12889,-2.0461 3.175,-3.13971 2.08137,-1.12889 4.83303,-1.12889 z" />
      <path
         d="m 124.63867,133.35156 c -1.03228,0 -1.97237,0.22247 -2.80859,0.70899 -0.83658,0.48674 -1.45678,1.15042 -1.9043,2.01562 -0.44087,0.85236 -0.64844,1.80447 -0.64844,2.83203 0,1.03268 0.19689,1.98362 0.62305,2.83594 0.43349,0.86698 1.0428,1.53502 1.87695,2.0293 0.83369,0.48506 1.76828,0.70898 2.79102,0.70898 1.03229,0 1.9717,-0.22268 2.80078,-0.70508 0.84805,-0.48461 1.48084,-1.14798 1.93164,-2.01953 0.44087,-0.85234 0.64845,-1.80448 0.64844,-2.83203 1e-5,-1.03457 -0.20697,-1.98899 -0.64649,-2.8418 -0.43652,-0.8696 -1.05618,-1.53748 -1.88476,-2.01953 -0.82622,-0.4896 -1.75655,-0.71289 -2.7793,-0.71289 z m 4.66406,2.73242 c 0.001,0.003 0.005,0.003 0.006,0.006 l -0.008,-0.0137 c 0.001,0.002 7.4e-4,0.005 0.002,0.008 z m -4.66406,0.83204 c 0.46653,0 0.80275,0.17611 1.01758,0.45312 l 0.002,0.004 0.004,0.004 c 0.26133,0.33011 0.4377,0.82964 0.43945,1.5586 -0.0103,0.65422 -0.19712,1.15592 -0.48437,1.50781 l -0.004,0.006 -0.004,0.006 c -0.23199,0.29147 -0.57356,0.46289 -1.02344,0.46289 -0.4712,0 -0.80559,-0.17557 -1.01758,-0.44141 -0.26658,-0.34581 -0.44164,-0.85172 -0.44336,-1.57812 0.0102,-0.65693 0.19343,-1.16027 0.46875,-1.50977 0.24472,-0.29781 0.59676,-0.47265 1.04492,-0.47265 z"
         style="font-size:10.5833px;-inkscape-font-specification:'Mosk, Medium';direction:rtl;fill:#000000;stroke-width:0.264583"
         id="path8268"
         inkscape:original-d="m 124.56872,143.42363 q -1.28764,0 -2.25778,-0.56445 -0.9525,-0.56444 -1.46403,-1.5875 -0.51153,-1.02306 -0.51153,-2.36361 0,-1.32292 0.52917,-2.34598 0.52917,-1.02305 1.49931,-1.5875 0.97014,-0.56444 2.27541,-0.56444 1.28764,0 2.24014,0.56444 0.97014,0.56445 1.48167,1.5875 0.52917,1.02306 0.52917,2.36362 0,1.32291 -0.52917,2.34597 -0.52917,1.02306 -1.51694,1.5875 -0.97014,0.56445 -2.27542,0.56445 z m 2.59292,-4.48028 q 0,-1.37584 -0.67028,-2.22251 -0.67028,-0.8643 -1.85209,-0.8643 -1.16416,0 -1.86972,0.8643 -0.68792,0.86431 -0.70556,2.16959 0,1.37583 0.67028,2.24014 0.67028,0.84667 1.85209,0.84667 1.16416,0 1.85208,-0.86431 0.70556,-0.86431 0.7232,-2.16958 z" />
      <path
         d="m 135.22266,133.29883 c -0.73617,0 -1.45359,0.17827 -2.15039,0.5039 -0.16906,0.0761 -0.29807,0.20943 -0.45899,0.29688 l -0.13867,-0.51953 h -3.05469 v 10.67187 h 3.81055 v -6.54687 c 0.27774,-0.21252 0.55732,-0.43503 0.82617,-0.57617 l 0.01,-0.006 0.008,-0.004 c 0.36209,-0.19915 0.62087,-0.25781 0.79492,-0.25781 0.19941,0 0.18945,-0.0156 0.18945,-0.0156 l 0.0117,0.0195 0.0117,0.0195 c 0.0567,0.085 0.14063,0.30666 0.14063,0.82421 v 6.54297 h 3.81054 v -6.70117 c 0,-1.14404 -0.27076,-2.17105 -0.91406,-2.98242 -0.71945,-0.92458 -1.69701,-1.26953 -2.89648,-1.26953 z m -2.15039,0.5039 c 0.002,-9.8e-4 0.004,-0.003 0.006,-0.004 l -0.0156,0.006 c 0.003,-0.001 0.007,-4.9e-4 0.01,-0.002 z"
         style="font-size:10.5833px;-inkscape-font-specification:'Mosk, Medium';direction:rtl;fill:#000000;stroke-width:0.264583"
         id="path8270"
         inkscape:original-d="m 134.86984,135.80362 q -0.59973,0 -1.30528,0.38806 -0.70556,0.37041 -1.39348,0.97014 v 6.0325 h -1.69333 v -8.55487 h 1.18181 l 0.29986,1.12889 q 0.68791,-0.61736 1.55222,-1.00541 0.86431,-0.4057 1.71097,-0.4057 1.39348,0 2.06376,0.86431 0.68791,0.8643 0.68791,2.32833 v 5.64445 h -1.69333 v -5.4857 q 0,-0.93486 -0.3175,-1.41111 -0.29986,-0.49389 -1.09361,-0.49389 z" />
      <path
         d="m 144.76562,133.29883 c -0.73616,0 -1.45358,0.17827 -2.15039,0.5039 -0.16905,0.0761 -0.29807,0.20943 -0.45898,0.29688 l -0.13867,-0.51953 h -3.05664 v 10.67187 h 3.81054 v -6.54687 c 0.27817,-0.21249 0.55841,-0.43457 0.82813,-0.57617 l 0.01,-0.006 0.008,-0.004 c 0.3621,-0.19916 0.62089,-0.25781 0.79492,-0.25781 0.19941,0 0.18945,-0.0156 0.18945,-0.0156 l 0.0117,0.0195 0.0117,0.0195 c 0.0567,0.085 0.14062,0.30666 0.14062,0.82421 v 6.54297 h 3.81055 v -6.70117 c 0,-1.14549 -0.27362,-2.17222 -0.91601,-2.98242 -0.71831,-0.92312 -1.69506,-1.26953 -2.89454,-1.26953 z m -2.15039,0.5039 c 0.002,-9.8e-4 0.004,-0.003 0.006,-0.004 l -0.0156,0.006 c 0.003,-0.001 0.007,-4.9e-4 0.01,-0.002 z"
         style="font-size:10.5833px;-inkscape-font-specification:'Mosk, Medium';direction:rtl;fill:#000000;stroke-width:0.264583"
         id="path8272"
         inkscape:original-d="m 144.41249,135.80362 q -0.59972,0 -1.30528,0.38806 -0.70556,0.37041 -1.39347,0.97014 v 6.0325 h -1.69334 v -8.55487 h 1.18181 l 0.29986,1.12889 q 0.68792,-0.61736 1.55222,-1.00541 0.86431,-0.4057 1.71098,-0.4057 1.39347,0 2.06375,0.86431 0.68792,0.8643 0.68792,2.32833 v 5.64445 h -1.69334 v -5.4857 q 0,-0.93486 -0.3175,-1.41111 -0.29986,-0.49389 -1.09361,-0.49389 z" />
      <path
         d="m 153.12695,133.35156 c -1.00384,0 -1.92097,0.22679 -2.74218,0.72266 -0.79285,0.48791 -1.39769,1.17214 -1.81055,2.02734 -0.40919,0.84761 -0.59961,1.78868 -0.59961,2.80664 0,1.60638 0.4679,2.9722 1.50391,4.02344 1.06048,1.07608 2.48641,1.5332 4.19531,1.5332 1.26106,0 2.47424,-0.37952 3.65039,-1.08789 l 0.78906,-0.47461 -1.0918,-2.54687 h 0.90235 v -1.51758 c 0,-1.47361 -0.36389,-2.76542 -1.16797,-3.8125 -0.87293,-1.16631 -2.09838,-1.67383 -3.62891,-1.67383 z m -0.0547,3.56446 c 0.17475,0 0.30557,0.1012 0.44726,0.17578 h -0.92969 c 0.13919,-0.0734 0.23893,-0.17578 0.48243,-0.17578 z m -0.78321,3.43945 h 3.33008 c -0.46033,0.21194 -0.85484,0.38532 -1.10547,0.47265 -9.1e-4,3e-4 -0.003,-2.9e-4 -0.004,0 -0.19947,0.0637 -0.47088,0.10743 -0.83594,0.10743 -0.71647,0 -1.10106,-0.18215 -1.31641,-0.40039 -0.0344,-0.0365 -0.0364,-0.13768 -0.0684,-0.17969 z"
         style="font-size:10.5833px;-inkscape-font-specification:'Mosk, Medium';direction:rtl;fill:#000000;stroke-width:0.264583"
         id="path8274"
         inkscape:original-d="m 153.12611,134.41015 q 1.85209,0 2.78695,1.25236 0.9525,1.23472 0.9525,3.175 v 0.45861 h -6.06778 q 0.10583,1.25237 0.79375,1.97556 0.70555,0.7232 2.08139,0.7232 0.67028,0 1.16417,-0.15875 0.51152,-0.17639 1.41111,-0.59973 l 0.52916,1.23473 q -1.55222,0.93486 -3.10444,0.93486 -2.24014,0 -3.43959,-1.21709 -1.19944,-1.21708 -1.19944,-3.28083 0,-1.32292 0.49389,-2.34598 0.49389,-1.02305 1.41111,-1.5875 0.93486,-0.56444 2.18722,-0.56444 z m -0.0529,1.44639 q -0.97014,0 -1.55223,0.61736 -0.56444,0.59972 -0.68791,1.6757 h 4.39208 q -0.33514,-2.29306 -2.15194,-2.29306 z" />
      <path
         d="m 162.24609,133.35156 c -1.03227,0 -1.97529,0.22274 -2.82617,0.70899 -0.82518,0.48011 -1.46321,1.1591 -1.90625,2.01562 -0.44087,0.85236 -0.64844,1.80447 -0.64844,2.83203 0,1.03268 0.19689,1.98362 0.62305,2.83594 l 0.004,0.008 0.004,0.006 c 0.44072,0.85205 1.06864,1.52972 1.88868,2.01563 0.83368,0.48506 1.76827,0.70898 2.79101,0.70898 0.51964,0 1.11106,-0.0996 1.74219,-0.26367 0.66749,-0.17014 1.27794,-0.40796 1.75586,-0.72656 l 0.72656,-0.48438 -1.2832,-3.05273 -1.00586,0.48828 c -0.36692,0.17822 -0.68126,0.2956 -0.95703,0.36914 -0.24342,0.0649 -0.56025,0.10547 -0.97852,0.10547 -0.47119,0 -0.80867,-0.17701 -1.01953,-0.44141 -0.26658,-0.34581 -0.44164,-0.85172 -0.44336,-1.57812 0.0103,-0.65693 0.19343,-1.16027 0.46875,-1.50977 0.24362,-0.29646 0.59868,-0.47265 1.04688,-0.47265 0.37794,0 0.65904,0.0377 0.88281,0.10156 0.28589,0.0789 0.65055,0.21015 1.10937,0.40039 l 0.98047,0.40625 1.22852,-2.98633 -0.72071,-0.48047 c -0.47338,-0.3156 -1.07751,-0.55216 -1.73242,-0.72265 0.006,0.002 0.0112,1.6e-4 0.0176,0.002 l -0.0195,-0.004 c -0.63114,-0.1754 -1.21668,-0.28125 -1.72852,-0.28125 z"
         style="font-size:10.5833px;-inkscape-font-specification:'Mosk, Medium';direction:rtl;fill:#000000;stroke-width:0.264583"
         id="path8276"
         inkscape:original-d="m 162.17487,141.97724 q 0.72319,0 1.25236,-0.14111 0.52916,-0.14112 1.14653,-0.44098 l 0.51152,1.21709 q -0.52916,0.35277 -1.42875,0.58208 -0.88194,0.22931 -1.48166,0.22931 -1.28764,0 -2.25778,-0.56445 -0.9525,-0.56444 -1.48167,-1.5875 -0.51153,-1.02306 -0.51153,-2.36361 0,-1.32292 0.52917,-2.34598 0.52916,-1.02305 1.4993,-1.5875 0.98778,-0.56444 2.29306,-0.56444 0.58208,0 1.46403,0.24694 0.88195,0.22931 1.41111,0.58209 l -0.49389,1.19944 q -0.72319,-0.29986 -1.23472,-0.44097 -0.49389,-0.14111 -1.16417,-0.14111 -1.16417,0 -1.86972,0.8643 -0.68792,0.86431 -0.70556,2.16959 0,1.37583 0.67028,2.24014 0.67028,0.84667 1.85209,0.84667 z" />
      <path
         d="m 169.8125,130.89453 -3.81055,0.87305 v 1.91992 h -1.23047 l 0.0449,3.4043 h 1.18554 v 3.7207 c 0,1.08083 0.30081,2.0279 1.04297,2.75195 l 0.008,0.01 0.01,0.008 c 0.74327,0.69018 1.67118,0.9707 2.73242,0.9707 0.35059,0 0.70233,-0.064 1.04883,-0.16796 0.32024,-0.0824 0.63499,-0.18867 0.89648,-0.32813 l 0.79493,-0.42383 -1.08789,-3.17383 -1.02149,0.38672 c -0.28878,0.10953 -0.40345,0.125 -0.45508,0.125 -0.0718,0 -0.0679,0.0167 -0.0684,0.0215 -0.0299,-0.0442 -0.0898,-0.15623 -0.0898,-0.44336 v -3.45703 h 2.60352 l -1.4004,-3.4043 h -1.20312 z m 1.03125,13.49024 c -0.0127,0.003 -0.0225,0.0105 -0.0352,0.0137 l 0.0527,-0.0156 c -0.006,0.002 -0.0118,2.3e-4 -0.0176,0.002 z"
         style="font-size:10.5833px;-inkscape-font-specification:'Mosk, Medium';direction:rtl;fill:#000000;stroke-width:0.264583"
         id="path8278"
         inkscape:original-d="m 168.75419,134.74529 h 1.55222 l 0.52917,1.28764 h -2.08139 v 4.51556 q 0,0.68791 0.29986,1.09361 0.29986,0.38805 0.91722,0.38805 0.3175,0 0.82903,-0.19402 l 0.44097,1.28764 q -0.26458,0.14111 -0.68791,0.24694 -0.4057,0.12347 -0.75848,0.12347 -1.27,0 -2.01083,-0.68792 -0.7232,-0.70555 -0.7232,-1.99319 v -4.78014 h -1.19944 l -0.0176,-1.28764 h 1.21708 v -2.13431 l 1.69334,-0.38806 z" />
      <path
         d="m 173.48047,129.92969 c -0.60783,0 -1.07722,0.20908 -1.49414,0.64453 -0.42023,0.42618 -0.60352,0.88804 -0.60352,1.47266 0,0.56106 0.19851,1.07206 0.58789,1.48437 l 0.01,0.0117 0.0117,0.01 c 0.019,0.019 0.0472,0.009 0.0664,0.0274 h -0.46484 v 10.67187 h 3.82813 v -10.67187 h -0.47071 c 0.004,-0.004 0.0113,-0.002 0.0156,-0.006 l 0.0117,-0.01 0.01,-0.0117 c 0.42884,-0.42883 0.62695,-0.89765 0.62695,-1.50585 0,-0.60204 -0.20438,-1.07448 -0.64257,-1.49415 -0.40522,-0.39922 -0.91609,-0.62304 -1.49219,-0.62304 z m 1.49219,0.62304 c 0.004,0.004 0.0115,0.002 0.0156,0.006 l -0.0215,-0.0215 c 0.005,0.004 0.001,0.0113 0.006,0.0156 z m -2.98633,0.0215 c 0.004,-0.004 0.001,-0.0112 0.006,-0.0156 l -0.0215,0.0215 c 0.004,-0.005 0.0114,-0.001 0.0156,-0.006 z"
         style="font-size:10.5833px;-inkscape-font-specification:'Mosk, Medium';direction:rtl;fill:#000000;stroke-width:0.264583"
         id="path8280"
         inkscape:original-d="m 174.55738,132.04654 q 0,0.44097 -0.3175,0.75847 -0.3175,0.29986 -0.75848,0.29986 -0.44097,0 -0.74083,-0.29986 -0.29986,-0.3175 -0.29986,-0.75847 0,-0.44098 0.29986,-0.74084 0.29986,-0.3175 0.74083,-0.3175 0.44098,0 0.75848,0.3175 0.3175,0.29986 0.3175,0.74084 z m -0.19403,2.59291 v 8.55487 h -1.71097 v -8.55487 z" />
      <path
         d="m 181.22461,133.29883 c -0.73617,0 -1.45359,0.17827 -2.15039,0.5039 -0.16906,0.0761 -0.29807,0.20943 -0.45899,0.29688 l -0.13867,-0.51953 h -3.05468 v 10.67187 h 3.81054 v -6.54687 c 0.27775,-0.21252 0.55732,-0.43503 0.82617,-0.57617 l 0.01,-0.006 0.008,-0.004 c 0.36276,-0.19952 0.61925,-0.25781 0.79688,-0.25781 0.19939,0 0.1875,-0.0156 0.1875,-0.0156 l 0.0117,0.0195 0.0117,0.0195 c 0.0567,0.085 0.14063,0.30666 0.14063,0.82421 v 6.54297 h 3.81055 v -6.70117 c 0,-1.14404 -0.27075,-2.17104 -0.91407,-2.98242 -0.71945,-0.92458 -1.69701,-1.26953 -2.89648,-1.26953 z m -2.15039,0.5039 c 0.002,-9.8e-4 0.004,-0.003 0.006,-0.004 l -0.0156,0.006 c 0.003,-0.001 0.007,-4.9e-4 0.01,-0.002 z"
         style="font-size:10.5833px;-inkscape-font-specification:'Mosk, Medium';direction:rtl;fill:#000000;stroke-width:0.264583"
         id="path8282"
         inkscape:original-d="m 180.87209,135.80362 q -0.59972,0 -1.30528,0.38806 -0.70555,0.37041 -1.39347,0.97014 v 6.0325 H 176.48 v -8.55487 h 1.18181 l 0.29986,1.12889 q 0.68792,-0.61736 1.55223,-1.00541 0.8643,-0.4057 1.71097,-0.4057 1.39347,0 2.06375,0.86431 0.68792,0.8643 0.68792,2.32833 v 5.64445 h -1.69334 v -5.4857 q 0,-0.93486 -0.3175,-1.41111 -0.29986,-0.49389 -1.09361,-0.49389 z" />
      <path
         d="m 189.76172,133.35156 c -1.01109,0 -1.93586,0.22562 -2.76563,0.70703 -0.8352,0.47256 -1.46115,1.12347 -1.91015,1.97657 -0.44457,0.84468 -0.65039,1.79273 -0.65039,2.82031 0,1.05265 0.19501,2.0179 0.62304,2.88867 0.4335,0.86698 1.04475,1.53501 1.87891,2.0293 0.83621,0.48651 1.77435,0.70898 2.80664,0.70898 0.19848,0 0.41687,-0.0682 0.62891,-0.10742 -0.0272,0.032 -0.0266,0.11456 -0.0566,0.13672 l -0.008,0.004 -0.008,0.006 c -0.21269,0.16232 -0.56755,0.29493 -1.12109,0.29493 -0.38813,0 -0.6312,-0.0409 -0.80078,-0.0996 l -0.0117,-0.004 -0.0117,-0.004 c -0.25707,-0.0823 -0.63871,-0.23502 -1.21875,-0.49023 l -0.98438,-0.43359 -1.26562,3.00781 0.71875,0.48828 c 0.49345,0.33427 1.12766,0.57775 1.82031,0.74805 0.66471,0.17474 1.27398,0.28125 1.80664,0.28125 0.97391,0 1.86755,-0.16107 2.64844,-0.52149 0.7708,-0.35574 1.39541,-0.87477 1.83594,-1.57031 0.45445,-0.68755 0.66601,-1.43264 0.66601,-2.26563 v -10.37304 h -2.64843 l -0.14063,0.25195 c -0.14016,-0.0613 -0.25743,-0.16588 -0.4043,-0.21484 -0.48773,-0.16257 -0.98099,-0.26563 -1.42773,-0.26563 z m 3.95508,12.86719 c -0.003,0.005 -7.9e-4,0.011 -0.004,0.0156 l 0.0156,-0.0254 c -0.003,0.004 -0.009,0.005 -0.0117,0.01 z m -6.72071,-12.16016 c 0.003,-0.001 0.003,-0.004 0.006,-0.006 l -0.0117,0.008 c 0.002,-0.001 0.004,-9.2e-4 0.006,-0.002 z m 2.74805,2.85743 c 0.27887,0 0.48824,0.0387 0.64648,0.0957 l 0.008,0.002 0.006,0.002 c 0.0477,0.0165 0.10095,0.0677 0.15039,0.0918 v 3.5918 c -0.0583,0.0331 -0.12563,0.0975 -0.17969,0.11914 -0.14463,0.0578 -0.34778,0.0996 -0.63086,0.0996 -0.48038,0 -0.81461,-0.17963 -1.02734,-0.45117 -0.26077,-0.34804 -0.43555,-0.85987 -0.43555,-1.62891 0,-0.67803 0.16852,-1.1409 0.43359,-1.46875 l 0.004,-0.004 0.004,-0.006 c 0.21182,-0.26758 0.54845,-0.44336 1.02148,-0.44336 z"
         style="font-size:10.5833px;-inkscape-font-specification:'Mosk, Medium';direction:rtl;fill:#000000;stroke-width:0.264583"
         id="path8284"
         inkscape:original-d="m 193.32516,143.95279 q 0,0.9525 -0.49389,1.69334 -0.47625,0.75847 -1.39347,1.1818 -0.91723,0.42334 -2.20487,0.42334 -0.61736,0 -1.55222,-0.24695 -0.93486,-0.2293 -1.48167,-0.59972 l 0.51153,-1.21708 q 0.88195,0.38805 1.32292,0.52916 0.45861,0.15875 1.14653,0.15875 1.09361,0 1.76389,-0.51152 0.67027,-0.49389 0.67027,-1.42876 v -1.11125 q -0.47625,0.28223 -0.98777,0.44098 -0.51153,0.15875 -0.88195,0.15875 -1.30528,0 -2.27542,-0.56445 -0.9525,-0.56444 -1.46403,-1.5875 -0.51152,-1.04069 -0.51152,-2.41653 0,-1.32292 0.52916,-2.32833 0.52917,-1.00542 1.49931,-1.55223 0.97014,-0.56444 2.24014,-0.56444 0.45861,0 1.09361,0.21166 0.635,0.21167 1.16417,0.61737 l 0.33514,-0.59973 h 0.97014 z m -1.71098,-2.69875 v -4.72722 q -0.40569,-0.35278 -0.8643,-0.51153 -0.44097,-0.15875 -1.00542,-0.15875 -1.18181,0 -1.85208,0.84667 -0.67028,0.82902 -0.67028,2.1343 0,1.41111 0.65264,2.27542 0.67028,0.86431 1.86972,0.86431 0.58208,0 1.02306,-0.17639 0.44097,-0.17639 0.84666,-0.54681 z" />
      <path
         d="m 202.50586,130.14062 -5.3125,14.11133 h 3.92187 l 1.19922,-3.20898 h 3.41797 l 1.29492,3.46484 3.83399,-0.5664 -5.36328,-13.80079 z m 1.48633,6.32422 0.42383,1.10157 h -0.83399 z"
         style="font-size:10.5833px;-inkscape-font-specification:'Mosk, Medium';direction:rtl;fill:#000000;stroke-width:0.264583"
         id="path8286"
         inkscape:original-d="m 198.72267,143.19432 4.51556,-11.99445 h 1.53458 l 4.6214,11.88862 -1.6757,0.24694 -1.25236,-3.35139 h -4.88598 l -1.19944,3.21028 z m 3.33375,-4.56847 h 3.8982 l -1.97556,-5.15056 z" />
      <path
         d="m 209.57031,133.58008 v 10.67187 h 3.81055 v -6.18554 c 0.29671,-0.24232 0.59132,-0.48454 0.94726,-0.66993 l 0.008,-0.004 0.008,-0.006 c 0.4689,-0.25399 0.79171,-0.33008 1.01172,-0.33008 h 1.38476 l -0.94531,-3.47656 h -0.80859 c -0.63271,0 -1.30791,0.22706 -1.95313,0.57031 -0.15002,0.0815 -0.25856,0.18554 -0.40039,0.27149 l -0.32812,-0.8418 z"
         style="font-size:10.5833px;-inkscape-font-specification:'Mosk, Medium';direction:rtl;fill:#000000;stroke-width:0.264583"
         id="path8288"
         inkscape:original-d="m 215.35616,135.99765 q -0.67028,0 -1.51695,0.45861 -0.84667,0.44097 -1.51695,1.07597 v 5.66209 h -1.69333 v -8.55487 h 0.9525 l 0.54681,1.39348 q 0.59972,-0.51153 1.41111,-0.9525 0.82903,-0.44098 1.44639,-0.44098 z" />
      <path
         d="m 219.7832,133.35156 c -0.49833,0 -1.12152,0.0983 -1.78125,0.25977 -0.66474,0.1542 -1.2917,0.38178 -1.73047,0.68555 l -0.66601,0.46289 1.10547,3.11328 c -0.0522,0.0384 -0.11934,0.0485 -0.16992,0.0898 -0.8682,0.7054 -1.23829,1.62764 -1.23829,2.76172 0,1.05807 0.33638,1.99422 1.07618,2.7168 l 0.006,0.004 0.004,0.004 c 0.76756,0.73187 1.79237,1.01562 2.95313,1.01562 0.60122,0 1.19334,-0.1392 1.76562,-0.38867 0.028,-0.0122 0.0465,-0.0343 0.0742,-0.0469 l 0.0586,0.22265 h 3.0586 v -6.86133 c 0,-0.76144 -0.21282,-1.44014 -0.63281,-2.07421 -0.40459,-0.62826 -0.96122,-1.10697 -1.64454,-1.44336 -0.69176,-0.35207 -1.43693,-0.52149 -2.23828,-0.52149 z m 2.23828,0.52149 c 0.002,0.001 0.005,7.1e-4 0.008,0.002 l -0.0176,-0.01 c 0.004,0.002 0.006,0.006 0.01,0.008 z m 1.64454,1.44336 c 0.002,0.002 0.004,0.003 0.006,0.006 l -0.01,-0.0176 c 0.002,0.004 0.002,0.008 0.004,0.0117 z m -5.66407,-1.70508 c 0.003,-7.2e-4 0.005,-0.003 0.008,-0.004 l -0.0137,0.004 c 0.002,-5.2e-4 0.004,5.2e-4 0.006,0 z m 1.81641,3.375 c 0.12427,0 0.10153,0.0173 0.16992,0.0332 h -0.30859 c 0.0415,-0.001 0.0979,-0.0332 0.13867,-0.0332 z m -0.35156,3.27929 h 1.02148 v 0.18165 c -0.15418,0.13532 -0.30227,0.28262 -0.47656,0.3789 -0.24215,0.12296 -0.48033,0.18164 -0.70508,0.18164 -0.2017,0 -0.27773,-0.0548 -0.2832,-0.0586 -0.0565,-0.0668 -0.0859,-0.13254 -0.0859,-0.22461 0,-0.15783 0.0441,-0.25544 0.12891,-0.34375 0.0424,-0.0442 0.14342,-0.11524 0.40039,-0.11524 z"
         style="font-size:10.5833px;-inkscape-font-specification:'Mosk, Medium';direction:rtl;fill:#000000;stroke-width:0.264583"
         id="path8290"
         inkscape:original-d="m 219.81879,135.92709 q -1.16417,0 -2.46945,0.58209 l -0.47625,-1.34056 q 0.45861,-0.3175 1.37583,-0.52917 0.93487,-0.2293 1.53459,-0.2293 0.97014,0 1.76389,0.40569 0.79375,0.38806 1.23472,1.07598 0.45861,0.68791 0.45861,1.4993 v 5.8032 h -1.1818 l -0.21167,-0.81139 q -0.47625,0.42333 -1.16417,0.7232 -0.68791,0.29986 -1.34055,0.29986 -1.46403,0 -2.22251,-0.7232 -0.75847,-0.74083 -0.75847,-1.95792 0,-1.25236 0.84667,-1.94027 0.86431,-0.70556 2.29306,-0.70556 h 2.02847 q 0,-1.0407 -0.38806,-1.5875 -0.37041,-0.56445 -1.32291,-0.56445 z m -0.35278,3.28084 q -0.74084,0 -1.16417,0.44097 -0.42333,0.44097 -0.42333,1.07597 0,0.54681 0.37041,0.95251 0.37042,0.38805 1.05834,0.38805 0.61736,0 1.19944,-0.29986 0.58209,-0.3175 1.0407,-0.82903 v -1.72861 z" />
      <path
         d="m 228.21484,129.55664 -3.81054,0.43359 v 14.26172 h 2.58398 l 0.14063,-0.21679 c 0.14284,0.0592 0.26915,0.15968 0.41797,0.20507 0.46028,0.14792 0.93073,0.24219 1.35546,0.24219 1.00812,0 1.93018,-0.216 2.75977,-0.68359 l 0.006,-0.004 0.006,-0.004 c 0.82083,-0.47757 1.46176,-1.14767 1.90625,-1.99219 0.44455,-0.84467 0.65039,-1.79272 0.65039,-2.82031 -1e-5,-1.05262 -0.19591,-2.01492 -0.62109,-2.86524 -0.43512,-0.88524 -1.05692,-1.56266 -1.89258,-2.04883 -0.82881,-0.49113 -1.76459,-0.71289 -2.79688,-0.71289 -0.22868,0 -0.46825,0.0668 -0.70508,0.11524 z m -0.66796,14.68359 c -0.004,-0.001 -0.008,-6.6e-4 -0.0117,-0.002 l 0.0195,0.006 c -0.003,-8.5e-4 -0.005,-0.003 -0.008,-0.004 z m 1.37304,-7.32421 c 0.483,0 0.81082,0.17989 1.00977,0.44336 l 0.004,0.004 0.004,0.006 c 0.26508,0.34182 0.44727,0.86397 0.44727,1.62695 0,0.67453 -0.16995,1.14518 -0.43946,1.48829 -0.20693,0.25323 -0.54848,0.43359 -1.02539,0.43359 -0.29008,0 -0.48484,-0.13017 -0.70508,-0.22656 v -3.53711 c 0.21473,-0.10434 0.40461,-0.23828 0.70508,-0.23828 z"
         style="font-size:10.5833px;-inkscape-font-specification:'Mosk, Medium';direction:rtl;fill:#000000;stroke-width:0.264583"
         id="path8292"
         inkscape:original-d="m 233.17143,138.97862 q 0,1.32292 -0.52916,2.32834 -0.52917,1.00542 -1.49931,1.56986 -0.97014,0.54681 -2.24014,0.54681 -0.44097,0 -1.0407,-0.19403 -0.58208,-0.17639 -1.11125,-0.54681 l -0.33514,0.51153 h -0.9525 v -12.25904 l 1.69334,-0.19402 v 4.19806 q 0.47625,-0.24695 0.93486,-0.38806 0.47625,-0.14111 0.82903,-0.14111 1.30528,0 2.25778,0.56444 0.97014,0.56445 1.48166,1.60514 0.51153,1.02306 0.51153,2.39889 z m -1.72861,0.0176 q 0,-1.41111 -0.67028,-2.27542 -0.65264,-0.8643 -1.85208,-0.8643 -1.0407,0 -1.76389,0.61736 v 4.92125 q 0.74083,0.58209 1.76389,0.58209 1.1818,0 1.85208,-0.82903 0.67028,-0.84667 0.67028,-2.15195 z" />
      <path
         d="m 237.50977,133.35156 c -1.16192,0 -2.19696,0.25959 -3.01954,0.88477 -0.87839,0.66326 -1.2832,1.55781 -1.2832,2.66015 2e-5,1.77675 1.46366,2.90457 3.53516,3.58204 l 0.004,0.002 0.006,0.002 c 0.47896,0.15079 0.70152,0.27968 0.90235,0.4082 -0.13459,0.0435 -0.22999,0.0977 -0.53125,0.0977 -0.53845,-1e-5 -1.14592,-0.14258 -1.83008,-0.47461 l -0.98242,-0.47851 -1.33008,2.9707 0.70508,0.50391 c 0.47052,0.33608 1.05175,0.56763 1.70312,0.73046 0.62658,0.15345 1.21805,0.24219 1.73438,0.24219 1.2536,0 2.36297,-0.25001 3.20703,-0.8789 0.90787,-0.67647 1.32617,-1.60008 1.32617,-2.73829 0,-1.81643 -1.46821,-2.999 -3.59375,-3.76367 l -0.0117,-0.004 -0.0117,-0.004 c -0.28002,-0.0933 -0.38698,-0.1683 -0.5664,-0.25 0.001,0 9.5e-4,0 0.002,0 0.31773,0 0.58689,0.0427 0.81445,0.11328 l 0.0176,0.004 0.0156,0.004 c 0.27669,0.0763 0.5996,0.19558 0.9707,0.36524 l 0.95898,0.4375 1.34375,-2.91211 -0.73242,-0.50586 c -0.46406,-0.32003 -1.03165,-0.5563 -1.6543,-0.72852 -0.59946,-0.1694 -1.18259,-0.26953 -1.69921,-0.26953 z"
         style="font-size:10.5833px;-inkscape-font-specification:'Mosk, Medium';direction:rtl;fill:#000000;stroke-width:0.264583"
         id="path8294"
         inkscape:original-d="m 237.12256,143.42363 q -0.61737,0 -1.48167,-0.21167 -0.84667,-0.21167 -1.34056,-0.56445 l 0.52917,-1.1818 q 1.19944,0.58208 2.29306,0.58208 0.84666,0 1.34055,-0.29986 0.51153,-0.29986 0.51153,-0.79375 0,-0.88194 -1.905,-1.48167 -2.80459,-0.91722 -2.80459,-2.57528 0,-1.16416 0.86431,-1.8168 0.88194,-0.67028 2.38125,-0.67028 0.59972,0 1.41111,0.2293 0.82903,0.22931 1.34056,0.58209 l -0.52917,1.14653 q -0.61736,-0.28223 -1.12889,-0.42334 -0.51152,-0.15875 -1.12889,-0.15875 -0.67027,0 -1.11125,0.3175 -0.42333,0.29986 -0.42333,0.75848 0.0176,0.35277 0.45861,0.65263 0.45861,0.29987 1.30528,0.58209 2.89278,1.04069 2.89278,2.76931 0,1.21708 -0.89958,1.88736 -0.89959,0.67028 -2.57528,0.67028 z" />
      <path
         d="m 247.69336,132.94922 -3.64648,1.3457 3.1289,9.95703 h 3.12305 l 1.01758,-3.47461 1.07812,3.47461 h 3.11133 l 3.32226,-10.67187 h -3.99023 l -0.89648,3.23047 -0.94532,-3.23047 h -3.3789 l -0.87305,3.14258 z"
         style="font-size:10.5833px;-inkscape-font-specification:'Mosk, Medium';direction:rtl;fill:#000000;stroke-width:0.264583"
         id="path8296"
         inkscape:original-d="m 257.38965,134.63945 -2.66348,8.55487 h -1.55222 l -1.88736,-6.08542 -1.78153,6.08542 h -1.55223 l -2.59291,-8.255 1.62277,-0.59973 1.76389,6.33237 1.6757,-6.03251 h 1.78153 l 1.76389,6.03251 1.67569,-6.03251 z" />
      <path
         d="m 259.45312,129.92969 c -0.60782,0 -1.07722,0.20908 -1.49414,0.64453 -0.4174,0.42318 -0.60546,0.88225 -0.60546,1.47266 0,0.56632 0.20309,1.07487 0.58984,1.48437 l 0.01,0.0117 0.0117,0.01 c 0.019,0.019 0.0472,0.009 0.0664,0.0274 h -0.46484 v 10.67187 h 3.82812 v -10.67187 h -0.47265 c 0.004,-0.004 0.0113,-0.002 0.0156,-0.006 l 0.0117,-0.01 0.01,-0.0117 c 0.42593,-0.42594 0.62891,-0.89177 0.62891,-1.50585 0,-0.60786 -0.20913,-1.07726 -0.64453,-1.49415 -0.42245,-0.4171 -0.88246,-0.62304 -1.49024,-0.62304 z m 1.49024,0.62304 c 0.004,0.004 0.0113,0.002 0.0156,0.006 l -0.0215,-0.0215 c 0.005,0.004 0.001,0.0113 0.006,0.0156 z m -2.98438,0.0215 c 0.004,-0.004 0.001,-0.0112 0.006,-0.0156 l -0.0215,0.0215 c 0.004,-0.005 0.0113,-0.001 0.0156,-0.006 z"
         style="font-size:10.5833px;-inkscape-font-specification:'Mosk, Medium';direction:rtl;fill:#000000;stroke-width:0.264583"
         id="path8298"
         inkscape:original-d="m 260.52935,132.04654 q 0,0.44097 -0.3175,0.75847 -0.3175,0.29986 -0.75847,0.29986 -0.44097,0 -0.74083,-0.29986 -0.29986,-0.3175 -0.29986,-0.75847 0,-0.44098 0.29986,-0.74084 0.29986,-0.3175 0.74083,-0.3175 0.44097,0 0.75847,0.3175 0.3175,0.29986 0.3175,0.74084 z m -0.19402,2.59291 v 8.55487 h -1.71098 v -8.55487 z" />
      <path
         d="m 265.62695,130.89453 -3.81054,0.87305 v 1.91992 h -1.23047 l 0.0449,3.4043 h 1.18555 v 3.7207 c 0,1.08084 0.30081,2.0279 1.04297,2.75195 l 0.008,0.01 0.01,0.008 c 0.74327,0.69018 1.67117,0.9707 2.73243,0.9707 0.35058,0 0.70232,-0.064 1.04882,-0.16796 0.32025,-0.0824 0.635,-0.18868 0.89649,-0.32813 l 0.79492,-0.42383 -1.08789,-3.17383 -1.02149,0.38672 c -0.28875,0.10952 -0.40347,0.125 -0.45507,0.125 -0.0719,0 -0.0679,0.0167 -0.0684,0.0215 -0.0299,-0.0442 -0.0898,-0.15623 -0.0898,-0.44336 v -3.45703 h 2.60352 l -1.40039,-3.4043 h -1.20313 z m 1.03125,13.49024 c -0.0127,0.003 -0.0225,0.0105 -0.0352,0.0137 l 0.0527,-0.0156 c -0.006,0.002 -0.0118,2.3e-4 -0.0176,0.002 z"
         style="font-size:10.5833px;-inkscape-font-specification:'Mosk, Medium';direction:rtl;fill:#000000;stroke-width:0.264583"
         id="path8300"
         inkscape:original-d="m 264.56864,134.74529 h 1.55223 l 0.52916,1.28764 h -2.08139 v 4.51556 q 0,0.68791 0.29986,1.09361 0.29986,0.38805 0.91723,0.38805 0.3175,0 0.82902,-0.19402 l 0.44098,1.28764 q -0.26459,0.14111 -0.68792,0.24694 -0.40569,0.12347 -0.75847,0.12347 -1.27,0 -2.01084,-0.68792 -0.72319,-0.70555 -0.72319,-1.99319 v -4.78014 h -1.19945 l -0.0176,-1.28764 h 1.21709 v -2.13431 l 1.69333,-0.38806 z" />
      <path
         d="m 271.39453,129.55664 -3.81055,0.43359 v 14.26172 h 3.81055 v -6.54687 c 0.27817,-0.21249 0.55841,-0.43457 0.82813,-0.57617 l 0.01,-0.006 0.008,-0.004 c 0.36209,-0.19915 0.62088,-0.25781 0.79493,-0.25781 0.19939,0 0.18945,-0.0156 0.18945,-0.0156 l 0.0117,0.0195 0.0117,0.0195 c 0.0567,0.085 0.14062,0.30667 0.14062,0.82421 v 6.54297 h 3.81055 v -6.70117 c 10e-6,-1.1455 -0.27363,-2.17222 -0.91602,-2.98242 -0.71831,-0.92312 -1.69506,-1.26953 -2.89453,-1.26953 -0.67085,0 -1.3327,0.14356 -1.99414,0.41601 z"
         style="font-size:10.5833px;-inkscape-font-specification:'Mosk, Medium';direction:rtl;fill:#000000;stroke-width:0.264583"
         id="path8302"
         inkscape:original-d="m 276.13976,137.54987 v 5.64445 h -1.69334 v -5.4857 q 0,-0.93486 -0.3175,-1.41111 -0.29986,-0.49389 -1.09361,-0.49389 -0.59972,0 -1.30528,0.38806 -0.70555,0.37041 -1.39347,0.97014 v 6.0325 h -1.69333 v -12.25904 l 1.69333,-0.19402 v 4.85069 q 0.67028,-0.56444 1.46403,-0.89958 0.81139,-0.33514 1.5875,-0.33514 1.39347,0 2.06375,0.86431 0.68792,0.8643 0.68792,2.32833 z" />
      <path
         d="m 281.71289,130.14062 v 14.11133 h 9.61914 l -0.54883,-3.43945 h -5.25976 v -10.67188 z"
         style="font-size:10.5833px;-inkscape-font-specification:'Mosk, Medium';direction:rtl;fill:#000000;stroke-width:0.264583"
         id="path8304"
         inkscape:original-d="m 284.46532,141.8714 h 5.41515 l 0.21166,1.32292 h -7.32014 v -11.99445 h 1.69333 z" />
      <path
         d="m 292.15625,129.92969 c -0.60783,0 -1.07722,0.20905 -1.49414,0.64453 -0.41739,0.42317 -0.60547,0.88222 -0.60547,1.47266 0,0.56635 0.20311,1.07488 0.58984,1.48437 l 0.01,0.0117 0.0117,0.01 c 0.019,0.0191 0.0472,0.009 0.0664,0.0274 h -0.4668 v 10.67187 h 3.82812 v -10.67187 h -0.4707 c 0.004,-0.004 0.0113,-0.002 0.0156,-0.006 l 0.0117,-0.01 0.01,-0.0117 c 0.42596,-0.42596 0.62891,-0.8918 0.62891,-1.50585 0,-0.60783 -0.2091,-1.07724 -0.64454,-1.49415 -0.42245,-0.41712 -0.88245,-0.62304 -1.49023,-0.62304 z m 1.49023,0.62304 c 0.004,0.004 0.0113,0.002 0.0156,0.006 l -0.0215,-0.0215 c 0.005,0.004 0.001,0.0113 0.006,0.0156 z m -2.98437,0.0215 c 0.004,-0.004 0.001,-0.0112 0.006,-0.0156 l -0.0215,0.0215 c 0.004,-0.005 0.0114,-0.001 0.0156,-0.006 z"
         style="font-size:10.5833px;-inkscape-font-specification:'Mosk, Medium';direction:rtl;fill:#000000;stroke-width:0.264583"
         id="path8306"
         inkscape:original-d="m 293.23185,132.04654 q 0,0.44097 -0.3175,0.75847 -0.3175,0.29986 -0.75847,0.29986 -0.44097,0 -0.74083,-0.29986 -0.29986,-0.3175 -0.29986,-0.75847 0,-0.44098 0.29986,-0.74084 0.29986,-0.3175 0.74083,-0.3175 0.44097,0 0.75847,0.3175 0.3175,0.29986 0.3175,0.74084 z m -0.19402,2.59291 v 8.55487 h -1.71098 v -8.55487 z" />
      <path
         d="m 299.89844,133.29883 c -0.73617,0 -1.45359,0.17827 -2.15039,0.5039 -0.17023,0.0766 -0.29922,0.21072 -0.46094,0.29883 l -0.13867,-0.52148 h -3.05274 v 10.67187 h 3.81055 v -6.54687 c 0.27817,-0.21249 0.55841,-0.43457 0.82813,-0.57617 l 0.01,-0.006 0.008,-0.004 c 0.36209,-0.19915 0.62088,-0.25781 0.79493,-0.25781 0.19939,0 0.18945,-0.0156 0.18945,-0.0156 l 0.0117,0.0195 0.0117,0.0195 c 0.0552,0.0828 0.13867,0.30473 0.13867,0.82421 v 6.54297 h 3.81054 v -6.70117 c 0,-1.14404 -0.27076,-2.17105 -0.91406,-2.98242 -0.71945,-0.92458 -1.69701,-1.26953 -2.89648,-1.26953 z m -2.15039,0.5039 c 0.002,-9.8e-4 0.004,-0.003 0.006,-0.004 l -0.0156,0.006 c 0.003,-0.001 0.007,-4.9e-4 0.01,-0.002 z"
         style="font-size:10.5833px;-inkscape-font-specification:'Mosk, Medium';direction:rtl;fill:#000000;stroke-width:0.264583"
         id="path8308"
         inkscape:original-d="m 299.54656,135.80362 q -0.59972,0 -1.30528,0.38806 -0.70555,0.37041 -1.39347,0.97014 v 6.0325 h -1.69334 v -8.55487 h 1.18181 l 0.29986,1.12889 q 0.68792,-0.61736 1.55222,-1.00541 0.86431,-0.4057 1.71098,-0.4057 1.39347,0 2.06375,0.86431 0.68792,0.8643 0.68792,2.32833 v 5.64445 h -1.69334 v -5.4857 q 0,-0.93486 -0.3175,-1.41111 -0.29986,-0.49389 -1.09361,-0.49389 z" />
      <path
         d="m 303.56836,133.58008 v 6.70312 c 0,1.14232 0.26277,2.16443 0.89258,2.97657 l 0.004,0.006 0.004,0.004 c 0.7025,0.88263 1.73422,1.26563 2.91016,1.26563 0.73198,0 1.44746,-0.16946 2.14453,-0.48243 l 0.008,-0.004 0.008,-0.002 c 0.16799,-0.0789 0.2954,-0.2115 0.45508,-0.30079 l 0.13477,0.50586 h 3.05273 v -10.67187 h -3.81055 v 6.55273 c -0.27941,0.21638 -0.5592,0.44091 -0.83203,0.5918 -0.3568,0.18615 -0.62241,0.24609 -0.80859,0.24609 -0.10181,0 -0.19661,-0.003 -0.21289,-0.004 -0.0626,-0.11353 -0.13867,-0.33979 -0.13867,-0.8418 v -6.54492 z"
         style="font-size:10.5833px;-inkscape-font-specification:'Mosk, Medium';direction:rtl;fill:#000000;stroke-width:0.264583"
         id="path8310"
         inkscape:original-d="m 307.73101,142.03015 q 0.59973,0 1.30528,-0.37041 0.70556,-0.38806 1.39347,-0.98778 v -6.03251 h 1.69334 v 8.55487 h -1.18181 l -0.29986,-1.12889 q -0.68792,0.61736 -1.55222,1.02306 -0.86431,0.38805 -1.71098,0.38805 -1.39347,0 -2.08139,-0.8643 -0.67027,-0.86431 -0.67027,-2.32834 v -5.64445 h 1.69333 v 5.4857 q 0,0.93486 0.29986,1.42875 0.3175,0.47625 1.11125,0.47625 z" />
      <path
         id="path8312"
         style="opacity:1;fill:#000000;stroke-width:5.98431"
         d="m 118.4375,90.712891 v 39.361329 c -0.52506,-0.0967 -1.03759,-0.17969 -1.46484,-0.17969 -1.32168,0 -2.52512,0.32214 -3.58008,0.99219 -1.03473,0.65202 -1.82797,1.5559 -2.38281,2.69336 -0.53648,1.11423 -0.79297,2.3492 -0.79297,3.6875 0,1.28589 0.23656,2.48101 0.72851,3.57422 l 0.004,0.008 0.002,0.008 c 0.51653,1.10287 1.28088,1.99208 2.28125,2.6543 l 0.008,0.004 0.006,0.006 c 1.04685,0.66882 2.26199,0.97852 3.6211,0.97852 0.59943,0 1.24431,-0.0841 1.92578,-0.23828 0.67089,-0.14053 1.27915,-0.33137 1.76953,-0.58399 l 0.93945,-0.48437 -1.59765,-3.11524 -0.92188,0.42579 c -0.60179,0.27775 -1.32779,0.43164 -2.18554,0.43164 -0.5441,0 -1.00993,-0.15622 -1.38282,-0.42969 -0.39149,-0.2957 -0.71578,-0.709 -0.95312,-1.25977 -0.23648,-0.58859 -0.36328,-1.25142 -0.36328,-1.99609 0,-0.80871 0.14622,-1.49625 0.41406,-2.07812 0.27013,-0.58684 0.62441,-1.00326 1.0332,-1.28126 0.41595,-0.28545 0.88948,-0.43359 1.39258,-0.43359 0.47343,0 0.81182,0.0336 1.04688,0.084 0.27554,0.059 0.64808,0.16892 1.15624,0.3496 l 0.17383,0.0605 h 3.64258 V 95.234375 H 298.75 v 28.478515 h 0.0371 v 2.50586 h 6.66797 v -12.32813 c 0.62196,-0.42543 1.22968,-0.82773 1.74219,-1.08398 l 0.0137,-0.008 0.0117,-0.006 c 0.54991,-0.29329 1.13654,-0.43945 1.75976,-0.43945 0.44107,0 0.74264,0.16729 0.94141,0.44336 l 0.008,0.01 0.01,0.0117 c 0.26472,0.34833 0.45312,0.9162 0.45312,1.82812 v 8.10938 3.46289 h 5.64453 2.34571 v 8.10547 l -0.99219,1.51562 -1.77539,-2.80664 -3.53907,1.40039 2.88672,4.40235 -3.57422,5.41601 h 4.43555 l 1.37695,-2.1582 1.37696,2.1582 h 4.41015 l -3.375,-5.14843 3.64649,-5.52344 h -0.91602 v -8.41992 -2.4043 -1.0625 h -3.96093 v 0.004 h -1.28711 v -7.26172 c 0,-2.32362 -0.46469,-4.27073 -1.50196,-5.72852 -1.1405,-1.60288 -3.0262,-2.2793 -5.41406,-2.2793 -0.95563,0 -1.99866,0.19276 -3.10547,0.54493 -0.56119,0.17856 -1.0808,0.49439 -1.62109,0.74218 v -8.636715 l -0.0371,0.0039 v -4.90625 -3.46289 h -5.60938 -177.91015 -2.39453 z"
         inkscape:original-d="m 319.44324,122.75111 h 1.84464 v 11.88834 h -1.84464 z m -7.99074,2.40884 v -2.40374 h 9.8347 v 2.40374 z M 119.49551,91.771652 h 2.40374 v 41.121698 h -2.40374 z m 180.3136,0 h 4.5508 v 30.882398 h -4.5508 z m 16.22949,22.663878 v 10.72442 h -4.5861 V 114.6472 q 0,-1.58749 -0.67027,-2.46944 -0.635,-0.88194 -1.79917,-0.88194 -1.19943,0 -2.25777,0.56444 -1.05833,0.52917 -2.32833,1.44639 v 11.8533 h -4.55081 v -24.51799 l 4.55081,-0.38806 v 9.10165 q 1.4464,-0.88194 2.9986,-1.37583 1.55223,-0.49389 2.78694,-0.49389 3.24556,0 4.55083,1.83444 1.30527,1.83444 1.30527,5.11526 z m 1.16451,25.68962 -1.95792,3.06917 h -1.88736 l 2.87514,-4.35681 -2.55764,-3.89819 1.51694,-0.59973 2.18722,3.45723 2.06376,-3.15737 h 1.85208 l -2.9457,4.46265 2.68112,4.09222 h -1.86973 z m -200.23008,-9.17223 q 0.635,0 1.55222,0.19403 0.91723,0.17639 1.49931,0.52917 l -0.52917,1.21708 q -0.79375,-0.28222 -1.28764,-0.38805 -0.49389,-0.10584 -1.27,-0.10584 -1.09361,0 -1.99319,0.61736 -0.88195,0.59973 -1.39348,1.71098 -0.51152,1.11125 -0.51152,2.52236 0,1.30528 0.44097,2.39889 0.45861,1.07597 1.30528,1.71097 0.8643,0.63501 2.01083,0.63501 1.48167,0 2.6282,-0.52917 l 0.65264,1.27 q -0.58209,0.29986 -1.51695,0.49389 -0.93486,0.21167 -1.69333,0.21167 -1.78153,0 -3.05153,-0.81139 -1.25236,-0.82903 -1.905,-2.22251 -0.635,-1.41111 -0.635,-3.13972 0,-1.79917 0.68791,-3.22792 0.70556,-1.44639 1.9932,-2.25778 1.30528,-0.82903 3.01625,-0.82903 z M 304.35992,91.771652 v 2.403791 h -184.8557 v -2.403791 z" />
    </g>
    <text
       xml:space="preserve"
       transform="scale(0.26458334)"
       id="text3021"
       style="font-size:40px;line-height:1.25;font-family:sans-serif;direction:ltr;white-space:pre;shape-inside:url(#rect3023)" />
    <g
       id="g1315">
      <path
         id="path31859"
         style="font-weight:900;font-size:200px;line-height:1.25;font-family:Mosk;-inkscape-font-specification:'Mosk, Heavy';direction:rtl;white-space:pre;fill:#b3b3b3;stroke-width:0.999999"
         d="m 438.07812,337.04492 v 136 h 36.4004 v -71.59961 l 52.20117,71.59961 h 34 v -136 H 524.2793 v 73.80078 l -52.40039,-73.80078 z m 4.99805,4.99414 h 26.22071 c 19.9926,28.16191 39.98395,56.32443 59.97656,84.48633 v -84.48633 h 26.40625 V 468.04883 H 529.21484 C 509.30342,440.73093 489.39189,413.4136 469.48047,386.0957 v 81.95313 h -26.4043 z"
         transform="scale(0.26458334)" />
      <path
         d="m 158.89431,125.58328 q -2.75165,0 -4.83304,-1.0936 -2.0461,-1.09361 -3.17499,-3.10444 -1.12889,-2.04611 -1.12889,-4.76249 0,-2.71638 1.12889,-4.76249 1.12889,-2.0461 3.17499,-3.13971 2.08139,-1.12889 4.83304,-1.12889 2.75167,0 4.79777,1.09361 2.08138,1.09361 3.21027,3.13972 1.12889,2.01082 1.12889,4.72721 0,2.71638 -1.12889,4.76248 -1.12889,2.04611 -3.21027,3.175 -2.0461,1.0936 -4.79777,1.0936 z m 4.40972,-9.03108 q 0,-2.2225 -1.23472,-3.6336 -1.23472,-1.41111 -3.175,-1.41111 -1.90499,0 -3.17499,1.44638 -1.23472,1.44639 -1.23472,3.66888 0,2.2225 1.23472,3.6336 1.23472,1.41111 3.17499,1.41111 1.905,0 3.13972,-1.44638 1.27,-1.44639 1.27,-3.66888 z"
         style="font-weight:bold;font-size:133.333px;line-height:1.25;font-family:Mosk;-inkscape-font-specification:'Mosk, Bold';direction:rtl;white-space:pre;opacity:1;fill:#ff0000;fill-opacity:1;stroke-width:0.264583"
         id="path31856" />
      <path
         d="m 171.98237,111.61332 h -2.64583 v -3.52777 h 2.64583 v -1.30527 q 0,-2.99861 1.76388,-4.69194 1.76388,-1.69333 4.9036,-1.69333 0.81138,0 1.83444,0.3175 1.02305,0.3175 1.5875,0.77611 l -1.30528,3.31611 q -1.16416,-0.45861 -1.905,-0.45861 -1.16416,0 -1.7286,0.84666 -0.56444,0.81139 -0.56444,2.2225 v 0.67027 h 3.24554 l 1.44639,3.52777 h -4.69193 v 21.6605 h -4.5861 z"
         style="font-weight:bold;font-size:133.333px;line-height:1.25;font-family:Mosk;-inkscape-font-specification:'Mosk, Bold';direction:rtl;white-space:pre;fill:#b3b3b3;stroke-width:0.264583"
         id="path31853" />
      <path
         d="m 190.64424,111.82499 q -1.16417,0 -2.57527,0.35277 -1.41111,0.3175 -2.39889,0.77611 l -1.23472,-3.80999 q 0.91722,-0.59972 2.92805,-1.05833 2.01083,-0.49389 3.21027,-0.49389 2.04611,0 3.73944,0.81139 1.69333,0.81139 2.6811,2.25777 1.02305,1.44639 1.02305,3.24555 v 11.25358 h -2.9986 l -0.77611,-1.83444 q -2.15194,2.25777 -4.51554,2.25777 -3.06916,0 -4.62138,-1.48166 -1.55222,-1.51694 -1.55222,-4.05693 0,-2.61055 1.76388,-4.02166 1.76389,-1.44638 4.72721,-1.44638 h 3.35139 q -0.0353,-1.30528 -0.77611,-2.01083 -0.70556,-0.74083 -1.97555,-0.74083 z m -0.67028,5.82082 q -1.12889,0 -1.83444,0.70555 -0.67027,0.70555 -0.67027,1.69333 0,0.77611 0.59972,1.34055 0.63499,0.56444 1.58749,0.56444 2.04611,0 3.77471,-1.69333 v -2.61054 z"
         style="font-weight:bold;font-size:133.333px;line-height:1.25;font-family:Mosk;-inkscape-font-specification:'Mosk, Bold';direction:rtl;white-space:pre;fill:#b3b3b3;stroke-width:0.264583"
         id="path31850" />
      <path
         d="m 212.41058,111.71915 q -1.16416,0 -2.89277,0.84667 -1.69333,0.84666 -3.17499,2.15194 v 10.44219 h -4.5861 v -17.10968 h 2.39888 l 1.51694,2.8575 q 1.23472,-1.09361 2.89277,-1.97555 1.65805,-0.88195 2.92805,-0.88195 z"
         style="font-weight:bold;font-size:133.333px;line-height:1.25;font-family:Mosk;-inkscape-font-specification:'Mosk, Bold';direction:rtl;white-space:pre;fill:#b3b3b3;stroke-width:0.264583"
         id="path31847" />
      <path
         d="m 221.33585,111.82499 q -1.16417,0 -2.57527,0.35277 -1.41111,0.3175 -2.39889,0.77611 l -1.23472,-3.80999 q 0.91722,-0.59972 2.92805,-1.05833 2.01083,-0.49389 3.21027,-0.49389 2.04611,0 3.73944,0.81139 1.69333,0.81139 2.6811,2.25777 1.02306,1.44639 1.02306,3.24555 v 11.25358 h -2.99861 l -0.77611,-1.83444 q -2.15194,2.25777 -4.51554,2.25777 -3.06916,0 -4.62138,-1.48166 -1.55222,-1.51694 -1.55222,-4.05693 0,-2.61055 1.76389,-4.02166 1.76388,-1.44638 4.72721,-1.44638 h 3.35138 q -0.0353,-1.30528 -0.77611,-2.01083 -0.70556,-0.74083 -1.97555,-0.74083 z m -0.67028,5.82082 q -1.12888,0 -1.83444,0.70555 -0.67027,0.70555 -0.67027,1.69333 0,0.77611 0.59972,1.34055 0.635,0.56444 1.58749,0.56444 2.04611,0 3.77472,-1.69333 v -2.61054 z"
         style="font-weight:bold;font-size:133.333px;line-height:1.25;font-family:Mosk;-inkscape-font-specification:'Mosk, Bold';direction:rtl;white-space:pre;fill:#b3b3b3;stroke-width:0.264583"
         id="path31844" />
      <path
         d="m 248.99356,114.43553 v 10.72442 h -4.5861 V 114.6472 q 0,-1.58749 -0.67027,-2.46944 -0.635,-0.88194 -1.79916,-0.88194 -1.19945,0 -2.25778,0.56444 -1.05833,0.52917 -2.32832,1.44639 v 11.8533 h -4.55082 v -24.51799 l 4.55082,-0.38806 v 9.10165 q 1.44638,-0.88194 2.9986,-1.37583 1.55222,-0.49389 2.78694,-0.49389 3.24555,0 4.55082,1.83444 1.30527,1.83444 1.30527,5.11526 z"
         style="font-weight:bold;font-size:133.333px;line-height:1.25;font-family:Mosk;-inkscape-font-specification:'Mosk, Bold';direction:rtl;white-space:pre;opacity:1;fill:#ff0000;fill-opacity:1;stroke-width:0.264583"
         id="path31841" />
      <path
         id="path31838"
         style="font-weight:900;font-size:200px;line-height:1.25;font-family:Mosk;-inkscape-font-specification:'Mosk, Heavy';direction:rtl;white-space:pre;fill:#b3b3b3;stroke-width:0.999999"
         d="m 911.21094,337.04492 v 28.59961 h 40 v 107.40039 h 36.40039 V 365.64453 h 43.40037 l -3.4004,-28.59961 z m 5,4.99414 H 1023.166 c 0.7382,6.20325 1.4767,12.40808 2.2149,18.61133 H 982.61133 V 468.04883 H 956.20508 V 360.65039 h -39.99414 z"
         transform="scale(0.26458334)" />
      <path
         d="m 272.22373,107.59166 q 2.57527,0 4.33914,1.19945 1.7639,1.19944 2.61057,3.24554 0.84666,2.01083 0.84666,4.51555 v 1.4111 h -11.53581 q 0.35277,1.79917 1.51694,2.75166 1.19944,0.9525 3.6336,0.9525 1.41111,0 2.54,-0.38805 1.12887,-0.38806 2.43417,-1.12889 l 1.34054,3.3161 q -1.30527,1.02306 -2.82221,1.5875 -1.51696,0.52916 -3.59833,0.52916 -4.86833,0 -7.40831,-2.3636 -2.50473,-2.39888 -2.50473,-6.59693 0,-2.71638 1.02307,-4.76249 1.05833,-2.0461 2.9986,-3.13971 1.94027,-1.12889 4.5861,-1.12889 z m -0.10583,3.91583 q -1.41111,0 -2.36361,0.88194 -0.9525,0.84666 -1.23473,2.50471 h 7.16138 q -0.35277,-1.69332 -1.27,-2.53999 -0.88194,-0.84666 -2.29304,-0.84666 z"
         style="font-weight:bold;font-size:133.333px;line-height:1.25;font-family:Mosk;-inkscape-font-specification:'Mosk, Bold';direction:rtl;white-space:pre;fill:#b3b3b3;stroke-width:0.264583"
         id="path31835" />
      <path
         d="m 290.88561,107.59166 q 1.19944,0 2.96334,0.49389 1.76387,0.49389 2.9633,1.30528 l -1.30526,3.28082 q -1.34054,-0.59972 -2.39888,-0.88194 -1.05833,-0.28222 -2.18723,-0.28222 -1.905,0 -3.175,1.44638 -1.2347,1.44639 -1.2347,3.66888 0,2.2225 1.2347,3.6336 1.23473,1.41111 3.175,1.41111 1.1289,0 2.18723,-0.28222 1.05834,-0.28222 2.39888,-0.88194 l 1.30526,3.3161 q -1.0936,0.84666 -2.85747,1.30527 -1.7639,0.45861 -3.06917,0.45861 -2.75166,0 -4.83303,-1.0936 -2.04611,-1.09361 -3.175,-3.10444 -1.09361,-2.04611 -1.09361,-4.76249 0,-2.71638 1.09361,-4.76249 1.12889,-2.0461 3.175,-3.13971 2.08137,-1.12889 4.83303,-1.12889 z"
         style="font-weight:bold;font-size:133.333px;line-height:1.25;font-family:Mosk;-inkscape-font-specification:'Mosk, Bold';direction:rtl;white-space:pre;fill:#b3b3b3;stroke-width:0.264583"
         id="path31832" />
      <path
         d="m 124.56872,143.42363 q -1.28764,0 -2.25778,-0.56445 -0.9525,-0.56444 -1.46403,-1.5875 -0.51153,-1.02306 -0.51153,-2.36361 0,-1.32292 0.52917,-2.34598 0.52917,-1.02305 1.49931,-1.5875 0.97014,-0.56444 2.27541,-0.56444 1.28764,0 2.24014,0.56444 0.97014,0.56445 1.48167,1.5875 0.52917,1.02306 0.52917,2.36362 0,1.32291 -0.52917,2.34597 -0.52917,1.02306 -1.51694,1.5875 -0.97014,0.56445 -2.27542,0.56445 z m 2.59292,-4.48028 q 0,-1.37584 -0.67028,-2.22251 -0.67028,-0.8643 -1.85209,-0.8643 -1.16416,0 -1.86972,0.8643 -0.68792,0.86431 -0.70556,2.16959 0,1.37583 0.67028,2.24014 0.67028,0.84667 1.85209,0.84667 1.16416,0 1.85208,-0.86431 0.70556,-0.86431 0.7232,-2.16958 z"
         style="font-size:10.5833px;-inkscape-font-specification:'Mosk, Medium';direction:rtl;fill:#b3b3b3;stroke-width:0.264583"
         id="path50065" />
      <path
         d="m 134.86984,135.80362 q -0.59973,0 -1.30528,0.38806 -0.70556,0.37041 -1.39348,0.97014 v 6.0325 h -1.69333 v -8.55487 h 1.18181 l 0.29986,1.12889 q 0.68791,-0.61736 1.55222,-1.00541 0.86431,-0.4057 1.71097,-0.4057 1.39348,0 2.06376,0.86431 0.68791,0.8643 0.68791,2.32833 v 5.64445 h -1.69333 v -5.4857 q 0,-0.93486 -0.3175,-1.41111 -0.29986,-0.49389 -1.09361,-0.49389 z"
         style="font-size:10.5833px;-inkscape-font-specification:'Mosk, Medium';direction:rtl;fill:#b3b3b3;stroke-width:0.264583"
         id="path50067" />
      <path
         d="m 144.41249,135.80362 q -0.59972,0 -1.30528,0.38806 -0.70556,0.37041 -1.39347,0.97014 v 6.0325 h -1.69334 v -8.55487 h 1.18181 l 0.29986,1.12889 q 0.68792,-0.61736 1.55222,-1.00541 0.86431,-0.4057 1.71098,-0.4057 1.39347,0 2.06375,0.86431 0.68792,0.8643 0.68792,2.32833 v 5.64445 h -1.69334 v -5.4857 q 0,-0.93486 -0.3175,-1.41111 -0.29986,-0.49389 -1.09361,-0.49389 z"
         style="font-size:10.5833px;-inkscape-font-specification:'Mosk, Medium';direction:rtl;fill:#b3b3b3;stroke-width:0.264583"
         id="path50069" />
      <path
         d="m 153.12611,134.41015 q 1.85209,0 2.78695,1.25236 0.9525,1.23472 0.9525,3.175 v 0.45861 h -6.06778 q 0.10583,1.25237 0.79375,1.97556 0.70555,0.7232 2.08139,0.7232 0.67028,0 1.16417,-0.15875 0.51152,-0.17639 1.41111,-0.59973 l 0.52916,1.23473 q -1.55222,0.93486 -3.10444,0.93486 -2.24014,0 -3.43959,-1.21709 -1.19944,-1.21708 -1.19944,-3.28083 0,-1.32292 0.49389,-2.34598 0.49389,-1.02305 1.41111,-1.5875 0.93486,-0.56444 2.18722,-0.56444 z m -0.0529,1.44639 q -0.97014,0 -1.55223,0.61736 -0.56444,0.59972 -0.68791,1.6757 h 4.39208 q -0.33514,-2.29306 -2.15194,-2.29306 z"
         style="font-size:10.5833px;-inkscape-font-specification:'Mosk, Medium';direction:rtl;fill:#b3b3b3;stroke-width:0.264583"
         id="path50071" />
      <path
         d="m 162.17487,141.97724 q 0.72319,0 1.25236,-0.14111 0.52916,-0.14112 1.14653,-0.44098 l 0.51152,1.21709 q -0.52916,0.35277 -1.42875,0.58208 -0.88194,0.22931 -1.48166,0.22931 -1.28764,0 -2.25778,-0.56445 -0.9525,-0.56444 -1.48167,-1.5875 -0.51153,-1.02306 -0.51153,-2.36361 0,-1.32292 0.52917,-2.34598 0.52916,-1.02305 1.4993,-1.5875 0.98778,-0.56444 2.29306,-0.56444 0.58208,0 1.46403,0.24694 0.88195,0.22931 1.41111,0.58209 l -0.49389,1.19944 q -0.72319,-0.29986 -1.23472,-0.44097 -0.49389,-0.14111 -1.16417,-0.14111 -1.16417,0 -1.86972,0.8643 -0.68792,0.86431 -0.70556,2.16959 0,1.37583 0.67028,2.24014 0.67028,0.84667 1.85209,0.84667 z"
         style="font-size:10.5833px;-inkscape-font-specification:'Mosk, Medium';direction:rtl;fill:#b3b3b3;stroke-width:0.264583"
         id="path50073" />
      <path
         d="m 168.75419,134.74529 h 1.55222 l 0.52917,1.28764 h -2.08139 v 4.51556 q 0,0.68791 0.29986,1.09361 0.29986,0.38805 0.91722,0.38805 0.3175,0 0.82903,-0.19402 l 0.44097,1.28764 q -0.26458,0.14111 -0.68791,0.24694 -0.4057,0.12347 -0.75848,0.12347 -1.27,0 -2.01083,-0.68792 -0.7232,-0.70555 -0.7232,-1.99319 v -4.78014 h -1.19944 l -0.0176,-1.28764 h 1.21708 v -2.13431 l 1.69334,-0.38806 z"
         style="font-size:10.5833px;-inkscape-font-specification:'Mosk, Medium';direction:rtl;fill:#b3b3b3;stroke-width:0.264583"
         id="path50075" />
      <path
         d="m 174.55738,132.04654 q 0,0.44097 -0.3175,0.75847 -0.3175,0.29986 -0.75848,0.29986 -0.44097,0 -0.74083,-0.29986 -0.29986,-0.3175 -0.29986,-0.75847 0,-0.44098 0.29986,-0.74084 0.29986,-0.3175 0.74083,-0.3175 0.44098,0 0.75848,0.3175 0.3175,0.29986 0.3175,0.74084 z m -0.19403,2.59291 v 8.55487 h -1.71097 v -8.55487 z"
         style="font-size:10.5833px;-inkscape-font-specification:'Mosk, Medium';direction:rtl;fill:#b3b3b3;stroke-width:0.264583"
         id="path50077" />
      <path
         d="m 180.87209,135.80362 q -0.59972,0 -1.30528,0.38806 -0.70555,0.37041 -1.39347,0.97014 v 6.0325 H 176.48 v -8.55487 h 1.18181 l 0.29986,1.12889 q 0.68792,-0.61736 1.55223,-1.00541 0.8643,-0.4057 1.71097,-0.4057 1.39347,0 2.06375,0.86431 0.68792,0.8643 0.68792,2.32833 v 5.64445 h -1.69334 v -5.4857 q 0,-0.93486 -0.3175,-1.41111 -0.29986,-0.49389 -1.09361,-0.49389 z"
         style="font-size:10.5833px;-inkscape-font-specification:'Mosk, Medium';direction:rtl;fill:#b3b3b3;stroke-width:0.264583"
         id="path50079" />
      <path
         d="m 193.32516,143.95279 q 0,0.9525 -0.49389,1.69334 -0.47625,0.75847 -1.39347,1.1818 -0.91723,0.42334 -2.20487,0.42334 -0.61736,0 -1.55222,-0.24695 -0.93486,-0.2293 -1.48167,-0.59972 l 0.51153,-1.21708 q 0.88195,0.38805 1.32292,0.52916 0.45861,0.15875 1.14653,0.15875 1.09361,0 1.76389,-0.51152 0.67027,-0.49389 0.67027,-1.42876 v -1.11125 q -0.47625,0.28223 -0.98777,0.44098 -0.51153,0.15875 -0.88195,0.15875 -1.30528,0 -2.27542,-0.56445 -0.9525,-0.56444 -1.46403,-1.5875 -0.51152,-1.04069 -0.51152,-2.41653 0,-1.32292 0.52916,-2.32833 0.52917,-1.00542 1.49931,-1.55223 0.97014,-0.56444 2.24014,-0.56444 0.45861,0 1.09361,0.21166 0.635,0.21167 1.16417,0.61737 l 0.33514,-0.59973 h 0.97014 z m -1.71098,-2.69875 v -4.72722 q -0.40569,-0.35278 -0.8643,-0.51153 -0.44097,-0.15875 -1.00542,-0.15875 -1.18181,0 -1.85208,0.84667 -0.67028,0.82902 -0.67028,2.1343 0,1.41111 0.65264,2.27542 0.67028,0.86431 1.86972,0.86431 0.58208,0 1.02306,-0.17639 0.44097,-0.17639 0.84666,-0.54681 z"
         style="font-size:10.5833px;-inkscape-font-specification:'Mosk, Medium';direction:rtl;fill:#b3b3b3;stroke-width:0.264583"
         id="path50081" />
      <path
         d="m 198.72267,143.19432 4.51556,-11.99445 h 1.53458 l 4.6214,11.88862 -1.6757,0.24694 -1.25236,-3.35139 h -4.88598 l -1.19944,3.21028 z m 3.33375,-4.56847 h 3.8982 l -1.97556,-5.15056 z"
         style="font-size:10.5833px;-inkscape-font-specification:'Mosk, Medium';direction:rtl;fill:#b3b3b3;stroke-width:0.264583"
         id="path50083" />
      <path
         d="m 215.35616,135.99765 q -0.67028,0 -1.51695,0.45861 -0.84667,0.44097 -1.51695,1.07597 v 5.66209 h -1.69333 v -8.55487 h 0.9525 l 0.54681,1.39348 q 0.59972,-0.51153 1.41111,-0.9525 0.82903,-0.44098 1.44639,-0.44098 z"
         style="font-size:10.5833px;-inkscape-font-specification:'Mosk, Medium';direction:rtl;fill:#b3b3b3;stroke-width:0.264583"
         id="path50085" />
      <path
         d="m 219.81879,135.92709 q -1.16417,0 -2.46945,0.58209 l -0.47625,-1.34056 q 0.45861,-0.3175 1.37583,-0.52917 0.93487,-0.2293 1.53459,-0.2293 0.97014,0 1.76389,0.40569 0.79375,0.38806 1.23472,1.07598 0.45861,0.68791 0.45861,1.4993 v 5.8032 h -1.1818 l -0.21167,-0.81139 q -0.47625,0.42333 -1.16417,0.7232 -0.68791,0.29986 -1.34055,0.29986 -1.46403,0 -2.22251,-0.7232 -0.75847,-0.74083 -0.75847,-1.95792 0,-1.25236 0.84667,-1.94027 0.86431,-0.70556 2.29306,-0.70556 h 2.02847 q 0,-1.0407 -0.38806,-1.5875 -0.37041,-0.56445 -1.32291,-0.56445 z m -0.35278,3.28084 q -0.74084,0 -1.16417,0.44097 -0.42333,0.44097 -0.42333,1.07597 0,0.54681 0.37041,0.95251 0.37042,0.38805 1.05834,0.38805 0.61736,0 1.19944,-0.29986 0.58209,-0.3175 1.0407,-0.82903 v -1.72861 z"
         style="font-size:10.5833px;-inkscape-font-specification:'Mosk, Medium';direction:rtl;fill:#b3b3b3;stroke-width:0.264583"
         id="path50087" />
      <path
         d="m 233.17143,138.97862 q 0,1.32292 -0.52916,2.32834 -0.52917,1.00542 -1.49931,1.56986 -0.97014,0.54681 -2.24014,0.54681 -0.44097,0 -1.0407,-0.19403 -0.58208,-0.17639 -1.11125,-0.54681 l -0.33514,0.51153 h -0.9525 v -12.25904 l 1.69334,-0.19402 v 4.19806 q 0.47625,-0.24695 0.93486,-0.38806 0.47625,-0.14111 0.82903,-0.14111 1.30528,0 2.25778,0.56444 0.97014,0.56445 1.48166,1.60514 0.51153,1.02306 0.51153,2.39889 z m -1.72861,0.0176 q 0,-1.41111 -0.67028,-2.27542 -0.65264,-0.8643 -1.85208,-0.8643 -1.0407,0 -1.76389,0.61736 v 4.92125 q 0.74083,0.58209 1.76389,0.58209 1.1818,0 1.85208,-0.82903 0.67028,-0.84667 0.67028,-2.15195 z"
         style="font-size:10.5833px;-inkscape-font-specification:'Mosk, Medium';direction:rtl;fill:#b3b3b3;stroke-width:0.264583"
         id="path50089" />
      <path
         d="m 237.12256,143.42363 q -0.61737,0 -1.48167,-0.21167 -0.84667,-0.21167 -1.34056,-0.56445 l 0.52917,-1.1818 q 1.19944,0.58208 2.29306,0.58208 0.84666,0 1.34055,-0.29986 0.51153,-0.29986 0.51153,-0.79375 0,-0.88194 -1.905,-1.48167 -2.80459,-0.91722 -2.80459,-2.57528 0,-1.16416 0.86431,-1.8168 0.88194,-0.67028 2.38125,-0.67028 0.59972,0 1.41111,0.2293 0.82903,0.22931 1.34056,0.58209 l -0.52917,1.14653 q -0.61736,-0.28223 -1.12889,-0.42334 -0.51152,-0.15875 -1.12889,-0.15875 -0.67027,0 -1.11125,0.3175 -0.42333,0.29986 -0.42333,0.75848 0.0176,0.35277 0.45861,0.65263 0.45861,0.29987 1.30528,0.58209 2.89278,1.04069 2.89278,2.76931 0,1.21708 -0.89958,1.88736 -0.89959,0.67028 -2.57528,0.67028 z"
         style="font-size:10.5833px;-inkscape-font-specification:'Mosk, Medium';direction:rtl;fill:#b3b3b3;stroke-width:0.264583"
         id="path50091" />
      <path
         d="m 257.38965,134.63945 -2.66348,8.55487 h -1.55222 l -1.88736,-6.08542 -1.78153,6.08542 h -1.55223 l -2.59291,-8.255 1.62277,-0.59973 1.76389,6.33237 1.6757,-6.03251 h 1.78153 l 1.76389,6.03251 1.67569,-6.03251 z"
         style="font-size:10.5833px;-inkscape-font-specification:'Mosk, Medium';direction:rtl;fill:#b3b3b3;stroke-width:0.264583"
         id="path50093" />
      <path
         d="m 260.52935,132.04654 q 0,0.44097 -0.3175,0.75847 -0.3175,0.29986 -0.75847,0.29986 -0.44097,0 -0.74083,-0.29986 -0.29986,-0.3175 -0.29986,-0.75847 0,-0.44098 0.29986,-0.74084 0.29986,-0.3175 0.74083,-0.3175 0.44097,0 0.75847,0.3175 0.3175,0.29986 0.3175,0.74084 z m -0.19402,2.59291 v 8.55487 h -1.71098 v -8.55487 z"
         style="font-size:10.5833px;-inkscape-font-specification:'Mosk, Medium';direction:rtl;fill:#b3b3b3;stroke-width:0.264583"
         id="path50095" />
      <path
         d="m 264.56864,134.74529 h 1.55223 l 0.52916,1.28764 h -2.08139 v 4.51556 q 0,0.68791 0.29986,1.09361 0.29986,0.38805 0.91723,0.38805 0.3175,0 0.82902,-0.19402 l 0.44098,1.28764 q -0.26459,0.14111 -0.68792,0.24694 -0.40569,0.12347 -0.75847,0.12347 -1.27,0 -2.01084,-0.68792 -0.72319,-0.70555 -0.72319,-1.99319 v -4.78014 h -1.19945 l -0.0176,-1.28764 h 1.21709 v -2.13431 l 1.69333,-0.38806 z"
         style="font-size:10.5833px;-inkscape-font-specification:'Mosk, Medium';direction:rtl;fill:#b3b3b3;stroke-width:0.264583"
         id="path50097" />
      <path
         d="m 276.13976,137.54987 v 5.64445 h -1.69334 v -5.4857 q 0,-0.93486 -0.3175,-1.41111 -0.29986,-0.49389 -1.09361,-0.49389 -0.59972,0 -1.30528,0.38806 -0.70555,0.37041 -1.39347,0.97014 v 6.0325 h -1.69333 v -12.25904 l 1.69333,-0.19402 v 4.85069 q 0.67028,-0.56444 1.46403,-0.89958 0.81139,-0.33514 1.5875,-0.33514 1.39347,0 2.06375,0.86431 0.68792,0.8643 0.68792,2.32833 z"
         style="font-size:10.5833px;-inkscape-font-specification:'Mosk, Medium';direction:rtl;fill:#b3b3b3;stroke-width:0.264583"
         id="path50099" />
      <path
         d="m 284.46532,141.8714 h 5.41515 l 0.21166,1.32292 h -7.32014 v -11.99445 h 1.69333 z"
         style="font-size:10.5833px;-inkscape-font-specification:'Mosk, Medium';direction:rtl;fill:#b3b3b3;stroke-width:0.264583"
         id="path50101" />
      <path
         d="m 293.23185,132.04654 q 0,0.44097 -0.3175,0.75847 -0.3175,0.29986 -0.75847,0.29986 -0.44097,0 -0.74083,-0.29986 -0.29986,-0.3175 -0.29986,-0.75847 0,-0.44098 0.29986,-0.74084 0.29986,-0.3175 0.74083,-0.3175 0.44097,0 0.75847,0.3175 0.3175,0.29986 0.3175,0.74084 z m -0.19402,2.59291 v 8.55487 h -1.71098 v -8.55487 z"
         style="font-size:10.5833px;-inkscape-font-specification:'Mosk, Medium';direction:rtl;fill:#b3b3b3;stroke-width:0.264583"
         id="path50103" />
      <path
         d="m 299.54656,135.80362 q -0.59972,0 -1.30528,0.38806 -0.70555,0.37041 -1.39347,0.97014 v 6.0325 h -1.69334 v -8.55487 h 1.18181 l 0.29986,1.12889 q 0.68792,-0.61736 1.55222,-1.00541 0.86431,-0.4057 1.71098,-0.4057 1.39347,0 2.06375,0.86431 0.68792,0.8643 0.68792,2.32833 v 5.64445 h -1.69334 v -5.4857 q 0,-0.93486 -0.3175,-1.41111 -0.29986,-0.49389 -1.09361,-0.49389 z"
         style="font-size:10.5833px;-inkscape-font-specification:'Mosk, Medium';direction:rtl;fill:#b3b3b3;stroke-width:0.264583"
         id="path50105" />
      <path
         d="m 307.73101,142.03015 q 0.59973,0 1.30528,-0.37041 0.70556,-0.38806 1.39347,-0.98778 v -6.03251 h 1.69334 v 8.55487 h -1.18181 l -0.29986,-1.12889 q -0.68792,0.61736 -1.55222,1.02306 -0.86431,0.38805 -1.71098,0.38805 -1.39347,0 -2.08139,-0.8643 -0.67027,-0.86431 -0.67027,-2.32834 v -5.64445 h 1.69333 v 5.4857 q 0,0.93486 0.29986,1.42875 0.3175,0.47625 1.11125,0.47625 z"
         style="font-size:10.5833px;-inkscape-font-specification:'Mosk, Medium';direction:rtl;fill:#b3b3b3;stroke-width:0.264583"
         id="path50107" />
      <path
         id="rect50604"
         style="opacity:1;fill:#ff0000;stroke-width:5.98431"
         d="m 319.44324,122.75111 h 1.84464 v 11.88834 h -1.84464 z m -7.99074,2.40884 v -2.40374 h 9.8347 v 2.40374 z M 119.49551,91.771652 h 2.40374 v 41.121698 h -2.40374 z m 180.3136,0 h 4.5508 v 30.882398 h -4.5508 z m 16.22949,22.663878 v 10.72442 h -4.5861 V 114.6472 q 0,-1.58749 -0.67027,-2.46944 -0.635,-0.88194 -1.79917,-0.88194 -1.19943,0 -2.25777,0.56444 -1.05833,0.52917 -2.32833,1.44639 v 11.8533 h -4.55081 v -24.51799 l 4.55081,-0.38806 v 9.10165 q 1.4464,-0.88194 2.9986,-1.37583 1.55223,-0.49389 2.78694,-0.49389 3.24556,0 4.55083,1.83444 1.30527,1.83444 1.30527,5.11526 z m 1.16451,25.68962 -1.95792,3.06917 h -1.88736 l 2.87514,-4.35681 -2.55764,-3.89819 1.51694,-0.59973 2.18722,3.45723 2.06376,-3.15737 h 1.85208 l -2.9457,4.46265 2.68112,4.09222 h -1.86973 z m -200.23008,-9.17223 q 0.635,0 1.55222,0.19403 0.91723,0.17639 1.49931,0.52917 l -0.52917,1.21708 q -0.79375,-0.28222 -1.28764,-0.38805 -0.49389,-0.10584 -1.27,-0.10584 -1.09361,0 -1.99319,0.61736 -0.88195,0.59973 -1.39348,1.71098 -0.51152,1.11125 -0.51152,2.52236 0,1.30528 0.44097,2.39889 0.45861,1.07597 1.30528,1.71097 0.8643,0.63501 2.01083,0.63501 1.48167,0 2.6282,-0.52917 l 0.65264,1.27 q -0.58209,0.29986 -1.51695,0.49389 -0.93486,0.21167 -1.69333,0.21167 -1.78153,0 -3.05153,-0.81139 -1.25236,-0.82903 -1.905,-2.22251 -0.635,-1.41111 -0.635,-3.13972 0,-1.79917 0.68791,-3.22792 0.70556,-1.44639 1.9932,-2.25778 1.30528,-0.82903 3.01625,-0.82903 z M 304.35992,91.771652 v 2.403791 h -184.8557 v -2.403791 z" />
    </g>
  </g>
</svg>
