<?xml version="1.0" encoding="iso-8859-1"?>
<!-- Generator: Adobe Illustrator 19.0.0, SVG Export Plug-In . SVG Version: 6.00 Build 0)  -->
<svg version="1.1" id="Capa_1" xmlns="http://www.w3.org/2000/svg" xmlns:xlink="http://www.w3.org/1999/xlink" x="0px" y="0px"
	 viewBox="0 0 512 512" style="enable-background:new 0 0 512 512;" xml:space="preserve">
<g>
	<path style="fill:#FF901E;" d="M44.561,81.527V61.661c0-8.183,6.634-14.817,14.817-14.817h60.274v49.501H59.378
		C51.195,96.345,44.561,89.711,44.561,81.527z"/>
	<path style="fill:#FF901E;" d="M44.561,173.73v-19.866c0-8.183,6.634-14.817,14.817-14.817h60.274v49.501H59.378
		C51.195,188.548,44.561,181.914,44.561,173.73z"/>
	<path style="fill:#FF901E;" d="M44.561,265.933v-19.866c0-8.183,6.634-14.817,14.817-14.817h60.274v49.501H59.378
		C51.195,280.75,44.561,274.117,44.561,265.933z"/>
	<path style="fill:#FF901E;" d="M44.561,358.136V338.27c0-8.183,6.634-14.817,14.817-14.817h60.274v49.501H59.378
		C51.195,372.953,44.561,366.319,44.561,358.136z"/>
	<path style="fill:#FF901E;" d="M44.561,450.339v-19.866c0-8.183,6.634-14.817,14.817-14.817h60.274v49.501H59.378
		C51.195,465.156,44.561,458.522,44.561,450.339z"/>
</g>
<g>
	<path style="fill:#FF6D3A;" d="M467.439,81.527V61.661c0-8.183-6.634-14.817-14.817-14.817h-60.275v49.501h60.275
		C460.805,96.345,467.439,89.711,467.439,81.527z"/>
	<path style="fill:#FF6D3A;" d="M467.439,173.73v-19.866c0-8.183-6.634-14.817-14.817-14.817h-60.275v49.501h60.275
		C460.805,188.548,467.439,181.914,467.439,173.73z"/>
	<path style="fill:#FF6D3A;" d="M467.439,265.933v-19.866c0-8.183-6.634-14.817-14.817-14.817h-60.275v49.501h60.275
		C460.805,280.75,467.439,274.117,467.439,265.933z"/>
	<path style="fill:#FF6D3A;" d="M467.439,358.136V338.27c0-8.183-6.634-14.817-14.817-14.817h-60.275v49.501h60.275
		C460.805,372.953,467.439,366.319,467.439,358.136z"/>
	<path style="fill:#FF6D3A;" d="M467.439,450.339v-19.866c0-8.183-6.634-14.817-14.817-14.817h-60.275v49.501h60.275
		C460.805,465.156,467.439,458.522,467.439,450.339z"/>
</g>
<path style="fill:#FFB124;" d="M375.767,512H136.233c-11.921,0-21.586-9.664-21.586-21.586V21.586
	C114.647,9.664,124.311,0,136.233,0h239.535c11.921,0,21.586,9.664,21.586,21.586v468.829C397.353,502.336,387.689,512,375.767,512z
	"/>
<path style="fill:#FF901E;" d="M375.767,0H136.233c-1.721,0-3.387,0.223-4.992,0.604h206.378c11.921,0,21.585,9.664,21.585,21.585
	v468.829c0,10.2-7.083,18.726-16.593,20.982h33.157c11.921,0,21.586-9.664,21.586-21.585V21.586C397.353,9.664,387.689,0,375.767,0z
	"/>
<path style="fill:#2D5872;" d="M180.682,433.054V78.946c0-7.13,5.78-12.911,12.911-12.911h124.814c7.13,0,12.911,5.78,12.911,12.911
	v354.108c0,7.13-5.78,12.911-12.911,12.911H193.593C186.463,445.965,180.682,440.184,180.682,433.054z"/>
<path style="fill:#1D4859;" d="M318.407,66.035h-38.086c7.13,0,12.911,5.78,12.911,12.911v354.108c0,7.13-5.78,12.91-12.911,12.91
	h38.086c7.13,0,12.911-5.78,12.911-12.91V78.946C331.318,71.816,325.537,66.035,318.407,66.035z"/>
<g>
	<path style="fill:#FFFCFD;" d="M285.56,326.158h-59.12c-2.117,0-3.833-1.716-3.833-3.833v-10.86c0-3.339,0.315-6.276,0.946-8.812
		c0.631-2.535,1.62-4.755,2.968-6.66c1.349-1.905,3.167-3.352,5.454-4.342c2.288-0.989,5.028-1.484,8.218-1.484
		c1.386,0,2.622,0.05,3.711,0.148c1.089,0.099,2.332,0.328,3.729,0.686c1.398,0.359,2.635,0.847,3.711,1.465
		c1.076,0.619,2.133,1.509,3.172,2.672s1.905,2.536,2.598,4.118c10.387-3.273,19.469-6.2,27.247-8.78
		c2.481-0.823,5.033,1.026,5.033,3.64v5.669c0,1.761-1.2,3.295-2.909,3.72l-27.85,6.921v2.226h26.926
		c2.117,0,3.833,1.716,3.833,3.833v5.84C289.393,324.442,287.677,326.158,285.56,326.158z M250.397,312.652v-3.859
		c0-1.039-0.346-1.93-1.039-2.672c-0.692-0.742-1.57-1.28-2.634-1.614c-1.063-0.334-2.041-0.569-2.931-0.705
		s-1.731-0.204-2.523-0.204s-1.608,0.056-2.449,0.167s-1.774,0.309-2.801,0.593c-1.026,0.285-1.867,0.755-2.523,1.41
		c-0.655,0.656-0.983,1.454-0.983,2.393v4.49h17.883V312.652z"/>
	<path style="fill:#FFFCFD;" d="M285.598,282.024l-60.52-13.079c-1.442-0.312-2.471-1.587-2.471-3.062v-6.89
		c0-1.476,1.03-2.752,2.473-3.063l60.52-13.045c1.951-0.421,3.793,1.067,3.793,3.063v6.852c0,1.502-1.066,2.793-2.542,3.077
		l-11.743,2.257v8.72l11.712,2.13c1.49,0.271,2.573,1.568,2.573,3.083v6.897C289.393,280.959,287.55,282.446,285.598,282.024z
		 M266.797,265.925v-6.901l-24.786,3.377L266.797,265.925z"/>
	<path style="fill:#FFFCFD;" d="M287.072,232.445h-62.143c-1.282,0-2.322-1.039-2.322-2.322v-11.876
		c0-1.141,0.829-2.112,1.955-2.292l42.57-6.811l-42.598-7.348c-1.113-0.192-1.927-1.158-1.927-2.288v-11.344
		c0-1.282,1.039-2.322,2.322-2.322h62.143c1.282,0,2.322,1.039,2.322,2.322v5.315c0,1.276-1.03,2.314-2.307,2.322l-44.666,0.282
		c4.824,0.742,12.652,2.041,23.487,3.896c9.475,1.623,16.652,2.82,21.53,3.591c1.128,0.178,1.957,1.151,1.957,2.293v6.151
		c0,1.129-0.812,2.094-1.925,2.287l-45.345,7.866l44.963,0.282c1.276,0.008,2.307,1.045,2.307,2.322v5.352
		C289.393,231.405,288.354,232.445,287.072,232.445z"/>
</g>
<g>
</g>
<g>
</g>
<g>
</g>
<g>
</g>
<g>
</g>
<g>
</g>
<g>
</g>
<g>
</g>
<g>
</g>
<g>
</g>
<g>
</g>
<g>
</g>
<g>
</g>
<g>
</g>
<g>
</g>
</svg>
