<?xml version="1.0" encoding="UTF-8" standalone="no"?>
<!-- Created with Inkscape (http://www.inkscape.org/) -->

<svg
   width="3800"
   height="3800"
   viewBox="0 0 1005.4167 1005.4167"
   version="1.1"
   id="svg5"
   inkscape:version="1.2 (dc2aedaf03, 2022-05-15)"
   inkscape:export-filename="logo2.0.png"
   inkscape:export-xdpi="96"
   inkscape:export-ydpi="96"
   sodipodi:docname="watermark2.0.svg"
   xmlns:inkscape="http://www.inkscape.org/namespaces/inkscape"
   xmlns:sodipodi="http://sodipodi.sourceforge.net/DTD/sodipodi-0.dtd"
   xmlns="http://www.w3.org/2000/svg"
   xmlns:svg="http://www.w3.org/2000/svg">
  <sodipodi:namedview
     id="namedview7"
     pagecolor="#505050"
     bordercolor="#eeeeee"
     borderopacity="1"
     inkscape:showpageshadow="false"
     inkscape:pageopacity="0"
     inkscape:pagecheckerboard="false"
     inkscape:deskcolor="#505050"
     inkscape:document-units="px"
     showgrid="true"
     showguides="true"
     inkscape:zoom="0.35890222"
     inkscape:cx="1898.8459"
     inkscape:cy="1900.239"
     inkscape:window-width="2880"
     inkscape:window-height="1620"
     inkscape:window-x="478"
     inkscape:window-y="251"
     inkscape:window-maximized="0"
     inkscape:current-layer="layer5">
    <inkscape:grid
       type="xygrid"
       id="grid130"
       dotted="false"
       snapvisiblegridlinesonly="false"
       visible="true"
       enabled="true"
       spacingx="0.26458333"
       spacingy="0.26458333"
       empspacing="10"
       originx="0"
       originy="0" />
    <sodipodi:guide
       position="0,1005.4167"
       orientation="0,3800"
       id="guide1061"
       inkscape:locked="false" />
    <sodipodi:guide
       position="1005.4167,1005.4167"
       orientation="3800,0"
       id="guide1063"
       inkscape:locked="false" />
    <sodipodi:guide
       position="1004.0021,0"
       orientation="0,-3800"
       id="guide1065"
       inkscape:locked="false" />
    <sodipodi:guide
       position="0,0"
       orientation="-3800,0"
       id="guide1067"
       inkscape:locked="false" />
  </sodipodi:namedview>
  <defs
     id="defs2">
    <inkscape:path-effect
       effect="offset"
       id="path-effect1694"
       is_visible="true"
       lpeversion="1.2"
       linejoin_type="miter"
       unit="px"
       offset="-20"
       miter_limit="4"
       attempt_force_join="false"
       update_on_knot_move="true" />
    <inkscape:path-effect
       effect="offset"
       id="path-effect1690"
       is_visible="true"
       lpeversion="1.2"
       linejoin_type="miter"
       unit="px"
       offset="-30"
       miter_limit="4"
       attempt_force_join="false"
       update_on_knot_move="true" />
    <inkscape:path-effect
       effect="offset"
       id="path-effect1686"
       is_visible="true"
       lpeversion="1.2"
       linejoin_type="miter"
       unit="px"
       offset="-40"
       miter_limit="4"
       attempt_force_join="false"
       update_on_knot_move="true" />
    <inkscape:path-effect
       effect="offset"
       id="path-effect1682"
       is_visible="true"
       lpeversion="1.2"
       linejoin_type="miter"
       unit="px"
       offset="-50"
       miter_limit="4"
       attempt_force_join="false"
       update_on_knot_move="true" />
    <inkscape:path-effect
       effect="offset"
       id="path-effect1663"
       is_visible="true"
       lpeversion="1.2"
       linejoin_type="miter"
       unit="px"
       offset="-20"
       miter_limit="4"
       attempt_force_join="false"
       update_on_knot_move="true" />
    <inkscape:path-effect
       effect="offset"
       id="path-effect1661"
       is_visible="true"
       lpeversion="1.2"
       linejoin_type="miter"
       unit="px"
       offset="-30"
       miter_limit="4"
       attempt_force_join="false"
       update_on_knot_move="true" />
    <inkscape:path-effect
       effect="offset"
       id="path-effect1657"
       is_visible="true"
       lpeversion="1.2"
       linejoin_type="miter"
       unit="px"
       offset="-40"
       miter_limit="4"
       attempt_force_join="false"
       update_on_knot_move="true" />
    <inkscape:path-effect
       effect="offset"
       id="path-effect1653"
       is_visible="true"
       lpeversion="1.2"
       linejoin_type="miter"
       unit="px"
       offset="-50"
       miter_limit="4"
       attempt_force_join="false"
       update_on_knot_move="true" />
    <inkscape:path-effect
       effect="offset"
       id="path-effect1647"
       is_visible="true"
       lpeversion="1.2"
       linejoin_type="miter"
       unit="px"
       offset="-30"
       miter_limit="4"
       attempt_force_join="false"
       update_on_knot_move="true" />
    <inkscape:path-effect
       effect="offset"
       id="path-effect1645"
       is_visible="true"
       lpeversion="1.2"
       linejoin_type="miter"
       unit="px"
       offset="-40"
       miter_limit="4"
       attempt_force_join="false"
       update_on_knot_move="true" />
    <inkscape:path-effect
       effect="offset"
       id="path-effect1641"
       is_visible="true"
       lpeversion="1.2"
       linejoin_type="miter"
       unit="px"
       offset="-50"
       miter_limit="4"
       attempt_force_join="false"
       update_on_knot_move="true" />
    <inkscape:path-effect
       effect="offset"
       id="path-effect1635"
       is_visible="true"
       lpeversion="1.2"
       linejoin_type="miter"
       unit="px"
       offset="-40"
       miter_limit="4"
       attempt_force_join="false"
       update_on_knot_move="true" />
    <inkscape:path-effect
       effect="offset"
       id="path-effect1633"
       is_visible="true"
       lpeversion="1.2"
       linejoin_type="miter"
       unit="px"
       offset="-50"
       miter_limit="4"
       attempt_force_join="false"
       update_on_knot_move="true" />
    <inkscape:path-effect
       effect="offset"
       id="path-effect1627"
       is_visible="true"
       lpeversion="1.2"
       linejoin_type="miter"
       unit="px"
       offset="-50"
       miter_limit="4"
       attempt_force_join="false"
       update_on_knot_move="true" />
    <inkscape:path-effect
       effect="offset"
       id="path-effect1542"
       is_visible="true"
       lpeversion="1.2"
       linejoin_type="miter"
       unit="px"
       offset="0"
       miter_limit="4"
       attempt_force_join="false"
       update_on_knot_move="true" />
  </defs>
  <g
     inkscape:label="Layer 1"
     inkscape:groupmode="layer"
     id="layer1"
     style="display:inline">
    <path
       id="path184"
       style="opacity:1;fill:#ff2a2a;stroke:none;stroke-width:0.483372"
       d="m 967.13592,310.33616 -48.85955,20.23804 a 449.79169,449.79169 0 0 1 34.23822,172.128 h 52.91671 A 502.70834,502.70834 0 0 0 967.13592,310.33616 Z" />
    <path
       id="path1214"
       style="opacity:1;fill:#ff5555;stroke:none;stroke-width:0.483372"
       d="m 858.1403,147.26811 -37.39558,37.39525 a 449.79169,449.79169 0 0 1 97.50253,145.92314 l 48.88867,-20.25034 A 502.70834,502.70834 0 0 0 858.1403,147.26811 Z" />
    <path
       id="path1218"
       style="opacity:1;fill:#ff8080;stroke:none;stroke-width:0.483372"
       d="m 695.03804,38.32371 -20.23847,48.85938 a 449.79169,449.79169 0 0 1 145.92293,97.5028 l 37.4178,-37.41778 A 502.70834,502.70834 0 0 0 695.03804,38.32371 Z" />
    <path
       id="path1222"
       style="opacity:1;fill:#ffaaaa;stroke:none;stroke-width:0.483372"
       d="m 502.65997,0.08874 -2.4e-4,52.8851 A 449.79169,449.79169 0 0 1 674.78768,87.21238 L 695.03804,38.32371 A 502.70834,502.70834 0 0 0 502.65997,0.08874 Z" />
    <path
       id="path1226"
       style="opacity:1;fill:#aaccff;stroke:none;stroke-width:0.483372"
       d="m 310.29361,38.384128 20.23805,48.859547 A 449.79169,449.79169 0 0 1 502.65973,53.005448 l -1e-4,-52.91671371 A 502.70834,502.70834 0 0 0 310.29361,38.384128 Z" />
    <path
       id="path1230"
       style="opacity:1;fill:#80b3ff;stroke:none;stroke-width:0.483372"
       d="m 147.22556,147.37974 37.39524,37.39558 A 449.79169,449.79169 0 0 1 330.54396,87.272785 L 310.29361,38.384128 A 502.70834,502.70834 0 0 0 147.22556,147.37974 Z" />
    <path
       id="path1234"
       style="opacity:1;fill:#5599ff;stroke:none;stroke-width:0.483372"
       d="m 38.28117,310.482 48.85937,20.23848 a 449.79169,449.79169 0 0 1 97.5028,-145.92294 l -37.41778,-37.4178 A 502.70834,502.70834 0 0 0 38.28117,310.482 Z" />
    <path
       id="path1238"
       style="opacity:1;fill:#2a7fff;stroke:none;stroke-width:0.483372"
       d="m 0.04619,502.86008 52.88511,2.3e-4 A 449.79169,449.79169 0 0 1 87.16983,330.73236 L 38.28117,310.482 A 502.70834,502.70834 0 0 0 0.04619,502.86008 Z" />
    <path
       id="path1242"
       style="opacity:1;fill:#ff0000;stroke:none;stroke-width:0.483372"
       d="m 967.13592,695.38446 -48.85955,-20.23804 a 449.79169,449.79169 0 0 0 34.23822,-172.128 h 52.91671 a 502.70834,502.70834 0 0 1 -38.29538,192.36604 z" />
    <path
       id="path1246"
       style="opacity:1;fill:#d40000;stroke:none;stroke-width:0.483372"
       d="m 858.1403,858.45251 -37.39558,-37.39525 a 449.79169,449.79169 0 0 0 97.50253,-145.92314 l 48.88867,20.25034 A 502.70834,502.70834 0 0 1 858.1403,858.45251 Z" />
    <path
       id="path1250"
       style="opacity:1;fill:#aa0000;stroke:none;stroke-width:0.483372"
       d="m 695.03804,967.39691 -20.23847,-48.85938 a 449.79169,449.79169 0 0 0 145.92293,-97.5028 l 37.4178,37.41778 a 502.70834,502.70834 0 0 1 -163.10226,108.9444 z" />
    <path
       id="path1254"
       style="opacity:1;fill:#800000;stroke:none;stroke-width:0.483372"
       d="m 502.65997,1005.6318 -2.4e-4,-52.88502 a 449.79169,449.79169 0 0 0 172.12795,-34.23854 l 20.25036,48.88867 a 502.70834,502.70834 0 0 1 -192.37807,38.23489 z" />
    <path
       id="path1258"
       style="opacity:1;fill:#003380;stroke:none;stroke-width:0.483372"
       d="m 310.29361,967.3365 20.23805,-48.85955 a 449.79169,449.79169 0 0 0 172.12807,34.23823 l -1e-4,52.91672 A 502.70834,502.70834 0 0 1 310.29361,967.3365 Z" />
    <path
       id="path1262"
       style="opacity:1;fill:#0044aa;stroke:none;stroke-width:0.483372"
       d="M 147.22556,858.34088 184.6208,820.9453 a 449.79169,449.79169 0 0 0 145.92316,97.50254 L 310.29361,967.3365 A 502.70834,502.70834 0 0 1 147.22556,858.34088 Z" />
    <path
       id="path1266"
       style="opacity:1;fill:#0055d4;stroke:none;stroke-width:0.483372"
       d="m 38.28117,695.23862 48.85937,-20.23848 a 449.79169,449.79169 0 0 0 97.5028,145.92294 l -37.41778,37.4178 A 502.70834,502.70834 0 0 1 38.28117,695.23862 Z" />
    <path
       id="path1270"
       style="opacity:1;fill:#0066ff;stroke:none;stroke-width:0.483372"
       d="m 0.04619,502.86054 52.88511,-2.3e-4 A 449.79169,449.79169 0 0 0 87.16983,674.98826 L 38.28117,695.23862 A 502.70834,502.70834 0 0 1 0.04619,502.86054 Z" />
  </g>
  <g
     inkscape:groupmode="layer"
     id="layer2"
     inkscape:label="Layer 2"
     style="display:inline">
    <path
       id="path1220"
       style="opacity:1;fill:#ffffff;stroke:none;stroke-width:0.881943"
       d="m 502.65977,79.458202 v 79.375518 a 343.95834,343.95834 0 0 1 131.6266,26.15603 343.95834,343.95834 0 0 1 5.2e-4,0 343.95834,343.95834 0 0 1 48.83991,25.03826 L 446.50196,446.65337 259.48391,259.63532 203.35762,203.50852 a 423.33334,423.33334 0 0 0 -91.74324,137.34924 423.33334,423.33334 0 0 0 -32.198553,162.00252 423.33334,423.33334 0 0 0 32.198553,162.00304 423.33334,423.33334 0 0 0 82.61873,127.60306 l 56.18831,-56.1883 A 343.95834,343.95834 0 0 1 184.94737,634.48687 h -5.1e-4 a 343.95834,343.95834 0 0 1 -26.15551,-131.62659 343.95834,343.95834 0 0 1 26.15551,-131.6266 h 5.1e-4 a 343.95834,343.95834 0 0 1 25.03724,-48.84456 L 437.14749,549.552 792.34804,194.35145 A 423.33334,423.33334 0 0 0 664.66229,111.65675 423.33334,423.33334 0 0 0 502.65977,79.458202 Z" />
  </g>
  <g
     inkscape:groupmode="layer"
     id="layer3"
     inkscape:label="Layer 3"
     style="display:inline">
    <path
       id="path1474"
       style="opacity:1;fill:#ffffff;stroke:none;stroke-width:0.881943"
       d="m 549.32049,474.79687 -74.83574,74.83575 231.00554,231.00554 a 343.95834,343.95834 0 0 1 -71.2034,40.09265 343.95834,343.95834 0 0 1 -5.2e-4,0 343.95834,343.95834 0 0 1 -118.39743,25.78757 v 79.37449 a 423.33334,423.33334 0 0 0 148.77335,-31.82907 423.33334,423.33334 0 0 0 137.3477,-91.74169 l 0.008,0.008 a 423.33334,423.33334 0 0 0 91.7851,-137.32082 423.33334,423.33334 0 0 0 31.87506,-148.76146 h -79.37552 a 343.95834,343.95834 0 0 1 -25.83305,118.38606 h 5.1e-4 a 343.95834,343.95834 0 0 1 -40.12158,71.191 z" />
  </g>
  <g
     inkscape:groupmode="layer"
     id="layer4"
     inkscape:label="Layer 4"
     style="display:none">
    <path
       id="path1672"
       style="opacity:1;fill:#ffffff;stroke:none;stroke-width:0.881943"
       d="m 846.30145,489.6204 h 79.40379 A 423.33334,423.33334 0 0 0 893.7624,340.73545 423.33334,423.33334 0 0 0 811.18979,212.92758 L 755.04236,269.075 a 343.95834,343.95834 0 0 1 65.38676,102.03641 l 3.7e-4,-3.6e-4 a 343.95834,343.95834 0 0 1 25.87196,118.50935 z m 12.45747,-13.22776 c -2.78731,-37.90898 -11.55705,-75.16399 -26.1091,-110.34577 -14.55638,-35.13217 -34.66024,-67.65328 -59.45035,-96.41936 l 37.47803,-37.47804 c 29.65177,33.74062 53.64231,72.09635 70.86093,113.64139 17.20705,41.60291 27.35118,85.73398 30.21774,130.60179 z" />
    <path
       id="path1674"
       style="opacity:1;fill:#ffffff;stroke:none;stroke-width:0.881943"
       d="m 868.39618,465.80824 31.85039,10e-6 c -3.66679,-39.834 -13.17135,-78.94147 -28.48755,-115.97269 -15.32177,-36.96836 -36.214,-71.3145 -61.74182,-102.05796 l -22.52262,22.52262 c 22.62753,27.71194 41.19994,58.55288 54.93208,91.69574 13.73051,33.19557 22.39497,68.17814 25.96952,103.81228 z m 6.92191,-7.93847 c -4.04925,-33.90973 -12.44695,-67.2141 -25.55806,-98.91218 -13.11073,-31.64305 -30.68768,-61.1081 -51.76218,-87.93532 l 11.36053,-11.36053 c 22.54125,28.38569 41.17222,59.68608 55.06582,93.20853 13.8924,33.5888 22.84435,68.94347 26.95868,104.9995 z" />
    <path
       id="path1676"
       style="opacity:1;fill:#ffffff;stroke:none;stroke-width:0.881943"
       d="m 808.75781,267.74609 c 20.60086,26.75511 37.83989,55.9377 50.77539,87.14844 12.93802,31.28129 21.38086,64.15413 25.7168,97.68555 h -5.38867 c -4.29968,-32.74563 -12.50997,-64.93724 -25.21289,-95.64844 -12.70127,-30.65477 -29.6219,-59.19814 -49.69727,-85.37891 z"
       inkscape:path-effect="#path-effect1682;#path-effect1686;#path-effect1690;#path-effect1694"
       inkscape:original-d="m 846.30145,489.6204 h 79.40379 A 423.33334,423.33334 0 0 0 893.7624,340.73545 423.33334,423.33334 0 0 0 811.18979,212.92758 L 755.04236,269.075 a 343.95834,343.95834 0 0 1 65.38676,102.03641 l 3.7e-4,-3.6e-4 a 343.95834,343.95834 0 0 1 25.87196,118.50935 z" />
    <path
       id="path1260"
       style="opacity:1;fill:#ffffff;stroke:none;stroke-width:0.881943"
       d="m 268.95155,755.16582 -56.14696,56.14696 a 423.33334,423.33334 0 0 0 127.86455,82.69056 423.33334,423.33334 0 0 0 148.76147,31.98616 V 846.58505 A 343.95834,343.95834 0 0 1 371.04455,820.66983 v 5.2e-4 a 343.95834,343.95834 0 0 1 -102.093,-65.50453 z m 0.54467,18.1622 c 28.77662,24.83477 61.32104,44.9769 96.48817,59.56432 35.13511,14.54928 72.34658,23.32961 110.21653,26.14104 v 53.00194 C 431.37573,909.14407 387.29026,898.98635 345.73808,881.78497 304.15316,864.53449 265.7748,840.5021 232.0215,810.80273 Z" />
    <path
       id="path1629"
       style="opacity:1;fill:#ffffff;stroke:none;stroke-width:0.881943"
       d="m 270.16595,787.62689 -22.52163,22.52162 c 30.7597,25.57408 65.1336,46.5065 102.14881,61.86134 36.97471,15.30645 76.03413,24.8198 115.82394,28.50782 v -31.8518 c -35.59538,-3.59522 -70.5359,-12.27038 -103.68153,-25.99583 -33.18175,-13.76388 -64.04486,-32.37359 -91.76959,-55.04315 z m 0.71882,10.50788 c 26.84105,21.11455 56.32887,38.72622 88.01375,51.86919 31.6457,13.10433 64.90942,21.51049 98.78105,25.57828 v 16.06621 c -36.01079,-4.13264 -71.31759,-13.09127 -104.8458,-26.97097 -33.57428,-13.92745 -64.90379,-32.59699 -93.30852,-55.18319 z" />
    <path
       id="path1649"
       style="opacity:1;fill:#ffffff;stroke:none;stroke-width:0.881943"
       d="m 271.41602,805.08789 c 26.19467,20.11345 54.75954,37.07129 85.45703,49.80469 30.65707,12.69494 62.80807,20.91338 95.51562,25.23047 v 5.38867 c -33.48549,-4.35195 -66.31019,-12.79967 -97.52734,-25.72266 -31.26659,-12.97016 -60.48186,-30.24434 -87.25781,-50.88867 z"
       inkscape:path-effect="#path-effect1653;#path-effect1657;#path-effect1661;#path-effect1663"
       inkscape:original-d="m 268.95155,755.16582 -56.14696,56.14696 a 423.33334,423.33334 0 0 0 127.86455,82.69056 423.33334,423.33334 0 0 0 148.76147,31.98616 V 846.58505 A 343.95834,343.95834 0 0 1 371.04455,820.66983 v 5.2e-4 a 343.95834,343.95834 0 0 1 -102.093,-65.50453 z" />
  </g>
  <g
     inkscape:groupmode="layer"
     id="layer5"
     inkscape:label="Layer 5">
    <path
       id="circle1159"
       style="opacity:1;fill:#ffffff;fill-opacity:1;stroke:none;stroke-width:0.528022;stroke-linecap:round"
       inkscape:transform-center-x="-393.41789"
       inkscape:transform-center-y="-26.15068"
       d="M 900.5678 455.33708 L 889.53695 458.29245 A 389.43307 389.43307 0 0 1 891.87427 489.78976 L 903.18108 489.78976 A 400.73315 400.73315 0 0 0 900.5678 455.33708 z " />
    <path
       id="circle1163"
       style="opacity:1;fill:#ffffff;stroke:none;stroke-width:0.498244;stroke-linecap:round;fill-opacity:1"
       d="M 779.03103 245.08634 L 771.20928 252.90809 A 366.83289 366.83289 0 0 1 790.27892 275.10983 L 799.37914 268.73761 A 378.13312 378.13312 0 0 0 779.03103 245.08634 z " />
    <path
       id="circle1167"
       style="opacity:1;fill:#ffffff;fill-opacity:1;stroke:none;stroke-width:0.468466;stroke-linecap:round"
       inkscape:transform-center-x="-348.27517"
       inkscape:transform-center-y="-23.198915"
       d="M 855.70387 460.93777 L 844.42704 463.95981 A 343.95834 343.95834 0 0 1 846.38661 489.78976 L 857.93267 489.78976 A 355.53387 355.53387 0 0 0 855.70387 460.93777 z " />
    <path
       id="path1320"
       style="opacity:1;fill:#ffffff;stroke:none;stroke-width:0.264583;stroke-linecap:round;stroke-dasharray:none;stroke-opacity:1;fill-opacity:1"
       inkscape:transform-center-x="-378.53993"
       inkscape:transform-center-y="-102.08444"
       d="M 874.89133 354.42024 L 864.63511 359.20289 A 389.43307 389.43307 0 0 1 888.15202 447.70705 L 899.14411 444.7615 A 400.73315 400.73315 0 0 0 874.89133 354.42024 z " />
    <path
       id="path1322"
       style="opacity:1;fill:#ffffff;stroke:none;stroke-width:0.264583;stroke-linecap:round;stroke-dasharray:none;stroke-opacity:1;fill-opacity:1"
       inkscape:transform-center-x="-344.59874"
       inkscape:transform-center-y="-189.42403"
       d="M 833.88866 277.3283 L 824.6329 283.80904 A 389.43307 389.43307 0 0 1 860.57386 349.41951 L 870.81974 344.64151 A 400.73315 400.73315 0 0 0 833.88866 277.3283 z " />
    <path
       id="path1324"
       style="opacity:1;fill:#ffffff;stroke:none;stroke-width:0.264583;stroke-linecap:round;stroke-dasharray:none;stroke-opacity:1;fill-opacity:1"
       d="M 841.81841 249.53103 L 832.55799 256.01487 A 412.03326 412.03326 0 0 1 865.49035 307.63601 L 875.74502 302.85388 A 423.33334 423.33334 0 0 0 841.81841 249.53103 z " />
    <path
       id="path1332"
       style="opacity:1;fill:#ffffff;stroke:none;stroke-width:0.498244;stroke-linecap:round;fill-opacity:1"
       d="M 802.49523 272.7198 L 793.68801 279.47804 A 366.83289 366.83289 0 0 1 825.39461 328.489 L 835.44361 323.80299 A 378.13312 378.13312 0 0 0 802.49523 272.7198 z " />
    <path
       id="path1334"
       style="opacity:1;fill:#ffffff;fill-opacity:1;stroke:none;stroke-width:0.468466;stroke-linecap:round"
       inkscape:transform-center-x="-267.2174"
       inkscape:transform-center-y="-224.32241"
       d="M 763.19633 260.92103 L 755.02422 269.09314 A 343.95834 343.95834 0 0 1 781.32494 301.21367 L 790.80344 294.57634 A 355.53387 355.53387 0 0 0 763.19633 260.92103 z " />
    <path
       id="path1336"
       style="opacity:1;fill:#ffffff;stroke:none;stroke-width:0.264583;stroke-linecap:round;stroke-dasharray:none;stroke-opacity:1;fill-opacity:1"
       d="M 868.98161 410.114 L 858.31043 412.97326 A 366.83289 366.83289 0 0 1 869.26222 489.78976 L 880.51218 489.78976 A 378.13312 378.13312 0 0 0 868.98161 410.114 z " />
    <path
       id="path1338"
       style="opacity:1;fill:#ffffff;stroke:none;stroke-width:0.264583;stroke-linecap:round;stroke-dasharray:none;stroke-opacity:1;fill-opacity:1"
       d="M 840.32341 333.205 L 830.28733 337.88481 A 366.83289 366.83289 0 0 1 855.56589 402.75166 L 866.22726 399.8955 A 378.13312 378.13312 0 0 0 840.32341 333.205 z " />
    <path
       id="path1350"
       style="opacity:1;fill:#ffffff;fill-opacity:1;stroke:none;stroke-width:0.468466;stroke-linecap:round"
       inkscape:transform-center-x="-305.09613"
       inkscape:transform-center-y="-167.7651"
       d="M 796.86715 303.25075 L 787.38607 309.88911 A 343.95834 343.95834 0 0 1 818.4555 366.53216 L 828.93754 361.64409 A 355.53387 355.53387 0 0 0 796.86715 303.25075 z " />
    <path
       id="path1352"
       style="opacity:1;fill:#ffffff;stroke:none;stroke-width:0.264583;stroke-linecap:round;stroke-dasharray:none;stroke-opacity:1;fill-opacity:1"
       inkscape:transform-center-x="-335.13518"
       inkscape:transform-center-y="-90.468975"
       d="M 833.01223 371.42179 L 822.5183 376.31503 A 343.95834 343.95834 0 0 1 843.02919 453.37751 L 854.28845 450.36012 A 355.53387 355.53387 0 0 0 833.01223 371.42179 z " />
    <path
       id="path3113"
       style="opacity:1;fill:#ffffff;stroke:none;stroke-width:0.264583;stroke-linecap:round;stroke-dasharray:none;stroke-opacity:1;fill-opacity:1"
       inkscape:transform-center-x="252.71609"
       inkscape:transform-center-y="328.94427"
       d="M 220.81134 803.30603 L 212.81647 811.30089 A 423.33334 423.33334 0 0 0 286.39235 866.68873 L 292.04265 856.90225 A 412.03326 412.03326 0 0 1 220.81134 803.30603 z " />
    <path
       id="path3115"
       style="opacity:1;fill:#ffffff;stroke:none;stroke-width:0.264583;stroke-linecap:round;stroke-dasharray:none;stroke-opacity:1;fill-opacity:1"
       inkscape:transform-center-x="167.82219"
       inkscape:transform-center-y="380.24088"
       d="M 301.21883 862.17583 L 295.56853 871.96128 A 423.33334 423.33334 0 0 0 369.98156 904.75721 L 373.84696 894.13718 A 412.03326 412.03326 0 0 1 301.21883 862.17583 z " />
    <path
       id="path3117"
       style="opacity:1;fill:#ffffff;stroke:none;stroke-width:0.264583;stroke-linecap:round;stroke-dasharray:none;stroke-opacity:1;fill-opacity:1"
       inkscape:transform-center-x="34.845429"
       inkscape:transform-center-y="392.0897"
       d="M 440.2057 887.14226 L 438.24252 898.27388 A 400.73315 400.73315 0 0 0 489.43061 903.25859 L 489.43061 891.95489 A 389.43307 389.43307 0 0 1 440.2057 887.14226 z " />
    <path
       id="path3119"
       style="opacity:1;fill:#ffffff;stroke:none;stroke-width:0.264583;stroke-linecap:round;stroke-dasharray:none;stroke-opacity:1;fill-opacity:1"
       inkscape:transform-center-x="27.678939"
       inkscape:transform-center-y="415.88341"
       d="M 453.5806 911.85187 L 452.10575 923.05377 A 423.33334 423.33334 0 0 0 489.43061 925.8784 L 489.43061 914.57625 A 412.03326 412.03326 0 0 1 453.5806 911.85187 z " />
    <path
       id="path3121"
       style="opacity:1;fill:#ffffff;fill-opacity:1;stroke:none;stroke-width:0.528022;stroke-linecap:round"
       inkscape:transform-center-x="260.25601"
       inkscape:transform-center-y="296.61272"
       d="M 236.78245 787.33491 L 228.78604 795.33133 A 400.73315 400.73315 0 0 0 254.49042 817.4292 L 261.37062 808.46282 A 389.43307 389.43307 0 0 1 236.78245 787.33491 z " />
    <path
       id="path3123"
       style="opacity:1;fill:#ffffff;fill-opacity:1;stroke:none;stroke-width:0.498244;stroke-linecap:round"
       inkscape:transform-center-x="24.712495"
       inkscape:transform-center-y="370.77874"
       d="M 459.98331 867.13005 L 458.53482 878.13248 A 378.13312 378.13312 0 0 0 489.43061 880.43983 L 489.43061 869.37797 A 366.83289 366.83289 0 0 1 459.98331 867.13005 z " />
    <path
       id="path3125"
       style="opacity:1;fill:#ffffff;fill-opacity:1;stroke:none;stroke-width:0.468466;stroke-linecap:round"
       inkscape:transform-center-x="230.42945"
       inkscape:transform-center-y="262.60797"
       d="M 268.94845 755.16892 L 260.78254 763.33483 A 355.53387 355.53387 0 0 0 282.02517 781.55645 L 289.05368 772.39629 A 343.95834 343.95834 0 0 1 268.94845 755.16892 z " />
    <path
       id="path3127"
       style="opacity:1;fill:#ffffff;stroke:none;stroke-width:0.264583;stroke-linecap:round;stroke-dasharray:none;stroke-opacity:1;fill-opacity:1"
       inkscape:transform-center-x="196.53372"
       inkscape:transform-center-y="339.55798"
       d="M 269.78096 814.88775 L 262.90231 823.85258 A 400.73315 400.73315 0 0 0 344.38829 870.92155 L 348.71309 860.48136 A 389.43307 389.43307 0 0 1 269.78096 814.88775 z " />
    <path
       id="path3129"
       style="opacity:1;fill:#ffffff;stroke:none;stroke-width:0.264583;stroke-linecap:round;stroke-dasharray:none;stroke-opacity:1;fill-opacity:1"
       inkscape:transform-center-x="110.53531"
       inkscape:transform-center-y="377.17865"
       d="M 358.49751 864.51522 L 354.17323 874.95437 A 400.73315 400.73315 0 0 0 427.81938 896.43989 L 429.78205 885.31085 A 389.43307 389.43307 0 0 1 358.49751 864.51522 z " />
    <path
       id="path3131"
       style="opacity:1;fill:#ffffff;stroke:none;stroke-width:0.264583;stroke-linecap:round;stroke-dasharray:none;stroke-opacity:1;fill-opacity:1"
       inkscape:transform-center-x="90.584565"
       inkscape:transform-center-y="406.29412"
       d="M 383.95642 897.30547 L 380.08689 907.93789 A 423.33334 423.33334 0 0 0 441.61492 921.66057 L 443.09028 910.4566 A 412.03326 412.03326 0 0 1 383.95642 897.30547 z " />
    <path
       id="path3133"
       style="opacity:1;fill:#ffffff;fill-opacity:1;stroke:none;stroke-width:0.498244;stroke-linecap:round"
       inkscape:transform-center-x="80.801428"
       inkscape:transform-center-y="362.25446"
       d="M 397.60623 854.22127 L 393.81422 864.64028 A 378.13312 378.13312 0 0 0 448.04192 876.7491 L 449.49092 865.74357 A 366.83289 366.83289 0 0 1 397.60623 854.22127 z " />
    <path
       id="path3135"
       style="opacity:1;fill:#ffffff;fill-opacity:1;stroke:none;stroke-width:0.468466;stroke-linecap:round"
       inkscape:transform-center-x="30.91432"
       inkscape:transform-center-y="347.102"
       d="M 448.10703 842.36773 L 446.09785 853.7629 A 355.53387 355.53387 0 0 0 489.43061 858.04533 L 489.43061 846.48841 A 343.95834 343.95834 0 0 1 448.10703 842.36773 z " />
    <path
       id="path3137"
       style="opacity:1;fill:#ffffff;stroke:none;stroke-width:0.264583;stroke-linecap:round;stroke-dasharray:none;stroke-opacity:1;fill-opacity:1"
       inkscape:transform-center-x="225.43537"
       inkscape:transform-center-y="293.28851"
       d="M 252.78923 771.32814 L 244.81969 779.29768 A 378.13312 378.13312 0 0 0 309.11654 827.34126 L 314.6423 817.77078 A 366.83289 366.83289 0 0 1 252.78923 771.32814 z " />
    <path
       id="path3139"
       style="opacity:1;fill:#ffffff;stroke:none;stroke-width:0.264583;stroke-linecap:round;stroke-dasharray:none;stroke-opacity:1;fill-opacity:1"
       inkscape:transform-center-x="149.66005"
       inkscape:transform-center-y="339.01787"
       d="M 323.81487 823.04953 L 318.29634 832.60812 A 378.13312 378.13312 0 0 0 383.71251 861.45081 L 387.49884 851.04834 A 366.83289 366.83289 0 0 1 323.81487 823.04953 z " />
    <path
       id="path3141"
       style="opacity:1;fill:#ffffff;fill-opacity:1;stroke:none;stroke-width:0.468466;stroke-linecap:round"
       inkscape:transform-center-x="97.93335"
       inkscape:transform-center-y="333.92755"
       d="M 375.89903 822.51985 L 371.47553 833.19982 A 355.53387 355.53387 0 0 0 435.67575 851.92581 L 437.68544 840.5265 A 343.95834 343.95834 0 0 1 375.89903 822.51985 z " />
    <path
       id="path3143"
       style="opacity:1;fill:#ffffff;stroke:none;stroke-width:0.264583;stroke-linecap:round;stroke-dasharray:none;stroke-opacity:1;fill-opacity:1"
       inkscape:transform-center-x="174.07278"
       inkscape:transform-center-y="300.64386"
       d="M 297.46867 778.8145 L 290.42259 787.99741 A 355.53387 355.53387 0 0 0 361.69266 829.16234 L 366.1172 818.4803 A 343.95834 343.95834 0 0 1 297.46867 778.8145 z " />
    <path
       id="path1312"
       style="opacity:1;fill:#ffffff;stroke:none;stroke-width:0.264583;stroke-linecap:round;stroke-dasharray:none;stroke-opacity:1;fill-opacity:1"
       d="M 912.88384 398.35038 L 901.9672 401.27578 A 412.03326 412.03326 0 0 1 914.45997 489.78976 L 925.76678 489.78976 A 423.33334 423.33334 0 0 0 912.88384 398.35038 z " />
    <path
       id="path1314"
       style="opacity:1;fill:#ffffff;stroke:none;stroke-width:0.264583;stroke-linecap:round;stroke-dasharray:none;stroke-opacity:1;fill-opacity:1"
       d="M 880.62896 312.25382 L 870.38359 317.03131 A 412.03326 412.03326 0 0 1 899.20871 391.0578 L 910.12329 388.13343 A 423.33334 423.33334 0 0 0 880.62896 312.25382 z " />
    <path
       id="path1316"
       style="opacity:1;fill:#ffffff;stroke:none;stroke-width:0.264583;stroke-linecap:round;stroke-dasharray:none;stroke-opacity:1;fill-opacity:1"
       inkscape:transform-center-x="-301.79545"
       inkscape:transform-center-y="-253.34196"
       d="M 795.16648 228.95089 L 787.17368 236.94368 A 389.43307 389.43307 0 0 1 818.57642 275.12999 L 827.83115 268.64976 A 400.73315 400.73315 0 0 0 795.16648 228.95089 z " />
    <path
       id="path1318"
       style="opacity:1;fill:#ffffff;stroke:none;stroke-width:0.264583;stroke-linecap:round;stroke-dasharray:none;stroke-opacity:1;fill-opacity:1"
       d="M 811.16137 212.956 L 803.16909 220.94828 A 412.03326 412.03326 0 0 1 826.11446 247.6066 L 835.3816 241.11811 A 423.33334 423.33334 0 0 0 811.16137 212.956 z " />
  </g>
</svg>
