<?xml version="1.0" encoding="UTF-8" standalone="no"?>
<!-- Created with Inkscape (http://www.inkscape.org/) -->

<svg
   width="197.30856"
   height="134.45802"
   viewBox="0 0 52.204555 35.575353"
   version="1.1"
   id="svg5"
   inkscape:version="1.1.1 (3bf5ae0d25, 2021-09-20, custom)"
   inkscape:export-filename="/media/DATA/youtube_channel_videos/Channel_art/water_mark.png"
   inkscape:export-xdpi="96"
   inkscape:export-ydpi="96"
   sodipodi:docname="water_mark.svg"
   xmlns:inkscape="http://www.inkscape.org/namespaces/inkscape"
   xmlns:sodipodi="http://sodipodi.sourceforge.net/DTD/sodipodi-0.dtd"
   xmlns="http://www.w3.org/2000/svg"
   xmlns:svg="http://www.w3.org/2000/svg">
  <sodipodi:namedview
     id="namedview7"
     pagecolor="#232323"
     bordercolor="#666666"
     borderopacity="1.0"
     inkscape:pageshadow="2"
     inkscape:pageopacity="0"
     inkscape:pagecheckerboard="0"
     inkscape:document-units="px"
     showgrid="false"
     units="px"
     fit-margin-top="0"
     fit-margin-left="0"
     fit-margin-right="0"
     fit-margin-bottom="0"
     inkscape:object-paths="false"
     inkscape:snap-intersection-paths="false"
     inkscape:snap-smooth-nodes="false"
     inkscape:snap-midpoints="false"
     inkscape:snap-object-midpoints="false"
     inkscape:snap-center="true"
     inkscape:snap-text-baseline="false"
     inkscape:object-nodes="true"
     inkscape:snap-others="false"
     showguides="false"
     inkscape:zoom="6.6132812"
     inkscape:cx="98.740698"
     inkscape:cy="67.213231"
     inkscape:window-width="3447"
     inkscape:window-height="2059"
     inkscape:window-x="195"
     inkscape:window-y="44"
     inkscape:window-maximized="0"
     inkscape:current-layer="layer2" />
  <defs
     id="defs2">
    <inkscape:path-effect
       effect="offset"
       id="path-effect2636"
       is_visible="true"
       lpeversion="1"
       linejoin_type="miter"
       unit="px"
       offset="9.4008824"
       miter_limit="4"
       attempt_force_join="false"
       update_on_knot_move="true" />
    <rect
       x="573.34094"
       y="1082.2865"
       width="387.85315"
       height="124.4848"
       id="rect24780" />
    <rect
       x="654.93823"
       y="1041.6174"
       width="418.30795"
       height="101.21484"
       id="rect17039" />
    <rect
       x="286.22406"
       y="423.67709"
       width="848.05048"
       height="662.29303"
       id="rect3883" />
  </defs>
  <g
     inkscape:label="Canvas"
     inkscape:groupmode="layer"
     id="layer1"
     sodipodi:insensitive="true"
     style="display:none"
     transform="translate(-85.422614,-108.53829)">
    <rect
       style="fill:#ffffff;stroke:none;stroke-width:5.29167"
       id="rect846"
       width="338.66666"
       height="341.3125"
       x="0"
       y="0" />
  </g>
  <g
     inkscape:groupmode="layer"
     id="layer2"
     inkscape:label="Contents"
     transform="translate(-85.422614,-108.53829)">
    <text
       xml:space="preserve"
       style="font-style:normal;font-weight:normal;font-size:3.07878px;line-height:1.25;font-family:sans-serif;fill:#000000;fill-opacity:1;stroke:none;stroke-width:0.0769696"
       x="96.474487"
       y="147.51418"
       id="text33939"><tspan
         sodipodi:role="line"
         id="tspan33937"
         style="stroke-width:0.0769696"
         x="96.474487"
         y="147.51418" /></text>
    <path
       id="rect981"
       style="fill:#ffffff;stroke-width:1.53934582;stroke-miterlimit:4;stroke-dasharray:none;fill-opacity:1"
       d="m 85.422614,108.53831 v 3.11592 0.45836 11.57627 l 2.098927,-1.21197 v 7.75966 l -2.098927,-1.21182 v 11.51493 h 7.717415 v -14.93543 h 0.166717 l 10.271544,14.93543 h 6.44035 v -3.95582 l -1.8838,-4.43418 v -0.0854 l 1.8838,0.23076 v -20.18245 h -7.71741 v 14.87965 h -0.22189 l -10.105132,-14.87965 -0.323814,-0.45836 h 0.778567 l 9.078219,13.36762 h 0.19964 l 0.0218,-13.36762 h 35.89855 v -3.11592 h -32.56284 l 0.20761,0.28563 -7.716667,0.81464 0.489329,-1.10027 z m 0.557279,0.66912 h 11.508172 l -0.446033,1.00316 h -9.131583 l -0.01669,11.70541 -1.913869,1.10509 z m 26.926017,2.90516 v 6.21831 h 8.5504 v 15.28209 l 2.48708,1.43612 -2.48708,1.43581 v 4.05474 0.45806 H 85.422614 v 3.11592 h 43.640016 v -3.11592 -0.45806 -13.80133 l -2.43762,-4.22221 h 2.43762 v -4.18522 h 8.5504 v -6.21831 h -5.3524 l 0.69333,2.5878 -7.49508,-2.00843 0.57953,-0.57937 h -3.82623 l -5.71576,3.29977 v -3.29977 z m -20.429444,4.07849 c 0.0095,-8e-5 0.01893,-8e-5 0.02841,0 0.283733,0.002 0.548405,0.0671 0.794051,0.19483 0.301298,0.15603 0.556853,0.38685 0.766541,0.69243 0.208186,0.30339 0.330821,0.62364 0.368011,0.96091 0.03829,0.33651 -0.02098,0.66535 -0.177842,0.98648 -0.155771,0.32039 -0.420208,0.60874 -0.79345,0.86486 -0.373239,0.25611 -0.737895,0.39956 -1.093962,0.4304 -0.354979,0.0301 -0.68322,-0.0329 -0.98452,-0.18897 -0.30021,-0.15678 -0.554292,-0.38678 -0.762481,-0.69017 -0.20969,-0.30558 -0.333079,-0.62697 -0.370417,-0.96423 -0.03535,-0.33692 0.02493,-0.66564 0.180698,-0.98602 0.157615,-0.32005 0.421941,-0.60738 0.792999,-0.862 0.373236,-0.25612 0.736877,-0.39983 1.091105,-0.431 0.04451,-0.004 0.08867,-0.006 0.132292,-0.007 0.0095,-1.5e-4 0.01905,-3.1e-4 0.02856,-3.1e-4 z m 30.806674,0.0764 h 2.93041 v 0.88951 h -1.82653 v 0.69874 h 1.6756 v 0.88951 h -1.6756 v 0.69889 h 1.81856 v 0.88936 h -2.92244 z m -30.649428,1.00075 v 1.6e-4 c -0.228774,0.005 -0.484305,0.10388 -0.766689,0.29765 -0.301214,0.2067 -0.491149,0.42359 -0.569607,0.65079 -0.07771,0.22829 -0.03895,0.45539 0.116056,0.6813 0.155165,0.22593 0.352695,0.3431 0.592907,0.35163 0.240966,0.01 0.511927,-0.0889 0.813144,-0.29555 0.30121,-0.20671 0.490695,-0.42415 0.568402,-0.65244 0.07846,-0.22721 0.04016,-0.45374 -0.114853,-0.67965 -0.155019,-0.22591 -0.352996,-0.34381 -0.593959,-0.35343 -0.0075,-3.1e-4 -0.01499,-1.6e-4 -0.02255,-4.6e-4 -0.0076,-8e-5 -0.01523,-1.6e-4 -0.02285,0 z m 2.792257,1.89117 1.617566,2.35735 -0.733316,0.50316 -0.99309,-1.44709 -0.57622,0.39537 0.894171,1.30308 -0.733317,0.50331 -0.894172,-1.30308 -1.309687,0.89868 -0.624476,-0.91025 z m 2.242194,3.26746 0.853581,1.24414 -2.593067,3.40711 -0.674086,-0.98211 0.509173,-0.6335 -0.759325,-1.10674 -0.774207,0.2473 -0.674086,-0.98227 z m 27.560567,0.7736 c 0.34148,0 0.6459,0.0615 0.91326,0.18461 0.26869,0.12309 0.48453,0.30244 0.64733,0.53804 0.16412,0.23559 0.26072,0.52145 0.28984,0.85764 h -1.11982 c -0.0159,-0.1853 -0.0834,-0.33491 -0.2025,-0.44874 -0.11779,-0.11383 -0.2833,-0.17063 -0.49639,-0.17063 -0.27795,0 -0.49034,0.0999 -0.63726,0.29976 -0.14692,0.19854 -0.22038,0.47449 -0.22038,0.82788 0,0.37325 0.0741,0.65454 0.22234,0.84381 0.14956,0.18928 0.3588,0.28382 0.62748,0.28382 0.20251,0 0.36392,-0.0503 0.48437,-0.15093 0.12045,-0.10191 0.19454,-0.23942 0.22234,-0.41281 l 1.11982,0.008 c -0.0132,0.17206 -0.0615,0.34747 -0.14492,0.52616 -0.0834,0.17735 -0.20185,0.34144 -0.35539,0.49233 -0.1522,0.14956 -0.34083,0.27008 -0.56584,0.3614 -0.22502,0.0913 -0.48648,0.13695 -0.78428,0.13695 -0.37325,0 -0.70819,-0.0801 -1.00467,-0.24023 -0.29515,-0.16015 -0.52863,-0.39566 -0.70069,-0.7067 -0.17075,-0.31104 -0.25617,-0.69161 -0.25617,-1.14162 0,-0.45266 0.0873,-0.83386 0.26203,-1.14357 0.17471,-0.31104 0.41038,-0.54593 0.70686,-0.70476 0.29649,-0.16015 0.62733,-0.24023 0.99264,-0.24023 z m -28.065982,0.46889 -1.335845,0.42544 0.4764,0.69408 0.877484,-1.09336 z m 2.338556,1.42905 0.993086,1.44709 c 0.17075,0.24882 0.27491,0.49777 0.31239,0.74654 0.0375,0.24878 0.007,0.48336 -0.0926,0.70386 -0.0991,0.22051 -0.26751,0.41236 -0.50542,0.57562 -0.23245,0.15951 -0.464264,0.24397 -0.69543,0.2533 -0.230417,0.0104 -0.449715,-0.0438 -0.658001,-0.1625 l -0.783376,1.53924 -0.678446,-0.98873 0.702198,-1.34862 -0.215726,-0.31435 -1.106589,0.75933 -0.624628,-0.91026 z m -0.102225,1.4089 -0.81194,0.55728 0.220235,0.32081 c 0.109338,0.15933 0.225499,0.26329 0.348769,0.31194 0.124366,0.0479 0.258118,0.0228 0.401084,-0.0753 0.144056,-0.0988 0.217804,-0.21596 0.221138,-0.35147 0.0033,-0.13551 -0.04971,-0.28294 -0.15905,-0.44228 z m 2.897041,2.66403 0.85373,1.24414 -2.59322,3.40711 -0.673935,-0.98211 0.509175,-0.6335 -0.759327,-1.10659 -0.774357,0.24715 -0.673936,-0.98227 z m 20.98702,1.07306 h 1.10388 v 1.58841 h 1.46122 v -1.58841 h 1.10389 v 4.06617 h -1.10389 v -1.58825 h -1.46122 v 1.58825 h -1.10388 z m -21.49229,0.16943 -1.33584,0.42544 0.47625,0.69408 0.87748,-1.09321 z m 2.33856,1.4292 0.62462,0.91011 -1.30968,0.89868 0.82682,1.20475 1.30969,-0.89853 0.62447,0.91011 -3.35269,2.30067 -0.62447,-0.91026 1.30968,-0.89868 -0.82682,-1.20475 -1.30954,0.89853 -0.62462,-0.91011 z m -14.826591,3.66267 3.07e-4,1.6e-4 c 0.188963,3.1e-4 0.324421,0.0498 0.423935,0.12913 0.09952,0.0794 0.163811,0.18995 0.205353,0.31615 0.08308,0.2524 0.07196,0.5644 0.0696,0.78563 -0.0033,0.29962 0.162887,0.50268 0.32607,0.70851 l 3.07e-4,6.2e-4 3.08e-4,6.2e-4 c 0.14501,0.17138 0.334013,0.42161 0.441524,0.7058 0.08623,0.22797 0.118602,0.47712 0.03773,0.72761 l 0.0045,0.031 0.13605,0.0869 0.10448,0.35237 0.156947,0.2264 -0.03383,0.1589 -0.479106,0.27917 -0.237975,0.23106 -0.206254,0.10312 -0.197987,0.0262 -0.217079,-0.11425 -0.09456,-0.16206 -0.429798,-0.0558 c -0.01481,-0.001 -0.03035,-0.003 -0.0448,-0.003 l -0.538788,0.0752 -0.126579,0.15695 -0.301565,0.0546 -0.433556,-0.16417 -0.48076,-0.071 -0.178594,-0.11425 -0.0035,-0.10163 0.04901,-0.23617 -0.03037,-0.31073 0.05577,-0.13395 0.293597,-0.14642 0.169424,-0.24354 0.0062,-0.0111 c -0.01562,-0.14904 0.0076,-0.3061 0.05953,-0.46212 0.118822,-0.35694 0.372173,-0.70418 0.552168,-0.91823 l 9.01e-4,-9e-4 4.61e-4,-7.7e-4 c 0.156932,-0.22309 0.204655,-0.40772 0.220687,-0.63485 v -6.1e-4 -6.2e-4 c 0.0068,-0.1617 -0.04678,-0.46218 0.0044,-0.73091 0.02554,-0.13437 0.07662,-0.25921 0.171979,-0.35448 0.09536,-0.0953 0.235859,-0.16289 0.447537,-0.17995 0.03359,-0.003 0.06566,-0.004 0.09636,-0.004 z m 33.011881,1.22385 h 5.88954 v 5.13938 1.37358 H 86.281007 v -1.37358 H 122.3147 Z" />
    <path
       inkscape:connector-curvature="0"
       style="color:#000000;font-style:normal;font-variant:normal;font-weight:normal;font-stretch:normal;font-size:medium;line-height:normal;font-family:'Bitstream Vera Sans';-inkscape-font-specification:'Bitstream Vera Sans';text-indent:0;text-align:start;text-decoration:none;text-decoration-line:none;letter-spacing:normal;word-spacing:normal;text-transform:none;writing-mode:lr-tb;direction:ltr;baseline-shift:baseline;text-anchor:start;display:inline;overflow:visible;visibility:visible;opacity:0.617004;fill:#ffffff;fill-opacity:1;stroke:none;stroke-width:23.7836;marker:none;enable-background:accumulate"
       d="m 89.29776,135.44685 c -0.03183,-6e-5 -0.06503,10e-4 -0.09965,0.004 -0.874988,0.0705 -0.642935,0.99485 -0.655921,1.3044 -0.01597,0.22637 -0.06188,0.40476 -0.217563,0.62606 -0.182912,0.21751 -0.440427,0.56956 -0.56242,0.93603 -0.05757,0.17296 -0.08497,0.34924 -0.05967,0.51609 -0.0079,0.007 -0.01551,0.0145 -0.02266,0.0222 -0.0537,0.0573 -0.09338,0.1268 -0.137594,0.17356 -0.04131,0.0412 -0.10016,0.0569 -0.164835,0.0801 -0.0647,0.0232 -0.135736,0.0574 -0.178851,0.14017 0,0 0,3e-5 -2.6e-5,5e-5 -7e-5,1e-4 -9.9e-5,2.9e-4 -1.43e-4,5.8e-4 v 0 c -0.03903,0.0729 -0.0274,0.15686 -0.01551,0.23464 0.01193,0.0778 0.024,0.15128 0.008,0.20115 -0.05121,0.13996 -0.05774,0.23676 -0.0217,0.30698 0.03612,0.0704 0.110394,0.10143 0.194339,0.11897 0.167889,0.0351 0.395252,0.0263 0.58084,0.12403 0.185589,0.0977 0.380067,0.1333 0.535224,0.0979 0.112494,-0.0257 0.203814,-0.0927 0.250711,-0.19575 0.121361,-5.8e-4 0.254531,-0.052 0.467852,-0.0637 0.144718,-0.0117 0.325495,0.0514 0.533437,0.0399 0.0054,0.0226 0.01329,0.0443 0.02409,0.0649 9.6e-5,1.4e-4 1.4e-4,5.8e-4 2.88e-4,5.8e-4 0.08061,0.16119 0.230385,0.23492 0.390001,0.22232 0.159829,-0.0126 0.329755,-0.10685 0.463995,-0.26808 0.13424,-0.16122 0.351552,-0.22705 0.495645,-0.31396 0.07205,-0.0435 0.130513,-0.0979 0.135028,-0.1769 0.0045,-0.079 -0.04186,-0.16752 -0.148497,-0.28589 l -2.9e-5,-2e-5 c -4.4e-5,-5e-5 -8.5e-5,-1e-4 -9.9e-5,-1.5e-4 -0.03504,-0.0396 -0.05175,-0.11298 -0.06972,-0.19113 -0.01795,-0.0781 -0.03799,-0.16235 -0.102109,-0.21695 v 0 c -9.9e-5,-9e-5 -2.91e-4,-1.4e-4 -5.82e-4,-2.9e-4 v 0 c -0.02551,-0.0222 -0.05204,-0.0373 -0.07875,-0.0475 0.08915,-0.26438 0.05417,-0.52766 -0.03582,-0.76556 -0.110444,-0.29198 -0.303259,-0.54639 -0.450514,-0.72043 -0.164832,-0.20791 -0.326051,-0.4053 -0.322874,-0.69684 0.0049,-0.44495 0.04894,-1.27011 -0.734045,-1.27118 z m 0.105999,0.68549 c 0.04443,0 0.08238,0.013 0.121358,0.0413 0.0396,0.0287 0.06812,0.0647 0.09112,0.11496 0.02257,0.049 0.03342,0.0969 0.03449,0.15371 0,0.001 0,0.003 5.82e-4,0.004 5.82e-4,0.0583 -0.0096,0.10793 -0.03172,0.1586 -0.01263,0.0289 -0.02714,0.0532 -0.04451,0.0742 -0.0059,-0.003 -0.01202,-0.006 -0.01839,-0.008 v 0 c -0.04402,-0.0189 -0.07779,-0.0309 -0.105925,-0.0406 0.01021,-0.0122 0.0187,-0.0268 0.02615,-0.045 0.01126,-0.0275 0.01684,-0.0543 0.01786,-0.0862 0,-0.001 5.82e-4,-0.002 5.82e-4,-0.004 5.82e-4,-0.0307 -0.0034,-0.0569 -0.01233,-0.0837 -0.0094,-0.0281 -0.02129,-0.0483 -0.03853,-0.0651 -0.01725,-0.0168 -0.03449,-0.0245 -0.05514,-0.0251 -8.73e-4,-6e-5 -0.002,-6e-5 -0.003,-6e-5 -0.0194,6e-5 -0.03629,0.007 -0.05374,0.0213 -0.01833,0.0154 -0.03193,0.0349 -0.04322,0.0622 -0.01126,0.0272 -0.01684,0.0543 -0.01786,0.0864 -1.4e-4,0.001 -1.4e-4,0.002 -1.4e-4,0.004 -5.82e-4,0.0177 8.73e-4,0.0339 0.0035,0.0496 -0.03975,-0.0198 -0.0772,-0.0333 -0.112361,-0.0417 -0.002,-0.0152 -0.0031,-0.0309 -0.0035,-0.0473 v -0.004 c -5.82e-4,-0.0581 0.009,-0.10794 0.03129,-0.1586 0.02237,-0.0507 0.05003,-0.0871 0.08899,-0.11667 0.03896,-0.0296 0.07728,-0.0432 0.122624,-0.0436 h 0.002 z m -0.608117,0.0481 c 0.02947,6e-5 0.05585,0.01 0.08313,0.0317 0.02959,0.0237 0.05195,0.0539 0.07069,0.0964 0.01873,0.0426 0.02874,0.0852 0.0315,0.1354 v 5.8e-4 c 0.0012,0.0211 0.0012,0.041 -5.82e-4,0.0602 -0.0058,0.002 -0.01155,0.003 -0.01713,0.005 -0.03178,0.0109 -0.05979,0.0258 -0.0842,0.042 0.0023,-0.0169 0.0026,-0.034 8.73e-4,-0.053 -1.43e-4,-0.001 -1.43e-4,-0.002 -1.43e-4,-0.003 -0.0026,-0.0253 -0.0079,-0.0466 -0.01684,-0.0681 -0.0096,-0.0224 -0.02022,-0.0381 -0.03427,-0.0502 -0.01271,-0.011 -0.02476,-0.0161 -0.038,-0.0159 -0.0012,0 -0.0026,7e-5 -0.0041,1.4e-4 -0.01492,0.001 -0.02723,0.008 -0.03896,0.0228 -0.01172,0.0143 -0.0194,0.0319 -0.02493,0.0554 -0.0055,0.0234 -0.007,0.0464 -0.0047,0.0728 0,10e-4 1.43e-4,0.002 1.43e-4,0.003 0.0026,0.0255 0.0077,0.0468 0.01684,0.0683 0.0094,0.0222 0.02022,0.0379 0.03428,0.05 0.0023,0.002 0.0047,0.004 0.007,0.006 -0.0146,0.0112 -0.02159,0.0164 -0.03357,0.0252 -0.0077,0.006 -0.01684,0.0123 -0.02746,0.0202 -0.02318,-0.0217 -0.04128,-0.049 -0.0571,-0.085 -0.01874,-0.0426 -0.02874,-0.0852 -0.03172,-0.1354 v -5.9e-4 c -0.0026,-0.0502 0.002,-0.0934 0.01597,-0.13816 0.01382,-0.0447 0.03236,-0.0771 0.05918,-0.10368 0.02682,-0.0266 0.05387,-0.04 0.08644,-0.0417 0.0026,-10e-5 0.0051,-1.4e-4 0.0076,-1.4e-4 z m 0.27657,0.34856 c 0.0685,-2.9e-4 0.150941,0.0222 0.250741,0.0864 0.0613,0.0399 0.109003,0.0432 0.218842,0.0902 l 9.9e-5,6e-5 9.6e-5,4e-5 c 0.05285,0.0217 0.08387,0.0499 0.09902,0.0797 0.01516,0.0298 0.01551,0.062 0.003,0.096 -0.02537,0.0679 -0.106348,0.13937 -0.21998,0.17486 l -9.9e-5,4e-5 -9.3e-5,4e-5 c -0.05541,0.018 -0.103724,0.0577 -0.160684,0.0903 -0.05696,0.0326 -0.121411,0.0588 -0.209047,0.0538 0,0 0,0 0,0 -0.07461,-0.004 -0.119209,-0.0297 -0.159532,-0.0621 -0.04032,-0.0324 -0.07547,-0.0731 -0.126926,-0.10334 l -9.9e-5,-8e-5 -9.3e-5,-9e-5 c -0.08289,-0.0469 -0.12814,-0.10104 -0.142339,-0.14801 -0.0142,-0.047 -8.73e-4,-0.0871 0.04025,-0.11789 0.04623,-0.0346 0.07835,-0.0582 0.09974,-0.0739 0.02127,-0.0156 0.0301,-0.0214 0.03686,-0.028 3.8e-5,-4e-5 7.6e-5,-7e-5 1.02e-4,-1e-4 l 2.6e-5,-4e-5 c 0.03474,-0.0329 0.09012,-0.0928 0.173594,-0.12153 0.02871,-0.01 0.06079,-0.0163 0.09668,-0.0164 z m 0.578921,0.41779 c 0.07464,0.29421 0.248233,0.71917 0.359805,0.92656 0.05931,0.11003 0.177295,0.34379 0.228268,0.62545 0.08434,5.8e-4 0.166656,0.0285 0.242441,0.0643 0.213937,0.10418 0.293061,0.19477 0.255016,0.31841 -0.01254,-5.9e-4 -0.02487,-5.9e-4 -0.03688,-1e-4 -0.0012,2e-5 -0.0023,6e-5 -0.0033,9e-5 0.03098,-0.098 -0.03765,-0.17029 -0.220538,-0.25304 -0.189687,-0.0834 -0.340841,-0.0752 -0.366388,0.0941 -0.0017,0.009 -0.003,0.0179 -0.004,0.0271 -0.01417,0.005 -0.02842,0.0112 -0.04271,0.019 -0.08907,0.0487 -0.137687,0.13717 -0.164724,0.24563 -0.02703,0.10838 -0.03477,0.2394 -0.04222,0.38668 v 6e-5 c -0.0045,0.0741 -0.035,0.17422 -0.06588,0.28032 -0.310738,0.22165 -0.742013,0.31768 -1.108181,0.0678 -0.02484,-0.0393 -0.05328,-0.0781 -0.08258,-0.11651 -0.01871,-0.0245 -0.03793,-0.0488 -0.05704,-0.0728 0.03759,1e-5 0.06954,-0.006 0.09537,-0.0178 0.03211,-0.0146 0.05467,-0.0379 0.06583,-0.068 0.02234,-0.06 -9.6e-5,-0.14476 -0.07156,-0.24149 -0.07146,-0.0967 -0.157833,-0.24056 -0.335683,-0.34964 0,0 -2.9e-5,0 -2.9e-5,-2e-5 -0.04741,-0.0297 -0.08375,-0.091 -0.08693,-0.20344 0.0056,-0.20016 0.01876,-0.36963 0.09902,-0.56057 0.116878,-0.26495 0.361358,-0.72441 0.380776,-1.09061 0.01,0.007 0.04441,0.0305 0.05974,0.0392 3.2e-5,4e-5 6.9e-5,4e-5 9.8e-5,4e-5 0.04485,0.0264 0.07853,0.065 0.122162,0.10008 0.04372,0.0351 0.09832,0.0655 0.180829,0.0703 v 0 c 0.0963,0.006 0.16969,-0.0243 0.229821,-0.0586 0.06004,-0.0343 0.108009,-0.0723 0.153452,-0.0872 7e-5,-4e-5 9.9e-5,-4e-5 1.39e-4,-6e-5 0.09603,-0.03 0.172376,-0.0832 0.215823,-0.14517 z m 0.614234,1.66992 c 0.09378,-0.003 0.207343,0.0518 0.258915,0.0749 0.138807,0.0641 0.150458,0.13056 0.112565,0.21125 -0.03194,0.0609 -0.214834,0.19531 -0.334505,0.16831 -0.157702,-0.0493 -0.162435,-0.25199 -0.146898,-0.35609 0.0083,-0.0707 0.0512,-0.0981 0.109923,-0.0983 z m -0.161382,0.20468 c 0.0079,0.12731 0.07083,0.25714 0.182223,0.28525 0.1219,0.0321 0.297647,-0.0725 0.371852,-0.15778 0.01516,-0.0208 0.01699,-0.0374 0.03103,-0.0378 0.06509,-0.001 0.150016,0.008 0.199534,0.0506 0.04952,0.0427 0.08217,0.12435 0.09984,0.20124 0.01766,0.0769 0.01987,0.15905 0.09737,0.24549 0.07752,0.0864 0.119326,0.18537 0.116539,0.23415 -0.0026,0.0488 -0.04614,0.10896 -0.111357,0.14829 -0.130374,0.0786 -0.350942,0.14193 -0.498488,0.32065 -0.128119,0.15247 -0.314182,0.2426 -0.45177,0.25346 -0.137585,0.0109 -0.283732,-0.0737 -0.353713,-0.21415 l -1.4e-4,-2.9e-4 -1.43e-4,-2.9e-4 c -0.04342,-0.0826 -0.01812,-0.20715 0.01847,-0.34463 0.03658,-0.13748 0.08623,-0.29742 0.09327,-0.41215 v -1.4e-4 -1.4e-4 c 0.0074,-0.147 0.0272,-0.31005 0.05192,-0.40911 0.02467,-0.0991 0.0838,-0.15458 0.152692,-0.19228 0.0032,-0.002 -0.0023,0.0313 8.73e-4,0.0297 z m -2.198772,-0.008 c 0.07799,0.0118 0.160439,0.0967 0.225961,0.18555 0.06552,0.0889 0.129379,0.20874 0.185972,0.32875 0.0566,0.12 0.170098,0.22548 0.260157,0.34339 0.09007,0.11791 0.146767,0.2406 0.13632,0.36354 -0.01044,0.12294 -0.109152,0.23305 -0.242941,0.26361 -0.133751,0.0306 -0.325181,0.003 -0.515994,-0.0974 -0.190816,-0.10044 -0.408957,-0.0856 -0.561859,-0.11749 -0.07647,-0.016 -0.162481,-0.0573 -0.185385,-0.10194 -0.02289,-0.0446 -0.02775,-0.12967 0.0088,-0.23374 0.03657,-0.10407 0.02164,-0.18674 0.0099,-0.26299 -0.0117,-0.0762 -0.02609,-0.14704 0.0038,-0.20356 0.02981,-0.0565 0.09603,-0.11272 0.156718,-0.13448 0.06068,-0.0218 0.123968,-0.0273 0.178938,-0.0838 0.05497,-0.0565 0.09298,-0.12739 0.139165,-0.1767 0.06193,-0.0575 0.121292,-0.0844 0.200419,-0.0727 z"
       id="path3933"
       sodipodi:nodetypes="ccccscsccccccsccscscccccscsscccccccccscccccscccsccccsccsccccsccccccssccccsscccccccccccsscccccccsccsccccccccccccccsccscccssccccsccccccccccccssccccscssscccccccsccscccccccccccccscccsscscccscccsccccscscscsccsccccc" />
  </g>
</svg>
