<?xml version="1.0" encoding="UTF-8" standalone="no"?>
<!-- Created with Inkscape (http://www.inkscape.org/) -->

<svg
   width="3800"
   height="3800"
   viewBox="0 0 1005.4167 1005.4167"
   version="1.1"
   id="svg5"
   inkscape:version="1.1.2 (0a00cf5339, 2022-02-04, custom)"
   sodipodi:docname="watermark2.1.svg"
   inkscape:export-filename="watermark2.0.png"
   inkscape:export-xdpi="96"
   inkscape:export-ydpi="96"
   xmlns:inkscape="http://www.inkscape.org/namespaces/inkscape"
   xmlns:sodipodi="http://sodipodi.sourceforge.net/DTD/sodipodi-0.dtd"
   xmlns="http://www.w3.org/2000/svg"
   xmlns:svg="http://www.w3.org/2000/svg">
  <sodipodi:namedview
     id="namedview7"
     pagecolor="#505050"
     bordercolor="#eeeeee"
     borderopacity="1"
     inkscape:pageshadow="0"
     inkscape:pageopacity="0"
     inkscape:pagecheckerboard="0"
     inkscape:document-units="px"
     showgrid="false"
     units="px"
     width="1920px"
     inkscape:snap-intersection-paths="true"
     inkscape:zoom="0.15566256"
     inkscape:cx="1904.7612"
     inkscape:cy="1901.5491"
     inkscape:current-layer="svg5"
     inkscape:snap-nodes="true"
     inkscape:snap-others="false"
     inkscape:showpageshadow="2"
     inkscape:deskcolor="#505050"
     inkscape:window-width="1600"
     inkscape:window-height="837"
     inkscape:window-x="1592"
     inkscape:window-y="-8"
     inkscape:window-maximized="1" />
  <defs
     id="defs2">
    <inkscape:path-effect
       effect="offset"
       id="path-effect2715"
       is_visible="true"
       lpeversion="1.2"
       linejoin_type="miter"
       unit="px"
       offset="-20"
       miter_limit="4"
       attempt_force_join="false"
       update_on_knot_move="true" />
    <inkscape:path-effect
       effect="offset"
       id="path-effect2710"
       is_visible="true"
       lpeversion="1.2"
       linejoin_type="miter"
       unit="px"
       offset="-20"
       miter_limit="4"
       attempt_force_join="false"
       update_on_knot_move="true" />
    <inkscape:path-effect
       effect="offset"
       id="path-effect1977"
       is_visible="true"
       lpeversion="1.2"
       linejoin_type="miter"
       unit="px"
       offset="-50"
       miter_limit="4"
       attempt_force_join="false"
       update_on_knot_move="true" />
    <inkscape:path-effect
       effect="offset"
       id="path-effect1971"
       is_visible="true"
       lpeversion="1.2"
       linejoin_type="miter"
       unit="px"
       offset="-50"
       miter_limit="4"
       attempt_force_join="false"
       update_on_knot_move="true" />
    <inkscape:path-effect
       effect="offset"
       id="path-effect1967"
       is_visible="true"
       lpeversion="1.2"
       linejoin_type="miter"
       unit="px"
       offset="-4.6"
       miter_limit="4"
       attempt_force_join="false"
       update_on_knot_move="true" />
  </defs>
  <g
     inkscape:label="Layer 1"
     inkscape:groupmode="layer"
     id="layer1"
     transform="translate(34.391541,-16.651581)"
     style="display:inline">
    <path
       id="path1883"
       style="fill:#d40000;stroke-width:0.739276;stroke-dasharray:none"
       d="M 428.38722,890.67879 355.04846,860.3178 a 423.33334,423.33334 0 0 1 -91.80134,137.41883 l -0.25944,-0.25944 a 423.33334,423.33334 0 0 1 -0.0735,0.0756 l 56.37069,56.39921 a 502.70834,502.70834 0 0 0 109.1023,-163.27325 z"
       transform="rotate(-45)" />
    <path
       id="path1940"
       style="fill:#ff0000;stroke-width:0.739276;stroke-dasharray:none"
       d="m 823.68169,163.7408 -56.11544,56.13714 a 423.33334,423.33334 0 0 1 91.82748,137.40144 l -0.53847,0.22272 a 423.33334,423.33334 0 0 1 0.0413,0.0972 l 73.87818,-30.57953 A 502.70834,502.70834 0 0 0 823.68169,163.7408 Z" />
    <path
       id="path1942"
       style="fill:#ff5555;stroke-width:0.739276;stroke-dasharray:none"
       d="m 660.50819,54.738146 -30.36094,73.338674 a 423.33334,423.33334 0 0 1 137.419,91.80112 l -0.52761,0.52762 a 423.33334,423.33334 0 0 1 0.0749,0.0739 L 823.7814,163.84053 A 502.70834,502.70834 0 0 0 660.50819,54.738146 Z" />
    <path
       id="path1944"
       style="fill:#ff8080;stroke-width:0.739276;stroke-dasharray:none"
       d="m 468.04241,16.476398 0.0155,79.375003 a 423.33334,423.33334 0 0 1 162.08934,32.225419 l -0.32143,0.77618 a 423.33334,423.33334 0 0 1 0.0971,0.0398 L 660.63893,54.79189 A 502.70834,502.70834 0 0 0 468.04241,16.476398 Z" />
    <path
       id="path1946"
       style="fill:#5599ff;stroke-width:0.739276;stroke-dasharray:none"
       d="M 468.18297,16.476398 A 502.70834,502.70834 0 0 0 275.5849,54.781038 l 30.38987,73.326792 A 423.33334,423.33334 0 0 1 468.05791,95.851401 v 0.820621 a 423.33334,423.33334 0 0 1 0.10439,5.17e-4 z" />
    <path
       id="path1948"
       style="fill:#2a7fff;stroke-width:0.739276;stroke-dasharray:none"
       d="M 275.5849,54.781038 A 502.70834,502.70834 0 0 0 112.30597,163.87412 l 56.13766,56.11544 a 423.33334,423.33334 0 0 1 137.40144,-91.82799 l 0.33124,0.79944 a 423.33334,423.33334 0 0 1 0.0961,-0.0398 z" />
    <path
       id="path1950"
       style="fill:#0066ff;stroke-width:0.739276;stroke-dasharray:none"
       d="M 112.30597,163.87412 A 502.70834,502.70834 0 0 0 3.2040983,327.14685 L 76.542777,357.50779 A 423.33334,423.33334 0 0 1 168.34441,220.08878 l 0.42685,0.42685 a 423.33334,423.33334 0 0 1 0.076,-0.0718 z" />
    <path
       id="path1952"
       style="fill:#0055d4;stroke-width:0.739276;stroke-dasharray:none"
       d="m 3.2040983,327.14685 a 502.70834,502.70834 0 0 0 -38.3154923,192.596 l 79.375003,-0.0155 A 423.33334,423.33334 0 0 1 76.489033,357.63801 l 0.528133,0.2186 a 423.33334,423.33334 0 0 1 0.03876,-0.0972 z" />
    <path
       id="path1954"
       style="fill:#0044aa;stroke-width:0.739276;stroke-dasharray:none"
       d="M -35.111394,519.60178 A 502.70834,502.70834 0 0 0 3.1932462,712.20036 L 76.520039,681.81049 A 423.33334,423.33334 0 0 1 44.263609,519.72735 h 0.36897 a 423.33334,423.33334 0 0 1 0.0026,-0.10542 z" />
    <path
       id="path1956"
       style="fill:#003380;stroke-width:0.739276;stroke-dasharray:none"
       d="M 76.825447,681.57071 3.1395027,712.07014 A 502.70834,502.70834 0 0 0 112.23207,875.34907 l 56.11544,-56.13766 a 423.33334,423.33334 0 0 1 -10.98692,-11.72642 423.33334,423.33334 0 0 1 -4.52324,-4.82761 423.33334,423.33334 0 0 1 -10.98228,-12.85917 423.33334,423.33334 0 0 1 -4.49275,-5.47305 423.33334,423.33334 0 0 1 -10.68513,-13.92473 423.33334,423.33334 0 0 1 -3.04891,-4.25349 423.33334,423.33334 0 0 1 -47.108241,-84.33645 l 0.345715,-0.14315 a 423.33334,423.33334 0 0 1 -0.04031,-0.0966 z" />
    <path
       id="path1958"
       style="fill:#002255;stroke-width:0.739276;stroke-dasharray:none"
       d="m 168.44466,819.1649 -56.21259,56.18417 a 502.70834,502.70834 0 0 0 163.27325,109.10187 l 30.36093,-73.33868 a 423.33334,423.33334 0 0 1 -4.98574,-2.25774 423.33334,423.33334 0 0 1 -13.30875,-6.02754 423.33334,423.33334 0 0 1 -9.87485,-4.70979 423.33334,423.33334 0 0 1 -14.67507,-7.84139 423.33334,423.33334 0 0 1 -14.46268,-8.39277 423.33334,423.33334 0 0 1 -12.68037,-7.88324 423.33334,423.33334 0 0 1 -10.53476,-7.24038 423.33334,423.33334 0 0 1 -9.78389,-7.00991 423.33334,423.33334 0 0 1 -10.66654,-8.18451 423.33334,423.33334 0 0 1 -8.66665,-7.11171 423.33334,423.33334 0 0 1 -10.61848,-9.06973 423.33334,423.33334 0 0 1 -7.00939,-6.56446 423.33334,423.33334 0 0 1 -10.15183,-9.50795 l 0.0698,-0.0698 a 423.33334,423.33334 0 0 1 -0.0724,-0.0765 z" />
    <path
       id="path1960"
       style="fill:#00112b;stroke-width:0.739276;stroke-dasharray:none"
       d="m 305.82026,910.94948 -30.44517,73.44771 a 502.70834,502.70834 0 0 0 192.596,38.31551 l -0.0155,-79.37502 a 423.33334,423.33334 0 0 1 -0.0108,-5.1e-4 423.33334,423.33334 0 0 1 -24.97574,-0.81287 423.33334,423.33334 0 0 1 -8.05532,-0.6134 423.33334,423.33334 0 0 1 -17.25735,-1.69706 423.33334,423.33334 0 0 1 -8.83408,-1.12551 423.33334,423.33334 0 0 1 -18.09347,-2.98483 423.33334,423.33334 0 0 1 -6.83524,-1.22525 423.33334,423.33334 0 0 1 -23.61975,-5.50509 423.33334,423.33334 0 0 1 -7.94784,-2.27428 423.33334,423.33334 0 0 1 -16.05173,-4.86895 423.33334,423.33334 0 0 1 -9.44439,-3.22771 423.33334,423.33334 0 0 1 -14.71486,-5.53817 423.33334,423.33334 0 0 1 -6.24872,-2.35179 l 0.0512,-0.12402 a 423.33334,423.33334 0 0 1 -0.0971,-0.0388 z" />
    <path
       id="path1962"
       style="fill:#2b0000;stroke-width:0.739276;stroke-dasharray:none"
       d="m 630.03873,911.08125 a 423.33334,423.33334 0 0 1 -4.84364,1.86914 423.33334,423.33334 0 0 1 -6.17378,2.3828 423.33334,423.33334 0 0 1 -23.97476,8.38915 423.33334,423.33334 0 0 1 -3.02204,0.99891 423.33334,423.33334 0 0 1 -26.90327,7.20886 423.33334,423.33334 0 0 1 -6.57996,1.47846 423.33334,423.33334 0 0 1 -26.03355,4.92528 423.33334,423.33334 0 0 1 -1.82728,0.3173 423.33334,423.33334 0 0 1 -27.81071,3.13366 423.33334,423.33334 0 0 1 -6.77581,0.49971 423.33334,423.33334 0 0 1 -28.12955,1.05316 423.33334,423.33334 0 0 1 -0.006,0 423.33334,423.33334 0 0 1 -0.003,0 423.33334,423.33334 0 0 1 -0.1049,-0.004 l -0.0202,79.37912 A 502.70834,502.70834 0 0 0 660.4286,984.40805 Z" />
    <path
       id="path1964"
       style="fill:#550000;stroke-width:0.739276;stroke-dasharray:none"
       d="m 767.43965,819.25378 a 423.33334,423.33334 0 0 1 -9.79217,9.32656 423.33334,423.33334 0 0 1 -2.6541,2.52801 423.33334,423.33334 0 0 1 -21.80229,18.76217 423.33334,423.33334 0 0 1 -3.7114,2.89698 423.33334,423.33334 0 0 1 -20.89744,15.42335 423.33334,423.33334 0 0 1 -3.10161,2.18488 423.33334,423.33334 0 0 1 -23.94066,15.04301 423.33334,423.33334 0 0 1 -5.02295,2.84582 423.33334,423.33334 0 0 1 -22.38417,11.83028 423.33334,423.33334 0 0 1 -3.43235,1.72806 423.33334,423.33334 0 0 1 -20.66178,9.25835 l -0.0858,-0.2067 a 423.33334,423.33334 0 0 1 -0.0961,0.0424 l 30.44156,73.54539 A 502.70834,502.70834 0 0 0 823.57731,875.36922 Z" />
    <path
       id="path1966"
       style="fill:#800000;stroke-width:0.739276;stroke-dasharray:none"
       d="m 859.24128,681.83477 a 423.33334,423.33334 0 0 1 -24.07812,48.7252 423.33334,423.33334 0 0 1 -1.01234,1.788 423.33334,423.33334 0 0 1 -16.23673,25.83977 423.33334,423.33334 0 0 1 -0.65836,0.93534 423.33334,423.33334 0 0 1 -17.20309,23.30969 423.33334,423.33334 0 0 1 -1.80609,2.31407 423.33334,423.33334 0 0 1 -19.24068,22.35884 423.33334,423.33334 0 0 1 -2.32389,2.44068 423.33334,423.33334 0 0 1 -9.24233,9.70742 l -0.23255,-0.23254 a 423.33334,423.33334 0 0 1 -0.0739,0.0739 l 56.34489,56.37383 A 502.70834,502.70834 0 0 0 932.57996,712.19571 Z" />
    <path
       id="path1968"
       style="fill:#aa0000;stroke-width:0.739276;stroke-dasharray:none"
       d="m 970.89545,519.59971 -79.375,0.016 a 423.33334,423.33334 0 0 1 -32.22543,162.08882 l -0.28628,-0.11834 a 423.33334,423.33334 0 0 1 -0.0419,0.0961 l 73.61308,30.51338 a 502.70834,502.70834 0 0 0 38.31549,-192.596 z" />
  </g>
  <g
     inkscape:groupmode="layer"
     id="layer2"
     inkscape:label="Layer 2"
     style="display:inline">
    <path
       id="path2425"
       style="opacity:1;fill:#ffffff;stroke:none;stroke-width:0.448833;stroke-dasharray:none"
       d="m -105.83334,502.40088 -79.37655,0.0615 a 317.5,317.5 0 0 1 -43.97251,161.29094 l -182.15013,-182.15013 -5.2e-4,-0.24805 -12.39562,-12.1481 -22.73918,-22.73918 -0.22945,0.22945 -0.11472,-0.11266 168.49567,-168.49566 a 317.5,317.5 0 0 1 0.0233,0.0222 l 56.10407,-56.14955 a 396.875,396.875 0 0 0 -551.30538,-9.05371 l 56.15781,56.15782 a 317.5,317.5 0 0 1 375.67734,-39.88749 l -207.78216,207.78215 56.1263,56.12681 h 5.1e-4 l 0.11369,0.11369 82.01153,82.01153 198.28145,198.28196 a 396.875,396.875 0 0 0 107.0746,-271.09353 z"
       transform="rotate(-90)" />
  </g>
  <g
     inkscape:groupmode="layer"
     id="layer3"
     inkscape:label="Layer 3"
     style="display:inline">
    <path
       style="opacity:1;fill:#ffffff;stroke:none;stroke-width:0.478723;stroke-dasharray:none"
       d="m 556.19088,468.12596 -74.83575,74.83575 212.7865,212.7865 A 317.5,317.5 0 0 1 515.5763,820.00476 v 79.4551 A 396.875,396.875 0 0 0 783.09951,783.5832 396.875,396.875 0 0 0 899.24437,516.1773 h -79.77705 a 317.5,317.5 0 0 1 -52.71978,162.50533 z"
       id="path2706" />
  </g>
  <g
     inkscape:groupmode="layer"
     id="layer4"
     inkscape:label="Layer 4"
     style="display:none">
    <path
       id="path2524"
       style="display:inline;opacity:1;fill:#ffffff;stroke:none;stroke-width:0.478723;stroke-dasharray:none"
       d="m -231.87526,792.44158 -56.23223,-56.23223 a 317.5,317.5 0 0 1 -201.61147,83.60524 v 79.43649 a 396.875,396.875 0 0 0 257.8437,-106.8095 z m -7.69876,-0.21497 c -67.35175,61.25356 -153.91637,97.11316 -244.85379,101.42947 v -68.88056 c 72.67084,-4.21774 141.75758,-32.86801 196.08778,-81.31442 z"
       transform="rotate(-90)" />
    <path
       id="path2593"
       style="display:inline;opacity:1;fill:#ffffff;stroke:none;stroke-width:0.478723;stroke-dasharray:none"
       d="m 724.30138,14.259665 v 0.177588 l 29.17999,29.125176 h 0.14689 z m 0,303.396445 v 79.40452 A 396.875,396.875 0 0 0 981.81652,290.09926 l -56.25121,-56.25121 a 317.5,317.5 0 0 1 -201.26393,83.80806 z m 5.29037,4.95127 c 72.57483,-4.3468 141.53265,-33.0575 195.74592,-81.50197 l 48.78154,48.78155 c -67.24659,61.23556 -153.68557,97.13969 -244.52746,101.56978 z"
       transform="rotate(45)" />
  </g>
</svg>
