<?xml version="1.0" encoding="iso-8859-1"?>
<!-- Generator: Adobe Illustrator 19.0.0, SVG Export Plug-In . SVG Version: 6.00 Build 0)  -->
<svg xmlns="http://www.w3.org/2000/svg" xmlns:xlink="http://www.w3.org/1999/xlink" version="1.1" id="Layer_1" x="0px" y="0px" viewBox="0 0 512 512" style="enable-background:new 0 0 512 512;" xml:space="preserve">
<path style="fill:#EAC71C;" d="M370.416,367.658c0.593-0.606,1.183-1.214,1.765-1.83c0.37-0.39,0.734-0.787,1.1-1.181  c0.55-0.593,1.095-1.188,1.635-1.788c0.374-0.416,0.743-0.835,1.113-1.254c0.522-0.594,1.04-1.189,1.553-1.79  c0.369-0.431,0.736-0.865,1.099-1.3c0.503-0.601,1.001-1.207,1.496-1.816c0.359-0.442,0.716-0.883,1.07-1.328  c0.493-0.621,0.978-1.247,1.462-1.875c0.34-0.441,0.682-0.881,1.018-1.325c0.493-0.654,0.977-1.315,1.461-1.976  c0.313-0.428,0.628-0.855,0.937-1.286c0.515-0.72,1.019-1.449,1.522-2.176c0.264-0.382,0.532-0.759,0.793-1.143  c0.651-0.963,1.29-1.933,1.921-2.91c0.102-0.158,0.207-0.311,0.308-0.469c0.729-1.136,1.442-2.281,2.143-3.437  c0.214-0.354,0.421-0.714,0.632-1.07c0.48-0.805,0.958-1.61,1.424-2.424c0.26-0.456,0.511-0.916,0.769-1.375  c0.403-0.724,0.807-1.447,1.2-2.176c0.27-0.5,0.531-1.006,0.796-1.508c0.367-0.698,0.732-1.398,1.09-2.103  c0.265-0.522,0.523-1.049,0.782-1.574c0.342-0.697,0.683-1.394,1.015-2.096c0.255-0.537,0.506-1.076,0.754-1.616  c0.323-0.7,0.641-1.405,0.954-2.111c0.242-0.545,0.481-1.091,0.717-1.638c0.307-0.715,0.607-1.435,0.905-2.157  c0.225-0.543,0.45-1.086,0.668-1.634c0.297-0.742,0.584-1.491,0.871-2.238c0.203-0.532,0.409-1.062,0.607-1.596  c0.294-0.795,0.575-1.595,0.858-2.398c0.172-0.494,0.352-0.984,0.521-1.48c0.317-0.933,0.62-1.873,0.922-2.813  c0.118-0.371,0.245-0.739,0.36-1.11c0.41-1.312,0.802-2.63,1.179-3.957c0.086-0.302,0.162-0.609,0.246-0.913  c0.285-1.028,0.566-2.059,0.83-3.096c0.126-0.494,0.241-0.991,0.361-1.485c0.21-0.853,0.418-1.706,0.613-2.565  c0.127-0.555,0.244-1.113,0.365-1.67c0.174-0.806,0.347-1.612,0.51-2.423c0.117-0.584,0.227-1.17,0.337-1.757  c0.151-0.792,0.296-1.585,0.434-2.381c0.104-0.599,0.201-1.198,0.297-1.8c0.128-0.793,0.251-1.587,0.367-2.385  c0.088-0.606,0.173-1.21,0.253-1.817c0.11-0.802,0.208-1.607,0.304-2.413c0.071-0.604,0.142-1.207,0.205-1.814  c0.088-0.824,0.166-1.649,0.242-2.476c0.055-0.593,0.111-1.185,0.158-1.779c0.069-0.863,0.126-1.727,0.181-2.594  c0.035-0.561,0.075-1.123,0.108-1.687c0.051-0.958,0.086-1.919,0.119-2.882c0.017-0.475,0.042-0.95,0.055-1.427  c0.038-1.44,0.06-2.885,0.06-4.334c0-15.176-2.115-29.858-6.065-43.768c-9.697-34.143-30.455-63.632-58.156-84.349  c-26.675-19.949-59.788-31.762-95.659-31.762H256l0,0c-35.871,0-68.983,11.814-95.659,31.762  c-27.701,20.717-48.459,50.206-58.156,84.349c-3.951,13.91-6.065,28.592-6.065,43.768c0,1.45,0.022,2.893,0.06,4.334  c0.013,0.478,0.038,0.952,0.055,1.427c0.034,0.963,0.069,1.923,0.119,2.882c0.03,0.564,0.071,1.125,0.108,1.687  c0.055,0.867,0.112,1.732,0.181,2.594c0.047,0.595,0.104,1.188,0.158,1.779c0.075,0.827,0.153,1.652,0.241,2.476  c0.065,0.606,0.136,1.209,0.207,1.814c0.095,0.806,0.196,1.61,0.303,2.413c0.081,0.607,0.166,1.212,0.254,1.817  c0.115,0.797,0.239,1.591,0.366,2.385c0.097,0.601,0.195,1.2,0.298,1.8c0.138,0.796,0.284,1.59,0.433,2.381  c0.111,0.586,0.219,1.172,0.337,1.757c0.161,0.811,0.336,1.618,0.51,2.423c0.12,0.557,0.238,1.115,0.364,1.67  c0.196,0.859,0.404,1.712,0.613,2.565c0.122,0.495,0.237,0.992,0.362,1.485c0.265,1.037,0.545,2.067,0.83,3.096  c0.084,0.303,0.161,0.61,0.247,0.913c0.376,1.326,0.769,2.645,1.179,3.957c0.115,0.372,0.242,0.74,0.36,1.11  c0.3,0.94,0.603,1.88,0.921,2.813c0.17,0.496,0.349,0.986,0.522,1.48c0.282,0.801,0.564,1.602,0.857,2.398  c0.198,0.535,0.403,1.064,0.607,1.596c0.286,0.748,0.573,1.496,0.87,2.238c0.218,0.548,0.443,1.091,0.668,1.634  c0.297,0.722,0.598,1.441,0.906,2.157c0.236,0.549,0.475,1.094,0.717,1.638c0.313,0.707,0.631,1.411,0.954,2.111  c0.25,0.54,0.499,1.079,0.754,1.616c0.333,0.702,0.673,1.4,1.015,2.096c0.259,0.525,0.517,1.051,0.782,1.574  c0.356,0.705,0.722,1.405,1.089,2.103c0.265,0.503,0.527,1.009,0.796,1.508c0.394,0.73,0.797,1.453,1.201,2.176  c0.256,0.458,0.508,0.919,0.769,1.375c0.466,0.814,0.943,1.62,1.423,2.424c0.212,0.356,0.418,0.716,0.632,1.07  c0.7,1.155,1.414,2.302,2.143,3.437c0.101,0.157,0.207,0.311,0.309,0.469c0.631,0.977,1.27,1.948,1.921,2.91  c0.261,0.383,0.529,0.762,0.793,1.143c0.503,0.728,1.007,1.456,1.521,2.176c0.309,0.431,0.625,0.858,0.938,1.286  c0.483,0.66,0.967,1.321,1.46,1.976c0.336,0.444,0.677,0.884,1.018,1.325c0.484,0.628,0.969,1.254,1.462,1.875  c0.354,0.445,0.712,0.886,1.07,1.328c0.495,0.609,0.992,1.215,1.496,1.816c0.365,0.436,0.731,0.869,1.099,1.3  c0.513,0.601,1.032,1.196,1.553,1.79c0.37,0.419,0.739,0.838,1.113,1.254c0.54,0.601,1.086,1.195,1.635,1.788  c0.366,0.394,0.73,0.79,1.099,1.181c0.582,0.615,1.172,1.224,1.764,1.83c0.349,0.356,0.693,0.715,1.044,1.069  c0.667,0.67,1.343,1.329,2.021,1.989c0.285,0.278,0.566,0.559,0.853,0.833c0.968,0.926,1.946,1.841,2.938,2.744  c0.003,0.002,0.005,0.004,0.009,0.008c1.012,0.92,2.036,1.826,3.071,2.721c0.026,0.021,0.049,0.045,0.076,0.068l0.025,0.018  c7.153,6.17,14.863,11.711,23.037,16.552l0.105,0.075c0.202,0.119,0.41,0.23,0.612,0.349c1.073,0.628,2.156,1.243,3.244,1.848  c0.289,0.159,0.574,0.325,0.865,0.482c1.364,0.744,2.74,1.469,4.126,2.175c0.325,0.165,0.653,0.324,0.98,0.486  c1.093,0.547,2.193,1.082,3.3,1.605c0.426,0.201,0.852,0.4,1.28,0.597c1.172,0.541,2.352,1.067,3.54,1.579  c0.266,0.115,0.528,0.236,0.795,0.347c1.44,0.612,2.893,1.203,4.355,1.773c0.366,0.143,0.735,0.28,1.101,0.419  c1.134,0.434,2.273,0.854,3.419,1.263c0.445,0.157,0.89,0.316,1.336,0.471c1.272,0.439,2.55,0.865,3.836,1.274  c0.233,0.073,0.465,0.154,0.698,0.226c1.508,0.472,3.028,0.918,4.555,1.346c0.403,0.113,0.81,0.219,1.215,0.329  c1.167,0.317,2.34,0.622,3.517,0.912c0.464,0.115,0.926,0.23,1.391,0.34c1.378,0.327,2.761,0.638,4.153,0.928  c0.185,0.039,0.369,0.083,0.554,0.12c1.568,0.323,3.146,0.616,4.731,0.893c0.438,0.076,0.877,0.146,1.316,0.218  c1.2,0.199,2.404,0.384,3.613,0.556c0.475,0.069,0.951,0.137,1.427,0.2c1.505,0.2,3.016,0.384,4.534,0.542  c0.108,0.012,0.214,0.026,0.321,0.037c1.621,0.166,3.252,0.299,4.885,0.416c0.468,0.033,0.937,0.06,1.406,0.089  c1.229,0.076,2.462,0.14,3.698,0.189c0.483,0.019,0.966,0.04,1.45,0.055c1.655,0.052,3.314,0.085,4.982,0.085l0,0h0.001  c1.667,0,3.327-0.033,4.982-0.085c0.484-0.015,0.966-0.035,1.45-0.055c1.236-0.049,2.469-0.112,3.698-0.189  c0.469-0.029,0.938-0.056,1.406-0.089c1.636-0.116,3.265-0.25,4.887-0.416c0.108-0.011,0.214-0.025,0.322-0.037  c1.517-0.158,3.027-0.341,4.533-0.541c0.478-0.065,0.953-0.132,1.428-0.201c1.209-0.171,2.413-0.357,3.612-0.556  c0.439-0.072,0.878-0.142,1.315-0.218c1.585-0.276,3.163-0.57,4.731-0.893c0.186-0.038,0.37-0.082,0.555-0.12  c1.392-0.292,2.775-0.602,4.153-0.928c0.465-0.111,0.927-0.226,1.391-0.34c1.177-0.29,2.35-0.595,3.517-0.912  c0.406-0.11,0.812-0.215,1.217-0.329c1.527-0.428,3.046-0.874,4.554-1.346c0.236-0.072,0.466-0.153,0.699-0.226  c1.285-0.409,2.563-0.834,3.835-1.274c0.446-0.155,0.892-0.313,1.335-0.471c1.147-0.409,2.286-0.829,3.421-1.263  c0.367-0.14,0.736-0.276,1.1-0.419c1.462-0.57,2.914-1.16,4.355-1.772c0.267-0.114,0.531-0.234,0.798-0.35  c1.186-0.512,2.365-1.038,3.536-1.578c0.428-0.197,0.855-0.396,1.28-0.597c1.106-0.523,2.207-1.057,3.3-1.605  c0.327-0.162,0.655-0.322,0.98-0.486c1.386-0.706,2.762-1.431,4.126-2.175c0.29-0.157,0.575-0.323,0.865-0.482  c1.09-0.603,2.172-1.22,3.245-1.848c0.203-0.118,0.41-0.229,0.612-0.349l0.105-0.075c8.174-4.84,15.884-10.381,23.037-16.552  l0.025-0.018c0.026-0.023,0.051-0.045,0.076-0.068c1.035-0.895,2.059-1.802,3.071-2.721c0.002-0.003,0.005-0.005,0.009-0.008  c0.991-0.902,1.968-1.817,2.936-2.744c0.288-0.274,0.567-0.556,0.853-0.833c0.679-0.658,1.355-1.319,2.021-1.989  C369.724,368.373,370.068,368.014,370.416,367.658z"/>
<path style="fill:#EDE21B;" d="M351.66,127.883c-26.675-19.949-59.788-31.762-95.659-31.762H256l0,0  c-9.572,0-18.943,0.849-28.052,2.461c-35.129,32.09-57.169,78.268-57.169,129.596c0,88.483,65.49,161.656,150.639,173.728  c0.471-0.211,0.944-0.415,1.412-0.63c0.428-0.197,0.855-0.396,1.28-0.597c1.106-0.523,2.207-1.057,3.3-1.605  c0.327-0.162,0.655-0.322,0.98-0.486c1.386-0.706,2.762-1.431,4.126-2.175c0.29-0.157,0.575-0.323,0.865-0.482  c1.09-0.603,2.172-1.22,3.245-1.848c0.203-0.118,0.41-0.229,0.612-0.349l0.105-0.075c8.174-4.84,15.884-10.381,23.037-16.552  l0.025-0.018c0.026-0.023,0.051-0.045,0.076-0.068c1.035-0.895,2.059-1.802,3.071-2.721c0.002-0.003,0.005-0.005,0.009-0.008  c0.991-0.902,1.968-1.817,2.936-2.744c0.288-0.274,0.567-0.556,0.853-0.833c0.679-0.658,1.355-1.319,2.021-1.989  c0.352-0.354,0.696-0.713,1.044-1.069c0.593-0.606,1.183-1.214,1.765-1.83c0.37-0.39,0.734-0.787,1.1-1.181  c0.55-0.593,1.095-1.188,1.635-1.788c0.374-0.416,0.743-0.835,1.113-1.254c0.522-0.594,1.04-1.189,1.553-1.79  c0.369-0.431,0.736-0.865,1.099-1.3c0.503-0.601,1.001-1.207,1.496-1.816c0.359-0.442,0.716-0.883,1.07-1.328  c0.493-0.621,0.978-1.247,1.462-1.875c0.34-0.441,0.682-0.881,1.018-1.325c0.493-0.654,0.977-1.315,1.461-1.976  c0.313-0.428,0.628-0.855,0.937-1.286c0.515-0.72,1.019-1.449,1.522-2.176c0.264-0.382,0.532-0.759,0.793-1.143  c0.651-0.963,1.29-1.933,1.921-2.91c0.102-0.158,0.207-0.311,0.308-0.469c0.729-1.136,1.442-2.281,2.143-3.437  c0.214-0.354,0.421-0.714,0.632-1.07c0.48-0.805,0.958-1.61,1.424-2.424c0.26-0.456,0.511-0.916,0.769-1.375  c0.403-0.724,0.807-1.447,1.2-2.176c0.27-0.5,0.531-1.006,0.796-1.508c0.367-0.698,0.732-1.398,1.09-2.103  c0.265-0.522,0.523-1.049,0.782-1.574c0.342-0.697,0.683-1.394,1.015-2.096c0.255-0.537,0.506-1.076,0.754-1.616  c0.323-0.7,0.641-1.405,0.954-2.111c0.242-0.545,0.481-1.091,0.717-1.638c0.307-0.715,0.607-1.435,0.905-2.157  c0.225-0.543,0.45-1.086,0.668-1.634c0.297-0.742,0.584-1.491,0.871-2.238c0.203-0.532,0.409-1.062,0.607-1.596  c0.294-0.795,0.575-1.595,0.858-2.398c0.172-0.494,0.352-0.984,0.521-1.48c0.317-0.933,0.62-1.873,0.922-2.813  c0.118-0.371,0.245-0.739,0.36-1.11c0.41-1.312,0.802-2.63,1.179-3.957c0.086-0.302,0.162-0.609,0.246-0.913  c0.285-1.028,0.566-2.059,0.83-3.096c0.126-0.494,0.241-0.991,0.361-1.485c0.21-0.853,0.418-1.706,0.613-2.565  c0.127-0.555,0.244-1.113,0.365-1.67c0.174-0.806,0.347-1.612,0.51-2.423c0.117-0.584,0.227-1.17,0.337-1.757  c0.151-0.792,0.296-1.585,0.434-2.381c0.104-0.599,0.201-1.198,0.297-1.8c0.128-0.793,0.251-1.587,0.367-2.385  c0.088-0.606,0.173-1.21,0.253-1.817c0.11-0.802,0.208-1.607,0.304-2.413c0.071-0.604,0.142-1.207,0.205-1.814  c0.088-0.824,0.166-1.649,0.242-2.476c0.055-0.593,0.111-1.185,0.158-1.779c0.069-0.863,0.126-1.727,0.181-2.594  c0.035-0.561,0.075-1.123,0.108-1.687c0.051-0.958,0.086-1.919,0.119-2.882c0.017-0.475,0.042-0.95,0.055-1.427  c0.038-1.44,0.06-2.885,0.06-4.334c0-15.176-2.115-29.858-6.065-43.768C400.119,178.088,379.362,148.598,351.66,127.883z"/>
<path style="fill:#EF8229;" d="M376.675,251.848c-0.012-0.344-0.024-0.687-0.039-1.03c-0.116-2.753-0.326-5.479-0.622-8.18  c-0.038-0.335-0.075-0.668-0.115-1.002c-0.321-2.698-0.729-5.368-1.224-8.009c-0.06-0.322-0.122-0.643-0.185-0.964  c-0.516-2.637-1.118-5.243-1.804-7.816c-0.083-0.31-0.166-0.62-0.251-0.928c-0.706-2.569-1.495-5.102-2.363-7.598  c-0.103-0.296-0.207-0.592-0.312-0.887c-0.888-2.491-1.857-4.945-2.9-7.356c-0.123-0.283-0.246-0.565-0.371-0.847  c-1.063-2.405-2.203-4.768-3.415-7.087c-0.142-0.271-0.285-0.542-0.428-0.813c-1.229-2.307-2.53-4.568-3.9-6.783  c-0.162-0.264-0.327-0.526-0.493-0.788c-5.808-9.226-12.827-17.612-20.839-24.932l-0.015-0.017  c-0.028-0.026-0.058-0.051-0.086-0.076c-0.326-0.297-0.657-0.587-0.986-0.881c-0.37-0.329-0.738-0.66-1.111-0.985  c-0.344-0.3-0.694-0.594-1.042-0.89c-0.368-0.312-0.734-0.625-1.104-0.933c-0.355-0.295-0.715-0.584-1.075-0.876  c-0.37-0.299-0.737-0.599-1.109-0.895c-0.367-0.29-0.737-0.574-1.106-0.861c-0.373-0.289-0.746-0.578-1.124-0.862  c-0.375-0.283-0.752-0.56-1.13-0.839c-0.378-0.279-0.756-0.556-1.138-0.829c-0.382-0.275-0.769-0.546-1.153-0.817  c-0.385-0.27-0.771-0.538-1.16-0.803c-0.386-0.265-0.776-0.526-1.165-0.786c-0.394-0.264-0.791-0.524-1.19-0.783  c-0.39-0.255-0.784-0.508-1.178-0.757c-0.402-0.255-0.806-0.506-1.211-0.756c-0.397-0.245-0.794-0.489-1.193-0.729  c-0.412-0.248-0.826-0.492-1.24-0.734c-0.398-0.233-0.797-0.467-1.198-0.695c-0.422-0.241-0.849-0.477-1.274-0.712  c-0.4-0.223-0.801-0.445-1.205-0.664c-0.434-0.233-0.871-0.461-1.307-0.689c-0.401-0.21-0.8-0.422-1.204-0.627  c-0.454-0.231-0.911-0.454-1.367-0.679c-0.393-0.194-0.784-0.39-1.18-0.581c-0.489-0.234-0.983-0.46-1.475-0.689  c-0.368-0.17-0.734-0.345-1.103-0.512c-0.621-0.28-1.246-0.55-1.872-0.819c-0.246-0.106-0.492-0.218-0.74-0.323  c-0.867-0.367-1.739-0.722-2.616-1.069c-0.338-0.133-0.679-0.259-1.018-0.389c-0.554-0.213-1.106-0.427-1.664-0.632  c-0.381-0.14-0.766-0.273-1.149-0.409c-0.517-0.185-1.037-0.371-1.557-0.549c-0.406-0.138-0.813-0.269-1.221-0.402  c-0.506-0.166-1.011-0.333-1.519-0.493c-0.418-0.131-0.838-0.256-1.258-0.383c-0.501-0.152-1.004-0.303-1.507-0.449  c-0.427-0.123-0.857-0.241-1.286-0.359c-0.502-0.139-1.005-0.276-1.51-0.409c-0.432-0.114-0.869-0.223-1.305-0.331  c-0.506-0.126-1.01-0.251-1.518-0.37c-0.438-0.104-0.878-0.203-1.319-0.302c-0.511-0.114-1.021-0.226-1.534-0.333  c-0.442-0.092-0.885-0.184-1.329-0.272c-0.515-0.102-1.029-0.201-1.547-0.296c-0.445-0.083-0.891-0.163-1.336-0.241  c-0.523-0.091-1.048-0.176-1.573-0.26c-0.444-0.071-0.887-0.141-1.333-0.208c-0.534-0.08-1.069-0.153-1.605-0.225  c-0.441-0.059-0.88-0.119-1.321-0.174c-0.546-0.068-1.094-0.128-1.641-0.187c-0.437-0.047-0.876-0.098-1.312-0.141  c-0.56-0.055-1.123-0.102-1.684-0.15c-0.428-0.035-0.856-0.075-1.285-0.108c-0.592-0.044-1.184-0.077-1.777-0.112  c-0.404-0.024-0.807-0.053-1.212-0.072c-0.659-0.032-1.323-0.054-1.988-0.075c-0.34-0.011-0.68-0.028-1.021-0.037  c-1-0.025-2.002-0.038-3.009-0.039c-0.006,0-0.011,0-0.017,0l0,0h-0.001c-0.005,0-0.012,0-0.017,0c-1.006,0-2.008,0.014-3.009,0.039  c-0.341,0.009-0.681,0.025-1.022,0.037c-0.664,0.023-1.326,0.043-1.988,0.075c-0.406,0.02-0.808,0.048-1.211,0.072  c-0.593,0.034-1.186,0.069-1.778,0.112c-0.429,0.032-0.857,0.071-1.286,0.108c-0.563,0.047-1.124,0.094-1.683,0.15  c-0.439,0.043-0.876,0.094-1.313,0.141c-0.547,0.06-1.095,0.12-1.64,0.187c-0.442,0.055-0.881,0.114-1.322,0.174  c-0.536,0.072-1.071,0.145-1.605,0.225c-0.445,0.066-0.89,0.137-1.334,0.208c-0.525,0.084-1.049,0.17-1.571,0.26  c-0.446,0.077-0.892,0.158-1.336,0.241c-0.516,0.096-1.033,0.194-1.547,0.296c-0.444,0.088-0.887,0.179-1.329,0.272  c-0.513,0.108-1.024,0.219-1.534,0.333c-0.44,0.099-0.88,0.199-1.319,0.302c-0.508,0.119-1.012,0.244-1.518,0.37  c-0.436,0.109-0.871,0.218-1.305,0.331c-0.504,0.132-1.008,0.27-1.509,0.409c-0.43,0.118-0.861,0.237-1.288,0.359  c-0.503,0.145-1.005,0.297-1.506,0.449c-0.421,0.127-0.841,0.252-1.26,0.383c-0.509,0.159-1.013,0.327-1.519,0.493  c-0.407,0.133-0.815,0.265-1.221,0.402c-0.522,0.177-1.039,0.364-1.558,0.549c-0.383,0.136-0.768,0.269-1.149,0.409  c-0.558,0.205-1.11,0.419-1.664,0.632c-0.34,0.13-0.681,0.256-1.018,0.389c-0.877,0.346-1.749,0.702-2.616,1.069  c-0.248,0.104-0.493,0.216-0.74,0.323c-0.626,0.269-1.251,0.538-1.871,0.819c-0.37,0.167-0.736,0.341-1.104,0.512  c-0.493,0.228-0.986,0.454-1.475,0.689c-0.397,0.19-0.788,0.387-1.183,0.582c-0.454,0.224-0.91,0.446-1.361,0.677  c-0.404,0.205-0.806,0.418-1.208,0.629c-0.436,0.228-0.872,0.455-1.305,0.688c-0.403,0.218-0.805,0.441-1.206,0.664  c-0.426,0.236-0.852,0.471-1.274,0.712c-0.401,0.229-0.799,0.463-1.198,0.695c-0.414,0.242-0.829,0.486-1.24,0.734  c-0.4,0.24-0.797,0.484-1.193,0.729c-0.406,0.25-0.81,0.501-1.211,0.756c-0.395,0.25-0.786,0.502-1.179,0.757  c-0.398,0.259-0.795,0.52-1.19,0.783c-0.389,0.26-0.778,0.522-1.165,0.786c-0.388,0.266-0.773,0.534-1.158,0.803  c-0.386,0.271-0.771,0.542-1.154,0.817c-0.381,0.273-0.758,0.551-1.136,0.828c-0.38,0.279-0.757,0.558-1.133,0.842  c-0.375,0.283-0.748,0.57-1.12,0.857c-0.37,0.287-0.741,0.572-1.109,0.863c-0.372,0.295-0.741,0.595-1.11,0.895  c-0.359,0.291-0.72,0.581-1.075,0.876c-0.37,0.308-0.736,0.621-1.103,0.933c-0.349,0.296-0.698,0.589-1.042,0.89  c-0.374,0.325-0.741,0.656-1.111,0.985c-0.329,0.294-0.662,0.584-0.986,0.881c-0.028,0.026-0.058,0.051-0.086,0.076l-0.015,0.017  c-8.012,7.32-15.031,15.706-20.839,24.932c-0.166,0.262-0.329,0.525-0.493,0.788c-1.37,2.215-2.671,4.477-3.9,6.783  c-0.144,0.271-0.287,0.542-0.429,0.813c-1.212,2.319-2.351,4.682-3.414,7.087c-0.125,0.282-0.247,0.564-0.37,0.847  c-1.044,2.413-2.013,4.865-2.901,7.356c-0.105,0.295-0.209,0.591-0.312,0.887c-0.869,2.497-1.656,5.03-2.363,7.598  c-0.085,0.309-0.169,0.618-0.252,0.928c-0.685,2.573-1.286,5.178-1.803,7.816c-0.063,0.321-0.126,0.642-0.185,0.964  c-0.495,2.641-0.904,5.311-1.224,8.009c-0.04,0.335-0.077,0.668-0.114,1.002c-0.297,2.701-0.506,5.429-0.622,8.18  c-0.015,0.343-0.028,0.687-0.04,1.03c-0.046,1.379-0.079,2.761-0.079,4.152c0,4.168,0.211,8.287,0.624,12.347  c0.207,2.03,0.463,4.044,0.768,6.043c0.764,4.997,1.834,9.893,3.189,14.668c14.376,50.62,60.944,87.695,116.171,87.695h0.001l0,0  c55.227,0,101.796-37.076,116.171-87.695c1.356-4.775,2.426-9.671,3.19-14.668c0.304-1.999,0.56-4.014,0.767-6.043  c0.413-4.059,0.624-8.179,0.624-12.347C376.755,254.61,376.722,253.227,376.675,251.848z"/>
<path style="fill:#F29F26;" d="M376.636,250.818c-0.116-2.753-0.326-5.479-0.622-8.18c-0.038-0.335-0.075-0.668-0.115-1.002  c-0.321-2.698-0.729-5.368-1.224-8.009c-0.06-0.322-0.122-0.643-0.185-0.964c-0.516-2.637-1.118-5.243-1.804-7.816  c-0.083-0.31-0.166-0.62-0.251-0.928c-0.706-2.569-1.495-5.102-2.363-7.598c-0.103-0.296-0.207-0.592-0.312-0.887  c-0.888-2.491-1.857-4.945-2.9-7.356c-0.123-0.283-0.246-0.565-0.371-0.847c-1.063-2.405-2.203-4.768-3.415-7.087  c-0.142-0.271-0.285-0.542-0.428-0.813c-1.229-2.307-2.53-4.568-3.9-6.783c-0.162-0.264-0.327-0.526-0.493-0.788  c-5.808-9.226-12.827-17.612-20.839-24.932l-0.015-0.017c-0.028-0.026-0.058-0.051-0.086-0.076  c-0.326-0.297-0.657-0.587-0.986-0.881c-0.37-0.329-0.738-0.66-1.111-0.985c-0.344-0.3-0.694-0.594-1.042-0.89  c-0.368-0.312-0.734-0.625-1.104-0.933c-0.355-0.295-0.715-0.584-1.075-0.876c-0.37-0.299-0.737-0.599-1.109-0.895  c-0.367-0.29-0.737-0.574-1.106-0.861c-0.373-0.289-0.746-0.578-1.124-0.862c-0.375-0.283-0.752-0.56-1.13-0.839  c-0.378-0.279-0.756-0.556-1.138-0.829c-0.382-0.275-0.769-0.546-1.153-0.817c-0.385-0.27-0.771-0.538-1.16-0.803  c-0.386-0.265-0.776-0.526-1.165-0.786c-0.394-0.264-0.791-0.524-1.19-0.783c-0.39-0.255-0.784-0.508-1.178-0.757  c-0.402-0.255-0.806-0.506-1.211-0.756c-0.397-0.245-0.794-0.489-1.193-0.729c-0.412-0.248-0.826-0.492-1.24-0.734  c-0.398-0.233-0.797-0.467-1.198-0.695c-0.422-0.241-0.849-0.477-1.274-0.712c-0.4-0.223-0.801-0.445-1.205-0.664  c-0.434-0.233-0.871-0.461-1.307-0.689c-0.401-0.21-0.8-0.422-1.204-0.627c-0.454-0.231-0.911-0.454-1.367-0.679  c-0.393-0.194-0.784-0.39-1.18-0.581c-0.489-0.234-0.983-0.46-1.475-0.689c-0.368-0.17-0.734-0.345-1.103-0.512  c-0.621-0.28-1.246-0.55-1.872-0.819c-0.246-0.106-0.492-0.218-0.74-0.323c-0.867-0.367-1.739-0.722-2.616-1.069  c-0.338-0.133-0.679-0.259-1.018-0.389c-0.554-0.213-1.106-0.427-1.664-0.632c-0.381-0.14-0.766-0.273-1.149-0.409  c-0.517-0.185-1.037-0.371-1.557-0.549c-0.406-0.138-0.813-0.269-1.221-0.402c-0.506-0.166-1.011-0.333-1.519-0.493  c-0.418-0.131-0.838-0.256-1.258-0.383c-0.501-0.152-1.004-0.303-1.507-0.449c-0.427-0.123-0.857-0.241-1.286-0.359  c-0.502-0.139-1.005-0.276-1.51-0.409c-0.432-0.114-0.869-0.223-1.305-0.331c-0.506-0.126-1.01-0.251-1.518-0.37  c-0.438-0.104-0.878-0.203-1.319-0.302c-0.511-0.114-1.021-0.226-1.534-0.333c-0.442-0.092-0.885-0.184-1.329-0.272  c-0.515-0.102-1.029-0.201-1.547-0.296c-0.445-0.083-0.891-0.163-1.336-0.241c-0.523-0.091-1.048-0.176-1.573-0.26  c-0.444-0.071-0.887-0.141-1.333-0.208c-0.534-0.08-1.069-0.153-1.605-0.225c-0.441-0.059-0.88-0.119-1.321-0.174  c-0.546-0.068-1.094-0.128-1.641-0.187c-0.437-0.047-0.876-0.098-1.312-0.141c-0.56-0.055-1.123-0.102-1.684-0.15  c-0.428-0.035-0.856-0.075-1.285-0.108c-0.592-0.044-1.184-0.077-1.777-0.112c-0.404-0.024-0.807-0.053-1.212-0.072  c-0.659-0.032-1.323-0.054-1.988-0.075c-0.34-0.011-0.68-0.028-1.021-0.037c-1-0.025-2.002-0.038-3.009-0.039  c-0.006,0-0.011,0-0.017,0l0,0h-0.001c-0.005,0-0.012,0-0.017,0c-1.006,0-2.008,0.014-3.009,0.039  c-0.341,0.009-0.681,0.025-1.022,0.037c-0.664,0.023-1.326,0.043-1.988,0.075c-0.406,0.02-0.808,0.048-1.211,0.072  c-0.593,0.034-1.186,0.069-1.778,0.112c-0.429,0.032-0.857,0.071-1.286,0.108c-0.563,0.047-1.124,0.094-1.683,0.15  c-0.439,0.043-0.876,0.094-1.313,0.141c-0.547,0.06-1.095,0.12-1.64,0.187c-0.442,0.055-0.881,0.114-1.322,0.174  c-0.536,0.072-1.071,0.145-1.605,0.225c-0.445,0.066-0.89,0.137-1.334,0.208c-0.525,0.084-1.049,0.17-1.571,0.26  c-0.446,0.077-0.892,0.158-1.336,0.241c-0.516,0.096-1.033,0.194-1.547,0.296c-0.444,0.088-0.887,0.179-1.329,0.272  c-0.513,0.108-1.024,0.219-1.534,0.333c-0.44,0.099-0.88,0.199-1.319,0.302c-0.508,0.119-1.012,0.244-1.518,0.37  c-0.436,0.109-0.871,0.218-1.305,0.331c-0.504,0.132-1.008,0.27-1.509,0.409c-0.43,0.118-0.861,0.237-1.288,0.359  c-0.503,0.145-1.005,0.297-1.506,0.449c-0.421,0.127-0.841,0.252-1.26,0.383c-0.509,0.159-1.013,0.327-1.519,0.493  c-0.407,0.133-0.815,0.265-1.221,0.402c-0.522,0.177-1.039,0.364-1.558,0.549c-0.383,0.136-0.768,0.269-1.149,0.409  c-0.558,0.205-1.11,0.419-1.664,0.632c-0.34,0.13-0.681,0.256-1.018,0.389c-0.877,0.346-1.749,0.702-2.616,1.069  c-0.248,0.104-0.493,0.216-0.74,0.323c-0.626,0.269-1.251,0.538-1.871,0.819c-0.37,0.167-0.736,0.341-1.104,0.512  c-0.493,0.228-0.986,0.454-1.475,0.689c-0.397,0.19-0.788,0.387-1.183,0.582c-0.454,0.224-0.91,0.446-1.361,0.677  c-0.404,0.205-0.806,0.418-1.208,0.629c-0.436,0.228-0.872,0.455-1.305,0.688c-0.403,0.218-0.805,0.441-1.206,0.664  c-0.426,0.236-0.852,0.471-1.274,0.712c-0.401,0.229-0.799,0.463-1.198,0.695c-0.414,0.242-0.829,0.486-1.24,0.734  c-0.4,0.24-0.797,0.484-1.193,0.729c-0.406,0.25-0.81,0.501-1.211,0.756c-0.395,0.25-0.786,0.502-1.179,0.757  c-0.398,0.259-0.795,0.52-1.19,0.783c-0.389,0.26-0.778,0.522-1.165,0.786c-0.388,0.266-0.773,0.534-1.158,0.803  c-0.386,0.271-0.771,0.542-1.154,0.817c-0.086,0.061-0.17,0.125-0.255,0.186c-9.371,21.475-14.579,45.183-14.579,70.111  c0,62.54,32.72,117.43,81.969,148.507c1.082,0.028,2.163,0.068,3.253,0.068h0.001l0,0c55.227,0,101.796-37.076,116.171-87.695  c1.356-4.775,2.426-9.671,3.19-14.668c0.304-1.999,0.56-4.014,0.767-6.043c0.413-4.059,0.624-8.179,0.624-12.347  c0-1.39-0.031-2.773-0.079-4.152C376.664,251.504,376.651,251.161,376.636,250.818z"/>
<g>
	<path style="fill:#EDE21B;" d="M256,66.857c-4.752,0-8.605-3.853-8.605-8.605V8.605C247.395,3.853,251.248,0,256,0   c4.752,0,8.605,3.853,8.605,8.605v49.647C264.605,63.005,260.752,66.857,256,66.857z"/>
	<path style="fill:#EDE21B;" d="M256,512c-4.752,0-8.605-3.853-8.605-8.605v-49.646c0-4.752,3.853-8.605,8.605-8.605   c4.752,0,8.605,3.853,8.605,8.605v49.646C264.605,508.147,260.752,512,256,512z"/>
	<path style="fill:#EDE21B;" d="M157.136,93.352c-2.975,0-5.866-1.544-7.461-4.305l-24.824-42.996   c-2.376-4.115-0.966-9.378,3.149-11.754c4.116-2.376,9.378-0.966,11.754,3.149l24.824,42.996c2.376,4.115,0.966,9.378-3.149,11.754   C160.074,92.979,158.594,93.352,157.136,93.352z"/>
	<path style="fill:#EDE21B;" d="M379.706,478.858c-2.975,0-5.866-1.544-7.459-4.304l-24.823-42.997   c-2.377-4.115-0.966-9.378,3.149-11.756c4.116-2.375,9.379-0.966,11.754,3.151l24.823,42.997c2.377,4.115,0.966,9.378-3.149,11.756   C382.645,478.486,381.165,478.858,379.706,478.858z"/>
	<path style="fill:#EDE21B;" d="M84.736,165.732c-1.46,0-2.939-0.372-4.294-1.154l-42.994-24.822   c-4.116-2.376-5.526-7.639-3.149-11.754c2.376-4.115,7.639-5.528,11.754-3.149l42.994,24.822c4.115,2.376,5.527,7.639,3.149,11.754   C90.602,164.189,87.71,165.732,84.736,165.732z"/>
	<path style="fill:#EDE21B;" d="M470.243,388.304c-1.459,0-2.939-0.372-4.294-1.153l-42.997-24.823   c-4.115-2.377-5.527-7.64-3.149-11.756c2.375-4.115,7.638-5.524,11.755-3.151l42.997,24.823c4.115,2.377,5.527,7.64,3.151,11.756   C476.109,386.76,473.216,388.304,470.243,388.304z"/>
	<path style="fill:#EDE21B;" d="M58.252,264.605H8.605C3.853,264.605,0,260.752,0,256c0-4.752,3.853-8.605,8.605-8.605h49.647   c4.752,0,8.605,3.853,8.605,8.605C66.857,260.752,63.004,264.605,58.252,264.605z"/>
	<path style="fill:#EDE21B;" d="M503.395,264.605h-49.646c-4.752,0-8.605-3.853-8.605-8.605c0-4.752,3.853-8.605,8.605-8.605h49.646   c4.752,0,8.605,3.853,8.605,8.605C512,260.752,508.147,264.605,503.395,264.605z"/>
	<path style="fill:#EDE21B;" d="M41.757,388.304c-2.975,0-5.866-1.544-7.461-4.304c-2.376-4.115-0.966-9.378,3.149-11.755   l42.996-24.823c4.116-2.377,9.378-0.966,11.754,3.149c2.377,4.115,0.966,9.378-3.149,11.755l-42.996,24.823   C44.697,387.931,43.217,388.304,41.757,388.304z"/>
	<path style="fill:#EDE21B;" d="M427.263,165.732c-2.975,0-5.867-1.544-7.461-4.305c-2.377-4.116-0.966-9.378,3.149-11.754   l42.997-24.822c4.116-2.377,9.38-0.965,11.756,3.149c2.376,4.116,0.965,9.378-3.151,11.754l-42.997,24.822   C430.202,165.36,428.721,165.732,427.263,165.732z"/>
	<path style="fill:#EDE21B;" d="M132.294,478.858c-1.46,0-2.939-0.372-4.294-1.153c-4.115-2.376-5.527-7.64-3.149-11.756   l24.823-42.997c2.376-4.115,7.639-5.524,11.754-3.151c4.116,2.377,5.527,7.639,3.151,11.756l-24.823,42.997   C138.16,477.314,135.268,478.858,132.294,478.858z"/>
	<path style="fill:#EDE21B;" d="M354.864,93.352c-1.46,0-2.939-0.372-4.294-1.154c-4.115-2.376-5.527-7.639-3.151-11.754   l24.826-42.996c2.376-4.116,7.637-5.528,11.755-3.149c4.115,2.376,5.527,7.639,3.149,11.754l-24.823,42.995   C360.731,91.808,357.839,93.352,354.864,93.352z"/>
</g>
<g>
</g>
<g>
</g>
<g>
</g>
<g>
</g>
<g>
</g>
<g>
</g>
<g>
</g>
<g>
</g>
<g>
</g>
<g>
</g>
<g>
</g>
<g>
</g>
<g>
</g>
<g>
</g>
<g>
</g>
</svg>
