<?xml version="1.0" encoding="iso-8859-1"?>
<!-- Generator: Adobe Illustrator 19.0.0, SVG Export Plug-In . SVG Version: 6.00 Build 0)  -->
<svg xmlns="http://www.w3.org/2000/svg" xmlns:xlink="http://www.w3.org/1999/xlink" version="1.1" id="Layer_1" x="0px" y="0px" viewBox="0 0 512 512" style="enable-background:new 0 0 512 512;" xml:space="preserve">
<g>
	<path style="fill:#EDE21B;" d="M199.973,53.275c-4.595,0-8.321-3.727-8.321-8.322V8.322c0-4.596,3.726-8.322,8.321-8.322   c4.596,0,8.323,3.727,8.323,8.322v36.631C208.296,49.548,204.569,53.275,199.973,53.275z"/>
	<path style="fill:#EDE21B;" d="M127.029,72.822c-2.876,0-5.673-1.493-7.214-4.163L101.5,36.937   c-2.299-3.98-0.934-9.071,3.046-11.369c3.981-2.295,9.072-0.931,11.368,3.047l18.314,31.722c2.299,3.981,0.935,9.071-3.046,11.369   C129.873,72.462,128.442,72.822,127.029,72.822z"/>
	<path style="fill:#EDE21B;" d="M73.611,126.225c-1.412,0-2.843-0.359-4.153-1.117l-31.72-18.314   c-3.98-2.299-5.345-7.389-3.046-11.368c2.299-3.98,7.387-5.346,11.368-3.045l31.721,18.314c3.98,2.299,5.345,7.387,3.046,11.368   C79.285,124.733,76.488,126.225,73.611,126.225z"/>
	<path style="fill:#EDE21B;" d="M54.073,199.173H17.442c-4.595,0-8.322-3.727-8.322-8.322s3.727-8.322,8.322-8.322h36.631   c4.595,0,8.322,3.727,8.322,8.322C62.395,195.446,58.668,199.173,54.073,199.173z"/>
	<path style="fill:#EDE21B;" d="M41.905,290.438c-2.877,0-5.673-1.492-7.215-4.162c-2.299-3.98-0.934-9.071,3.046-11.368   l31.72-18.314c3.981-2.301,9.071-0.934,11.369,3.045c2.299,3.981,0.934,9.071-3.046,11.368l-31.721,18.314   C44.748,290.079,43.317,290.438,41.905,290.438z"/>
	<path style="fill:#EDE21B;" d="M326.331,126.225c-2.877,0-5.674-1.492-7.215-4.162c-2.3-3.981-0.934-9.071,3.046-11.369   l31.723-18.315c3.981-2.295,9.071-0.931,11.368,3.047c2.299,3.98,0.935,9.071-3.046,11.368l-31.722,18.315   C329.174,125.866,327.743,126.225,326.331,126.225z"/>
	<path style="fill:#EDE21B;" d="M272.912,72.822c-1.412,0-2.843-0.36-4.153-1.115c-3.98-2.3-5.345-7.389-3.046-11.369l18.315-31.722   c2.298-3.98,7.387-5.343,11.368-3.047c3.981,2.3,5.345,7.39,3.046,11.369L280.127,68.66   C278.586,71.329,275.789,72.822,272.912,72.822z"/>
</g>
<path style="fill:#EAC71C;" d="M289.985,279.681c0.455-0.468,0.909-0.933,1.357-1.408c0.284-0.299,0.563-0.603,0.844-0.907  c0.423-0.455,0.842-0.913,1.257-1.375c0.287-0.319,0.571-0.641,0.856-0.962c0.4-0.457,0.798-0.915,1.193-1.378  c0.284-0.332,0.565-0.663,0.845-0.999c0.386-0.463,0.769-0.927,1.148-1.395c0.276-0.34,0.552-0.679,0.824-1.021  c0.38-0.478,0.752-0.961,1.124-1.442c0.261-0.338,0.524-0.677,0.783-1.019c0.379-0.503,0.749-1.009,1.122-1.519  c0.241-0.329,0.483-0.656,0.721-0.987c0.396-0.553,0.783-1.113,1.169-1.674c0.202-0.294,0.409-0.583,0.609-0.877  c0.501-0.741,0.992-1.487,1.477-2.237c0.077-0.12,0.159-0.24,0.237-0.36c0.561-0.872,1.108-1.753,1.648-2.641  c0.164-0.272,0.323-0.549,0.485-0.824c0.369-0.617,0.737-1.237,1.095-1.862c0.199-0.352,0.393-0.705,0.591-1.056  c0.31-0.557,0.621-1.112,0.922-1.674c0.208-0.384,0.409-0.772,0.612-1.16c0.283-0.537,0.561-1.073,0.837-1.615  c0.203-0.401,0.402-0.807,0.601-1.21c0.264-0.535,0.525-1.071,0.781-1.611c0.196-0.413,0.388-0.826,0.58-1.241  c0.247-0.539,0.493-1.079,0.735-1.623c0.185-0.419,0.369-0.837,0.551-1.26c0.237-0.551,0.467-1.103,0.695-1.658  c0.172-0.418,0.345-0.834,0.513-1.256c0.228-0.569,0.45-1.144,0.669-1.72c0.157-0.41,0.314-0.815,0.467-1.227  c0.227-0.611,0.442-1.226,0.658-1.843c0.134-0.379,0.271-0.755,0.401-1.138c0.244-0.715,0.477-1.438,0.708-2.162  c0.091-0.285,0.188-0.568,0.278-0.852c0.314-1.01,0.616-2.022,0.906-3.042c0.066-0.232,0.125-0.469,0.19-0.701  c0.217-0.79,0.434-1.582,0.638-2.378c0.097-0.381,0.185-0.762,0.279-1.143c0.161-0.655,0.322-1.31,0.472-1.971  c0.097-0.426,0.187-0.856,0.28-1.283c0.134-0.62,0.268-1.239,0.392-1.863c0.09-0.449,0.174-0.899,0.259-1.349  c0.114-0.608,0.227-1.219,0.332-1.83c0.08-0.461,0.156-0.922,0.229-1.383c0.098-0.61,0.194-1.22,0.282-1.833  c0.068-0.465,0.133-0.928,0.196-1.396c0.083-0.616,0.159-1.235,0.233-1.854c0.055-0.466,0.11-0.927,0.158-1.394  c0.068-0.634,0.128-1.267,0.186-1.902c0.042-0.456,0.084-0.911,0.122-1.369c0.052-0.663,0.096-1.326,0.138-1.994  c0.028-0.431,0.059-0.863,0.082-1.295c0.039-0.738,0.066-1.476,0.092-2.216c0.013-0.366,0.032-0.73,0.042-1.097  c0.029-1.106,0.046-2.217,0.046-3.33c0-11.664-1.625-22.95-4.662-33.638c-7.452-26.242-23.406-48.904-44.696-64.825  c-20.499-15.333-45.949-24.41-73.517-24.41h-0.001l0,0c-27.568,0-53.017,9.077-73.518,24.41  c-21.289,15.921-37.243,38.583-44.696,64.825c-3.035,10.69-4.661,21.975-4.661,33.638c0,1.113,0.016,2.223,0.046,3.33  c0.01,0.368,0.028,0.733,0.042,1.097c0.025,0.74,0.053,1.478,0.093,2.216c0.023,0.432,0.054,0.864,0.082,1.295  c0.042,0.667,0.085,1.331,0.138,1.994c0.037,0.458,0.08,0.913,0.122,1.369c0.058,0.636,0.116,1.269,0.186,1.902  c0.049,0.467,0.103,0.928,0.158,1.394c0.072,0.618,0.151,1.237,0.232,1.854c0.063,0.467,0.128,0.931,0.197,1.396  c0.089,0.613,0.183,1.223,0.281,1.833c0.075,0.461,0.15,0.922,0.229,1.383c0.106,0.611,0.218,1.222,0.333,1.83  c0.085,0.45,0.169,0.9,0.259,1.349c0.124,0.624,0.257,1.243,0.39,1.863c0.094,0.427,0.183,0.857,0.28,1.283  c0.151,0.66,0.311,1.316,0.471,1.971c0.094,0.381,0.182,0.763,0.279,1.143c0.203,0.796,0.421,1.589,0.64,2.378  c0.065,0.233,0.123,0.469,0.188,0.701c0.29,1.02,0.593,2.032,0.907,3.042c0.089,0.284,0.185,0.567,0.278,0.852  c0.23,0.724,0.464,1.447,0.707,2.162c0.13,0.382,0.268,0.759,0.401,1.138c0.216,0.616,0.432,1.232,0.658,1.843  c0.153,0.412,0.311,0.817,0.468,1.227c0.218,0.574,0.44,1.15,0.668,1.72c0.167,0.423,0.34,0.838,0.514,1.256  c0.228,0.555,0.458,1.107,0.695,1.658c0.182,0.423,0.366,0.84,0.552,1.26c0.241,0.544,0.485,1.084,0.734,1.623  c0.19,0.416,0.383,0.829,0.579,1.241c0.256,0.54,0.517,1.077,0.781,1.611c0.2,0.403,0.397,0.809,0.602,1.21  c0.274,0.541,0.556,1.078,0.836,1.615c0.203,0.387,0.406,0.776,0.612,1.16c0.302,0.56,0.612,1.117,0.923,1.674  c0.197,0.352,0.389,0.705,0.591,1.056c0.357,0.625,0.725,1.245,1.095,1.862c0.162,0.275,0.321,0.552,0.486,0.824  c0.538,0.887,1.086,1.769,1.646,2.641c0.076,0.12,0.159,0.24,0.237,0.36c0.485,0.751,0.977,1.497,1.477,2.237  c0.201,0.294,0.408,0.584,0.609,0.877c0.386,0.559,0.774,1.121,1.17,1.674c0.237,0.331,0.479,0.658,0.721,0.987  c0.372,0.51,0.743,1.015,1.122,1.519c0.258,0.342,0.521,0.681,0.782,1.019c0.371,0.482,0.744,0.965,1.123,1.442  c0.273,0.342,0.548,0.681,0.824,1.021c0.381,0.468,0.763,0.933,1.149,1.395c0.28,0.337,0.561,0.667,0.845,0.999  c0.394,0.464,0.792,0.921,1.194,1.378c0.284,0.321,0.567,0.642,0.855,0.962c0.415,0.463,0.836,0.92,1.256,1.375  c0.282,0.302,0.561,0.607,0.847,0.907c0.446,0.474,0.901,0.94,1.355,1.408c0.268,0.273,0.532,0.551,0.802,0.822  c0.513,0.514,1.033,1.022,1.553,1.527c0.219,0.214,0.435,0.429,0.655,0.641c0.744,0.712,1.496,1.416,2.258,2.109  c0.002,0.001,0.004,0.003,0.006,0.005c0.778,0.707,1.565,1.405,2.36,2.092c0.022,0.016,0.039,0.032,0.06,0.052l0.018,0.015  c5.496,4.74,11.423,9,17.705,12.718l0.081,0.058c0.154,0.092,0.314,0.179,0.469,0.269c0.826,0.482,1.658,0.956,2.494,1.42  c0.222,0.123,0.441,0.25,0.664,0.372c1.048,0.57,2.105,1.128,3.171,1.67c0.25,0.127,0.502,0.248,0.753,0.374  c0.839,0.421,1.686,0.831,2.536,1.234c0.328,0.154,0.655,0.307,0.984,0.458c0.9,0.416,1.807,0.82,2.719,1.214  c0.203,0.088,0.406,0.181,0.611,0.266c1.107,0.471,2.222,0.924,3.346,1.364c0.281,0.111,0.565,0.215,0.847,0.323  c0.871,0.333,1.747,0.655,2.627,0.969c0.341,0.12,0.684,0.243,1.027,0.362c0.977,0.338,1.959,0.664,2.947,0.978  c0.18,0.057,0.356,0.117,0.537,0.173c1.16,0.364,2.328,0.706,3.501,1.035c0.311,0.086,0.623,0.167,0.935,0.253  c0.896,0.244,1.797,0.477,2.703,0.7c0.355,0.086,0.712,0.176,1.069,0.261c1.058,0.25,2.122,0.489,3.191,0.714  c0.143,0.029,0.284,0.063,0.426,0.09c1.206,0.25,2.417,0.474,3.637,0.686c0.337,0.06,0.673,0.113,1.01,0.169  c0.922,0.153,1.847,0.295,2.776,0.427c0.366,0.053,0.731,0.106,1.097,0.153c1.155,0.155,2.317,0.296,3.483,0.417  c0.084,0.01,0.165,0.022,0.247,0.028c1.247,0.128,2.499,0.231,3.755,0.319c0.359,0.026,0.721,0.047,1.08,0.069  c0.945,0.061,1.893,0.108,2.843,0.146c0.372,0.015,0.741,0.031,1.114,0.042c1.272,0.04,2.547,0.067,3.829,0.067l0,0h0.001  c1.281,0,2.557-0.026,3.829-0.067c0.372-0.011,0.742-0.027,1.113-0.042c0.951-0.038,1.898-0.085,2.844-0.146  c0.359-0.021,0.72-0.042,1.079-0.069c1.257-0.088,2.509-0.191,3.755-0.319c0.083-0.008,0.165-0.019,0.247-0.028  c1.167-0.12,2.328-0.262,3.484-0.416c0.367-0.047,0.733-0.101,1.098-0.154c0.928-0.132,1.854-0.275,2.777-0.427  c0.337-0.056,0.673-0.11,1.01-0.169c1.218-0.211,2.43-0.436,3.636-0.686c0.143-0.027,0.284-0.061,0.426-0.09  c1.07-0.225,2.133-0.465,3.192-0.714c0.357-0.085,0.713-0.175,1.069-0.261c0.905-0.224,1.806-0.457,2.704-0.7  c0.311-0.086,0.623-0.167,0.933-0.253c1.175-0.329,2.342-0.671,3.501-1.035c0.181-0.056,0.357-0.116,0.538-0.173  c0.987-0.314,1.971-0.641,2.947-0.978c0.342-0.119,0.685-0.242,1.027-0.362c0.88-0.314,1.755-0.637,2.627-0.969  c0.283-0.108,0.565-0.212,0.847-0.323c1.123-0.439,2.239-0.891,3.345-1.362c0.205-0.088,0.41-0.181,0.614-0.268  c0.912-0.395,1.817-0.8,2.717-1.214c0.329-0.152,0.656-0.303,0.984-0.458c0.851-0.402,1.696-0.814,2.536-1.234  c0.25-0.125,0.503-0.247,0.752-0.374c1.067-0.542,2.124-1.099,3.172-1.67c0.223-0.122,0.442-0.248,0.664-0.372  c0.837-0.465,1.668-0.938,2.493-1.42c0.156-0.09,0.315-0.176,0.471-0.269l0.081-0.058c6.282-3.718,12.207-7.978,17.705-12.718  l0.019-0.015c0.019-0.019,0.038-0.035,0.058-0.052c0.796-0.688,1.583-1.385,2.36-2.092c0.002-0.002,0.004-0.004,0.008-0.005  c0.76-0.694,1.513-1.397,2.258-2.109c0.22-0.211,0.436-0.426,0.655-0.641c0.521-0.506,1.041-1.013,1.553-1.527  C289.453,280.231,289.718,279.954,289.985,279.681z"/>
<path style="fill:#EDE21B;" d="M275.57,95.404c-20.499-15.333-45.949-24.41-73.517-24.41h-0.001l0,0  c-7.356,0-14.559,0.651-21.559,1.891c-26.998,24.662-43.937,60.152-43.937,99.601c0,68.002,50.332,124.239,115.773,133.516  c0.36-0.162,0.725-0.319,1.084-0.484c0.329-0.152,0.656-0.303,0.984-0.458c0.851-0.402,1.696-0.814,2.536-1.234  c0.25-0.125,0.503-0.247,0.752-0.374c1.067-0.542,2.124-1.099,3.172-1.67c0.223-0.122,0.442-0.248,0.664-0.372  c0.837-0.465,1.668-0.938,2.493-1.42c0.156-0.09,0.315-0.176,0.471-0.269l0.081-0.058c6.282-3.718,12.207-7.978,17.705-12.718  l0.019-0.015c0.019-0.019,0.038-0.035,0.058-0.052c0.796-0.688,1.583-1.385,2.36-2.092c0.002-0.002,0.004-0.004,0.008-0.005  c0.76-0.694,1.513-1.397,2.258-2.109c0.22-0.211,0.436-0.426,0.655-0.641c0.521-0.506,1.041-1.013,1.553-1.527  c0.27-0.271,0.535-0.549,0.801-0.822c0.455-0.468,0.909-0.933,1.357-1.408c0.284-0.299,0.563-0.603,0.844-0.907  c0.423-0.455,0.842-0.913,1.257-1.375c0.287-0.319,0.571-0.641,0.856-0.962c0.4-0.457,0.798-0.915,1.193-1.378  c0.284-0.332,0.565-0.663,0.845-0.999c0.386-0.463,0.769-0.927,1.148-1.395c0.276-0.34,0.552-0.679,0.824-1.021  c0.38-0.478,0.752-0.961,1.124-1.442c0.261-0.338,0.524-0.677,0.783-1.019c0.379-0.503,0.749-1.009,1.122-1.519  c0.241-0.329,0.483-0.656,0.721-0.987c0.396-0.553,0.783-1.113,1.169-1.674c0.202-0.294,0.409-0.583,0.609-0.877  c0.501-0.741,0.992-1.487,1.477-2.237c0.077-0.12,0.159-0.24,0.237-0.36c0.561-0.872,1.108-1.753,1.648-2.641  c0.164-0.272,0.323-0.549,0.485-0.824c0.369-0.617,0.737-1.237,1.095-1.862c0.199-0.352,0.393-0.705,0.591-1.056  c0.31-0.557,0.621-1.112,0.922-1.674c0.208-0.384,0.409-0.772,0.612-1.16c0.283-0.537,0.561-1.073,0.837-1.615  c0.203-0.401,0.402-0.807,0.601-1.21c0.264-0.535,0.525-1.071,0.781-1.611c0.196-0.413,0.388-0.826,0.58-1.241  c0.247-0.539,0.493-1.079,0.735-1.623c0.185-0.419,0.369-0.837,0.551-1.26c0.237-0.551,0.467-1.103,0.695-1.658  c0.172-0.418,0.345-0.834,0.513-1.256c0.228-0.569,0.45-1.144,0.669-1.72c0.157-0.41,0.314-0.815,0.467-1.227  c0.227-0.611,0.442-1.226,0.658-1.843c0.134-0.379,0.271-0.755,0.401-1.138c0.244-0.715,0.477-1.438,0.708-2.162  c0.091-0.285,0.188-0.568,0.277-0.852c0.314-1.01,0.616-2.022,0.906-3.042c0.066-0.232,0.125-0.469,0.19-0.701  c0.217-0.79,0.433-1.582,0.638-2.378c0.097-0.381,0.185-0.762,0.279-1.143c0.161-0.655,0.322-1.31,0.472-1.971  c0.097-0.426,0.187-0.856,0.28-1.283c0.134-0.62,0.268-1.239,0.392-1.863c0.09-0.449,0.174-0.899,0.259-1.349  c0.114-0.608,0.227-1.219,0.332-1.83c0.08-0.461,0.156-0.922,0.229-1.383c0.098-0.61,0.194-1.22,0.282-1.833  c0.068-0.465,0.133-0.928,0.196-1.396c0.083-0.616,0.159-1.235,0.233-1.854c0.055-0.466,0.11-0.927,0.158-1.394  c0.068-0.634,0.128-1.267,0.186-1.902c0.042-0.456,0.084-0.911,0.122-1.369c0.052-0.663,0.096-1.326,0.138-1.994  c0.028-0.431,0.059-0.863,0.082-1.295c0.039-0.738,0.066-1.476,0.092-2.216c0.013-0.366,0.032-0.73,0.042-1.097  c0.029-1.106,0.046-2.217,0.046-3.33c0-11.664-1.625-22.95-4.662-33.638C312.814,133.987,296.86,111.326,275.57,95.404z"/>
<path style="fill:#EF8229;" d="M294.796,190.677c-0.009-0.265-0.019-0.528-0.029-0.793c-0.09-2.115-0.25-4.21-0.478-6.287  c-0.028-0.256-0.058-0.513-0.089-0.77c-0.245-2.075-0.559-4.127-0.94-6.156c-0.045-0.247-0.094-0.496-0.142-0.74  c-0.396-2.028-0.859-4.029-1.387-6.006c-0.063-0.24-0.127-0.477-0.193-0.713c-0.543-1.975-1.148-3.922-1.816-5.841  c-0.079-0.228-0.159-0.455-0.24-0.682c-0.684-1.915-1.426-3.8-2.23-5.655c-0.094-0.217-0.188-0.432-0.285-0.651  c-0.817-1.847-1.692-3.663-2.623-5.446c-0.11-0.209-0.218-0.416-0.33-0.625c-0.944-1.773-1.944-3.511-2.998-5.214  c-0.124-0.2-0.25-0.404-0.378-0.606c-4.464-7.092-9.858-13.536-16.016-19.161l-0.013-0.013c-0.022-0.019-0.044-0.04-0.067-0.059  c-0.25-0.229-0.506-0.453-0.758-0.678c-0.284-0.253-0.566-0.509-0.853-0.757c-0.265-0.229-0.534-0.456-0.801-0.683  c-0.283-0.24-0.563-0.481-0.849-0.719c-0.272-0.227-0.55-0.447-0.825-0.672c-0.285-0.23-0.567-0.46-0.853-0.688  c-0.283-0.223-0.566-0.441-0.851-0.658c-0.287-0.223-0.573-0.444-0.864-0.663c-0.289-0.219-0.579-0.431-0.869-0.646  c-0.29-0.213-0.582-0.426-0.874-0.638c-0.294-0.211-0.591-0.42-0.886-0.627c-0.296-0.208-0.594-0.415-0.891-0.616  c-0.298-0.204-0.597-0.407-0.895-0.606c-0.304-0.202-0.609-0.402-0.915-0.601c-0.3-0.197-0.602-0.392-0.906-0.583  c-0.309-0.196-0.62-0.387-0.93-0.58c-0.305-0.189-0.61-0.376-0.917-0.56c-0.317-0.189-0.636-0.376-0.954-0.563  c-0.307-0.18-0.612-0.359-0.92-0.536c-0.326-0.184-0.652-0.365-0.98-0.546c-0.308-0.171-0.615-0.342-0.926-0.511  c-0.333-0.18-0.669-0.355-1.005-0.529c-0.308-0.161-0.615-0.324-0.925-0.482c-0.347-0.177-0.699-0.349-1.051-0.521  c-0.3-0.151-0.602-0.3-0.907-0.446c-0.375-0.18-0.754-0.353-1.133-0.529c-0.284-0.132-0.564-0.266-0.849-0.394  c-0.477-0.214-0.957-0.422-1.438-0.628c-0.189-0.083-0.379-0.168-0.569-0.248c-0.665-0.283-1.335-0.555-2.009-0.821  c-0.259-0.103-0.522-0.2-0.783-0.299c-0.425-0.165-0.849-0.33-1.278-0.487c-0.293-0.106-0.589-0.209-0.883-0.314  c-0.398-0.142-0.795-0.285-1.197-0.422c-0.31-0.105-0.625-0.205-0.937-0.309c-0.388-0.127-0.777-0.256-1.167-0.38  c-0.322-0.101-0.644-0.196-0.967-0.293c-0.385-0.116-0.771-0.234-1.158-0.344c-0.329-0.095-0.658-0.186-0.99-0.276  c-0.385-0.109-0.772-0.213-1.16-0.314c-0.335-0.087-0.669-0.171-1.005-0.255c-0.388-0.097-0.777-0.194-1.165-0.285  c-0.338-0.08-0.676-0.157-1.013-0.233c-0.393-0.086-0.785-0.173-1.18-0.256c-0.339-0.07-0.68-0.14-1.021-0.208  c-0.396-0.079-0.792-0.155-1.189-0.227c-0.342-0.066-0.683-0.128-1.027-0.187c-0.401-0.068-0.805-0.134-1.208-0.2  c-0.34-0.054-0.682-0.109-1.024-0.159c-0.411-0.06-0.822-0.116-1.235-0.173c-0.338-0.045-0.676-0.09-1.014-0.132  c-0.421-0.053-0.84-0.099-1.262-0.143c-0.338-0.038-0.672-0.076-1.01-0.111c-0.429-0.043-0.863-0.076-1.294-0.114  c-0.33-0.027-0.657-0.059-0.989-0.082c-0.455-0.035-0.911-0.062-1.366-0.088c-0.311-0.017-0.62-0.04-0.931-0.056  c-0.508-0.023-1.018-0.041-1.527-0.057c-0.261-0.009-0.522-0.023-0.784-0.027c-0.769-0.019-1.539-0.029-2.312-0.029h-0.014l0,0l0,0  c-0.005,0-0.009,0-0.009,0c-0.779,0-1.548,0.01-2.316,0.029c-0.262,0.005-0.523,0.019-0.785,0.027  c-0.51,0.016-1.02,0.033-1.527,0.057c-0.312,0.016-0.621,0.039-0.93,0.056c-0.456,0.026-0.913,0.053-1.367,0.088  c-0.33,0.023-0.658,0.055-0.989,0.082c-0.431,0.038-0.864,0.071-1.294,0.114c-0.338,0.033-0.673,0.072-1.01,0.111  c-0.422,0.044-0.841,0.09-1.261,0.143c-0.34,0.042-0.678,0.087-1.015,0.132c-0.413,0.057-0.824,0.114-1.233,0.173  c-0.343,0.052-0.685,0.106-1.025,0.159c-0.403,0.066-0.807,0.131-1.208,0.2c-0.343,0.059-0.685,0.122-1.026,0.187  c-0.398,0.072-0.794,0.148-1.19,0.227c-0.34,0.068-0.682,0.138-1.021,0.208c-0.394,0.083-0.786,0.17-1.179,0.256  c-0.339,0.076-0.677,0.153-1.013,0.233c-0.389,0.091-0.779,0.188-1.166,0.285c-0.336,0.084-0.67,0.168-1.004,0.255  c-0.388,0.101-0.776,0.205-1.16,0.314c-0.331,0.09-0.662,0.182-0.991,0.276c-0.386,0.111-0.773,0.228-1.157,0.344  c-0.323,0.098-0.646,0.193-0.967,0.293c-0.39,0.123-0.78,0.252-1.167,0.38c-0.313,0.103-0.627,0.203-0.938,0.309  c-0.401,0.138-0.799,0.281-1.197,0.422c-0.294,0.105-0.591,0.208-0.883,0.314c-0.428,0.157-0.853,0.323-1.278,0.487  c-0.26,0.1-0.523,0.197-0.784,0.299c-0.673,0.266-1.342,0.538-2.008,0.821c-0.191,0.081-0.38,0.166-0.57,0.248  c-0.48,0.207-0.961,0.414-1.437,0.628c-0.285,0.128-0.565,0.261-0.848,0.394c-0.379,0.176-0.757,0.35-1.135,0.529  c-0.303,0.146-0.606,0.297-0.909,0.446c-0.35,0.172-0.699,0.343-1.047,0.521c-0.311,0.157-0.618,0.322-0.928,0.483  c-0.335,0.175-0.669,0.35-1.003,0.528c-0.311,0.168-0.618,0.339-0.926,0.511c-0.328,0.182-0.654,0.362-0.98,0.546  c-0.308,0.176-0.613,0.356-0.92,0.536c-0.318,0.187-0.637,0.374-0.953,0.563c-0.308,0.185-0.612,0.372-0.919,0.56  c-0.31,0.193-0.621,0.384-0.929,0.58c-0.303,0.191-0.606,0.386-0.907,0.583c-0.305,0.199-0.61,0.399-0.914,0.601  c-0.299,0.2-0.598,0.401-0.896,0.606c-0.297,0.202-0.595,0.409-0.891,0.616c-0.296,0.208-0.593,0.416-0.886,0.627  c-0.291,0.212-0.583,0.425-0.874,0.638c-0.29,0.214-0.581,0.428-0.87,0.649c-0.288,0.217-0.574,0.438-0.861,0.657  c-0.285,0.221-0.57,0.439-0.852,0.663c-0.287,0.228-0.57,0.458-0.853,0.688c-0.275,0.225-0.553,0.445-0.825,0.672  c-0.286,0.238-0.566,0.479-0.849,0.719c-0.267,0.227-0.536,0.454-0.8,0.683c-0.288,0.248-0.57,0.504-0.854,0.757  c-0.253,0.225-0.51,0.449-0.758,0.678c-0.023,0.019-0.045,0.039-0.067,0.059l-0.012,0.013c-6.158,5.626-11.551,12.071-16.016,19.161  c-0.128,0.2-0.254,0.404-0.379,0.606c-1.053,1.703-2.052,3.44-2.998,5.214c-0.111,0.209-0.221,0.416-0.33,0.625  c-0.931,1.783-1.807,3.6-2.623,5.446c-0.096,0.218-0.19,0.433-0.285,0.651c-0.802,1.854-1.547,3.74-2.229,5.655  c-0.081,0.227-0.16,0.454-0.241,0.682c-0.667,1.918-1.274,3.866-1.816,5.841c-0.065,0.237-0.129,0.473-0.193,0.713  c-0.527,1.977-0.99,3.979-1.386,6.006c-0.048,0.245-0.096,0.493-0.143,0.74c-0.381,2.029-0.694,4.081-0.939,6.156  c-0.031,0.256-0.06,0.514-0.088,0.77c-0.229,2.077-0.388,4.172-0.478,6.287c-0.012,0.265-0.023,0.528-0.03,0.793  c-0.035,1.058-0.061,2.122-0.061,3.191c0,3.204,0.162,6.368,0.479,9.488c0.159,1.56,0.356,3.107,0.591,4.645  c0.588,3.839,1.41,7.601,2.451,11.272c11.048,38.903,46.838,67.398,89.283,67.398l0,0l0,0c42.444,0,78.234-28.495,89.283-67.398  c1.042-3.67,1.864-7.433,2.451-11.272c0.233-1.538,0.43-3.085,0.591-4.645c0.316-3.12,0.479-6.285,0.479-9.488  C294.857,192.798,294.831,191.735,294.796,190.677z"/>
<path style="fill:#F29F26;" d="M294.766,189.883c-0.09-2.115-0.25-4.21-0.478-6.287c-0.028-0.256-0.058-0.513-0.089-0.77  c-0.245-2.075-0.559-4.127-0.94-6.156c-0.045-0.247-0.094-0.496-0.142-0.74c-0.396-2.028-0.859-4.029-1.386-6.006  c-0.063-0.24-0.127-0.477-0.193-0.713c-0.543-1.975-1.148-3.922-1.816-5.841c-0.079-0.228-0.159-0.455-0.24-0.682  c-0.684-1.915-1.426-3.8-2.23-5.655c-0.094-0.217-0.188-0.432-0.285-0.651c-0.818-1.847-1.692-3.663-2.623-5.446  c-0.11-0.209-0.218-0.416-0.33-0.625c-0.944-1.773-1.944-3.511-2.998-5.214c-0.124-0.2-0.25-0.404-0.378-0.606  c-4.464-7.092-9.858-13.536-16.016-19.161l-0.013-0.013c-0.022-0.019-0.044-0.04-0.067-0.059c-0.25-0.229-0.506-0.453-0.758-0.678  c-0.284-0.253-0.566-0.509-0.853-0.757c-0.265-0.229-0.534-0.456-0.801-0.683c-0.283-0.24-0.563-0.481-0.849-0.719  c-0.272-0.227-0.55-0.447-0.825-0.672c-0.285-0.23-0.567-0.46-0.853-0.688c-0.283-0.223-0.566-0.441-0.851-0.658  c-0.287-0.223-0.573-0.444-0.864-0.663c-0.289-0.219-0.579-0.431-0.869-0.646c-0.29-0.213-0.582-0.426-0.874-0.638  c-0.294-0.211-0.591-0.42-0.886-0.627c-0.296-0.208-0.594-0.415-0.891-0.616c-0.298-0.204-0.597-0.407-0.895-0.606  c-0.304-0.202-0.609-0.402-0.915-0.601c-0.3-0.197-0.602-0.392-0.906-0.583c-0.309-0.196-0.62-0.387-0.93-0.58  c-0.305-0.189-0.61-0.376-0.918-0.56c-0.317-0.189-0.636-0.376-0.954-0.563c-0.307-0.18-0.612-0.359-0.92-0.536  c-0.326-0.184-0.652-0.365-0.98-0.546c-0.308-0.171-0.615-0.342-0.926-0.511c-0.333-0.18-0.669-0.355-1.005-0.529  c-0.308-0.161-0.615-0.324-0.925-0.482c-0.347-0.177-0.699-0.349-1.051-0.521c-0.3-0.151-0.602-0.3-0.907-0.446  c-0.375-0.18-0.754-0.353-1.133-0.529c-0.284-0.132-0.564-0.266-0.849-0.394c-0.477-0.214-0.957-0.422-1.438-0.628  c-0.189-0.083-0.379-0.168-0.569-0.248c-0.665-0.283-1.335-0.555-2.009-0.821c-0.259-0.103-0.522-0.2-0.783-0.299  c-0.425-0.165-0.849-0.33-1.278-0.487c-0.293-0.106-0.589-0.209-0.883-0.314c-0.398-0.142-0.795-0.285-1.197-0.422  c-0.31-0.105-0.625-0.205-0.937-0.309c-0.388-0.127-0.777-0.256-1.167-0.38c-0.322-0.101-0.644-0.196-0.967-0.293  c-0.385-0.116-0.771-0.234-1.158-0.344c-0.329-0.095-0.658-0.186-0.99-0.276c-0.385-0.109-0.772-0.213-1.16-0.314  c-0.335-0.087-0.669-0.171-1.005-0.255c-0.388-0.097-0.777-0.194-1.165-0.285c-0.338-0.08-0.675-0.157-1.013-0.233  c-0.393-0.086-0.785-0.173-1.18-0.256c-0.339-0.07-0.68-0.14-1.021-0.208c-0.396-0.079-0.792-0.155-1.189-0.227  c-0.342-0.066-0.683-0.128-1.027-0.187c-0.401-0.068-0.805-0.134-1.208-0.2c-0.34-0.054-0.682-0.109-1.024-0.159  c-0.411-0.06-0.822-0.116-1.235-0.173c-0.338-0.045-0.676-0.09-1.014-0.132c-0.421-0.053-0.84-0.099-1.262-0.143  c-0.338-0.038-0.672-0.076-1.01-0.111c-0.429-0.043-0.863-0.076-1.294-0.114c-0.33-0.027-0.657-0.059-0.989-0.082  c-0.455-0.035-0.911-0.062-1.366-0.088c-0.311-0.017-0.62-0.04-0.931-0.056c-0.508-0.023-1.018-0.041-1.527-0.057  c-0.261-0.009-0.522-0.023-0.784-0.027c-0.769-0.019-1.539-0.029-2.312-0.029h-0.014l0,0l0,0c-0.005,0-0.009,0-0.009,0  c-0.779,0-1.548,0.01-2.316,0.029c-0.262,0.005-0.523,0.019-0.785,0.027c-0.51,0.016-1.02,0.033-1.527,0.057  c-0.312,0.016-0.621,0.039-0.93,0.056c-0.456,0.026-0.913,0.053-1.367,0.088c-0.33,0.023-0.658,0.055-0.989,0.082  c-0.431,0.038-0.864,0.071-1.294,0.114c-0.338,0.033-0.673,0.072-1.01,0.111c-0.422,0.044-0.841,0.09-1.261,0.143  c-0.34,0.042-0.678,0.087-1.015,0.132c-0.413,0.057-0.824,0.114-1.233,0.173c-0.343,0.052-0.685,0.106-1.025,0.159  c-0.403,0.066-0.807,0.131-1.208,0.2c-0.343,0.059-0.685,0.122-1.026,0.187c-0.398,0.072-0.794,0.148-1.19,0.227  c-0.34,0.068-0.682,0.138-1.021,0.208c-0.394,0.083-0.786,0.17-1.179,0.256c-0.339,0.076-0.677,0.153-1.013,0.233  c-0.389,0.091-0.779,0.188-1.166,0.285c-0.336,0.084-0.67,0.168-1.004,0.255c-0.388,0.101-0.776,0.205-1.16,0.314  c-0.331,0.09-0.662,0.182-0.991,0.276c-0.386,0.111-0.773,0.228-1.157,0.344c-0.323,0.098-0.646,0.193-0.967,0.293  c-0.39,0.123-0.78,0.252-1.167,0.38c-0.313,0.103-0.627,0.203-0.938,0.309c-0.401,0.138-0.799,0.281-1.197,0.422  c-0.294,0.105-0.591,0.208-0.883,0.314c-0.428,0.157-0.853,0.323-1.278,0.487c-0.26,0.1-0.523,0.197-0.784,0.299  c-0.673,0.266-1.342,0.538-2.008,0.821c-0.191,0.081-0.38,0.166-0.57,0.248c-0.48,0.207-0.961,0.414-1.437,0.628  c-0.285,0.128-0.565,0.261-0.848,0.394c-0.379,0.176-0.757,0.35-1.135,0.529c-0.303,0.146-0.606,0.297-0.909,0.446  c-0.35,0.172-0.699,0.343-1.047,0.521c-0.311,0.157-0.618,0.322-0.928,0.483c-0.335,0.175-0.669,0.35-1.003,0.528  c-0.311,0.168-0.618,0.339-0.926,0.511c-0.328,0.182-0.654,0.362-0.98,0.546c-0.308,0.176-0.613,0.356-0.92,0.536  c-0.318,0.187-0.637,0.374-0.953,0.563c-0.308,0.185-0.612,0.372-0.919,0.56c-0.31,0.193-0.621,0.384-0.929,0.58  c-0.303,0.191-0.606,0.386-0.907,0.583c-0.305,0.199-0.61,0.399-0.914,0.601c-0.299,0.2-0.598,0.401-0.896,0.606  c-0.297,0.202-0.595,0.409-0.891,0.616c-0.296,0.208-0.593,0.416-0.886,0.627c-0.066,0.049-0.13,0.096-0.197,0.145  c-7.201,16.503-11.205,34.725-11.205,53.883c0,48.063,25.147,90.249,62.996,114.133c0.831,0.021,1.662,0.053,2.5,0.053l0,0l0,0  c42.444,0,78.234-28.495,89.283-67.398c1.042-3.67,1.864-7.433,2.451-11.272c0.233-1.538,0.43-3.085,0.591-4.645  c0.316-3.12,0.479-6.285,0.479-9.488c0-1.069-0.025-2.132-0.061-3.191C294.787,190.411,294.776,190.148,294.766,189.883z"/>
<g>
	<path style="fill:#9FDEF7;" d="M468.497,374.008c-1.8,0-3.613-0.56-5.163-1.725c-3.799-2.855-4.565-8.249-1.711-12.048   l15.078-20.07c2.855-3.799,8.248-4.567,12.048-1.712c3.8,2.855,4.566,8.249,1.712,12.048l-15.078,20.07   C473.693,372.822,471.111,374.008,468.497,374.008z"/>
	<path style="fill:#9FDEF7;" d="M433.94,420.006c-1.8,0-3.613-0.561-5.162-1.725c-3.8-2.855-4.566-8.249-1.712-12.048l15.078-20.07   c2.855-3.799,8.248-4.566,12.048-1.712c3.8,2.855,4.566,8.249,1.712,12.048l-15.078,20.07   C439.136,418.819,436.554,420.006,433.94,420.006z"/>
	<path style="fill:#9FDEF7;" d="M399.384,466.002c-1.8,0-3.613-0.56-5.162-1.724c-3.8-2.855-4.566-8.249-1.712-12.048l15.078-20.071   c2.855-3.799,8.25-4.567,12.048-1.712c3.8,2.855,4.566,8.249,1.712,12.048l-15.078,20.071   C404.579,464.816,401.997,466.002,399.384,466.002z"/>
	<path style="fill:#9FDEF7;" d="M364.825,512c-1.8,0-3.613-0.561-5.162-1.725c-3.8-2.854-4.566-8.248-1.712-12.048l15.079-20.071   c2.855-3.797,8.25-4.565,12.048-1.71c3.8,2.854,4.566,8.248,1.712,12.048l-15.08,20.071C370.02,510.814,367.439,512,364.825,512z"/>
	<path style="fill:#9FDEF7;" d="M400.764,374.008c-1.8,0-3.613-0.56-5.162-1.725c-3.8-2.855-4.566-8.249-1.712-12.048l15.078-20.07   c2.855-3.799,8.248-4.567,12.048-1.712c3.8,2.855,4.566,8.249,1.712,12.048l-15.078,20.07   C405.959,372.822,403.378,374.008,400.764,374.008z"/>
	<path style="fill:#9FDEF7;" d="M366.207,420.006c-1.8,0-3.613-0.561-5.162-1.725c-3.8-2.855-4.566-8.249-1.712-12.048l15.077-20.07   c2.855-3.799,8.248-4.566,12.048-1.712c3.8,2.855,4.566,8.249,1.712,12.048l-15.078,20.07   C371.403,418.819,368.821,420.006,366.207,420.006z"/>
	<path style="fill:#9FDEF7;" d="M331.649,466.002c-1.8,0-3.613-0.561-5.162-1.725c-3.8-2.854-4.566-8.248-1.712-12.048l15.08-20.071   c2.855-3.798,8.25-4.565,12.048-1.71c3.8,2.854,4.566,8.248,1.712,12.048l-15.08,20.071   C336.844,464.816,334.262,466.002,331.649,466.002z"/>
	<path style="fill:#9FDEF7;" d="M297.092,512c-1.8,0-3.613-0.561-5.162-1.725c-3.8-2.854-4.566-8.248-1.712-12.048l15.08-20.071   c2.855-3.797,8.25-4.565,12.048-1.71c3.8,2.854,4.566,8.248,1.712,12.048l-15.08,20.071C302.288,510.814,299.705,512,297.092,512z"/>
	<path style="fill:#9FDEF7;" d="M263.916,466.002c-1.8,0-3.613-0.561-5.162-1.725c-3.8-2.854-4.566-8.248-1.712-12.048   l15.079-20.071c2.855-3.798,8.25-4.565,12.048-1.71c3.8,2.854,4.566,8.248,1.712,12.048l-15.08,20.071   C269.111,464.816,266.529,466.002,263.916,466.002z"/>
	<path style="fill:#9FDEF7;" d="M229.359,512c-1.8,0-3.613-0.561-5.162-1.724c-3.8-2.855-4.566-8.249-1.712-12.048l15.078-20.071   c2.855-3.799,8.249-4.566,12.048-1.712c3.8,2.855,4.566,8.249,1.712,12.048l-15.078,20.071   C234.554,510.814,231.973,512,229.359,512z"/>
	<path style="fill:#9FDEF7;" d="M196.182,466.002c-1.8,0-3.613-0.561-5.163-1.725c-3.799-2.854-4.565-8.248-1.711-12.048   l15.08-20.071c2.855-3.798,8.25-4.565,12.048-1.71c3.8,2.854,4.566,8.248,1.712,12.048l-15.08,20.071   C201.377,464.816,198.796,466.002,196.182,466.002z"/>
	<path style="fill:#9FDEF7;" d="M161.625,512c-1.8,0-3.613-0.561-5.162-1.724c-3.8-2.855-4.566-8.249-1.712-12.048l15.078-20.071   c2.855-3.799,8.25-4.566,12.048-1.712c3.8,2.855,4.566,8.249,1.712,12.048l-15.078,20.071C166.821,510.814,164.239,512,161.625,512   z"/>
	<path style="fill:#9FDEF7;" d="M128.45,466.002c-1.8,0-3.613-0.561-5.162-1.725c-3.8-2.854-4.566-8.248-1.712-12.048l15.08-20.071   c2.855-3.798,8.249-4.565,12.048-1.71c3.8,2.854,4.566,8.248,1.711,12.048l-15.079,20.071   C133.645,464.816,131.062,466.002,128.45,466.002z"/>
	<path style="fill:#9FDEF7;" d="M93.892,512c-1.8,0-3.613-0.561-5.162-1.724c-3.8-2.855-4.566-8.249-1.712-12.048l15.078-20.071   c2.855-3.799,8.25-4.566,12.048-1.712c3.8,2.855,4.566,8.249,1.712,12.048l-15.078,20.071C99.088,510.814,96.506,512,93.892,512z"/>
	<path style="fill:#9FDEF7;" d="M60.716,466.002c-1.8,0-3.613-0.56-5.162-1.724c-3.8-2.855-4.566-8.249-1.712-12.048l15.078-20.071   c2.855-3.799,8.249-4.567,12.048-1.712c3.8,2.855,4.566,8.249,1.712,12.048l-15.078,20.071   C65.911,464.816,63.329,466.002,60.716,466.002z"/>
	<path style="fill:#9FDEF7;" d="M26.157,512c-1.8,0-3.613-0.561-5.162-1.725c-3.8-2.854-4.566-8.248-1.712-12.048l15.08-20.071   c2.855-3.797,8.25-4.565,12.048-1.71c3.8,2.854,4.566,8.248,1.712,12.048l-15.08,20.071C31.352,510.814,28.771,512,26.157,512z"/>
</g>
<path style="fill:#83D4ED;" d="M450.079,208.161c-4.584,0-9.033,0.588-13.278,1.687c-7.6-10.975-20.276-18.166-34.636-18.166  c-4.666,0-9.147,0.771-13.342,2.171c-7.069-31.29-35.021-54.664-68.45-54.664c-38.767,0-70.193,31.427-70.193,70.196  c0,0.798,0.031,1.591,0.061,2.38c-4.935-1.547-10.183-2.38-15.628-2.38c-23.75,0-43.781,15.87-50.099,37.581  c10.687-6.59,23.278-10.395,36.759-10.395c38.767,0,70.196,31.427,70.196,70.193c0,0.8-0.033,1.592-0.061,2.383  c4.933-1.547,10.181-2.383,15.624-2.383c9.509,0,18.412,2.555,26.09,6.996h85.683h31.275c29.161,0,52.801-23.64,52.801-52.801  C502.88,231.8,479.241,208.161,450.079,208.161z"/>
<path style="fill:#D7EDF9;" d="M307.031,305.689c-5.444,0-10.692,0.836-15.624,2.383c0.027-0.79,0.061-1.582,0.061-2.383  c0-38.767-31.429-70.193-70.196-70.193c-33.428,0-61.379,23.372-68.45,54.661c-4.193-1.399-8.676-2.168-13.342-2.168  c-14.361,0-27.036,7.192-34.636,18.164c-4.243-1.097-8.691-1.686-13.28-1.686c-29.159,0-52.798,23.639-52.798,52.798  s23.639,52.801,52.798,52.801h215.466c28.824,0,52.19-23.368,52.19-52.19C359.22,329.055,335.855,305.689,307.031,305.689z"/>
<path style="fill:#E4F2F9;" d="M307.031,305.689c-5.444,0-10.692,0.836-15.624,2.383c0.027-0.79,0.061-1.582,0.061-2.383  c0-38.767-31.429-70.193-70.196-70.193c-33.428,0-61.379,23.372-68.45,54.661c-4.193-1.399-8.676-2.168-13.342-2.168  c-4.161,0-8.174,0.621-11.969,1.745c22.294,58.93,72.176,104.3,133.894,120.333h45.624c28.824,0,52.19-23.368,52.19-52.19  C359.22,329.055,335.855,305.689,307.031,305.689z"/>
<path style="fill:#9FDEF7;" d="M450.079,208.161c-4.584,0-9.033,0.588-13.278,1.687c-7.6-10.975-20.276-18.166-34.636-18.166  c-4.666,0-9.147,0.771-13.342,2.171c-7.069-31.29-35.021-54.664-68.45-54.664c-17.153,0-32.864,6.161-45.055,16.381  c0,0.025-0.002,0.049-0.002,0.074c0,75.651,51.3,139.311,121.008,158.117h22.479h31.275c29.161,0,52.801-23.64,52.801-52.801  C502.88,231.8,479.241,208.161,450.079,208.161z"/>
<g>
</g>
<g>
</g>
<g>
</g>
<g>
</g>
<g>
</g>
<g>
</g>
<g>
</g>
<g>
</g>
<g>
</g>
<g>
</g>
<g>
</g>
<g>
</g>
<g>
</g>
<g>
</g>
<g>
</g>
</svg>
