<?xml version="1.0" encoding="iso-8859-1"?>
<!-- Generator: Adobe Illustrator 19.0.0, SVG Export Plug-In . SVG Version: 6.00 Build 0)  -->
<svg xmlns="http://www.w3.org/2000/svg" xmlns:xlink="http://www.w3.org/1999/xlink" version="1.1" id="Layer_1" x="0px" y="0px" viewBox="0 0 512 512" style="enable-background:new 0 0 512 512;" xml:space="preserve">
<g>
	<circle style="fill:#F29F26;" cx="133.717" cy="239.792" r="18.226"/>
	<path style="fill:#F29F26;" d="M336.886,104.633c-18.718,0-33.945-15.228-33.945-33.946c0-1.491-1.208-2.698-2.698-2.698   c-1.491,0-2.698,1.208-2.698,2.698c0,18.718-15.228,33.946-33.947,33.946c-1.491,0-2.698,1.208-2.698,2.698   c0,1.491,1.208,2.698,2.698,2.698c18.719,0,33.947,15.228,33.947,33.946c0,1.491,1.208,2.698,2.698,2.698   c1.491,0,2.698-1.208,2.698-2.698c0-18.718,15.227-33.946,33.945-33.946c1.491,0,2.698-1.208,2.698-2.698   C339.584,105.841,338.376,104.633,336.886,104.633z"/>
</g>
<path style="fill:#EF8229;" d="M295.455,107.332c6.073-4.823,10.474-11.666,12.14-19.518c-2.953-5.032-4.655-10.882-4.655-17.126  c0-1.491-1.208-2.698-2.698-2.698c-1.491,0-2.698,1.208-2.698,2.698c0,12.79-7.114,23.948-17.59,29.733  c-0.605,0.335-1.223,0.652-1.85,0.95c-0.005,0.002-0.01,0.004-0.014,0.006c-0.577,0.274-1.166,0.528-1.76,0.77  c-0.118,0.049-0.236,0.094-0.355,0.14c-0.504,0.198-1.013,0.384-1.529,0.559c-0.126,0.042-0.253,0.087-0.382,0.128  c-0.614,0.201-1.236,0.386-1.866,0.553c-0.009,0.002-0.017,0.004-0.025,0.006c-0.648,0.169-1.303,0.317-1.964,0.449  c-0.144,0.028-0.289,0.051-0.432,0.078c-0.502,0.093-1.007,0.175-1.515,0.245c-0.205,0.029-0.413,0.055-0.62,0.08  c-0.474,0.056-0.951,0.101-1.431,0.138c-0.199,0.016-0.398,0.033-0.599,0.045c-0.667,0.04-1.337,0.066-2.014,0.066  c-1.491,0-2.698,1.208-2.698,2.698s1.208,2.698,2.698,2.698c0.677,0,1.347,0.025,2.014,0.066c0.201,0.012,0.399,0.029,0.6,0.045  c0.479,0.037,0.956,0.081,1.428,0.138c0.208,0.025,0.417,0.051,0.624,0.08c0.508,0.069,1.012,0.152,1.512,0.245  c0.145,0.027,0.289,0.05,0.433,0.078c0.662,0.132,1.318,0.28,1.964,0.449c0.009,0.002,0.017,0.004,0.025,0.006  c0.63,0.165,1.251,0.352,1.866,0.553c0.128,0.042,0.255,0.086,0.382,0.13c0.515,0.174,1.024,0.359,1.528,0.558  c0.119,0.047,0.239,0.093,0.356,0.141c0.595,0.242,1.183,0.496,1.76,0.77c0.004,0.002,0.009,0.004,0.014,0.006  c0.627,0.298,1.244,0.614,1.85,0.95c10.476,5.785,17.59,16.943,17.59,29.733c0,1.491,1.208,2.698,2.698,2.698  c1.491,0,2.698-1.208,2.698-2.698c0-6.244,1.701-12.094,4.655-17.126C305.929,118.998,301.528,112.155,295.455,107.332z"/>
<g>
	<path style="fill:#5ABCE2;" d="M503.365,306.114H8.635c-4.768,0-8.635-3.866-8.635-8.635s3.866-8.635,8.635-8.635h494.731   c4.768,0,8.635,3.866,8.635,8.635S508.134,306.114,503.365,306.114z"/>
	<path style="fill:#5ABCE2;" d="M473.043,357.137h-29.117c-4.768,0-8.635-3.866-8.635-8.635s3.866-8.635,8.635-8.635h29.117   c4.768,0,8.635,3.866,8.635,8.635S477.811,357.137,473.043,357.137z"/>
	<path style="fill:#5ABCE2;" d="M415.863,357.137H38.957c-4.768,0-8.635-3.866-8.635-8.635s3.866-8.635,8.635-8.635h376.906   c4.768,0,8.635,3.866,8.635,8.635S420.631,357.137,415.863,357.137z"/>
	<path style="fill:#5ABCE2;" d="M432.658,408.156H192.439c-4.768,0-8.635-3.866-8.635-8.635s3.866-8.635,8.635-8.635h240.219   c4.768,0,8.635,3.866,8.635,8.635S437.427,408.156,432.658,408.156z"/>
	<path style="fill:#5ABCE2;" d="M163.3,408.156H79.342c-4.768,0-8.635-3.866-8.635-8.635s3.866-8.635,8.635-8.635H163.3   c4.768,0,8.635,3.866,8.635,8.635C171.935,404.29,168.068,408.156,163.3,408.156z"/>
	<path style="fill:#5ABCE2;" d="M389.117,459.179H291.74c-4.768,0-8.635-3.866-8.635-8.635s3.866-8.635,8.635-8.635h97.377   c4.768,0,8.635,3.866,8.635,8.635S393.886,459.179,389.117,459.179z"/>
	<path style="fill:#5ABCE2;" d="M261.516,459.179H122.884c-4.768,0-8.635-3.866-8.635-8.635s3.866-8.635,8.635-8.635h138.631   c4.768,0,8.635,3.866,8.635,8.635S266.284,459.179,261.516,459.179z"/>
</g>
<g>
	<path style="fill:#EDE21B;" d="M359.087,158.15c0,5.981-4.848,10.827-10.829,10.827c-5.982,0-10.829-4.846-10.829-10.827   c0-5.983,4.847-10.829,10.829-10.829C354.239,147.322,359.087,152.168,359.087,158.15z"/>
	<path style="fill:#EDE21B;" d="M374.983,192.178c-2.094-1.67-5.054-1.701-7.181-0.078c-14.402,11.001-31.294,17.4-49.215,18.722   c-0.046,0.005-0.086,0.011-0.133,0.016c-45.304,4.688-72.301-26.865-72.301-26.865h0.001c-16.82-16.79-27.246-39.983-27.246-65.57   c0-20.509,6.565-39.943,18.988-56.207c1.624-2.127,1.594-5.089-0.078-7.182c-1.67-2.092-4.551-2.78-6.985-1.663   c-18.915,8.65-34.954,22.442-46.381,39.882c-11.731,17.902-17.931,38.725-17.931,60.218c0,60.667,49.357,110.025,110.024,110.025   c21.494,0,42.317-6.2,60.22-17.931c17.441-11.428,31.231-27.465,39.884-46.382C377.762,196.73,377.074,193.848,374.983,192.178z"/>
</g>
<path style="fill:#EAC71C;" d="M351.677,228.969C333.773,240.7,312.95,246.9,291.456,246.9  c-60.665,0-110.024-49.357-110.024-110.025c0-21.494,6.2-42.317,17.931-60.218c1.055-1.607,2.159-3.172,3.29-4.717  c-6.902,6.261-13.027,13.399-18.201,21.294c-11.731,17.902-17.931,38.725-17.931,60.218c0,60.667,49.357,110.025,110.024,110.025  c21.494,0,42.317-6.2,60.22-17.931c11.184-7.327,20.857-16.561,28.647-27.224C361.137,222.204,356.555,225.772,351.677,228.969z"/>
<g>
</g>
<g>
</g>
<g>
</g>
<g>
</g>
<g>
</g>
<g>
</g>
<g>
</g>
<g>
</g>
<g>
</g>
<g>
</g>
<g>
</g>
<g>
</g>
<g>
</g>
<g>
</g>
<g>
</g>
</svg>
